<svg xmlns="http://www.w3.org/2000/svg">
<defs>
<font id="Recoleta-RegularDEMO" horiz-adv-x="1330" >
  <font-face 
    font-family="Recoleta DEMO"
    font-weight="400"
    font-stretch="normal"
    units-per-em="1000"
    panose-1="0 0 5 0 0 0 0 0 0 0"
    ascent="800"
    descent="-200"
    x-height="480"
    cap-height="710"
    bbox="-1230 -228 1230 797"
    underline-thickness="50"
    underline-position="-100"
    stemh="46"
    stemv="93"
    unicode-range="U+0020-FB02"
  />
<missing-glyph 
d="M100 -50v668h191v-668h-191zM199 429c41 0 61 31 61 63c0 36 -23 63 -61 63c-42 0 -63 -31 -63 -63c0 -36 24 -63 63 -63zM820 452c-24 0 -42 17 -42 40c0 22 18 40 42 40c23 0 41 -18 41 -40c0 -23 -18 -40 -41 -40zM199 467c-18 0 -30 9 -30 25s12 25 30 25
c17 0 28 -9 28 -25s-11 -25 -28 -25zM380 283c0 63 1 130 4 204h68c3 -67 5 -136 6 -204h-78zM721 279c-37 0 -56 13 -55 47l1 49h-17v49l60 48h22l2 -33h118c3 -52 4 -104 4 -156h-77c0 18 0 62 1 92h-41l3 -28c0 -8 5 -12 11 -12c3 0 7 0 11 2v-48c-5 -5 -21 -10 -43 -10z
M529 280c-37 0 -60 28 -60 74c0 56 34 88 92 88c49 0 80 -23 80 -48l-1 -111h-56l-5 30c-6 -20 -25 -33 -50 -33zM871 283c1 54 2 105 5 156h56l5 -34c10 26 28 37 53 37c35 0 54 -22 55 -69l2 -90h-78l2 73c0 13 -3 19 -11 19s-13 -5 -12 -19l1 -73h-78zM1144 280
c-54 0 -86 29 -86 80s33 82 86 82c54 0 86 -31 86 -82s-32 -80 -86 -80zM258 265v35l-57 1v1l43 24v17l-43 22v1l57 3v34l-119 -8v-29l55 -31l-55 -32v-31zM554 337c11 0 18 8 18 18c0 4 -1 10 -2 15c-3 4 -9 6 -14 6c-12 0 -18 -7 -18 -20c0 -12 6 -19 16 -19zM1144 337
c11 0 18 8 18 20s-7 19 -18 19c-10 0 -17 -7 -17 -19s7 -20 17 -20zM562 54c-18 0 -34 2 -46 9v55h1c12 -6 26 -10 40 -10c39 0 37 27 37 26c0 -8 -24 -10 -32 -10c-29 0 -57 24 -57 54v17h-36l2 -29c1 -8 7 -11 12 -11c3 0 8 0 10 2h1v-48c-10 -6 -24 -10 -43 -10
c-40 0 -56 16 -55 43l1 53h-17v49l63 30h22l-1 -16h111l-2 -63c0 -14 4 -19 11 -19c8 0 13 6 12 19l-1 63h71c1 -17 3 -59 3 -80c0 -90 -30 -124 -107 -124zM683 62c0 72 1 133 3 197h58l2 -31c6 21 25 34 50 34c37 0 59 -28 59 -74c0 -54 -30 -87 -80 -87c-4 0 -11 1 -17 2

<glyph glyph-name="fi" unicode="fi" 
d="M100 -50v668h191v-668h-191zM199 429c41 0 61 31 61 63c0 36 -23 63 -61 63c-42 0 -63 -31 -63 -63c0 -36 24 -63 63 -63zM820 452c-24 0 -42 17 -42 40c0 22 18 40 42 40c23 0 41 -18 41 -40c0 -23 -18 -40 -41 -40zM199 467c-18 0 -30 9 -30 25s12 25 30 25
c17 0 28 -9 28 -25s-11 -25 -28 -25zM380 283c0 63 1 130 4 204h68c3 -67 5 -136 6 -204h-78zM721 279c-37 0 -56 13 -55 47l1 49h-17v49l60 48h22l2 -33h118c3 -52 4 -104 4 -156h-77c0 18 0 62 1 92h-41l3 -28c0 -8 5 -12 11 -12c3 0 7 0 11 2v-48c-5 -5 -21 -10 -43 -10z
M529 280c-37 0 -60 28 -60 74c0 56 34 88 92 88c49 0 80 -23 80 -48l-1 -111h-56l-5 30c-6 -20 -25 -33 -50 -33zM871 283c1 54 2 105 5 156h56l5 -34c10 26 28 37 53 37c35 0 54 -22 55 -69l2 -90h-78l2 73c0 13 -3 19 -11 19s-13 -5 -12 -19l1 -73h-78zM1144 280
c-54 0 -86 29 -86 80s33 82 86 82c54 0 86 -31 86 -82s-32 -80 -86 -80zM258 265v35l-57 1v1l43 24v17l-43 22v1l57 3v34l-119 -8v-29l55 -31l-55 -32v-31zM554 337c11 0 18 8 18 18c0 4 -1 10 -2 15c-3 4 -9 6 -14 6c-12 0 -18 -7 -18 -20c0 -12 6 -19 16 -19zM1144 337
c11 0 18 8 18 20s-7 19 -18 19c-10 0 -17 -7 -17 -19s7 -20 17 -20zM562 54c-18 0 -34 2 -46 9v55h1c12 -6 26 -10 40 -10c39 0 37 27 37 26c0 -8 -24 -10 -32 -10c-29 0 -57 24 -57 54v17h-36l2 -29c1 -8 7 -11 12 -11c3 0 8 0 10 2h1v-48c-10 -6 -24 -10 -43 -10
c-40 0 -56 16 -55 43l1 53h-17v49l63 30h22l-1 -16h111l-2 -63c0 -14 4 -19 11 -19c8 0 13 6 12 19l-1 63h71c1 -17 3 -59 3 -80c0 -90 -30 -124 -107 -124zM683 62c0 72 1 133 3 197h58l2 -31c6 21 25 34 50 34c37 0 59 -28 59 -74c0 -54 -30 -87 -80 -87c-4 0 -11 1 -17 2
l2 -41h-77zM963 100c-66 0 -98 27 -98 79c0 51 31 83 86 83c50 0 77 -27 77 -76c0 -10 -1 -16 -2 -21l-87 -4c5 -8 21 -12 42 -12c12 0 25 1 35 5v-47c-15 -5 -33 -7 -53 -7zM139 154h119v82h-29v-46h-18v42h-28v-42h-15v45h-29v-81zM934 183l38 3c1 13 -7 20 -19 20
c-13 0 -19 -8 -19 -23zM765 157c14 0 21 7 21 20c0 12 -6 19 -16 19c-11 0 -19 -8 -19 -19c0 -3 1 -9 4 -19c3 -1 8 -1 10 -1zM1050 97c-9 0 -15 6 -15 15c0 8 6 14 15 14c8 0 14 -6 14 -14c0 -9 -6 -15 -14 -15zM139 11h119v45c0 41 -21 68 -61 68c-37 0 -60 -26 -60 -65
c0 -25 2 -43 2 -48zM1050 100c6 0 11 5 11 12c0 6 -5 11 -11 11c-7 0 -12 -5 -12 -11c0 -7 5 -12 12 -12zM1043 104v15h7c4 0 7 -1 7 -5c0 -3 -2 -4 -5 -4l4 -6h-4l-2 6h-4v-6h-3zM1046 112h4c2 0 3 1 3 2c0 2 -2 2 -3 2h-4v-4zM171 47c0 4 -1 5 -1 12c0 14 8 27 28 27
c19 0 28 -9 28 -27v-12h-55z" />
    <glyph glyph-name="fl" unicode="fl" 
d="M100 -50v668h191v-668h-191zM199 429c41 0 61 31 61 63c0 36 -23 63 -61 63c-42 0 -63 -31 -63 -63c0 -36 24 -63 63 -63zM820 452c-24 0 -42 17 -42 40c0 22 18 40 42 40c23 0 41 -18 41 -40c0 -23 -18 -40 -41 -40zM199 467c-18 0 -30 9 -30 25s12 25 30 25
c17 0 28 -9 28 -25s-11 -25 -28 -25zM380 283c0 63 1 130 4 204h68c3 -67 5 -136 6 -204h-78zM721 279c-37 0 -56 13 -55 47l1 49h-17v49l60 48h22l2 -33h118c3 -52 4 -104 4 -156h-77c0 18 0 62 1 92h-41l3 -28c0 -8 5 -12 11 -12c3 0 7 0 11 2v-48c-5 -5 -21 -10 -43 -10z
M529 280c-37 0 -60 28 -60 74c0 56 34 88 92 88c49 0 80 -23 80 -48l-1 -111h-56l-5 30c-6 -20 -25 -33 -50 -33zM871 283c1 54 2 105 5 156h56l5 -34c10 26 28 37 53 37c35 0 54 -22 55 -69l2 -90h-78l2 73c0 13 -3 19 -11 19s-13 -5 -12 -19l1 -73h-78zM1144 280
c-54 0 -86 29 -86 80s33 82 86 82c54 0 86 -31 86 -82s-32 -80 -86 -80zM258 265v35l-57 1v1l43 24v17l-43 22v1l57 3v34l-119 -8v-29l55 -31l-55 -32v-31zM554 337c11 0 18 8 18 18c0 4 -1 10 -2 15c-3 4 -9 6 -14 6c-12 0 -18 -7 -18 -20c0 -12 6 -19 16 -19zM1144 337
c11 0 18 8 18 20s-7 19 -18 19c-10 0 -17 -7 -17 -19s7 -20 17 -20zM562 54c-18 0 -34 2 -46 9v55h1c12 -6 26 -10 40 -10c39 0 37 27 37 26c0 -8 -24 -10 -32 -10c-29 0 -57 24 -57 54v17h-36l2 -29c1 -8 7 -11 12 -11c3 0 8 0 10 2h1v-48c-10 -6 -24 -10 -43 -10
c-40 0 -56 16 -55 43l1 53h-17v49l63 30h22l-1 -16h111l-2 -63c0 -14 4 -19 11 -19c8 0 13 6 12 19l-1 63h71c1 -17 3 -59 3 -80c0 -90 -30 -124 -107 -124zM683 62c0 72 1 133 3 197h58l2 -31c6 21 25 34 50 34c37 0 59 -28 59 -74c0 -54 -30 -87 -80 -87c-4 0 -11 1 -17 2
l2 -41h-77zM963 100c-66 0 -98 27 -98 79c0 51 31 83 86 83c50 0 77 -27 77 -76c0 -10 -1 -16 -2 -21l-87 -4c5 -8 21 -12 42 -12c12 0 25 1 35 5v-47c-15 -5 -33 -7 -53 -7zM139 154h119v82h-29v-46h-18v42h-28v-42h-15v45h-29v-81zM934 183l38 3c1 13 -7 20 -19 20
c-13 0 -19 -8 -19 -23zM765 157c14 0 21 7 21 20c0 12 -6 19 -16 19c-11 0 -19 -8 -19 -19c0 -3 1 -9 4 -19c3 -1 8 -1 10 -1zM1050 97c-9 0 -15 6 -15 15c0 8 6 14 15 14c8 0 14 -6 14 -14c0 -9 -6 -15 -14 -15zM139 11h119v45c0 41 -21 68 -61 68c-37 0 -60 -26 -60 -65
c0 -25 2 -43 2 -48zM1050 100c6 0 11 5 11 12c0 6 -5 11 -11 11c-7 0 -12 -5 -12 -11c0 -7 5 -12 12 -12zM1043 104v15h7c4 0 7 -1 7 -5c0 -3 -2 -4 -5 -4l4 -6h-4l-2 6h-4v-6h-3zM1046 112h4c2 0 3 1 3 2c0 2 -2 2 -3 2h-4v-4zM171 47c0 4 -1 5 -1 12c0 14 8 27 28 27
c19 0 28 -9 28 -27v-12h-55z" />
    <glyph glyph-name=".notdef" 
d="M100 -50v668h191v-668h-191zM199 429c41 0 61 31 61 63c0 36 -23 63 -61 63c-42 0 -63 -31 -63 -63c0 -36 24 -63 63 -63zM820 452c-24 0 -42 17 -42 40c0 22 18 40 42 40c23 0 41 -18 41 -40c0 -23 -18 -40 -41 -40zM199 467c-18 0 -30 9 -30 25s12 25 30 25
c17 0 28 -9 28 -25s-11 -25 -28 -25zM380 283c0 63 1 130 4 204h68c3 -67 5 -136 6 -204h-78zM721 279c-37 0 -56 13 -55 47l1 49h-17v49l60 48h22l2 -33h118c3 -52 4 -104 4 -156h-77c0 18 0 62 1 92h-41l3 -28c0 -8 5 -12 11 -12c3 0 7 0 11 2v-48c-5 -5 -21 -10 -43 -10z
M529 280c-37 0 -60 28 -60 74c0 56 34 88 92 88c49 0 80 -23 80 -48l-1 -111h-56l-5 30c-6 -20 -25 -33 -50 -33zM871 283c1 54 2 105 5 156h56l5 -34c10 26 28 37 53 37c35 0 54 -22 55 -69l2 -90h-78l2 73c0 13 -3 19 -11 19s-13 -5 -12 -19l1 -73h-78zM1144 280
c-54 0 -86 29 -86 80s33 82 86 82c54 0 86 -31 86 -82s-32 -80 -86 -80zM258 265v35l-57 1v1l43 24v17l-43 22v1l57 3v34l-119 -8v-29l55 -31l-55 -32v-31zM554 337c11 0 18 8 18 18c0 4 -1 10 -2 15c-3 4 -9 6 -14 6c-12 0 -18 -7 -18 -20c0 -12 6 -19 16 -19zM1144 337
c11 0 18 8 18 20s-7 19 -18 19c-10 0 -17 -7 -17 -19s7 -20 17 -20zM562 54c-18 0 -34 2 -46 9v55h1c12 -6 26 -10 40 -10c39 0 37 27 37 26c0 -8 -24 -10 -32 -10c-29 0 -57 24 -57 54v17h-36l2 -29c1 -8 7 -11 12 -11c3 0 8 0 10 2h1v-48c-10 -6 -24 -10 -43 -10
c-40 0 -56 16 -55 43l1 53h-17v49l63 30h22l-1 -16h111l-2 -63c0 -14 4 -19 11 -19c8 0 13 6 12 19l-1 63h71c1 -17 3 -59 3 -80c0 -90 -30 -124 -107 -124zM683 62c0 72 1 133 3 197h58l2 -31c6 21 25 34 50 34c37 0 59 -28 59 -74c0 -54 -30 -87 -80 -87c-4 0 -11 1 -17 2
l2 -41h-77zM963 100c-66 0 -98 27 -98 79c0 51 31 83 86 83c50 0 77 -27 77 -76c0 -10 -1 -16 -2 -21l-87 -4c5 -8 21 -12 42 -12c12 0 25 1 35 5v-47c-15 -5 -33 -7 -53 -7zM139 154h119v82h-29v-46h-18v42h-28v-42h-15v45h-29v-81zM934 183l38 3c1 13 -7 20 -19 20
c-13 0 -19 -8 -19 -23zM765 157c14 0 21 7 21 20c0 12 -6 19 -16 19c-11 0 -19 -8 -19 -19c0 -3 1 -9 4 -19c3 -1 8 -1 10 -1zM1050 97c-9 0 -15 6 -15 15c0 8 6 14 15 14c8 0 14 -6 14 -14c0 -9 -6 -15 -14 -15zM139 11h119v45c0 41 -21 68 -61 68c-37 0 -60 -26 -60 -65
c0 -25 2 -43 2 -48zM1050 100c6 0 11 5 11 12c0 6 -5 11 -11 11c-7 0 -12 -5 -12 -11c0 -7 5 -12 12 -12zM1043 104v15h7c4 0 7 -1 7 -5c0 -3 -2 -4 -5 -4l4 -6h-4l-2 6h-4v-6h-3zM1046 112h4c2 0 3 1 3 2c0 2 -2 2 -3 2h-4v-4zM171 47c0 4 -1 5 -1 12c0 14 8 27 28 27
c19 0 28 -9 28 -27v-12h-55z" />
    <glyph glyph-name="A" unicode="A" horiz-adv-x="669" 
d="M621 70c16 -37 48 -37 48 -56v-2c0 -8 -7 -12 -19 -12h-141c-12 0 -19 4 -19 12v2c0 19 47 21 34 56l-48 118h-324l-44 -118c-14 -35 34 -37 34 -56v-2c0 -8 -8 -12 -21 -12h-95c-13 0 -20 4 -20 12v2c0 19 33 18 47 56l222 567c12 30 -31 43 -31 59v3c0 6 4 11 14 11h58
c24 0 37 -9 47 -33zM169 231h290l-150 371z" />
    <glyph glyph-name="Aacute" unicode="&#xc1;" 
d="M100 -50v668h191v-668h-191zM199 429c41 0 61 31 61 63c0 36 -23 63 -61 63c-42 0 -63 -31 -63 -63c0 -36 24 -63 63 -63zM820 452c-24 0 -42 17 -42 40c0 22 18 40 42 40c23 0 41 -18 41 -40c0 -23 -18 -40 -41 -40zM199 467c-18 0 -30 9 -30 25s12 25 30 25
c17 0 28 -9 28 -25s-11 -25 -28 -25zM380 283c0 63 1 130 4 204h68c3 -67 5 -136 6 -204h-78zM721 279c-37 0 -56 13 -55 47l1 49h-17v49l60 48h22l2 -33h118c3 -52 4 -104 4 -156h-77c0 18 0 62 1 92h-41l3 -28c0 -8 5 -12 11 -12c3 0 7 0 11 2v-48c-5 -5 -21 -10 -43 -10z
M529 280c-37 0 -60 28 -60 74c0 56 34 88 92 88c49 0 80 -23 80 -48l-1 -111h-56l-5 30c-6 -20 -25 -33 -50 -33zM871 283c1 54 2 105 5 156h56l5 -34c10 26 28 37 53 37c35 0 54 -22 55 -69l2 -90h-78l2 73c0 13 -3 19 -11 19s-13 -5 -12 -19l1 -73h-78zM1144 280
c-54 0 -86 29 -86 80s33 82 86 82c54 0 86 -31 86 -82s-32 -80 -86 -80zM258 265v35l-57 1v1l43 24v17l-43 22v1l57 3v34l-119 -8v-29l55 -31l-55 -32v-31zM554 337c11 0 18 8 18 18c0 4 -1 10 -2 15c-3 4 -9 6 -14 6c-12 0 -18 -7 -18 -20c0 -12 6 -19 16 -19zM1144 337
c11 0 18 8 18 20s-7 19 -18 19c-10 0 -17 -7 -17 -19s7 -20 17 -20zM562 54c-18 0 -34 2 -46 9v55h1c12 -6 26 -10 40 -10c39 0 37 27 37 26c0 -8 -24 -10 -32 -10c-29 0 -57 24 -57 54v17h-36l2 -29c1 -8 7 -11 12 -11c3 0 8 0 10 2h1v-48c-10 -6 -24 -10 -43 -10
c-40 0 -56 16 -55 43l1 53h-17v49l63 30h22l-1 -16h111l-2 -63c0 -14 4 -19 11 -19c8 0 13 6 12 19l-1 63h71c1 -17 3 -59 3 -80c0 -90 -30 -124 -107 -124zM683 62c0 72 1 133 3 197h58l2 -31c6 21 25 34 50 34c37 0 59 -28 59 -74c0 -54 -30 -87 -80 -87c-4 0 -11 1 -17 2
l2 -41h-77zM963 100c-66 0 -98 27 -98 79c0 51 31 83 86 83c50 0 77 -27 77 -76c0 -10 -1 -16 -2 -21l-87 -4c5 -8 21 -12 42 -12c12 0 25 1 35 5v-47c-15 -5 -33 -7 -53 -7zM139 154h119v82h-29v-46h-18v42h-28v-42h-15v45h-29v-81zM934 183l38 3c1 13 -7 20 -19 20
c-13 0 -19 -8 -19 -23zM765 157c14 0 21 7 21 20c0 12 -6 19 -16 19c-11 0 -19 -8 -19 -19c0 -3 1 -9 4 -19c3 -1 8 -1 10 -1zM1050 97c-9 0 -15 6 -15 15c0 8 6 14 15 14c8 0 14 -6 14 -14c0 -9 -6 -15 -14 -15zM139 11h119v45c0 41 -21 68 -61 68c-37 0 -60 -26 -60 -65
c0 -25 2 -43 2 -48zM1050 100c6 0 11 5 11 12c0 6 -5 11 -11 11c-7 0 -12 -5 -12 -11c0 -7 5 -12 12 -12zM1043 104v15h7c4 0 7 -1 7 -5c0 -3 -2 -4 -5 -4l4 -6h-4l-2 6h-4v-6h-3zM1046 112h4c2 0 3 1 3 2c0 2 -2 2 -3 2h-4v-4zM171 47c0 4 -1 5 -1 12c0 14 8 27 28 27
c19 0 28 -9 28 -27v-12h-55z" />
    <glyph glyph-name="Abreve" unicode="&#x102;" 
d="M100 -50v668h191v-668h-191zM199 429c41 0 61 31 61 63c0 36 -23 63 -61 63c-42 0 -63 -31 -63 -63c0 -36 24 -63 63 -63zM820 452c-24 0 -42 17 -42 40c0 22 18 40 42 40c23 0 41 -18 41 -40c0 -23 -18 -40 -41 -40zM199 467c-18 0 -30 9 -30 25s12 25 30 25
c17 0 28 -9 28 -25s-11 -25 -28 -25zM380 283c0 63 1 130 4 204h68c3 -67 5 -136 6 -204h-78zM721 279c-37 0 -56 13 -55 47l1 49h-17v49l60 48h22l2 -33h118c3 -52 4 -104 4 -156h-77c0 18 0 62 1 92h-41l3 -28c0 -8 5 -12 11 -12c3 0 7 0 11 2v-48c-5 -5 -21 -10 -43 -10z
M529 280c-37 0 -60 28 -60 74c0 56 34 88 92 88c49 0 80 -23 80 -48l-1 -111h-56l-5 30c-6 -20 -25 -33 -50 -33zM871 283c1 54 2 105 5 156h56l5 -34c10 26 28 37 53 37c35 0 54 -22 55 -69l2 -90h-78l2 73c0 13 -3 19 -11 19s-13 -5 -12 -19l1 -73h-78zM1144 280
c-54 0 -86 29 -86 80s33 82 86 82c54 0 86 -31 86 -82s-32 -80 -86 -80zM258 265v35l-57 1v1l43 24v17l-43 22v1l57 3v34l-119 -8v-29l55 -31l-55 -32v-31zM554 337c11 0 18 8 18 18c0 4 -1 10 -2 15c-3 4 -9 6 -14 6c-12 0 -18 -7 -18 -20c0 -12 6 -19 16 -19zM1144 337
c11 0 18 8 18 20s-7 19 -18 19c-10 0 -17 -7 -17 -19s7 -20 17 -20zM562 54c-18 0 -34 2 -46 9v55h1c12 -6 26 -10 40 -10c39 0 37 27 37 26c0 -8 -24 -10 -32 -10c-29 0 -57 24 -57 54v17h-36l2 -29c1 -8 7 -11 12 -11c3 0 8 0 10 2h1v-48c-10 -6 -24 -10 -43 -10
c-40 0 -56 16 -55 43l1 53h-17v49l63 30h22l-1 -16h111l-2 -63c0 -14 4 -19 11 -19c8 0 13 6 12 19l-1 63h71c1 -17 3 -59 3 -80c0 -90 -30 -124 -107 -124zM683 62c0 72 1 133 3 197h58l2 -31c6 21 25 34 50 34c37 0 59 -28 59 -74c0 -54 -30 -87 -80 -87c-4 0 -11 1 -17 2
l2 -41h-77zM963 100c-66 0 -98 27 -98 79c0 51 31 83 86 83c50 0 77 -27 77 -76c0 -10 -1 -16 -2 -21l-87 -4c5 -8 21 -12 42 -12c12 0 25 1 35 5v-47c-15 -5 -33 -7 -53 -7zM139 154h119v82h-29v-46h-18v42h-28v-42h-15v45h-29v-81zM934 183l38 3c1 13 -7 20 -19 20
c-13 0 -19 -8 -19 -23zM765 157c14 0 21 7 21 20c0 12 -6 19 -16 19c-11 0 -19 -8 -19 -19c0 -3 1 -9 4 -19c3 -1 8 -1 10 -1zM1050 97c-9 0 -15 6 -15 15c0 8 6 14 15 14c8 0 14 -6 14 -14c0 -9 -6 -15 -14 -15zM139 11h119v45c0 41 -21 68 -61 68c-37 0 -60 -26 -60 -65
c0 -25 2 -43 2 -48zM1050 100c6 0 11 5 11 12c0 6 -5 11 -11 11c-7 0 -12 -5 -12 -11c0 -7 5 -12 12 -12zM1043 104v15h7c4 0 7 -1 7 -5c0 -3 -2 -4 -5 -4l4 -6h-4l-2 6h-4v-6h-3zM1046 112h4c2 0 3 1 3 2c0 2 -2 2 -3 2h-4v-4zM171 47c0 4 -1 5 -1 12c0 14 8 27 28 27
c19 0 28 -9 28 -27v-12h-55z" />
    <glyph glyph-name="Acircumflex" unicode="&#xc2;" 
d="M100 -50v668h191v-668h-191zM199 429c41 0 61 31 61 63c0 36 -23 63 -61 63c-42 0 -63 -31 -63 -63c0 -36 24 -63 63 -63zM820 452c-24 0 -42 17 -42 40c0 22 18 40 42 40c23 0 41 -18 41 -40c0 -23 -18 -40 -41 -40zM199 467c-18 0 -30 9 -30 25s12 25 30 25
c17 0 28 -9 28 -25s-11 -25 -28 -25zM380 283c0 63 1 130 4 204h68c3 -67 5 -136 6 -204h-78zM721 279c-37 0 -56 13 -55 47l1 49h-17v49l60 48h22l2 -33h118c3 -52 4 -104 4 -156h-77c0 18 0 62 1 92h-41l3 -28c0 -8 5 -12 11 -12c3 0 7 0 11 2v-48c-5 -5 -21 -10 -43 -10z
M529 280c-37 0 -60 28 -60 74c0 56 34 88 92 88c49 0 80 -23 80 -48l-1 -111h-56l-5 30c-6 -20 -25 -33 -50 -33zM871 283c1 54 2 105 5 156h56l5 -34c10 26 28 37 53 37c35 0 54 -22 55 -69l2 -90h-78l2 73c0 13 -3 19 -11 19s-13 -5 -12 -19l1 -73h-78zM1144 280
c-54 0 -86 29 -86 80s33 82 86 82c54 0 86 -31 86 -82s-32 -80 -86 -80zM258 265v35l-57 1v1l43 24v17l-43 22v1l57 3v34l-119 -8v-29l55 -31l-55 -32v-31zM554 337c11 0 18 8 18 18c0 4 -1 10 -2 15c-3 4 -9 6 -14 6c-12 0 -18 -7 -18 -20c0 -12 6 -19 16 -19zM1144 337
c11 0 18 8 18 20s-7 19 -18 19c-10 0 -17 -7 -17 -19s7 -20 17 -20zM562 54c-18 0 -34 2 -46 9v55h1c12 -6 26 -10 40 -10c39 0 37 27 37 26c0 -8 -24 -10 -32 -10c-29 0 -57 24 -57 54v17h-36l2 -29c1 -8 7 -11 12 -11c3 0 8 0 10 2h1v-48c-10 -6 -24 -10 -43 -10
c-40 0 -56 16 -55 43l1 53h-17v49l63 30h22l-1 -16h111l-2 -63c0 -14 4 -19 11 -19c8 0 13 6 12 19l-1 63h71c1 -17 3 -59 3 -80c0 -90 -30 -124 -107 -124zM683 62c0 72 1 133 3 197h58l2 -31c6 21 25 34 50 34c37 0 59 -28 59 -74c0 -54 -30 -87 -80 -87c-4 0 -11 1 -17 2
l2 -41h-77zM963 100c-66 0 -98 27 -98 79c0 51 31 83 86 83c50 0 77 -27 77 -76c0 -10 -1 -16 -2 -21l-87 -4c5 -8 21 -12 42 -12c12 0 25 1 35 5v-47c-15 -5 -33 -7 -53 -7zM139 154h119v82h-29v-46h-18v42h-28v-42h-15v45h-29v-81zM934 183l38 3c1 13 -7 20 -19 20
c-13 0 -19 -8 -19 -23zM765 157c14 0 21 7 21 20c0 12 -6 19 -16 19c-11 0 -19 -8 -19 -19c0 -3 1 -9 4 -19c3 -1 8 -1 10 -1zM1050 97c-9 0 -15 6 -15 15c0 8 6 14 15 14c8 0 14 -6 14 -14c0 -9 -6 -15 -14 -15zM139 11h119v45c0 41 -21 68 -61 68c-37 0 -60 -26 -60 -65
c0 -25 2 -43 2 -48zM1050 100c6 0 11 5 11 12c0 6 -5 11 -11 11c-7 0 -12 -5 -12 -11c0 -7 5 -12 12 -12zM1043 104v15h7c4 0 7 -1 7 -5c0 -3 -2 -4 -5 -4l4 -6h-4l-2 6h-4v-6h-3zM1046 112h4c2 0 3 1 3 2c0 2 -2 2 -3 2h-4v-4zM171 47c0 4 -1 5 -1 12c0 14 8 27 28 27
c19 0 28 -9 28 -27v-12h-55z" />
    <glyph glyph-name="Adieresis" unicode="&#xc4;" 
d="M100 -50v668h191v-668h-191zM199 429c41 0 61 31 61 63c0 36 -23 63 -61 63c-42 0 -63 -31 -63 -63c0 -36 24 -63 63 -63zM820 452c-24 0 -42 17 -42 40c0 22 18 40 42 40c23 0 41 -18 41 -40c0 -23 -18 -40 -41 -40zM199 467c-18 0 -30 9 -30 25s12 25 30 25
c17 0 28 -9 28 -25s-11 -25 -28 -25zM380 283c0 63 1 130 4 204h68c3 -67 5 -136 6 -204h-78zM721 279c-37 0 -56 13 -55 47l1 49h-17v49l60 48h22l2 -33h118c3 -52 4 -104 4 -156h-77c0 18 0 62 1 92h-41l3 -28c0 -8 5 -12 11 -12c3 0 7 0 11 2v-48c-5 -5 -21 -10 -43 -10z
M529 280c-37 0 -60 28 -60 74c0 56 34 88 92 88c49 0 80 -23 80 -48l-1 -111h-56l-5 30c-6 -20 -25 -33 -50 -33zM871 283c1 54 2 105 5 156h56l5 -34c10 26 28 37 53 37c35 0 54 -22 55 -69l2 -90h-78l2 73c0 13 -3 19 -11 19s-13 -5 -12 -19l1 -73h-78zM1144 280
c-54 0 -86 29 -86 80s33 82 86 82c54 0 86 -31 86 -82s-32 -80 -86 -80zM258 265v35l-57 1v1l43 24v17l-43 22v1l57 3v34l-119 -8v-29l55 -31l-55 -32v-31zM554 337c11 0 18 8 18 18c0 4 -1 10 -2 15c-3 4 -9 6 -14 6c-12 0 -18 -7 -18 -20c0 -12 6 -19 16 -19zM1144 337
c11 0 18 8 18 20s-7 19 -18 19c-10 0 -17 -7 -17 -19s7 -20 17 -20zM562 54c-18 0 -34 2 -46 9v55h1c12 -6 26 -10 40 -10c39 0 37 27 37 26c0 -8 -24 -10 -32 -10c-29 0 -57 24 -57 54v17h-36l2 -29c1 -8 7 -11 12 -11c3 0 8 0 10 2h1v-48c-10 -6 -24 -10 -43 -10
c-40 0 -56 16 -55 43l1 53h-17v49l63 30h22l-1 -16h111l-2 -63c0 -14 4 -19 11 -19c8 0 13 6 12 19l-1 63h71c1 -17 3 -59 3 -80c0 -90 -30 -124 -107 -124zM683 62c0 72 1 133 3 197h58l2 -31c6 21 25 34 50 34c37 0 59 -28 59 -74c0 -54 -30 -87 -80 -87c-4 0 -11 1 -17 2
l2 -41h-77zM963 100c-66 0 -98 27 -98 79c0 51 31 83 86 83c50 0 77 -27 77 -76c0 -10 -1 -16 -2 -21l-87 -4c5 -8 21 -12 42 -12c12 0 25 1 35 5v-47c-15 -5 -33 -7 -53 -7zM139 154h119v82h-29v-46h-18v42h-28v-42h-15v45h-29v-81zM934 183l38 3c1 13 -7 20 -19 20
c-13 0 -19 -8 -19 -23zM765 157c14 0 21 7 21 20c0 12 -6 19 -16 19c-11 0 -19 -8 -19 -19c0 -3 1 -9 4 -19c3 -1 8 -1 10 -1zM1050 97c-9 0 -15 6 -15 15c0 8 6 14 15 14c8 0 14 -6 14 -14c0 -9 -6 -15 -14 -15zM139 11h119v45c0 41 -21 68 -61 68c-37 0 -60 -26 -60 -65
c0 -25 2 -43 2 -48zM1050 100c6 0 11 5 11 12c0 6 -5 11 -11 11c-7 0 -12 -5 -12 -11c0 -7 5 -12 12 -12zM1043 104v15h7c4 0 7 -1 7 -5c0 -3 -2 -4 -5 -4l4 -6h-4l-2 6h-4v-6h-3zM1046 112h4c2 0 3 1 3 2c0 2 -2 2 -3 2h-4v-4zM171 47c0 4 -1 5 -1 12c0 14 8 27 28 27
c19 0 28 -9 28 -27v-12h-55z" />
    <glyph glyph-name="Agrave" unicode="&#xc0;" 
d="M100 -50v668h191v-668h-191zM199 429c41 0 61 31 61 63c0 36 -23 63 -61 63c-42 0 -63 -31 -63 -63c0 -36 24 -63 63 -63zM820 452c-24 0 -42 17 -42 40c0 22 18 40 42 40c23 0 41 -18 41 -40c0 -23 -18 -40 -41 -40zM199 467c-18 0 -30 9 -30 25s12 25 30 25
c17 0 28 -9 28 -25s-11 -25 -28 -25zM380 283c0 63 1 130 4 204h68c3 -67 5 -136 6 -204h-78zM721 279c-37 0 -56 13 -55 47l1 49h-17v49l60 48h22l2 -33h118c3 -52 4 -104 4 -156h-77c0 18 0 62 1 92h-41l3 -28c0 -8 5 -12 11 -12c3 0 7 0 11 2v-48c-5 -5 -21 -10 -43 -10z
M529 280c-37 0 -60 28 -60 74c0 56 34 88 92 88c49 0 80 -23 80 -48l-1 -111h-56l-5 30c-6 -20 -25 -33 -50 -33zM871 283c1 54 2 105 5 156h56l5 -34c10 26 28 37 53 37c35 0 54 -22 55 -69l2 -90h-78l2 73c0 13 -3 19 -11 19s-13 -5 -12 -19l1 -73h-78zM1144 280
c-54 0 -86 29 -86 80s33 82 86 82c54 0 86 -31 86 -82s-32 -80 -86 -80zM258 265v35l-57 1v1l43 24v17l-43 22v1l57 3v34l-119 -8v-29l55 -31l-55 -32v-31zM554 337c11 0 18 8 18 18c0 4 -1 10 -2 15c-3 4 -9 6 -14 6c-12 0 -18 -7 -18 -20c0 -12 6 -19 16 -19zM1144 337
c11 0 18 8 18 20s-7 19 -18 19c-10 0 -17 -7 -17 -19s7 -20 17 -20zM562 54c-18 0 -34 2 -46 9v55h1c12 -6 26 -10 40 -10c39 0 37 27 37 26c0 -8 -24 -10 -32 -10c-29 0 -57 24 -57 54v17h-36l2 -29c1 -8 7 -11 12 -11c3 0 8 0 10 2h1v-48c-10 -6 -24 -10 -43 -10
c-40 0 -56 16 -55 43l1 53h-17v49l63 30h22l-1 -16h111l-2 -63c0 -14 4 -19 11 -19c8 0 13 6 12 19l-1 63h71c1 -17 3 -59 3 -80c0 -90 -30 -124 -107 -124zM683 62c0 72 1 133 3 197h58l2 -31c6 21 25 34 50 34c37 0 59 -28 59 -74c0 -54 -30 -87 -80 -87c-4 0 -11 1 -17 2
l2 -41h-77zM963 100c-66 0 -98 27 -98 79c0 51 31 83 86 83c50 0 77 -27 77 -76c0 -10 -1 -16 -2 -21l-87 -4c5 -8 21 -12 42 -12c12 0 25 1 35 5v-47c-15 -5 -33 -7 -53 -7zM139 154h119v82h-29v-46h-18v42h-28v-42h-15v45h-29v-81zM934 183l38 3c1 13 -7 20 -19 20
c-13 0 -19 -8 -19 -23zM765 157c14 0 21 7 21 20c0 12 -6 19 -16 19c-11 0 -19 -8 -19 -19c0 -3 1 -9 4 -19c3 -1 8 -1 10 -1zM1050 97c-9 0 -15 6 -15 15c0 8 6 14 15 14c8 0 14 -6 14 -14c0 -9 -6 -15 -14 -15zM139 11h119v45c0 41 -21 68 -61 68c-37 0 -60 -26 -60 -65
c0 -25 2 -43 2 -48zM1050 100c6 0 11 5 11 12c0 6 -5 11 -11 11c-7 0 -12 -5 -12 -11c0 -7 5 -12 12 -12zM1043 104v15h7c4 0 7 -1 7 -5c0 -3 -2 -4 -5 -4l4 -6h-4l-2 6h-4v-6h-3zM1046 112h4c2 0 3 1 3 2c0 2 -2 2 -3 2h-4v-4zM171 47c0 4 -1 5 -1 12c0 14 8 27 28 27
c19 0 28 -9 28 -27v-12h-55z" />
    <glyph glyph-name="Amacron" unicode="&#x100;" 
d="M100 -50v668h191v-668h-191zM199 429c41 0 61 31 61 63c0 36 -23 63 -61 63c-42 0 -63 -31 -63 -63c0 -36 24 -63 63 -63zM820 452c-24 0 -42 17 -42 40c0 22 18 40 42 40c23 0 41 -18 41 -40c0 -23 -18 -40 -41 -40zM199 467c-18 0 -30 9 -30 25s12 25 30 25
c17 0 28 -9 28 -25s-11 -25 -28 -25zM380 283c0 63 1 130 4 204h68c3 -67 5 -136 6 -204h-78zM721 279c-37 0 -56 13 -55 47l1 49h-17v49l60 48h22l2 -33h118c3 -52 4 -104 4 -156h-77c0 18 0 62 1 92h-41l3 -28c0 -8 5 -12 11 -12c3 0 7 0 11 2v-48c-5 -5 -21 -10 -43 -10z
M529 280c-37 0 -60 28 -60 74c0 56 34 88 92 88c49 0 80 -23 80 -48l-1 -111h-56l-5 30c-6 -20 -25 -33 -50 -33zM871 283c1 54 2 105 5 156h56l5 -34c10 26 28 37 53 37c35 0 54 -22 55 -69l2 -90h-78l2 73c0 13 -3 19 -11 19s-13 -5 -12 -19l1 -73h-78zM1144 280
c-54 0 -86 29 -86 80s33 82 86 82c54 0 86 -31 86 -82s-32 -80 -86 -80zM258 265v35l-57 1v1l43 24v17l-43 22v1l57 3v34l-119 -8v-29l55 -31l-55 -32v-31zM554 337c11 0 18 8 18 18c0 4 -1 10 -2 15c-3 4 -9 6 -14 6c-12 0 -18 -7 -18 -20c0 -12 6 -19 16 -19zM1144 337
c11 0 18 8 18 20s-7 19 -18 19c-10 0 -17 -7 -17 -19s7 -20 17 -20zM562 54c-18 0 -34 2 -46 9v55h1c12 -6 26 -10 40 -10c39 0 37 27 37 26c0 -8 -24 -10 -32 -10c-29 0 -57 24 -57 54v17h-36l2 -29c1 -8 7 -11 12 -11c3 0 8 0 10 2h1v-48c-10 -6 -24 -10 -43 -10
c-40 0 -56 16 -55 43l1 53h-17v49l63 30h22l-1 -16h111l-2 -63c0 -14 4 -19 11 -19c8 0 13 6 12 19l-1 63h71c1 -17 3 -59 3 -80c0 -90 -30 -124 -107 -124zM683 62c0 72 1 133 3 197h58l2 -31c6 21 25 34 50 34c37 0 59 -28 59 -74c0 -54 -30 -87 -80 -87c-4 0 -11 1 -17 2
l2 -41h-77zM963 100c-66 0 -98 27 -98 79c0 51 31 83 86 83c50 0 77 -27 77 -76c0 -10 -1 -16 -2 -21l-87 -4c5 -8 21 -12 42 -12c12 0 25 1 35 5v-47c-15 -5 -33 -7 -53 -7zM139 154h119v82h-29v-46h-18v42h-28v-42h-15v45h-29v-81zM934 183l38 3c1 13 -7 20 -19 20
c-13 0 -19 -8 -19 -23zM765 157c14 0 21 7 21 20c0 12 -6 19 -16 19c-11 0 -19 -8 -19 -19c0 -3 1 -9 4 -19c3 -1 8 -1 10 -1zM1050 97c-9 0 -15 6 -15 15c0 8 6 14 15 14c8 0 14 -6 14 -14c0 -9 -6 -15 -14 -15zM139 11h119v45c0 41 -21 68 -61 68c-37 0 -60 -26 -60 -65
c0 -25 2 -43 2 -48zM1050 100c6 0 11 5 11 12c0 6 -5 11 -11 11c-7 0 -12 -5 -12 -11c0 -7 5 -12 12 -12zM1043 104v15h7c4 0 7 -1 7 -5c0 -3 -2 -4 -5 -4l4 -6h-4l-2 6h-4v-6h-3zM1046 112h4c2 0 3 1 3 2c0 2 -2 2 -3 2h-4v-4zM171 47c0 4 -1 5 -1 12c0 14 8 27 28 27
c19 0 28 -9 28 -27v-12h-55z" />
    <glyph glyph-name="Aogonek" unicode="&#x104;" 
d="M100 -50v668h191v-668h-191zM199 429c41 0 61 31 61 63c0 36 -23 63 -61 63c-42 0 -63 -31 -63 -63c0 -36 24 -63 63 -63zM820 452c-24 0 -42 17 -42 40c0 22 18 40 42 40c23 0 41 -18 41 -40c0 -23 -18 -40 -41 -40zM199 467c-18 0 -30 9 -30 25s12 25 30 25
c17 0 28 -9 28 -25s-11 -25 -28 -25zM380 283c0 63 1 130 4 204h68c3 -67 5 -136 6 -204h-78zM721 279c-37 0 -56 13 -55 47l1 49h-17v49l60 48h22l2 -33h118c3 -52 4 -104 4 -156h-77c0 18 0 62 1 92h-41l3 -28c0 -8 5 -12 11 -12c3 0 7 0 11 2v-48c-5 -5 -21 -10 -43 -10z
M529 280c-37 0 -60 28 -60 74c0 56 34 88 92 88c49 0 80 -23 80 -48l-1 -111h-56l-5 30c-6 -20 -25 -33 -50 -33zM871 283c1 54 2 105 5 156h56l5 -34c10 26 28 37 53 37c35 0 54 -22 55 -69l2 -90h-78l2 73c0 13 -3 19 -11 19s-13 -5 -12 -19l1 -73h-78zM1144 280
c-54 0 -86 29 -86 80s33 82 86 82c54 0 86 -31 86 -82s-32 -80 -86 -80zM258 265v35l-57 1v1l43 24v17l-43 22v1l57 3v34l-119 -8v-29l55 -31l-55 -32v-31zM554 337c11 0 18 8 18 18c0 4 -1 10 -2 15c-3 4 -9 6 -14 6c-12 0 -18 -7 -18 -20c0 -12 6 -19 16 -19zM1144 337
c11 0 18 8 18 20s-7 19 -18 19c-10 0 -17 -7 -17 -19s7 -20 17 -20zM562 54c-18 0 -34 2 -46 9v55h1c12 -6 26 -10 40 -10c39 0 37 27 37 26c0 -8 -24 -10 -32 -10c-29 0 -57 24 -57 54v17h-36l2 -29c1 -8 7 -11 12 -11c3 0 8 0 10 2h1v-48c-10 -6 -24 -10 -43 -10
c-40 0 -56 16 -55 43l1 53h-17v49l63 30h22l-1 -16h111l-2 -63c0 -14 4 -19 11 -19c8 0 13 6 12 19l-1 63h71c1 -17 3 -59 3 -80c0 -90 -30 -124 -107 -124zM683 62c0 72 1 133 3 197h58l2 -31c6 21 25 34 50 34c37 0 59 -28 59 -74c0 -54 -30 -87 -80 -87c-4 0 -11 1 -17 2
l2 -41h-77zM963 100c-66 0 -98 27 -98 79c0 51 31 83 86 83c50 0 77 -27 77 -76c0 -10 -1 -16 -2 -21l-87 -4c5 -8 21 -12 42 -12c12 0 25 1 35 5v-47c-15 -5 -33 -7 -53 -7zM139 154h119v82h-29v-46h-18v42h-28v-42h-15v45h-29v-81zM934 183l38 3c1 13 -7 20 -19 20
c-13 0 -19 -8 -19 -23zM765 157c14 0 21 7 21 20c0 12 -6 19 -16 19c-11 0 -19 -8 -19 -19c0 -3 1 -9 4 -19c3 -1 8 -1 10 -1zM1050 97c-9 0 -15 6 -15 15c0 8 6 14 15 14c8 0 14 -6 14 -14c0 -9 -6 -15 -14 -15zM139 11h119v45c0 41 -21 68 -61 68c-37 0 -60 -26 -60 -65
c0 -25 2 -43 2 -48zM1050 100c6 0 11 5 11 12c0 6 -5 11 -11 11c-7 0 -12 -5 -12 -11c0 -7 5 -12 12 -12zM1043 104v15h7c4 0 7 -1 7 -5c0 -3 -2 -4 -5 -4l4 -6h-4l-2 6h-4v-6h-3zM1046 112h4c2 0 3 1 3 2c0 2 -2 2 -3 2h-4v-4zM171 47c0 4 -1 5 -1 12c0 14 8 27 28 27
c19 0 28 -9 28 -27v-12h-55z" />
    <glyph glyph-name="Aring" unicode="&#xc5;" 
d="M100 -50v668h191v-668h-191zM199 429c41 0 61 31 61 63c0 36 -23 63 -61 63c-42 0 -63 -31 -63 -63c0 -36 24 -63 63 -63zM820 452c-24 0 -42 17 -42 40c0 22 18 40 42 40c23 0 41 -18 41 -40c0 -23 -18 -40 -41 -40zM199 467c-18 0 -30 9 -30 25s12 25 30 25
c17 0 28 -9 28 -25s-11 -25 -28 -25zM380 283c0 63 1 130 4 204h68c3 -67 5 -136 6 -204h-78zM721 279c-37 0 -56 13 -55 47l1 49h-17v49l60 48h22l2 -33h118c3 -52 4 -104 4 -156h-77c0 18 0 62 1 92h-41l3 -28c0 -8 5 -12 11 -12c3 0 7 0 11 2v-48c-5 -5 -21 -10 -43 -10z
M529 280c-37 0 -60 28 -60 74c0 56 34 88 92 88c49 0 80 -23 80 -48l-1 -111h-56l-5 30c-6 -20 -25 -33 -50 -33zM871 283c1 54 2 105 5 156h56l5 -34c10 26 28 37 53 37c35 0 54 -22 55 -69l2 -90h-78l2 73c0 13 -3 19 -11 19s-13 -5 -12 -19l1 -73h-78zM1144 280
c-54 0 -86 29 -86 80s33 82 86 82c54 0 86 -31 86 -82s-32 -80 -86 -80zM258 265v35l-57 1v1l43 24v17l-43 22v1l57 3v34l-119 -8v-29l55 -31l-55 -32v-31zM554 337c11 0 18 8 18 18c0 4 -1 10 -2 15c-3 4 -9 6 -14 6c-12 0 -18 -7 -18 -20c0 -12 6 -19 16 -19zM1144 337
c11 0 18 8 18 20s-7 19 -18 19c-10 0 -17 -7 -17 -19s7 -20 17 -20zM562 54c-18 0 -34 2 -46 9v55h1c12 -6 26 -10 40 -10c39 0 37 27 37 26c0 -8 -24 -10 -32 -10c-29 0 -57 24 -57 54v17h-36l2 -29c1 -8 7 -11 12 -11c3 0 8 0 10 2h1v-48c-10 -6 -24 -10 -43 -10
c-40 0 -56 16 -55 43l1 53h-17v49l63 30h22l-1 -16h111l-2 -63c0 -14 4 -19 11 -19c8 0 13 6 12 19l-1 63h71c1 -17 3 -59 3 -80c0 -90 -30 -124 -107 -124zM683 62c0 72 1 133 3 197h58l2 -31c6 21 25 34 50 34c37 0 59 -28 59 -74c0 -54 -30 -87 -80 -87c-4 0 -11 1 -17 2
l2 -41h-77zM963 100c-66 0 -98 27 -98 79c0 51 31 83 86 83c50 0 77 -27 77 -76c0 -10 -1 -16 -2 -21l-87 -4c5 -8 21 -12 42 -12c12 0 25 1 35 5v-47c-15 -5 -33 -7 -53 -7zM139 154h119v82h-29v-46h-18v42h-28v-42h-15v45h-29v-81zM934 183l38 3c1 13 -7 20 -19 20
c-13 0 -19 -8 -19 -23zM765 157c14 0 21 7 21 20c0 12 -6 19 -16 19c-11 0 -19 -8 -19 -19c0 -3 1 -9 4 -19c3 -1 8 -1 10 -1zM1050 97c-9 0 -15 6 -15 15c0 8 6 14 15 14c8 0 14 -6 14 -14c0 -9 -6 -15 -14 -15zM139 11h119v45c0 41 -21 68 -61 68c-37 0 -60 -26 -60 -65
c0 -25 2 -43 2 -48zM1050 100c6 0 11 5 11 12c0 6 -5 11 -11 11c-7 0 -12 -5 -12 -11c0 -7 5 -12 12 -12zM1043 104v15h7c4 0 7 -1 7 -5c0 -3 -2 -4 -5 -4l4 -6h-4l-2 6h-4v-6h-3zM1046 112h4c2 0 3 1 3 2c0 2 -2 2 -3 2h-4v-4zM171 47c0 4 -1 5 -1 12c0 14 8 27 28 27
c19 0 28 -9 28 -27v-12h-55z" />
    <glyph glyph-name="Atilde" unicode="&#xc3;" 
d="M100 -50v668h191v-668h-191zM199 429c41 0 61 31 61 63c0 36 -23 63 -61 63c-42 0 -63 -31 -63 -63c0 -36 24 -63 63 -63zM820 452c-24 0 -42 17 -42 40c0 22 18 40 42 40c23 0 41 -18 41 -40c0 -23 -18 -40 -41 -40zM199 467c-18 0 -30 9 -30 25s12 25 30 25
c17 0 28 -9 28 -25s-11 -25 -28 -25zM380 283c0 63 1 130 4 204h68c3 -67 5 -136 6 -204h-78zM721 279c-37 0 -56 13 -55 47l1 49h-17v49l60 48h22l2 -33h118c3 -52 4 -104 4 -156h-77c0 18 0 62 1 92h-41l3 -28c0 -8 5 -12 11 -12c3 0 7 0 11 2v-48c-5 -5 -21 -10 -43 -10z
M529 280c-37 0 -60 28 -60 74c0 56 34 88 92 88c49 0 80 -23 80 -48l-1 -111h-56l-5 30c-6 -20 -25 -33 -50 -33zM871 283c1 54 2 105 5 156h56l5 -34c10 26 28 37 53 37c35 0 54 -22 55 -69l2 -90h-78l2 73c0 13 -3 19 -11 19s-13 -5 -12 -19l1 -73h-78zM1144 280
c-54 0 -86 29 -86 80s33 82 86 82c54 0 86 -31 86 -82s-32 -80 -86 -80zM258 265v35l-57 1v1l43 24v17l-43 22v1l57 3v34l-119 -8v-29l55 -31l-55 -32v-31zM554 337c11 0 18 8 18 18c0 4 -1 10 -2 15c-3 4 -9 6 -14 6c-12 0 -18 -7 -18 -20c0 -12 6 -19 16 -19zM1144 337
c11 0 18 8 18 20s-7 19 -18 19c-10 0 -17 -7 -17 -19s7 -20 17 -20zM562 54c-18 0 -34 2 -46 9v55h1c12 -6 26 -10 40 -10c39 0 37 27 37 26c0 -8 -24 -10 -32 -10c-29 0 -57 24 -57 54v17h-36l2 -29c1 -8 7 -11 12 -11c3 0 8 0 10 2h1v-48c-10 -6 -24 -10 -43 -10
c-40 0 -56 16 -55 43l1 53h-17v49l63 30h22l-1 -16h111l-2 -63c0 -14 4 -19 11 -19c8 0 13 6 12 19l-1 63h71c1 -17 3 -59 3 -80c0 -90 -30 -124 -107 -124zM683 62c0 72 1 133 3 197h58l2 -31c6 21 25 34 50 34c37 0 59 -28 59 -74c0 -54 -30 -87 -80 -87c-4 0 -11 1 -17 2
l2 -41h-77zM963 100c-66 0 -98 27 -98 79c0 51 31 83 86 83c50 0 77 -27 77 -76c0 -10 -1 -16 -2 -21l-87 -4c5 -8 21 -12 42 -12c12 0 25 1 35 5v-47c-15 -5 -33 -7 -53 -7zM139 154h119v82h-29v-46h-18v42h-28v-42h-15v45h-29v-81zM934 183l38 3c1 13 -7 20 -19 20
c-13 0 -19 -8 -19 -23zM765 157c14 0 21 7 21 20c0 12 -6 19 -16 19c-11 0 -19 -8 -19 -19c0 -3 1 -9 4 -19c3 -1 8 -1 10 -1zM1050 97c-9 0 -15 6 -15 15c0 8 6 14 15 14c8 0 14 -6 14 -14c0 -9 -6 -15 -14 -15zM139 11h119v45c0 41 -21 68 -61 68c-37 0 -60 -26 -60 -65
c0 -25 2 -43 2 -48zM1050 100c6 0 11 5 11 12c0 6 -5 11 -11 11c-7 0 -12 -5 -12 -11c0 -7 5 -12 12 -12zM1043 104v15h7c4 0 7 -1 7 -5c0 -3 -2 -4 -5 -4l4 -6h-4l-2 6h-4v-6h-3zM1046 112h4c2 0 3 1 3 2c0 2 -2 2 -3 2h-4v-4zM171 47c0 4 -1 5 -1 12c0 14 8 27 28 27
c19 0 28 -9 28 -27v-12h-55z" />
    <glyph glyph-name="AE" unicode="&#xc6;" 
d="M100 -50v668h191v-668h-191zM199 429c41 0 61 31 61 63c0 36 -23 63 -61 63c-42 0 -63 -31 -63 -63c0 -36 24 -63 63 -63zM820 452c-24 0 -42 17 -42 40c0 22 18 40 42 40c23 0 41 -18 41 -40c0 -23 -18 -40 -41 -40zM199 467c-18 0 -30 9 -30 25s12 25 30 25
c17 0 28 -9 28 -25s-11 -25 -28 -25zM380 283c0 63 1 130 4 204h68c3 -67 5 -136 6 -204h-78zM721 279c-37 0 -56 13 -55 47l1 49h-17v49l60 48h22l2 -33h118c3 -52 4 -104 4 -156h-77c0 18 0 62 1 92h-41l3 -28c0 -8 5 -12 11 -12c3 0 7 0 11 2v-48c-5 -5 -21 -10 -43 -10z
M529 280c-37 0 -60 28 -60 74c0 56 34 88 92 88c49 0 80 -23 80 -48l-1 -111h-56l-5 30c-6 -20 -25 -33 -50 -33zM871 283c1 54 2 105 5 156h56l5 -34c10 26 28 37 53 37c35 0 54 -22 55 -69l2 -90h-78l2 73c0 13 -3 19 -11 19s-13 -5 -12 -19l1 -73h-78zM1144 280
c-54 0 -86 29 -86 80s33 82 86 82c54 0 86 -31 86 -82s-32 -80 -86 -80zM258 265v35l-57 1v1l43 24v17l-43 22v1l57 3v34l-119 -8v-29l55 -31l-55 -32v-31zM554 337c11 0 18 8 18 18c0 4 -1 10 -2 15c-3 4 -9 6 -14 6c-12 0 -18 -7 -18 -20c0 -12 6 -19 16 -19zM1144 337
c11 0 18 8 18 20s-7 19 -18 19c-10 0 -17 -7 -17 -19s7 -20 17 -20zM562 54c-18 0 -34 2 -46 9v55h1c12 -6 26 -10 40 -10c39 0 37 27 37 26c0 -8 -24 -10 -32 -10c-29 0 -57 24 -57 54v17h-36l2 -29c1 -8 7 -11 12 -11c3 0 8 0 10 2h1v-48c-10 -6 -24 -10 -43 -10
c-40 0 -56 16 -55 43l1 53h-17v49l63 30h22l-1 -16h111l-2 -63c0 -14 4 -19 11 -19c8 0 13 6 12 19l-1 63h71c1 -17 3 -59 3 -80c0 -90 -30 -124 -107 -124zM683 62c0 72 1 133 3 197h58l2 -31c6 21 25 34 50 34c37 0 59 -28 59 -74c0 -54 -30 -87 -80 -87c-4 0 -11 1 -17 2
l2 -41h-77zM963 100c-66 0 -98 27 -98 79c0 51 31 83 86 83c50 0 77 -27 77 -76c0 -10 -1 -16 -2 -21l-87 -4c5 -8 21 -12 42 -12c12 0 25 1 35 5v-47c-15 -5 -33 -7 -53 -7zM139 154h119v82h-29v-46h-18v42h-28v-42h-15v45h-29v-81zM934 183l38 3c1 13 -7 20 -19 20
c-13 0 -19 -8 -19 -23zM765 157c14 0 21 7 21 20c0 12 -6 19 -16 19c-11 0 -19 -8 -19 -19c0 -3 1 -9 4 -19c3 -1 8 -1 10 -1zM1050 97c-9 0 -15 6 -15 15c0 8 6 14 15 14c8 0 14 -6 14 -14c0 -9 -6 -15 -14 -15zM139 11h119v45c0 41 -21 68 -61 68c-37 0 -60 -26 -60 -65
c0 -25 2 -43 2 -48zM1050 100c6 0 11 5 11 12c0 6 -5 11 -11 11c-7 0 -12 -5 -12 -11c0 -7 5 -12 12 -12zM1043 104v15h7c4 0 7 -1 7 -5c0 -3 -2 -4 -5 -4l4 -6h-4l-2 6h-4v-6h-3zM1046 112h4c2 0 3 1 3 2c0 2 -2 2 -3 2h-4v-4zM171 47c0 4 -1 5 -1 12c0 14 8 27 28 27
c19 0 28 -9 28 -27v-12h-55z" />
    <glyph glyph-name="AEacute" unicode="&#x1fc;" 
d="M100 -50v668h191v-668h-191zM199 429c41 0 61 31 61 63c0 36 -23 63 -61 63c-42 0 -63 -31 -63 -63c0 -36 24 -63 63 -63zM820 452c-24 0 -42 17 -42 40c0 22 18 40 42 40c23 0 41 -18 41 -40c0 -23 -18 -40 -41 -40zM199 467c-18 0 -30 9 -30 25s12 25 30 25
c17 0 28 -9 28 -25s-11 -25 -28 -25zM380 283c0 63 1 130 4 204h68c3 -67 5 -136 6 -204h-78zM721 279c-37 0 -56 13 -55 47l1 49h-17v49l60 48h22l2 -33h118c3 -52 4 -104 4 -156h-77c0 18 0 62 1 92h-41l3 -28c0 -8 5 -12 11 -12c3 0 7 0 11 2v-48c-5 -5 -21 -10 -43 -10z
M529 280c-37 0 -60 28 -60 74c0 56 34 88 92 88c49 0 80 -23 80 -48l-1 -111h-56l-5 30c-6 -20 -25 -33 -50 -33zM871 283c1 54 2 105 5 156h56l5 -34c10 26 28 37 53 37c35 0 54 -22 55 -69l2 -90h-78l2 73c0 13 -3 19 -11 19s-13 -5 -12 -19l1 -73h-78zM1144 280
c-54 0 -86 29 -86 80s33 82 86 82c54 0 86 -31 86 -82s-32 -80 -86 -80zM258 265v35l-57 1v1l43 24v17l-43 22v1l57 3v34l-119 -8v-29l55 -31l-55 -32v-31zM554 337c11 0 18 8 18 18c0 4 -1 10 -2 15c-3 4 -9 6 -14 6c-12 0 -18 -7 -18 -20c0 -12 6 -19 16 -19zM1144 337
c11 0 18 8 18 20s-7 19 -18 19c-10 0 -17 -7 -17 -19s7 -20 17 -20zM562 54c-18 0 -34 2 -46 9v55h1c12 -6 26 -10 40 -10c39 0 37 27 37 26c0 -8 -24 -10 -32 -10c-29 0 -57 24 -57 54v17h-36l2 -29c1 -8 7 -11 12 -11c3 0 8 0 10 2h1v-48c-10 -6 -24 -10 -43 -10
c-40 0 -56 16 -55 43l1 53h-17v49l63 30h22l-1 -16h111l-2 -63c0 -14 4 -19 11 -19c8 0 13 6 12 19l-1 63h71c1 -17 3 -59 3 -80c0 -90 -30 -124 -107 -124zM683 62c0 72 1 133 3 197h58l2 -31c6 21 25 34 50 34c37 0 59 -28 59 -74c0 -54 -30 -87 -80 -87c-4 0 -11 1 -17 2
l2 -41h-77zM963 100c-66 0 -98 27 -98 79c0 51 31 83 86 83c50 0 77 -27 77 -76c0 -10 -1 -16 -2 -21l-87 -4c5 -8 21 -12 42 -12c12 0 25 1 35 5v-47c-15 -5 -33 -7 -53 -7zM139 154h119v82h-29v-46h-18v42h-28v-42h-15v45h-29v-81zM934 183l38 3c1 13 -7 20 -19 20
c-13 0 -19 -8 -19 -23zM765 157c14 0 21 7 21 20c0 12 -6 19 -16 19c-11 0 -19 -8 -19 -19c0 -3 1 -9 4 -19c3 -1 8 -1 10 -1zM1050 97c-9 0 -15 6 -15 15c0 8 6 14 15 14c8 0 14 -6 14 -14c0 -9 -6 -15 -14 -15zM139 11h119v45c0 41 -21 68 -61 68c-37 0 -60 -26 -60 -65
c0 -25 2 -43 2 -48zM1050 100c6 0 11 5 11 12c0 6 -5 11 -11 11c-7 0 -12 -5 -12 -11c0 -7 5 -12 12 -12zM1043 104v15h7c4 0 7 -1 7 -5c0 -3 -2 -4 -5 -4l4 -6h-4l-2 6h-4v-6h-3zM1046 112h4c2 0 3 1 3 2c0 2 -2 2 -3 2h-4v-4zM171 47c0 4 -1 5 -1 12c0 14 8 27 28 27
c19 0 28 -9 28 -27v-12h-55z" />
    <glyph glyph-name="B" unicode="B" horiz-adv-x="660" 
d="M423 381c132 -17 204 -87 204 -186c0 -125 -114 -195 -273 -195h-274c-12 0 -20 4 -20 12v3c0 18 36 20 36 55v570c0 35 -36 37 -36 56v2c0 8 8 12 20 12h218c163 0 260 -74 260 -177c0 -77 -52 -133 -135 -152zM187 635l-1 -200c0 -23 16 -38 39 -38h104
c89 0 147 51 147 121c0 95 -71 151 -180 151l-79 -1c-18 0 -30 -9 -30 -33zM346 41c115 0 188 45 188 139c0 96 -79 176 -229 176h-118v-267c0 -29 17 -48 42 -48h117z" />
    <glyph glyph-name="C" unicode="C" horiz-adv-x="678" 
d="M370 -10c-176 0 -337 174 -337 372c0 210 140 357 332 357c158 0 273 -113 273 -185c0 -26 -16 -43 -44 -43c-75 0 -69 187 -252 187c-116 0 -219 -108 -219 -266c0 -202 131 -342 272 -342c120 0 189 92 220 166c12 20 43 16 37 -13c-22 -118 -116 -233 -282 -233z" />
    <glyph glyph-name="Cacute" unicode="&#x106;" 
d="M100 -50v668h191v-668h-191zM199 429c41 0 61 31 61 63c0 36 -23 63 -61 63c-42 0 -63 -31 -63 -63c0 -36 24 -63 63 -63zM820 452c-24 0 -42 17 -42 40c0 22 18 40 42 40c23 0 41 -18 41 -40c0 -23 -18 -40 -41 -40zM199 467c-18 0 -30 9 -30 25s12 25 30 25
c17 0 28 -9 28 -25s-11 -25 -28 -25zM380 283c0 63 1 130 4 204h68c3 -67 5 -136 6 -204h-78zM721 279c-37 0 -56 13 -55 47l1 49h-17v49l60 48h22l2 -33h118c3 -52 4 -104 4 -156h-77c0 18 0 62 1 92h-41l3 -28c0 -8 5 -12 11 -12c3 0 7 0 11 2v-48c-5 -5 -21 -10 -43 -10z
M529 280c-37 0 -60 28 -60 74c0 56 34 88 92 88c49 0 80 -23 80 -48l-1 -111h-56l-5 30c-6 -20 -25 -33 -50 -33zM871 283c1 54 2 105 5 156h56l5 -34c10 26 28 37 53 37c35 0 54 -22 55 -69l2 -90h-78l2 73c0 13 -3 19 -11 19s-13 -5 -12 -19l1 -73h-78zM1144 280
c-54 0 -86 29 -86 80s33 82 86 82c54 0 86 -31 86 -82s-32 -80 -86 -80zM258 265v35l-57 1v1l43 24v17l-43 22v1l57 3v34l-119 -8v-29l55 -31l-55 -32v-31zM554 337c11 0 18 8 18 18c0 4 -1 10 -2 15c-3 4 -9 6 -14 6c-12 0 -18 -7 -18 -20c0 -12 6 -19 16 -19zM1144 337
c11 0 18 8 18 20s-7 19 -18 19c-10 0 -17 -7 -17 -19s7 -20 17 -20zM562 54c-18 0 -34 2 -46 9v55h1c12 -6 26 -10 40 -10c39 0 37 27 37 26c0 -8 -24 -10 -32 -10c-29 0 -57 24 -57 54v17h-36l2 -29c1 -8 7 -11 12 -11c3 0 8 0 10 2h1v-48c-10 -6 -24 -10 -43 -10
c-40 0 -56 16 -55 43l1 53h-17v49l63 30h22l-1 -16h111l-2 -63c0 -14 4 -19 11 -19c8 0 13 6 12 19l-1 63h71c1 -17 3 -59 3 -80c0 -90 -30 -124 -107 -124zM683 62c0 72 1 133 3 197h58l2 -31c6 21 25 34 50 34c37 0 59 -28 59 -74c0 -54 -30 -87 -80 -87c-4 0 -11 1 -17 2
l2 -41h-77zM963 100c-66 0 -98 27 -98 79c0 51 31 83 86 83c50 0 77 -27 77 -76c0 -10 -1 -16 -2 -21l-87 -4c5 -8 21 -12 42 -12c12 0 25 1 35 5v-47c-15 -5 -33 -7 -53 -7zM139 154h119v82h-29v-46h-18v42h-28v-42h-15v45h-29v-81zM934 183l38 3c1 13 -7 20 -19 20
c-13 0 -19 -8 -19 -23zM765 157c14 0 21 7 21 20c0 12 -6 19 -16 19c-11 0 -19 -8 -19 -19c0 -3 1 -9 4 -19c3 -1 8 -1 10 -1zM1050 97c-9 0 -15 6 -15 15c0 8 6 14 15 14c8 0 14 -6 14 -14c0 -9 -6 -15 -14 -15zM139 11h119v45c0 41 -21 68 -61 68c-37 0 -60 -26 -60 -65
c0 -25 2 -43 2 -48zM1050 100c6 0 11 5 11 12c0 6 -5 11 -11 11c-7 0 -12 -5 -12 -11c0 -7 5 -12 12 -12zM1043 104v15h7c4 0 7 -1 7 -5c0 -3 -2 -4 -5 -4l4 -6h-4l-2 6h-4v-6h-3zM1046 112h4c2 0 3 1 3 2c0 2 -2 2 -3 2h-4v-4zM171 47c0 4 -1 5 -1 12c0 14 8 27 28 27
c19 0 28 -9 28 -27v-12h-55z" />
    <glyph glyph-name="Ccaron" unicode="&#x10c;" 
d="M100 -50v668h191v-668h-191zM199 429c41 0 61 31 61 63c0 36 -23 63 -61 63c-42 0 -63 -31 -63 -63c0 -36 24 -63 63 -63zM820 452c-24 0 -42 17 -42 40c0 22 18 40 42 40c23 0 41 -18 41 -40c0 -23 -18 -40 -41 -40zM199 467c-18 0 -30 9 -30 25s12 25 30 25
c17 0 28 -9 28 -25s-11 -25 -28 -25zM380 283c0 63 1 130 4 204h68c3 -67 5 -136 6 -204h-78zM721 279c-37 0 -56 13 -55 47l1 49h-17v49l60 48h22l2 -33h118c3 -52 4 -104 4 -156h-77c0 18 0 62 1 92h-41l3 -28c0 -8 5 -12 11 -12c3 0 7 0 11 2v-48c-5 -5 -21 -10 -43 -10z
M529 280c-37 0 -60 28 -60 74c0 56 34 88 92 88c49 0 80 -23 80 -48l-1 -111h-56l-5 30c-6 -20 -25 -33 -50 -33zM871 283c1 54 2 105 5 156h56l5 -34c10 26 28 37 53 37c35 0 54 -22 55 -69l2 -90h-78l2 73c0 13 -3 19 -11 19s-13 -5 -12 -19l1 -73h-78zM1144 280
c-54 0 -86 29 -86 80s33 82 86 82c54 0 86 -31 86 -82s-32 -80 -86 -80zM258 265v35l-57 1v1l43 24v17l-43 22v1l57 3v34l-119 -8v-29l55 -31l-55 -32v-31zM554 337c11 0 18 8 18 18c0 4 -1 10 -2 15c-3 4 -9 6 -14 6c-12 0 -18 -7 -18 -20c0 -12 6 -19 16 -19zM1144 337
c11 0 18 8 18 20s-7 19 -18 19c-10 0 -17 -7 -17 -19s7 -20 17 -20zM562 54c-18 0 -34 2 -46 9v55h1c12 -6 26 -10 40 -10c39 0 37 27 37 26c0 -8 -24 -10 -32 -10c-29 0 -57 24 -57 54v17h-36l2 -29c1 -8 7 -11 12 -11c3 0 8 0 10 2h1v-48c-10 -6 -24 -10 -43 -10
c-40 0 -56 16 -55 43l1 53h-17v49l63 30h22l-1 -16h111l-2 -63c0 -14 4 -19 11 -19c8 0 13 6 12 19l-1 63h71c1 -17 3 -59 3 -80c0 -90 -30 -124 -107 -124zM683 62c0 72 1 133 3 197h58l2 -31c6 21 25 34 50 34c37 0 59 -28 59 -74c0 -54 -30 -87 -80 -87c-4 0 -11 1 -17 2
l2 -41h-77zM963 100c-66 0 -98 27 -98 79c0 51 31 83 86 83c50 0 77 -27 77 -76c0 -10 -1 -16 -2 -21l-87 -4c5 -8 21 -12 42 -12c12 0 25 1 35 5v-47c-15 -5 -33 -7 -53 -7zM139 154h119v82h-29v-46h-18v42h-28v-42h-15v45h-29v-81zM934 183l38 3c1 13 -7 20 -19 20
c-13 0 -19 -8 -19 -23zM765 157c14 0 21 7 21 20c0 12 -6 19 -16 19c-11 0 -19 -8 -19 -19c0 -3 1 -9 4 -19c3 -1 8 -1 10 -1zM1050 97c-9 0 -15 6 -15 15c0 8 6 14 15 14c8 0 14 -6 14 -14c0 -9 -6 -15 -14 -15zM139 11h119v45c0 41 -21 68 -61 68c-37 0 -60 -26 -60 -65
c0 -25 2 -43 2 -48zM1050 100c6 0 11 5 11 12c0 6 -5 11 -11 11c-7 0 -12 -5 -12 -11c0 -7 5 -12 12 -12zM1043 104v15h7c4 0 7 -1 7 -5c0 -3 -2 -4 -5 -4l4 -6h-4l-2 6h-4v-6h-3zM1046 112h4c2 0 3 1 3 2c0 2 -2 2 -3 2h-4v-4zM171 47c0 4 -1 5 -1 12c0 14 8 27 28 27
c19 0 28 -9 28 -27v-12h-55z" />
    <glyph glyph-name="Ccedilla" unicode="&#xc7;" 
d="M100 -50v668h191v-668h-191zM199 429c41 0 61 31 61 63c0 36 -23 63 -61 63c-42 0 -63 -31 -63 -63c0 -36 24 -63 63 -63zM820 452c-24 0 -42 17 -42 40c0 22 18 40 42 40c23 0 41 -18 41 -40c0 -23 -18 -40 -41 -40zM199 467c-18 0 -30 9 -30 25s12 25 30 25
c17 0 28 -9 28 -25s-11 -25 -28 -25zM380 283c0 63 1 130 4 204h68c3 -67 5 -136 6 -204h-78zM721 279c-37 0 -56 13 -55 47l1 49h-17v49l60 48h22l2 -33h118c3 -52 4 -104 4 -156h-77c0 18 0 62 1 92h-41l3 -28c0 -8 5 -12 11 -12c3 0 7 0 11 2v-48c-5 -5 -21 -10 -43 -10z
M529 280c-37 0 -60 28 -60 74c0 56 34 88 92 88c49 0 80 -23 80 -48l-1 -111h-56l-5 30c-6 -20 -25 -33 -50 -33zM871 283c1 54 2 105 5 156h56l5 -34c10 26 28 37 53 37c35 0 54 -22 55 -69l2 -90h-78l2 73c0 13 -3 19 -11 19s-13 -5 -12 -19l1 -73h-78zM1144 280
c-54 0 -86 29 -86 80s33 82 86 82c54 0 86 -31 86 -82s-32 -80 -86 -80zM258 265v35l-57 1v1l43 24v17l-43 22v1l57 3v34l-119 -8v-29l55 -31l-55 -32v-31zM554 337c11 0 18 8 18 18c0 4 -1 10 -2 15c-3 4 -9 6 -14 6c-12 0 -18 -7 -18 -20c0 -12 6 -19 16 -19zM1144 337
c11 0 18 8 18 20s-7 19 -18 19c-10 0 -17 -7 -17 -19s7 -20 17 -20zM562 54c-18 0 -34 2 -46 9v55h1c12 -6 26 -10 40 -10c39 0 37 27 37 26c0 -8 -24 -10 -32 -10c-29 0 -57 24 -57 54v17h-36l2 -29c1 -8 7 -11 12 -11c3 0 8 0 10 2h1v-48c-10 -6 -24 -10 -43 -10
c-40 0 -56 16 -55 43l1 53h-17v49l63 30h22l-1 -16h111l-2 -63c0 -14 4 -19 11 -19c8 0 13 6 12 19l-1 63h71c1 -17 3 -59 3 -80c0 -90 -30 -124 -107 -124zM683 62c0 72 1 133 3 197h58l2 -31c6 21 25 34 50 34c37 0 59 -28 59 -74c0 -54 -30 -87 -80 -87c-4 0 -11 1 -17 2
l2 -41h-77zM963 100c-66 0 -98 27 -98 79c0 51 31 83 86 83c50 0 77 -27 77 -76c0 -10 -1 -16 -2 -21l-87 -4c5 -8 21 -12 42 -12c12 0 25 1 35 5v-47c-15 -5 -33 -7 -53 -7zM139 154h119v82h-29v-46h-18v42h-28v-42h-15v45h-29v-81zM934 183l38 3c1 13 -7 20 -19 20
c-13 0 -19 -8 -19 -23zM765 157c14 0 21 7 21 20c0 12 -6 19 -16 19c-11 0 -19 -8 -19 -19c0 -3 1 -9 4 -19c3 -1 8 -1 10 -1zM1050 97c-9 0 -15 6 -15 15c0 8 6 14 15 14c8 0 14 -6 14 -14c0 -9 -6 -15 -14 -15zM139 11h119v45c0 41 -21 68 -61 68c-37 0 -60 -26 -60 -65
c0 -25 2 -43 2 -48zM1050 100c6 0 11 5 11 12c0 6 -5 11 -11 11c-7 0 -12 -5 -12 -11c0 -7 5 -12 12 -12zM1043 104v15h7c4 0 7 -1 7 -5c0 -3 -2 -4 -5 -4l4 -6h-4l-2 6h-4v-6h-3zM1046 112h4c2 0 3 1 3 2c0 2 -2 2 -3 2h-4v-4zM171 47c0 4 -1 5 -1 12c0 14 8 27 28 27
c19 0 28 -9 28 -27v-12h-55z" />
    <glyph glyph-name="Cdotaccent" unicode="&#x10a;" 
d="M100 -50v668h191v-668h-191zM199 429c41 0 61 31 61 63c0 36 -23 63 -61 63c-42 0 -63 -31 -63 -63c0 -36 24 -63 63 -63zM820 452c-24 0 -42 17 -42 40c0 22 18 40 42 40c23 0 41 -18 41 -40c0 -23 -18 -40 -41 -40zM199 467c-18 0 -30 9 -30 25s12 25 30 25
c17 0 28 -9 28 -25s-11 -25 -28 -25zM380 283c0 63 1 130 4 204h68c3 -67 5 -136 6 -204h-78zM721 279c-37 0 -56 13 -55 47l1 49h-17v49l60 48h22l2 -33h118c3 -52 4 -104 4 -156h-77c0 18 0 62 1 92h-41l3 -28c0 -8 5 -12 11 -12c3 0 7 0 11 2v-48c-5 -5 -21 -10 -43 -10z
M529 280c-37 0 -60 28 -60 74c0 56 34 88 92 88c49 0 80 -23 80 -48l-1 -111h-56l-5 30c-6 -20 -25 -33 -50 -33zM871 283c1 54 2 105 5 156h56l5 -34c10 26 28 37 53 37c35 0 54 -22 55 -69l2 -90h-78l2 73c0 13 -3 19 -11 19s-13 -5 -12 -19l1 -73h-78zM1144 280
c-54 0 -86 29 -86 80s33 82 86 82c54 0 86 -31 86 -82s-32 -80 -86 -80zM258 265v35l-57 1v1l43 24v17l-43 22v1l57 3v34l-119 -8v-29l55 -31l-55 -32v-31zM554 337c11 0 18 8 18 18c0 4 -1 10 -2 15c-3 4 -9 6 -14 6c-12 0 -18 -7 -18 -20c0 -12 6 -19 16 -19zM1144 337
c11 0 18 8 18 20s-7 19 -18 19c-10 0 -17 -7 -17 -19s7 -20 17 -20zM562 54c-18 0 -34 2 -46 9v55h1c12 -6 26 -10 40 -10c39 0 37 27 37 26c0 -8 -24 -10 -32 -10c-29 0 -57 24 -57 54v17h-36l2 -29c1 -8 7 -11 12 -11c3 0 8 0 10 2h1v-48c-10 -6 -24 -10 -43 -10
c-40 0 -56 16 -55 43l1 53h-17v49l63 30h22l-1 -16h111l-2 -63c0 -14 4 -19 11 -19c8 0 13 6 12 19l-1 63h71c1 -17 3 -59 3 -80c0 -90 -30 -124 -107 -124zM683 62c0 72 1 133 3 197h58l2 -31c6 21 25 34 50 34c37 0 59 -28 59 -74c0 -54 -30 -87 -80 -87c-4 0 -11 1 -17 2
l2 -41h-77zM963 100c-66 0 -98 27 -98 79c0 51 31 83 86 83c50 0 77 -27 77 -76c0 -10 -1 -16 -2 -21l-87 -4c5 -8 21 -12 42 -12c12 0 25 1 35 5v-47c-15 -5 -33 -7 -53 -7zM139 154h119v82h-29v-46h-18v42h-28v-42h-15v45h-29v-81zM934 183l38 3c1 13 -7 20 -19 20
c-13 0 -19 -8 -19 -23zM765 157c14 0 21 7 21 20c0 12 -6 19 -16 19c-11 0 -19 -8 -19 -19c0 -3 1 -9 4 -19c3 -1 8 -1 10 -1zM1050 97c-9 0 -15 6 -15 15c0 8 6 14 15 14c8 0 14 -6 14 -14c0 -9 -6 -15 -14 -15zM139 11h119v45c0 41 -21 68 -61 68c-37 0 -60 -26 -60 -65
c0 -25 2 -43 2 -48zM1050 100c6 0 11 5 11 12c0 6 -5 11 -11 11c-7 0 -12 -5 -12 -11c0 -7 5 -12 12 -12zM1043 104v15h7c4 0 7 -1 7 -5c0 -3 -2 -4 -5 -4l4 -6h-4l-2 6h-4v-6h-3zM1046 112h4c2 0 3 1 3 2c0 2 -2 2 -3 2h-4v-4zM171 47c0 4 -1 5 -1 12c0 14 8 27 28 27
c19 0 28 -9 28 -27v-12h-55z" />
    <glyph glyph-name="D" unicode="D" horiz-adv-x="741" 
d="M80 0c-12 0 -21 4 -21 12v2c0 19 37 21 37 56v570c0 36 -37 37 -37 56v2c0 8 9 12 21 12h219c221 0 404 -140 404 -349c0 -226 -162 -361 -368 -361h-255zM232 41h97c153 0 281 104 281 288c0 208 -158 340 -327 340h-70c-16 0 -28 -10 -28 -32v-541c0 -35 18 -55 47 -55
z" />
    <glyph glyph-name="Eth" unicode="&#xd0;" 
d="M100 -50v668h191v-668h-191zM199 429c41 0 61 31 61 63c0 36 -23 63 -61 63c-42 0 -63 -31 -63 -63c0 -36 24 -63 63 -63zM820 452c-24 0 -42 17 -42 40c0 22 18 40 42 40c23 0 41 -18 41 -40c0 -23 -18 -40 -41 -40zM199 467c-18 0 -30 9 -30 25s12 25 30 25
c17 0 28 -9 28 -25s-11 -25 -28 -25zM380 283c0 63 1 130 4 204h68c3 -67 5 -136 6 -204h-78zM721 279c-37 0 -56 13 -55 47l1 49h-17v49l60 48h22l2 -33h118c3 -52 4 -104 4 -156h-77c0 18 0 62 1 92h-41l3 -28c0 -8 5 -12 11 -12c3 0 7 0 11 2v-48c-5 -5 -21 -10 -43 -10z
M529 280c-37 0 -60 28 -60 74c0 56 34 88 92 88c49 0 80 -23 80 -48l-1 -111h-56l-5 30c-6 -20 -25 -33 -50 -33zM871 283c1 54 2 105 5 156h56l5 -34c10 26 28 37 53 37c35 0 54 -22 55 -69l2 -90h-78l2 73c0 13 -3 19 -11 19s-13 -5 -12 -19l1 -73h-78zM1144 280
c-54 0 -86 29 -86 80s33 82 86 82c54 0 86 -31 86 -82s-32 -80 -86 -80zM258 265v35l-57 1v1l43 24v17l-43 22v1l57 3v34l-119 -8v-29l55 -31l-55 -32v-31zM554 337c11 0 18 8 18 18c0 4 -1 10 -2 15c-3 4 -9 6 -14 6c-12 0 -18 -7 -18 -20c0 -12 6 -19 16 -19zM1144 337
c11 0 18 8 18 20s-7 19 -18 19c-10 0 -17 -7 -17 -19s7 -20 17 -20zM562 54c-18 0 -34 2 -46 9v55h1c12 -6 26 -10 40 -10c39 0 37 27 37 26c0 -8 -24 -10 -32 -10c-29 0 -57 24 -57 54v17h-36l2 -29c1 -8 7 -11 12 -11c3 0 8 0 10 2h1v-48c-10 -6 -24 -10 -43 -10
c-40 0 -56 16 -55 43l1 53h-17v49l63 30h22l-1 -16h111l-2 -63c0 -14 4 -19 11 -19c8 0 13 6 12 19l-1 63h71c1 -17 3 -59 3 -80c0 -90 -30 -124 -107 -124zM683 62c0 72 1 133 3 197h58l2 -31c6 21 25 34 50 34c37 0 59 -28 59 -74c0 -54 -30 -87 -80 -87c-4 0 -11 1 -17 2
l2 -41h-77zM963 100c-66 0 -98 27 -98 79c0 51 31 83 86 83c50 0 77 -27 77 -76c0 -10 -1 -16 -2 -21l-87 -4c5 -8 21 -12 42 -12c12 0 25 1 35 5v-47c-15 -5 -33 -7 -53 -7zM139 154h119v82h-29v-46h-18v42h-28v-42h-15v45h-29v-81zM934 183l38 3c1 13 -7 20 -19 20
c-13 0 -19 -8 -19 -23zM765 157c14 0 21 7 21 20c0 12 -6 19 -16 19c-11 0 -19 -8 -19 -19c0 -3 1 -9 4 -19c3 -1 8 -1 10 -1zM1050 97c-9 0 -15 6 -15 15c0 8 6 14 15 14c8 0 14 -6 14 -14c0 -9 -6 -15 -14 -15zM139 11h119v45c0 41 -21 68 -61 68c-37 0 -60 -26 -60 -65
c0 -25 2 -43 2 -48zM1050 100c6 0 11 5 11 12c0 6 -5 11 -11 11c-7 0 -12 -5 -12 -11c0 -7 5 -12 12 -12zM1043 104v15h7c4 0 7 -1 7 -5c0 -3 -2 -4 -5 -4l4 -6h-4l-2 6h-4v-6h-3zM1046 112h4c2 0 3 1 3 2c0 2 -2 2 -3 2h-4v-4zM171 47c0 4 -1 5 -1 12c0 14 8 27 28 27
c19 0 28 -9 28 -27v-12h-55z" />
    <glyph glyph-name="Dcaron" unicode="&#x10e;" 
d="M100 -50v668h191v-668h-191zM199 429c41 0 61 31 61 63c0 36 -23 63 -61 63c-42 0 -63 -31 -63 -63c0 -36 24 -63 63 -63zM820 452c-24 0 -42 17 -42 40c0 22 18 40 42 40c23 0 41 -18 41 -40c0 -23 -18 -40 -41 -40zM199 467c-18 0 -30 9 -30 25s12 25 30 25
c17 0 28 -9 28 -25s-11 -25 -28 -25zM380 283c0 63 1 130 4 204h68c3 -67 5 -136 6 -204h-78zM721 279c-37 0 -56 13 -55 47l1 49h-17v49l60 48h22l2 -33h118c3 -52 4 -104 4 -156h-77c0 18 0 62 1 92h-41l3 -28c0 -8 5 -12 11 -12c3 0 7 0 11 2v-48c-5 -5 -21 -10 -43 -10z
M529 280c-37 0 -60 28 -60 74c0 56 34 88 92 88c49 0 80 -23 80 -48l-1 -111h-56l-5 30c-6 -20 -25 -33 -50 -33zM871 283c1 54 2 105 5 156h56l5 -34c10 26 28 37 53 37c35 0 54 -22 55 -69l2 -90h-78l2 73c0 13 -3 19 -11 19s-13 -5 -12 -19l1 -73h-78zM1144 280
c-54 0 -86 29 -86 80s33 82 86 82c54 0 86 -31 86 -82s-32 -80 -86 -80zM258 265v35l-57 1v1l43 24v17l-43 22v1l57 3v34l-119 -8v-29l55 -31l-55 -32v-31zM554 337c11 0 18 8 18 18c0 4 -1 10 -2 15c-3 4 -9 6 -14 6c-12 0 -18 -7 -18 -20c0 -12 6 -19 16 -19zM1144 337
c11 0 18 8 18 20s-7 19 -18 19c-10 0 -17 -7 -17 -19s7 -20 17 -20zM562 54c-18 0 -34 2 -46 9v55h1c12 -6 26 -10 40 -10c39 0 37 27 37 26c0 -8 -24 -10 -32 -10c-29 0 -57 24 -57 54v17h-36l2 -29c1 -8 7 -11 12 -11c3 0 8 0 10 2h1v-48c-10 -6 -24 -10 -43 -10
c-40 0 -56 16 -55 43l1 53h-17v49l63 30h22l-1 -16h111l-2 -63c0 -14 4 -19 11 -19c8 0 13 6 12 19l-1 63h71c1 -17 3 -59 3 -80c0 -90 -30 -124 -107 -124zM683 62c0 72 1 133 3 197h58l2 -31c6 21 25 34 50 34c37 0 59 -28 59 -74c0 -54 -30 -87 -80 -87c-4 0 -11 1 -17 2
l2 -41h-77zM963 100c-66 0 -98 27 -98 79c0 51 31 83 86 83c50 0 77 -27 77 -76c0 -10 -1 -16 -2 -21l-87 -4c5 -8 21 -12 42 -12c12 0 25 1 35 5v-47c-15 -5 -33 -7 -53 -7zM139 154h119v82h-29v-46h-18v42h-28v-42h-15v45h-29v-81zM934 183l38 3c1 13 -7 20 -19 20
c-13 0 -19 -8 -19 -23zM765 157c14 0 21 7 21 20c0 12 -6 19 -16 19c-11 0 -19 -8 -19 -19c0 -3 1 -9 4 -19c3 -1 8 -1 10 -1zM1050 97c-9 0 -15 6 -15 15c0 8 6 14 15 14c8 0 14 -6 14 -14c0 -9 -6 -15 -14 -15zM139 11h119v45c0 41 -21 68 -61 68c-37 0 -60 -26 -60 -65
c0 -25 2 -43 2 -48zM1050 100c6 0 11 5 11 12c0 6 -5 11 -11 11c-7 0 -12 -5 -12 -11c0 -7 5 -12 12 -12zM1043 104v15h7c4 0 7 -1 7 -5c0 -3 -2 -4 -5 -4l4 -6h-4l-2 6h-4v-6h-3zM1046 112h4c2 0 3 1 3 2c0 2 -2 2 -3 2h-4v-4zM171 47c0 4 -1 5 -1 12c0 14 8 27 28 27
c19 0 28 -9 28 -27v-12h-55z" />
    <glyph glyph-name="Dcroat" unicode="&#x110;" 
d="M100 -50v668h191v-668h-191zM199 429c41 0 61 31 61 63c0 36 -23 63 -61 63c-42 0 -63 -31 -63 -63c0 -36 24 -63 63 -63zM820 452c-24 0 -42 17 -42 40c0 22 18 40 42 40c23 0 41 -18 41 -40c0 -23 -18 -40 -41 -40zM199 467c-18 0 -30 9 -30 25s12 25 30 25
c17 0 28 -9 28 -25s-11 -25 -28 -25zM380 283c0 63 1 130 4 204h68c3 -67 5 -136 6 -204h-78zM721 279c-37 0 -56 13 -55 47l1 49h-17v49l60 48h22l2 -33h118c3 -52 4 -104 4 -156h-77c0 18 0 62 1 92h-41l3 -28c0 -8 5 -12 11 -12c3 0 7 0 11 2v-48c-5 -5 -21 -10 -43 -10z
M529 280c-37 0 -60 28 -60 74c0 56 34 88 92 88c49 0 80 -23 80 -48l-1 -111h-56l-5 30c-6 -20 -25 -33 -50 -33zM871 283c1 54 2 105 5 156h56l5 -34c10 26 28 37 53 37c35 0 54 -22 55 -69l2 -90h-78l2 73c0 13 -3 19 -11 19s-13 -5 -12 -19l1 -73h-78zM1144 280
c-54 0 -86 29 -86 80s33 82 86 82c54 0 86 -31 86 -82s-32 -80 -86 -80zM258 265v35l-57 1v1l43 24v17l-43 22v1l57 3v34l-119 -8v-29l55 -31l-55 -32v-31zM554 337c11 0 18 8 18 18c0 4 -1 10 -2 15c-3 4 -9 6 -14 6c-12 0 -18 -7 -18 -20c0 -12 6 -19 16 -19zM1144 337
c11 0 18 8 18 20s-7 19 -18 19c-10 0 -17 -7 -17 -19s7 -20 17 -20zM562 54c-18 0 -34 2 -46 9v55h1c12 -6 26 -10 40 -10c39 0 37 27 37 26c0 -8 -24 -10 -32 -10c-29 0 -57 24 -57 54v17h-36l2 -29c1 -8 7 -11 12 -11c3 0 8 0 10 2h1v-48c-10 -6 -24 -10 -43 -10
c-40 0 -56 16 -55 43l1 53h-17v49l63 30h22l-1 -16h111l-2 -63c0 -14 4 -19 11 -19c8 0 13 6 12 19l-1 63h71c1 -17 3 -59 3 -80c0 -90 -30 -124 -107 -124zM683 62c0 72 1 133 3 197h58l2 -31c6 21 25 34 50 34c37 0 59 -28 59 -74c0 -54 -30 -87 -80 -87c-4 0 -11 1 -17 2
l2 -41h-77zM963 100c-66 0 -98 27 -98 79c0 51 31 83 86 83c50 0 77 -27 77 -76c0 -10 -1 -16 -2 -21l-87 -4c5 -8 21 -12 42 -12c12 0 25 1 35 5v-47c-15 -5 -33 -7 -53 -7zM139 154h119v82h-29v-46h-18v42h-28v-42h-15v45h-29v-81zM934 183l38 3c1 13 -7 20 -19 20
c-13 0 -19 -8 -19 -23zM765 157c14 0 21 7 21 20c0 12 -6 19 -16 19c-11 0 -19 -8 -19 -19c0 -3 1 -9 4 -19c3 -1 8 -1 10 -1zM1050 97c-9 0 -15 6 -15 15c0 8 6 14 15 14c8 0 14 -6 14 -14c0 -9 -6 -15 -14 -15zM139 11h119v45c0 41 -21 68 -61 68c-37 0 -60 -26 -60 -65
c0 -25 2 -43 2 -48zM1050 100c6 0 11 5 11 12c0 6 -5 11 -11 11c-7 0 -12 -5 -12 -11c0 -7 5 -12 12 -12zM1043 104v15h7c4 0 7 -1 7 -5c0 -3 -2 -4 -5 -4l4 -6h-4l-2 6h-4v-6h-3zM1046 112h4c2 0 3 1 3 2c0 2 -2 2 -3 2h-4v-4zM171 47c0 4 -1 5 -1 12c0 14 8 27 28 27
c19 0 28 -9 28 -27v-12h-55z" />
    <glyph glyph-name="E" unicode="E" horiz-adv-x="600" 
d="M80 0c-12 0 -21 4 -21 12v2c0 19 37 19 37 57v568c0 38 -37 39 -37 57v3c0 7 7 11 18 11h424c16 0 22 -8 25 -22l24 -99c3 -14 -2 -20 -12 -20h-5c-31 0 -55 100 -107 100h-212c-18 0 -28 -10 -28 -34v-251h182c38 0 37 59 58 59h4c8 0 13 -6 13 -17v-123
c0 -10 -5 -17 -13 -17h-4c-21 0 -20 57 -58 57h-182l-1 -259c0 -23 12 -43 37 -43h235c53 0 70 103 105 103h6c9 0 14 -9 12 -20l-24 -101c-3 -15 -10 -23 -26 -23h-450z" />
    <glyph glyph-name="Eacute" unicode="&#xc9;" 
d="M100 -50v668h191v-668h-191zM199 429c41 0 61 31 61 63c0 36 -23 63 -61 63c-42 0 -63 -31 -63 -63c0 -36 24 -63 63 -63zM820 452c-24 0 -42 17 -42 40c0 22 18 40 42 40c23 0 41 -18 41 -40c0 -23 -18 -40 -41 -40zM199 467c-18 0 -30 9 -30 25s12 25 30 25
c17 0 28 -9 28 -25s-11 -25 -28 -25zM380 283c0 63 1 130 4 204h68c3 -67 5 -136 6 -204h-78zM721 279c-37 0 -56 13 -55 47l1 49h-17v49l60 48h22l2 -33h118c3 -52 4 -104 4 -156h-77c0 18 0 62 1 92h-41l3 -28c0 -8 5 -12 11 -12c3 0 7 0 11 2v-48c-5 -5 -21 -10 -43 -10z
M529 280c-37 0 -60 28 -60 74c0 56 34 88 92 88c49 0 80 -23 80 -48l-1 -111h-56l-5 30c-6 -20 -25 -33 -50 -33zM871 283c1 54 2 105 5 156h56l5 -34c10 26 28 37 53 37c35 0 54 -22 55 -69l2 -90h-78l2 73c0 13 -3 19 -11 19s-13 -5 -12 -19l1 -73h-78zM1144 280
c-54 0 -86 29 -86 80s33 82 86 82c54 0 86 -31 86 -82s-32 -80 -86 -80zM258 265v35l-57 1v1l43 24v17l-43 22v1l57 3v34l-119 -8v-29l55 -31l-55 -32v-31zM554 337c11 0 18 8 18 18c0 4 -1 10 -2 15c-3 4 -9 6 -14 6c-12 0 -18 -7 -18 -20c0 -12 6 -19 16 -19zM1144 337
c11 0 18 8 18 20s-7 19 -18 19c-10 0 -17 -7 -17 -19s7 -20 17 -20zM562 54c-18 0 -34 2 -46 9v55h1c12 -6 26 -10 40 -10c39 0 37 27 37 26c0 -8 -24 -10 -32 -10c-29 0 -57 24 -57 54v17h-36l2 -29c1 -8 7 -11 12 -11c3 0 8 0 10 2h1v-48c-10 -6 -24 -10 -43 -10
c-40 0 -56 16 -55 43l1 53h-17v49l63 30h22l-1 -16h111l-2 -63c0 -14 4 -19 11 -19c8 0 13 6 12 19l-1 63h71c1 -17 3 -59 3 -80c0 -90 -30 -124 -107 -124zM683 62c0 72 1 133 3 197h58l2 -31c6 21 25 34 50 34c37 0 59 -28 59 -74c0 -54 -30 -87 -80 -87c-4 0 -11 1 -17 2
l2 -41h-77zM963 100c-66 0 -98 27 -98 79c0 51 31 83 86 83c50 0 77 -27 77 -76c0 -10 -1 -16 -2 -21l-87 -4c5 -8 21 -12 42 -12c12 0 25 1 35 5v-47c-15 -5 -33 -7 -53 -7zM139 154h119v82h-29v-46h-18v42h-28v-42h-15v45h-29v-81zM934 183l38 3c1 13 -7 20 -19 20
c-13 0 -19 -8 -19 -23zM765 157c14 0 21 7 21 20c0 12 -6 19 -16 19c-11 0 -19 -8 -19 -19c0 -3 1 -9 4 -19c3 -1 8 -1 10 -1zM1050 97c-9 0 -15 6 -15 15c0 8 6 14 15 14c8 0 14 -6 14 -14c0 -9 -6 -15 -14 -15zM139 11h119v45c0 41 -21 68 -61 68c-37 0 -60 -26 -60 -65
c0 -25 2 -43 2 -48zM1050 100c6 0 11 5 11 12c0 6 -5 11 -11 11c-7 0 -12 -5 -12 -11c0 -7 5 -12 12 -12zM1043 104v15h7c4 0 7 -1 7 -5c0 -3 -2 -4 -5 -4l4 -6h-4l-2 6h-4v-6h-3zM1046 112h4c2 0 3 1 3 2c0 2 -2 2 -3 2h-4v-4zM171 47c0 4 -1 5 -1 12c0 14 8 27 28 27
c19 0 28 -9 28 -27v-12h-55z" />
    <glyph glyph-name="Ecaron" unicode="&#x11a;" 
d="M100 -50v668h191v-668h-191zM199 429c41 0 61 31 61 63c0 36 -23 63 -61 63c-42 0 -63 -31 -63 -63c0 -36 24 -63 63 -63zM820 452c-24 0 -42 17 -42 40c0 22 18 40 42 40c23 0 41 -18 41 -40c0 -23 -18 -40 -41 -40zM199 467c-18 0 -30 9 -30 25s12 25 30 25
c17 0 28 -9 28 -25s-11 -25 -28 -25zM380 283c0 63 1 130 4 204h68c3 -67 5 -136 6 -204h-78zM721 279c-37 0 -56 13 -55 47l1 49h-17v49l60 48h22l2 -33h118c3 -52 4 -104 4 -156h-77c0 18 0 62 1 92h-41l3 -28c0 -8 5 -12 11 -12c3 0 7 0 11 2v-48c-5 -5 -21 -10 -43 -10z
M529 280c-37 0 -60 28 -60 74c0 56 34 88 92 88c49 0 80 -23 80 -48l-1 -111h-56l-5 30c-6 -20 -25 -33 -50 -33zM871 283c1 54 2 105 5 156h56l5 -34c10 26 28 37 53 37c35 0 54 -22 55 -69l2 -90h-78l2 73c0 13 -3 19 -11 19s-13 -5 -12 -19l1 -73h-78zM1144 280
c-54 0 -86 29 -86 80s33 82 86 82c54 0 86 -31 86 -82s-32 -80 -86 -80zM258 265v35l-57 1v1l43 24v17l-43 22v1l57 3v34l-119 -8v-29l55 -31l-55 -32v-31zM554 337c11 0 18 8 18 18c0 4 -1 10 -2 15c-3 4 -9 6 -14 6c-12 0 -18 -7 -18 -20c0 -12 6 -19 16 -19zM1144 337
c11 0 18 8 18 20s-7 19 -18 19c-10 0 -17 -7 -17 -19s7 -20 17 -20zM562 54c-18 0 -34 2 -46 9v55h1c12 -6 26 -10 40 -10c39 0 37 27 37 26c0 -8 -24 -10 -32 -10c-29 0 -57 24 -57 54v17h-36l2 -29c1 -8 7 -11 12 -11c3 0 8 0 10 2h1v-48c-10 -6 -24 -10 -43 -10
c-40 0 -56 16 -55 43l1 53h-17v49l63 30h22l-1 -16h111l-2 -63c0 -14 4 -19 11 -19c8 0 13 6 12 19l-1 63h71c1 -17 3 -59 3 -80c0 -90 -30 -124 -107 -124zM683 62c0 72 1 133 3 197h58l2 -31c6 21 25 34 50 34c37 0 59 -28 59 -74c0 -54 -30 -87 -80 -87c-4 0 -11 1 -17 2
l2 -41h-77zM963 100c-66 0 -98 27 -98 79c0 51 31 83 86 83c50 0 77 -27 77 -76c0 -10 -1 -16 -2 -21l-87 -4c5 -8 21 -12 42 -12c12 0 25 1 35 5v-47c-15 -5 -33 -7 -53 -7zM139 154h119v82h-29v-46h-18v42h-28v-42h-15v45h-29v-81zM934 183l38 3c1 13 -7 20 -19 20
c-13 0 -19 -8 -19 -23zM765 157c14 0 21 7 21 20c0 12 -6 19 -16 19c-11 0 -19 -8 -19 -19c0 -3 1 -9 4 -19c3 -1 8 -1 10 -1zM1050 97c-9 0 -15 6 -15 15c0 8 6 14 15 14c8 0 14 -6 14 -14c0 -9 -6 -15 -14 -15zM139 11h119v45c0 41 -21 68 -61 68c-37 0 -60 -26 -60 -65
c0 -25 2 -43 2 -48zM1050 100c6 0 11 5 11 12c0 6 -5 11 -11 11c-7 0 -12 -5 -12 -11c0 -7 5 -12 12 -12zM1043 104v15h7c4 0 7 -1 7 -5c0 -3 -2 -4 -5 -4l4 -6h-4l-2 6h-4v-6h-3zM1046 112h4c2 0 3 1 3 2c0 2 -2 2 -3 2h-4v-4zM171 47c0 4 -1 5 -1 12c0 14 8 27 28 27
c19 0 28 -9 28 -27v-12h-55z" />
    <glyph glyph-name="Ecircumflex" unicode="&#xca;" 
d="M100 -50v668h191v-668h-191zM199 429c41 0 61 31 61 63c0 36 -23 63 -61 63c-42 0 -63 -31 -63 -63c0 -36 24 -63 63 -63zM820 452c-24 0 -42 17 -42 40c0 22 18 40 42 40c23 0 41 -18 41 -40c0 -23 -18 -40 -41 -40zM199 467c-18 0 -30 9 -30 25s12 25 30 25
c17 0 28 -9 28 -25s-11 -25 -28 -25zM380 283c0 63 1 130 4 204h68c3 -67 5 -136 6 -204h-78zM721 279c-37 0 -56 13 -55 47l1 49h-17v49l60 48h22l2 -33h118c3 -52 4 -104 4 -156h-77c0 18 0 62 1 92h-41l3 -28c0 -8 5 -12 11 -12c3 0 7 0 11 2v-48c-5 -5 -21 -10 -43 -10z
M529 280c-37 0 -60 28 -60 74c0 56 34 88 92 88c49 0 80 -23 80 -48l-1 -111h-56l-5 30c-6 -20 -25 -33 -50 -33zM871 283c1 54 2 105 5 156h56l5 -34c10 26 28 37 53 37c35 0 54 -22 55 -69l2 -90h-78l2 73c0 13 -3 19 -11 19s-13 -5 -12 -19l1 -73h-78zM1144 280
c-54 0 -86 29 -86 80s33 82 86 82c54 0 86 -31 86 -82s-32 -80 -86 -80zM258 265v35l-57 1v1l43 24v17l-43 22v1l57 3v34l-119 -8v-29l55 -31l-55 -32v-31zM554 337c11 0 18 8 18 18c0 4 -1 10 -2 15c-3 4 -9 6 -14 6c-12 0 -18 -7 -18 -20c0 -12 6 -19 16 -19zM1144 337
c11 0 18 8 18 20s-7 19 -18 19c-10 0 -17 -7 -17 -19s7 -20 17 -20zM562 54c-18 0 -34 2 -46 9v55h1c12 -6 26 -10 40 -10c39 0 37 27 37 26c0 -8 -24 -10 -32 -10c-29 0 -57 24 -57 54v17h-36l2 -29c1 -8 7 -11 12 -11c3 0 8 0 10 2h1v-48c-10 -6 -24 -10 -43 -10
c-40 0 -56 16 -55 43l1 53h-17v49l63 30h22l-1 -16h111l-2 -63c0 -14 4 -19 11 -19c8 0 13 6 12 19l-1 63h71c1 -17 3 -59 3 -80c0 -90 -30 -124 -107 -124zM683 62c0 72 1 133 3 197h58l2 -31c6 21 25 34 50 34c37 0 59 -28 59 -74c0 -54 -30 -87 -80 -87c-4 0 -11 1 -17 2
l2 -41h-77zM963 100c-66 0 -98 27 -98 79c0 51 31 83 86 83c50 0 77 -27 77 -76c0 -10 -1 -16 -2 -21l-87 -4c5 -8 21 -12 42 -12c12 0 25 1 35 5v-47c-15 -5 -33 -7 -53 -7zM139 154h119v82h-29v-46h-18v42h-28v-42h-15v45h-29v-81zM934 183l38 3c1 13 -7 20 -19 20
c-13 0 -19 -8 -19 -23zM765 157c14 0 21 7 21 20c0 12 -6 19 -16 19c-11 0 -19 -8 -19 -19c0 -3 1 -9 4 -19c3 -1 8 -1 10 -1zM1050 97c-9 0 -15 6 -15 15c0 8 6 14 15 14c8 0 14 -6 14 -14c0 -9 -6 -15 -14 -15zM139 11h119v45c0 41 -21 68 -61 68c-37 0 -60 -26 -60 -65
c0 -25 2 -43 2 -48zM1050 100c6 0 11 5 11 12c0 6 -5 11 -11 11c-7 0 -12 -5 -12 -11c0 -7 5 -12 12 -12zM1043 104v15h7c4 0 7 -1 7 -5c0 -3 -2 -4 -5 -4l4 -6h-4l-2 6h-4v-6h-3zM1046 112h4c2 0 3 1 3 2c0 2 -2 2 -3 2h-4v-4zM171 47c0 4 -1 5 -1 12c0 14 8 27 28 27
c19 0 28 -9 28 -27v-12h-55z" />
    <glyph glyph-name="Edieresis" unicode="&#xcb;" 
d="M100 -50v668h191v-668h-191zM199 429c41 0 61 31 61 63c0 36 -23 63 -61 63c-42 0 -63 -31 -63 -63c0 -36 24 -63 63 -63zM820 452c-24 0 -42 17 -42 40c0 22 18 40 42 40c23 0 41 -18 41 -40c0 -23 -18 -40 -41 -40zM199 467c-18 0 -30 9 -30 25s12 25 30 25
c17 0 28 -9 28 -25s-11 -25 -28 -25zM380 283c0 63 1 130 4 204h68c3 -67 5 -136 6 -204h-78zM721 279c-37 0 -56 13 -55 47l1 49h-17v49l60 48h22l2 -33h118c3 -52 4 -104 4 -156h-77c0 18 0 62 1 92h-41l3 -28c0 -8 5 -12 11 -12c3 0 7 0 11 2v-48c-5 -5 -21 -10 -43 -10z
M529 280c-37 0 -60 28 -60 74c0 56 34 88 92 88c49 0 80 -23 80 -48l-1 -111h-56l-5 30c-6 -20 -25 -33 -50 -33zM871 283c1 54 2 105 5 156h56l5 -34c10 26 28 37 53 37c35 0 54 -22 55 -69l2 -90h-78l2 73c0 13 -3 19 -11 19s-13 -5 -12 -19l1 -73h-78zM1144 280
c-54 0 -86 29 -86 80s33 82 86 82c54 0 86 -31 86 -82s-32 -80 -86 -80zM258 265v35l-57 1v1l43 24v17l-43 22v1l57 3v34l-119 -8v-29l55 -31l-55 -32v-31zM554 337c11 0 18 8 18 18c0 4 -1 10 -2 15c-3 4 -9 6 -14 6c-12 0 -18 -7 -18 -20c0 -12 6 -19 16 -19zM1144 337
c11 0 18 8 18 20s-7 19 -18 19c-10 0 -17 -7 -17 -19s7 -20 17 -20zM562 54c-18 0 -34 2 -46 9v55h1c12 -6 26 -10 40 -10c39 0 37 27 37 26c0 -8 -24 -10 -32 -10c-29 0 -57 24 -57 54v17h-36l2 -29c1 -8 7 -11 12 -11c3 0 8 0 10 2h1v-48c-10 -6 -24 -10 -43 -10
c-40 0 -56 16 -55 43l1 53h-17v49l63 30h22l-1 -16h111l-2 -63c0 -14 4 -19 11 -19c8 0 13 6 12 19l-1 63h71c1 -17 3 -59 3 -80c0 -90 -30 -124 -107 -124zM683 62c0 72 1 133 3 197h58l2 -31c6 21 25 34 50 34c37 0 59 -28 59 -74c0 -54 -30 -87 -80 -87c-4 0 -11 1 -17 2
l2 -41h-77zM963 100c-66 0 -98 27 -98 79c0 51 31 83 86 83c50 0 77 -27 77 -76c0 -10 -1 -16 -2 -21l-87 -4c5 -8 21 -12 42 -12c12 0 25 1 35 5v-47c-15 -5 -33 -7 -53 -7zM139 154h119v82h-29v-46h-18v42h-28v-42h-15v45h-29v-81zM934 183l38 3c1 13 -7 20 -19 20
c-13 0 -19 -8 -19 -23zM765 157c14 0 21 7 21 20c0 12 -6 19 -16 19c-11 0 -19 -8 -19 -19c0 -3 1 -9 4 -19c3 -1 8 -1 10 -1zM1050 97c-9 0 -15 6 -15 15c0 8 6 14 15 14c8 0 14 -6 14 -14c0 -9 -6 -15 -14 -15zM139 11h119v45c0 41 -21 68 -61 68c-37 0 -60 -26 -60 -65
c0 -25 2 -43 2 -48zM1050 100c6 0 11 5 11 12c0 6 -5 11 -11 11c-7 0 -12 -5 -12 -11c0 -7 5 -12 12 -12zM1043 104v15h7c4 0 7 -1 7 -5c0 -3 -2 -4 -5 -4l4 -6h-4l-2 6h-4v-6h-3zM1046 112h4c2 0 3 1 3 2c0 2 -2 2 -3 2h-4v-4zM171 47c0 4 -1 5 -1 12c0 14 8 27 28 27
c19 0 28 -9 28 -27v-12h-55z" />
    <glyph glyph-name="Edotaccent" unicode="&#x116;" 
d="M100 -50v668h191v-668h-191zM199 429c41 0 61 31 61 63c0 36 -23 63 -61 63c-42 0 -63 -31 -63 -63c0 -36 24 -63 63 -63zM820 452c-24 0 -42 17 -42 40c0 22 18 40 42 40c23 0 41 -18 41 -40c0 -23 -18 -40 -41 -40zM199 467c-18 0 -30 9 -30 25s12 25 30 25
c17 0 28 -9 28 -25s-11 -25 -28 -25zM380 283c0 63 1 130 4 204h68c3 -67 5 -136 6 -204h-78zM721 279c-37 0 -56 13 -55 47l1 49h-17v49l60 48h22l2 -33h118c3 -52 4 -104 4 -156h-77c0 18 0 62 1 92h-41l3 -28c0 -8 5 -12 11 -12c3 0 7 0 11 2v-48c-5 -5 -21 -10 -43 -10z
M529 280c-37 0 -60 28 -60 74c0 56 34 88 92 88c49 0 80 -23 80 -48l-1 -111h-56l-5 30c-6 -20 -25 -33 -50 -33zM871 283c1 54 2 105 5 156h56l5 -34c10 26 28 37 53 37c35 0 54 -22 55 -69l2 -90h-78l2 73c0 13 -3 19 -11 19s-13 -5 -12 -19l1 -73h-78zM1144 280
c-54 0 -86 29 -86 80s33 82 86 82c54 0 86 -31 86 -82s-32 -80 -86 -80zM258 265v35l-57 1v1l43 24v17l-43 22v1l57 3v34l-119 -8v-29l55 -31l-55 -32v-31zM554 337c11 0 18 8 18 18c0 4 -1 10 -2 15c-3 4 -9 6 -14 6c-12 0 -18 -7 -18 -20c0 -12 6 -19 16 -19zM1144 337
c11 0 18 8 18 20s-7 19 -18 19c-10 0 -17 -7 -17 -19s7 -20 17 -20zM562 54c-18 0 -34 2 -46 9v55h1c12 -6 26 -10 40 -10c39 0 37 27 37 26c0 -8 -24 -10 -32 -10c-29 0 -57 24 -57 54v17h-36l2 -29c1 -8 7 -11 12 -11c3 0 8 0 10 2h1v-48c-10 -6 -24 -10 -43 -10
c-40 0 -56 16 -55 43l1 53h-17v49l63 30h22l-1 -16h111l-2 -63c0 -14 4 -19 11 -19c8 0 13 6 12 19l-1 63h71c1 -17 3 -59 3 -80c0 -90 -30 -124 -107 -124zM683 62c0 72 1 133 3 197h58l2 -31c6 21 25 34 50 34c37 0 59 -28 59 -74c0 -54 -30 -87 -80 -87c-4 0 -11 1 -17 2
l2 -41h-77zM963 100c-66 0 -98 27 -98 79c0 51 31 83 86 83c50 0 77 -27 77 -76c0 -10 -1 -16 -2 -21l-87 -4c5 -8 21 -12 42 -12c12 0 25 1 35 5v-47c-15 -5 -33 -7 -53 -7zM139 154h119v82h-29v-46h-18v42h-28v-42h-15v45h-29v-81zM934 183l38 3c1 13 -7 20 -19 20
c-13 0 -19 -8 -19 -23zM765 157c14 0 21 7 21 20c0 12 -6 19 -16 19c-11 0 -19 -8 -19 -19c0 -3 1 -9 4 -19c3 -1 8 -1 10 -1zM1050 97c-9 0 -15 6 -15 15c0 8 6 14 15 14c8 0 14 -6 14 -14c0 -9 -6 -15 -14 -15zM139 11h119v45c0 41 -21 68 -61 68c-37 0 -60 -26 -60 -65
c0 -25 2 -43 2 -48zM1050 100c6 0 11 5 11 12c0 6 -5 11 -11 11c-7 0 -12 -5 -12 -11c0 -7 5 -12 12 -12zM1043 104v15h7c4 0 7 -1 7 -5c0 -3 -2 -4 -5 -4l4 -6h-4l-2 6h-4v-6h-3zM1046 112h4c2 0 3 1 3 2c0 2 -2 2 -3 2h-4v-4zM171 47c0 4 -1 5 -1 12c0 14 8 27 28 27
c19 0 28 -9 28 -27v-12h-55z" />
    <glyph glyph-name="Egrave" unicode="&#xc8;" 
d="M100 -50v668h191v-668h-191zM199 429c41 0 61 31 61 63c0 36 -23 63 -61 63c-42 0 -63 -31 -63 -63c0 -36 24 -63 63 -63zM820 452c-24 0 -42 17 -42 40c0 22 18 40 42 40c23 0 41 -18 41 -40c0 -23 -18 -40 -41 -40zM199 467c-18 0 -30 9 -30 25s12 25 30 25
c17 0 28 -9 28 -25s-11 -25 -28 -25zM380 283c0 63 1 130 4 204h68c3 -67 5 -136 6 -204h-78zM721 279c-37 0 -56 13 -55 47l1 49h-17v49l60 48h22l2 -33h118c3 -52 4 -104 4 -156h-77c0 18 0 62 1 92h-41l3 -28c0 -8 5 -12 11 -12c3 0 7 0 11 2v-48c-5 -5 -21 -10 -43 -10z
M529 280c-37 0 -60 28 -60 74c0 56 34 88 92 88c49 0 80 -23 80 -48l-1 -111h-56l-5 30c-6 -20 -25 -33 -50 -33zM871 283c1 54 2 105 5 156h56l5 -34c10 26 28 37 53 37c35 0 54 -22 55 -69l2 -90h-78l2 73c0 13 -3 19 -11 19s-13 -5 -12 -19l1 -73h-78zM1144 280
c-54 0 -86 29 -86 80s33 82 86 82c54 0 86 -31 86 -82s-32 -80 -86 -80zM258 265v35l-57 1v1l43 24v17l-43 22v1l57 3v34l-119 -8v-29l55 -31l-55 -32v-31zM554 337c11 0 18 8 18 18c0 4 -1 10 -2 15c-3 4 -9 6 -14 6c-12 0 -18 -7 -18 -20c0 -12 6 -19 16 -19zM1144 337
c11 0 18 8 18 20s-7 19 -18 19c-10 0 -17 -7 -17 -19s7 -20 17 -20zM562 54c-18 0 -34 2 -46 9v55h1c12 -6 26 -10 40 -10c39 0 37 27 37 26c0 -8 -24 -10 -32 -10c-29 0 -57 24 -57 54v17h-36l2 -29c1 -8 7 -11 12 -11c3 0 8 0 10 2h1v-48c-10 -6 -24 -10 -43 -10
c-40 0 -56 16 -55 43l1 53h-17v49l63 30h22l-1 -16h111l-2 -63c0 -14 4 -19 11 -19c8 0 13 6 12 19l-1 63h71c1 -17 3 -59 3 -80c0 -90 -30 -124 -107 -124zM683 62c0 72 1 133 3 197h58l2 -31c6 21 25 34 50 34c37 0 59 -28 59 -74c0 -54 -30 -87 -80 -87c-4 0 -11 1 -17 2
l2 -41h-77zM963 100c-66 0 -98 27 -98 79c0 51 31 83 86 83c50 0 77 -27 77 -76c0 -10 -1 -16 -2 -21l-87 -4c5 -8 21 -12 42 -12c12 0 25 1 35 5v-47c-15 -5 -33 -7 -53 -7zM139 154h119v82h-29v-46h-18v42h-28v-42h-15v45h-29v-81zM934 183l38 3c1 13 -7 20 -19 20
c-13 0 -19 -8 -19 -23zM765 157c14 0 21 7 21 20c0 12 -6 19 -16 19c-11 0 -19 -8 -19 -19c0 -3 1 -9 4 -19c3 -1 8 -1 10 -1zM1050 97c-9 0 -15 6 -15 15c0 8 6 14 15 14c8 0 14 -6 14 -14c0 -9 -6 -15 -14 -15zM139 11h119v45c0 41 -21 68 -61 68c-37 0 -60 -26 -60 -65
c0 -25 2 -43 2 -48zM1050 100c6 0 11 5 11 12c0 6 -5 11 -11 11c-7 0 -12 -5 -12 -11c0 -7 5 -12 12 -12zM1043 104v15h7c4 0 7 -1 7 -5c0 -3 -2 -4 -5 -4l4 -6h-4l-2 6h-4v-6h-3zM1046 112h4c2 0 3 1 3 2c0 2 -2 2 -3 2h-4v-4zM171 47c0 4 -1 5 -1 12c0 14 8 27 28 27
c19 0 28 -9 28 -27v-12h-55z" />
    <glyph glyph-name="Emacron" unicode="&#x112;" 
d="M100 -50v668h191v-668h-191zM199 429c41 0 61 31 61 63c0 36 -23 63 -61 63c-42 0 -63 -31 -63 -63c0 -36 24 -63 63 -63zM820 452c-24 0 -42 17 -42 40c0 22 18 40 42 40c23 0 41 -18 41 -40c0 -23 -18 -40 -41 -40zM199 467c-18 0 -30 9 -30 25s12 25 30 25
c17 0 28 -9 28 -25s-11 -25 -28 -25zM380 283c0 63 1 130 4 204h68c3 -67 5 -136 6 -204h-78zM721 279c-37 0 -56 13 -55 47l1 49h-17v49l60 48h22l2 -33h118c3 -52 4 -104 4 -156h-77c0 18 0 62 1 92h-41l3 -28c0 -8 5 -12 11 -12c3 0 7 0 11 2v-48c-5 -5 -21 -10 -43 -10z
M529 280c-37 0 -60 28 -60 74c0 56 34 88 92 88c49 0 80 -23 80 -48l-1 -111h-56l-5 30c-6 -20 -25 -33 -50 -33zM871 283c1 54 2 105 5 156h56l5 -34c10 26 28 37 53 37c35 0 54 -22 55 -69l2 -90h-78l2 73c0 13 -3 19 -11 19s-13 -5 -12 -19l1 -73h-78zM1144 280
c-54 0 -86 29 -86 80s33 82 86 82c54 0 86 -31 86 -82s-32 -80 -86 -80zM258 265v35l-57 1v1l43 24v17l-43 22v1l57 3v34l-119 -8v-29l55 -31l-55 -32v-31zM554 337c11 0 18 8 18 18c0 4 -1 10 -2 15c-3 4 -9 6 -14 6c-12 0 -18 -7 -18 -20c0 -12 6 -19 16 -19zM1144 337
c11 0 18 8 18 20s-7 19 -18 19c-10 0 -17 -7 -17 -19s7 -20 17 -20zM562 54c-18 0 -34 2 -46 9v55h1c12 -6 26 -10 40 -10c39 0 37 27 37 26c0 -8 -24 -10 -32 -10c-29 0 -57 24 -57 54v17h-36l2 -29c1 -8 7 -11 12 -11c3 0 8 0 10 2h1v-48c-10 -6 -24 -10 -43 -10
c-40 0 -56 16 -55 43l1 53h-17v49l63 30h22l-1 -16h111l-2 -63c0 -14 4 -19 11 -19c8 0 13 6 12 19l-1 63h71c1 -17 3 -59 3 -80c0 -90 -30 -124 -107 -124zM683 62c0 72 1 133 3 197h58l2 -31c6 21 25 34 50 34c37 0 59 -28 59 -74c0 -54 -30 -87 -80 -87c-4 0 -11 1 -17 2
l2 -41h-77zM963 100c-66 0 -98 27 -98 79c0 51 31 83 86 83c50 0 77 -27 77 -76c0 -10 -1 -16 -2 -21l-87 -4c5 -8 21 -12 42 -12c12 0 25 1 35 5v-47c-15 -5 -33 -7 -53 -7zM139 154h119v82h-29v-46h-18v42h-28v-42h-15v45h-29v-81zM934 183l38 3c1 13 -7 20 -19 20
c-13 0 -19 -8 -19 -23zM765 157c14 0 21 7 21 20c0 12 -6 19 -16 19c-11 0 -19 -8 -19 -19c0 -3 1 -9 4 -19c3 -1 8 -1 10 -1zM1050 97c-9 0 -15 6 -15 15c0 8 6 14 15 14c8 0 14 -6 14 -14c0 -9 -6 -15 -14 -15zM139 11h119v45c0 41 -21 68 -61 68c-37 0 -60 -26 -60 -65
c0 -25 2 -43 2 -48zM1050 100c6 0 11 5 11 12c0 6 -5 11 -11 11c-7 0 -12 -5 -12 -11c0 -7 5 -12 12 -12zM1043 104v15h7c4 0 7 -1 7 -5c0 -3 -2 -4 -5 -4l4 -6h-4l-2 6h-4v-6h-3zM1046 112h4c2 0 3 1 3 2c0 2 -2 2 -3 2h-4v-4zM171 47c0 4 -1 5 -1 12c0 14 8 27 28 27
c19 0 28 -9 28 -27v-12h-55z" />
    <glyph glyph-name="Eogonek" unicode="&#x118;" 
d="M100 -50v668h191v-668h-191zM199 429c41 0 61 31 61 63c0 36 -23 63 -61 63c-42 0 -63 -31 -63 -63c0 -36 24 -63 63 -63zM820 452c-24 0 -42 17 -42 40c0 22 18 40 42 40c23 0 41 -18 41 -40c0 -23 -18 -40 -41 -40zM199 467c-18 0 -30 9 -30 25s12 25 30 25
c17 0 28 -9 28 -25s-11 -25 -28 -25zM380 283c0 63 1 130 4 204h68c3 -67 5 -136 6 -204h-78zM721 279c-37 0 -56 13 -55 47l1 49h-17v49l60 48h22l2 -33h118c3 -52 4 -104 4 -156h-77c0 18 0 62 1 92h-41l3 -28c0 -8 5 -12 11 -12c3 0 7 0 11 2v-48c-5 -5 -21 -10 -43 -10z
M529 280c-37 0 -60 28 -60 74c0 56 34 88 92 88c49 0 80 -23 80 -48l-1 -111h-56l-5 30c-6 -20 -25 -33 -50 -33zM871 283c1 54 2 105 5 156h56l5 -34c10 26 28 37 53 37c35 0 54 -22 55 -69l2 -90h-78l2 73c0 13 -3 19 -11 19s-13 -5 -12 -19l1 -73h-78zM1144 280
c-54 0 -86 29 -86 80s33 82 86 82c54 0 86 -31 86 -82s-32 -80 -86 -80zM258 265v35l-57 1v1l43 24v17l-43 22v1l57 3v34l-119 -8v-29l55 -31l-55 -32v-31zM554 337c11 0 18 8 18 18c0 4 -1 10 -2 15c-3 4 -9 6 -14 6c-12 0 -18 -7 -18 -20c0 -12 6 -19 16 -19zM1144 337
c11 0 18 8 18 20s-7 19 -18 19c-10 0 -17 -7 -17 -19s7 -20 17 -20zM562 54c-18 0 -34 2 -46 9v55h1c12 -6 26 -10 40 -10c39 0 37 27 37 26c0 -8 -24 -10 -32 -10c-29 0 -57 24 -57 54v17h-36l2 -29c1 -8 7 -11 12 -11c3 0 8 0 10 2h1v-48c-10 -6 -24 -10 -43 -10
c-40 0 -56 16 -55 43l1 53h-17v49l63 30h22l-1 -16h111l-2 -63c0 -14 4 -19 11 -19c8 0 13 6 12 19l-1 63h71c1 -17 3 -59 3 -80c0 -90 -30 -124 -107 -124zM683 62c0 72 1 133 3 197h58l2 -31c6 21 25 34 50 34c37 0 59 -28 59 -74c0 -54 -30 -87 -80 -87c-4 0 -11 1 -17 2
l2 -41h-77zM963 100c-66 0 -98 27 -98 79c0 51 31 83 86 83c50 0 77 -27 77 -76c0 -10 -1 -16 -2 -21l-87 -4c5 -8 21 -12 42 -12c12 0 25 1 35 5v-47c-15 -5 -33 -7 -53 -7zM139 154h119v82h-29v-46h-18v42h-28v-42h-15v45h-29v-81zM934 183l38 3c1 13 -7 20 -19 20
c-13 0 -19 -8 -19 -23zM765 157c14 0 21 7 21 20c0 12 -6 19 -16 19c-11 0 -19 -8 -19 -19c0 -3 1 -9 4 -19c3 -1 8 -1 10 -1zM1050 97c-9 0 -15 6 -15 15c0 8 6 14 15 14c8 0 14 -6 14 -14c0 -9 -6 -15 -14 -15zM139 11h119v45c0 41 -21 68 -61 68c-37 0 -60 -26 -60 -65
c0 -25 2 -43 2 -48zM1050 100c6 0 11 5 11 12c0 6 -5 11 -11 11c-7 0 -12 -5 -12 -11c0 -7 5 -12 12 -12zM1043 104v15h7c4 0 7 -1 7 -5c0 -3 -2 -4 -5 -4l4 -6h-4l-2 6h-4v-6h-3zM1046 112h4c2 0 3 1 3 2c0 2 -2 2 -3 2h-4v-4zM171 47c0 4 -1 5 -1 12c0 14 8 27 28 27
c19 0 28 -9 28 -27v-12h-55z" />
    <glyph glyph-name="F" unicode="F" horiz-adv-x="564" 
d="M80 0c-12 0 -21 4 -21 12v2c0 19 37 20 37 56v570c0 37 -37 37 -37 56v2c0 8 7 12 18 12h421c16 0 22 -8 25 -23l24 -99c3 -13 -3 -20 -13 -20h-4c-32 0 -55 101 -108 101h-206c-18 0 -29 -10 -29 -32v-284h185c34 0 37 59 57 59h6c8 0 13 -6 13 -17v-123
c0 -10 -5 -17 -13 -17h-6c-20 0 -23 56 -57 56h-185v-241c0 -36 39 -37 39 -56v-2c0 -8 -8 -12 -20 -12h-126z" />
    <glyph glyph-name="G" unicode="G" horiz-adv-x="724" 
d="M383 -10c-184 0 -346 166 -346 362c0 221 148 367 335 367c169 0 276 -111 276 -184c0 -26 -17 -43 -43 -43c-75 0 -77 186 -259 186c-121 0 -220 -117 -220 -272c0 -203 135 -355 281 -355c64 0 121 18 156 43v173c0 40 -68 38 -68 55v4c0 9 9 14 21 14l171 -1
c12 0 20 -5 20 -13v-4c0 -17 -59 -15 -59 -55v-155c0 -21 -6 -32 -26 -48c-52 -43 -135 -74 -239 -74z" />
    <glyph glyph-name="Gbreve" unicode="&#x11e;" 
d="M100 -50v668h191v-668h-191zM199 429c41 0 61 31 61 63c0 36 -23 63 -61 63c-42 0 -63 -31 -63 -63c0 -36 24 -63 63 -63zM820 452c-24 0 -42 17 -42 40c0 22 18 40 42 40c23 0 41 -18 41 -40c0 -23 -18 -40 -41 -40zM199 467c-18 0 -30 9 -30 25s12 25 30 25
c17 0 28 -9 28 -25s-11 -25 -28 -25zM380 283c0 63 1 130 4 204h68c3 -67 5 -136 6 -204h-78zM721 279c-37 0 -56 13 -55 47l1 49h-17v49l60 48h22l2 -33h118c3 -52 4 -104 4 -156h-77c0 18 0 62 1 92h-41l3 -28c0 -8 5 -12 11 -12c3 0 7 0 11 2v-48c-5 -5 -21 -10 -43 -10z
M529 280c-37 0 -60 28 -60 74c0 56 34 88 92 88c49 0 80 -23 80 -48l-1 -111h-56l-5 30c-6 -20 -25 -33 -50 -33zM871 283c1 54 2 105 5 156h56l5 -34c10 26 28 37 53 37c35 0 54 -22 55 -69l2 -90h-78l2 73c0 13 -3 19 -11 19s-13 -5 -12 -19l1 -73h-78zM1144 280
c-54 0 -86 29 -86 80s33 82 86 82c54 0 86 -31 86 -82s-32 -80 -86 -80zM258 265v35l-57 1v1l43 24v17l-43 22v1l57 3v34l-119 -8v-29l55 -31l-55 -32v-31zM554 337c11 0 18 8 18 18c0 4 -1 10 -2 15c-3 4 -9 6 -14 6c-12 0 -18 -7 -18 -20c0 -12 6 -19 16 -19zM1144 337
c11 0 18 8 18 20s-7 19 -18 19c-10 0 -17 -7 -17 -19s7 -20 17 -20zM562 54c-18 0 -34 2 -46 9v55h1c12 -6 26 -10 40 -10c39 0 37 27 37 26c0 -8 -24 -10 -32 -10c-29 0 -57 24 -57 54v17h-36l2 -29c1 -8 7 -11 12 -11c3 0 8 0 10 2h1v-48c-10 -6 -24 -10 -43 -10
c-40 0 -56 16 -55 43l1 53h-17v49l63 30h22l-1 -16h111l-2 -63c0 -14 4 -19 11 -19c8 0 13 6 12 19l-1 63h71c1 -17 3 -59 3 -80c0 -90 -30 -124 -107 -124zM683 62c0 72 1 133 3 197h58l2 -31c6 21 25 34 50 34c37 0 59 -28 59 -74c0 -54 -30 -87 -80 -87c-4 0 -11 1 -17 2
l2 -41h-77zM963 100c-66 0 -98 27 -98 79c0 51 31 83 86 83c50 0 77 -27 77 -76c0 -10 -1 -16 -2 -21l-87 -4c5 -8 21 -12 42 -12c12 0 25 1 35 5v-47c-15 -5 -33 -7 -53 -7zM139 154h119v82h-29v-46h-18v42h-28v-42h-15v45h-29v-81zM934 183l38 3c1 13 -7 20 -19 20
c-13 0 -19 -8 -19 -23zM765 157c14 0 21 7 21 20c0 12 -6 19 -16 19c-11 0 -19 -8 -19 -19c0 -3 1 -9 4 -19c3 -1 8 -1 10 -1zM1050 97c-9 0 -15 6 -15 15c0 8 6 14 15 14c8 0 14 -6 14 -14c0 -9 -6 -15 -14 -15zM139 11h119v45c0 41 -21 68 -61 68c-37 0 -60 -26 -60 -65
c0 -25 2 -43 2 -48zM1050 100c6 0 11 5 11 12c0 6 -5 11 -11 11c-7 0 -12 -5 -12 -11c0 -7 5 -12 12 -12zM1043 104v15h7c4 0 7 -1 7 -5c0 -3 -2 -4 -5 -4l4 -6h-4l-2 6h-4v-6h-3zM1046 112h4c2 0 3 1 3 2c0 2 -2 2 -3 2h-4v-4zM171 47c0 4 -1 5 -1 12c0 14 8 27 28 27
c19 0 28 -9 28 -27v-12h-55z" />
    <glyph glyph-name="uni0122" unicode="&#x122;" 
d="M100 -50v668h191v-668h-191zM199 429c41 0 61 31 61 63c0 36 -23 63 -61 63c-42 0 -63 -31 -63 -63c0 -36 24 -63 63 -63zM820 452c-24 0 -42 17 -42 40c0 22 18 40 42 40c23 0 41 -18 41 -40c0 -23 -18 -40 -41 -40zM199 467c-18 0 -30 9 -30 25s12 25 30 25
c17 0 28 -9 28 -25s-11 -25 -28 -25zM380 283c0 63 1 130 4 204h68c3 -67 5 -136 6 -204h-78zM721 279c-37 0 -56 13 -55 47l1 49h-17v49l60 48h22l2 -33h118c3 -52 4 -104 4 -156h-77c0 18 0 62 1 92h-41l3 -28c0 -8 5 -12 11 -12c3 0 7 0 11 2v-48c-5 -5 -21 -10 -43 -10z
M529 280c-37 0 -60 28 -60 74c0 56 34 88 92 88c49 0 80 -23 80 -48l-1 -111h-56l-5 30c-6 -20 -25 -33 -50 -33zM871 283c1 54 2 105 5 156h56l5 -34c10 26 28 37 53 37c35 0 54 -22 55 -69l2 -90h-78l2 73c0 13 -3 19 -11 19s-13 -5 -12 -19l1 -73h-78zM1144 280
c-54 0 -86 29 -86 80s33 82 86 82c54 0 86 -31 86 -82s-32 -80 -86 -80zM258 265v35l-57 1v1l43 24v17l-43 22v1l57 3v34l-119 -8v-29l55 -31l-55 -32v-31zM554 337c11 0 18 8 18 18c0 4 -1 10 -2 15c-3 4 -9 6 -14 6c-12 0 -18 -7 -18 -20c0 -12 6 -19 16 -19zM1144 337
c11 0 18 8 18 20s-7 19 -18 19c-10 0 -17 -7 -17 -19s7 -20 17 -20zM562 54c-18 0 -34 2 -46 9v55h1c12 -6 26 -10 40 -10c39 0 37 27 37 26c0 -8 -24 -10 -32 -10c-29 0 -57 24 -57 54v17h-36l2 -29c1 -8 7 -11 12 -11c3 0 8 0 10 2h1v-48c-10 -6 -24 -10 -43 -10
c-40 0 -56 16 -55 43l1 53h-17v49l63 30h22l-1 -16h111l-2 -63c0 -14 4 -19 11 -19c8 0 13 6 12 19l-1 63h71c1 -17 3 -59 3 -80c0 -90 -30 -124 -107 -124zM683 62c0 72 1 133 3 197h58l2 -31c6 21 25 34 50 34c37 0 59 -28 59 -74c0 -54 -30 -87 -80 -87c-4 0 -11 1 -17 2
l2 -41h-77zM963 100c-66 0 -98 27 -98 79c0 51 31 83 86 83c50 0 77 -27 77 -76c0 -10 -1 -16 -2 -21l-87 -4c5 -8 21 -12 42 -12c12 0 25 1 35 5v-47c-15 -5 -33 -7 -53 -7zM139 154h119v82h-29v-46h-18v42h-28v-42h-15v45h-29v-81zM934 183l38 3c1 13 -7 20 -19 20
c-13 0 -19 -8 -19 -23zM765 157c14 0 21 7 21 20c0 12 -6 19 -16 19c-11 0 -19 -8 -19 -19c0 -3 1 -9 4 -19c3 -1 8 -1 10 -1zM1050 97c-9 0 -15 6 -15 15c0 8 6 14 15 14c8 0 14 -6 14 -14c0 -9 -6 -15 -14 -15zM139 11h119v45c0 41 -21 68 -61 68c-37 0 -60 -26 -60 -65
c0 -25 2 -43 2 -48zM1050 100c6 0 11 5 11 12c0 6 -5 11 -11 11c-7 0 -12 -5 -12 -11c0 -7 5 -12 12 -12zM1043 104v15h7c4 0 7 -1 7 -5c0 -3 -2 -4 -5 -4l4 -6h-4l-2 6h-4v-6h-3zM1046 112h4c2 0 3 1 3 2c0 2 -2 2 -3 2h-4v-4zM171 47c0 4 -1 5 -1 12c0 14 8 27 28 27
c19 0 28 -9 28 -27v-12h-55z" />
    <glyph glyph-name="Gdotaccent" unicode="&#x120;" 
d="M100 -50v668h191v-668h-191zM199 429c41 0 61 31 61 63c0 36 -23 63 -61 63c-42 0 -63 -31 -63 -63c0 -36 24 -63 63 -63zM820 452c-24 0 -42 17 -42 40c0 22 18 40 42 40c23 0 41 -18 41 -40c0 -23 -18 -40 -41 -40zM199 467c-18 0 -30 9 -30 25s12 25 30 25
c17 0 28 -9 28 -25s-11 -25 -28 -25zM380 283c0 63 1 130 4 204h68c3 -67 5 -136 6 -204h-78zM721 279c-37 0 -56 13 -55 47l1 49h-17v49l60 48h22l2 -33h118c3 -52 4 -104 4 -156h-77c0 18 0 62 1 92h-41l3 -28c0 -8 5 -12 11 -12c3 0 7 0 11 2v-48c-5 -5 -21 -10 -43 -10z
M529 280c-37 0 -60 28 -60 74c0 56 34 88 92 88c49 0 80 -23 80 -48l-1 -111h-56l-5 30c-6 -20 -25 -33 -50 -33zM871 283c1 54 2 105 5 156h56l5 -34c10 26 28 37 53 37c35 0 54 -22 55 -69l2 -90h-78l2 73c0 13 -3 19 -11 19s-13 -5 -12 -19l1 -73h-78zM1144 280
c-54 0 -86 29 -86 80s33 82 86 82c54 0 86 -31 86 -82s-32 -80 -86 -80zM258 265v35l-57 1v1l43 24v17l-43 22v1l57 3v34l-119 -8v-29l55 -31l-55 -32v-31zM554 337c11 0 18 8 18 18c0 4 -1 10 -2 15c-3 4 -9 6 -14 6c-12 0 -18 -7 -18 -20c0 -12 6 -19 16 -19zM1144 337
c11 0 18 8 18 20s-7 19 -18 19c-10 0 -17 -7 -17 -19s7 -20 17 -20zM562 54c-18 0 -34 2 -46 9v55h1c12 -6 26 -10 40 -10c39 0 37 27 37 26c0 -8 -24 -10 -32 -10c-29 0 -57 24 -57 54v17h-36l2 -29c1 -8 7 -11 12 -11c3 0 8 0 10 2h1v-48c-10 -6 -24 -10 -43 -10
c-40 0 -56 16 -55 43l1 53h-17v49l63 30h22l-1 -16h111l-2 -63c0 -14 4 -19 11 -19c8 0 13 6 12 19l-1 63h71c1 -17 3 -59 3 -80c0 -90 -30 -124 -107 -124zM683 62c0 72 1 133 3 197h58l2 -31c6 21 25 34 50 34c37 0 59 -28 59 -74c0 -54 -30 -87 -80 -87c-4 0 -11 1 -17 2
l2 -41h-77zM963 100c-66 0 -98 27 -98 79c0 51 31 83 86 83c50 0 77 -27 77 -76c0 -10 -1 -16 -2 -21l-87 -4c5 -8 21 -12 42 -12c12 0 25 1 35 5v-47c-15 -5 -33 -7 -53 -7zM139 154h119v82h-29v-46h-18v42h-28v-42h-15v45h-29v-81zM934 183l38 3c1 13 -7 20 -19 20
c-13 0 -19 -8 -19 -23zM765 157c14 0 21 7 21 20c0 12 -6 19 -16 19c-11 0 -19 -8 -19 -19c0 -3 1 -9 4 -19c3 -1 8 -1 10 -1zM1050 97c-9 0 -15 6 -15 15c0 8 6 14 15 14c8 0 14 -6 14 -14c0 -9 -6 -15 -14 -15zM139 11h119v45c0 41 -21 68 -61 68c-37 0 -60 -26 -60 -65
c0 -25 2 -43 2 -48zM1050 100c6 0 11 5 11 12c0 6 -5 11 -11 11c-7 0 -12 -5 -12 -11c0 -7 5 -12 12 -12zM1043 104v15h7c4 0 7 -1 7 -5c0 -3 -2 -4 -5 -4l4 -6h-4l-2 6h-4v-6h-3zM1046 112h4c2 0 3 1 3 2c0 2 -2 2 -3 2h-4v-4zM171 47c0 4 -1 5 -1 12c0 14 8 27 28 27
c19 0 28 -9 28 -27v-12h-55z" />
    <glyph glyph-name="H" unicode="H" horiz-adv-x="767" 
d="M80 0c-12 0 -20 4 -20 12v2c0 19 36 20 36 56v570c0 36 -36 37 -36 56v2c0 8 8 12 20 12h125c12 0 20 -4 20 -12v-2c0 -19 -38 -20 -38 -56l-1 -256h393l-1 256c0 36 -36 37 -36 56v2c0 8 8 12 20 12h125c13 0 21 -4 21 -12v-2c0 -19 -39 -20 -39 -56v-570
c0 -36 39 -37 39 -56v-2c0 -8 -8 -12 -21 -12h-125c-12 0 -20 4 -20 12v2c0 19 36 20 36 56l1 270h-392v-270c0 -36 38 -37 38 -56v-2c0 -8 -8 -12 -20 -12h-125z" />
    <glyph glyph-name="Hbar" unicode="&#x126;" 
d="M100 -50v668h191v-668h-191zM199 429c41 0 61 31 61 63c0 36 -23 63 -61 63c-42 0 -63 -31 -63 -63c0 -36 24 -63 63 -63zM820 452c-24 0 -42 17 -42 40c0 22 18 40 42 40c23 0 41 -18 41 -40c0 -23 -18 -40 -41 -40zM199 467c-18 0 -30 9 -30 25s12 25 30 25
c17 0 28 -9 28 -25s-11 -25 -28 -25zM380 283c0 63 1 130 4 204h68c3 -67 5 -136 6 -204h-78zM721 279c-37 0 -56 13 -55 47l1 49h-17v49l60 48h22l2 -33h118c3 -52 4 -104 4 -156h-77c0 18 0 62 1 92h-41l3 -28c0 -8 5 -12 11 -12c3 0 7 0 11 2v-48c-5 -5 -21 -10 -43 -10z
M529 280c-37 0 -60 28 -60 74c0 56 34 88 92 88c49 0 80 -23 80 -48l-1 -111h-56l-5 30c-6 -20 -25 -33 -50 -33zM871 283c1 54 2 105 5 156h56l5 -34c10 26 28 37 53 37c35 0 54 -22 55 -69l2 -90h-78l2 73c0 13 -3 19 -11 19s-13 -5 -12 -19l1 -73h-78zM1144 280
c-54 0 -86 29 -86 80s33 82 86 82c54 0 86 -31 86 -82s-32 -80 -86 -80zM258 265v35l-57 1v1l43 24v17l-43 22v1l57 3v34l-119 -8v-29l55 -31l-55 -32v-31zM554 337c11 0 18 8 18 18c0 4 -1 10 -2 15c-3 4 -9 6 -14 6c-12 0 -18 -7 -18 -20c0 -12 6 -19 16 -19zM1144 337
c11 0 18 8 18 20s-7 19 -18 19c-10 0 -17 -7 -17 -19s7 -20 17 -20zM562 54c-18 0 -34 2 -46 9v55h1c12 -6 26 -10 40 -10c39 0 37 27 37 26c0 -8 -24 -10 -32 -10c-29 0 -57 24 -57 54v17h-36l2 -29c1 -8 7 -11 12 -11c3 0 8 0 10 2h1v-48c-10 -6 -24 -10 -43 -10
c-40 0 -56 16 -55 43l1 53h-17v49l63 30h22l-1 -16h111l-2 -63c0 -14 4 -19 11 -19c8 0 13 6 12 19l-1 63h71c1 -17 3 -59 3 -80c0 -90 -30 -124 -107 -124zM683 62c0 72 1 133 3 197h58l2 -31c6 21 25 34 50 34c37 0 59 -28 59 -74c0 -54 -30 -87 -80 -87c-4 0 -11 1 -17 2
l2 -41h-77zM963 100c-66 0 -98 27 -98 79c0 51 31 83 86 83c50 0 77 -27 77 -76c0 -10 -1 -16 -2 -21l-87 -4c5 -8 21 -12 42 -12c12 0 25 1 35 5v-47c-15 -5 -33 -7 -53 -7zM139 154h119v82h-29v-46h-18v42h-28v-42h-15v45h-29v-81zM934 183l38 3c1 13 -7 20 -19 20
c-13 0 -19 -8 -19 -23zM765 157c14 0 21 7 21 20c0 12 -6 19 -16 19c-11 0 -19 -8 -19 -19c0 -3 1 -9 4 -19c3 -1 8 -1 10 -1zM1050 97c-9 0 -15 6 -15 15c0 8 6 14 15 14c8 0 14 -6 14 -14c0 -9 -6 -15 -14 -15zM139 11h119v45c0 41 -21 68 -61 68c-37 0 -60 -26 -60 -65
c0 -25 2 -43 2 -48zM1050 100c6 0 11 5 11 12c0 6 -5 11 -11 11c-7 0 -12 -5 -12 -11c0 -7 5 -12 12 -12zM1043 104v15h7c4 0 7 -1 7 -5c0 -3 -2 -4 -5 -4l4 -6h-4l-2 6h-4v-6h-3zM1046 112h4c2 0 3 1 3 2c0 2 -2 2 -3 2h-4v-4zM171 47c0 4 -1 5 -1 12c0 14 8 27 28 27
c19 0 28 -9 28 -27v-12h-55z" />
    <glyph glyph-name="I" unicode="I" horiz-adv-x="284" 
d="M60 12v2c0 18 36 19 36 55v571c0 36 -36 37 -36 56v2c0 8 8 12 20 12h125c12 0 20 -4 20 -12v-2c0 -19 -38 -20 -38 -56v-571c0 -36 38 -37 38 -55v-2c0 -8 -8 -12 -20 -12h-125c-12 0 -20 4 -20 12z" />
    <glyph glyph-name="IJ" unicode="&#x132;" 
d="M100 -50v668h191v-668h-191zM199 429c41 0 61 31 61 63c0 36 -23 63 -61 63c-42 0 -63 -31 -63 -63c0 -36 24 -63 63 -63zM820 452c-24 0 -42 17 -42 40c0 22 18 40 42 40c23 0 41 -18 41 -40c0 -23 -18 -40 -41 -40zM199 467c-18 0 -30 9 -30 25s12 25 30 25
c17 0 28 -9 28 -25s-11 -25 -28 -25zM380 283c0 63 1 130 4 204h68c3 -67 5 -136 6 -204h-78zM721 279c-37 0 -56 13 -55 47l1 49h-17v49l60 48h22l2 -33h118c3 -52 4 -104 4 -156h-77c0 18 0 62 1 92h-41l3 -28c0 -8 5 -12 11 -12c3 0 7 0 11 2v-48c-5 -5 -21 -10 -43 -10z
M529 280c-37 0 -60 28 -60 74c0 56 34 88 92 88c49 0 80 -23 80 -48l-1 -111h-56l-5 30c-6 -20 -25 -33 -50 -33zM871 283c1 54 2 105 5 156h56l5 -34c10 26 28 37 53 37c35 0 54 -22 55 -69l2 -90h-78l2 73c0 13 -3 19 -11 19s-13 -5 -12 -19l1 -73h-78zM1144 280
c-54 0 -86 29 -86 80s33 82 86 82c54 0 86 -31 86 -82s-32 -80 -86 -80zM258 265v35l-57 1v1l43 24v17l-43 22v1l57 3v34l-119 -8v-29l55 -31l-55 -32v-31zM554 337c11 0 18 8 18 18c0 4 -1 10 -2 15c-3 4 -9 6 -14 6c-12 0 -18 -7 -18 -20c0 -12 6 -19 16 -19zM1144 337
c11 0 18 8 18 20s-7 19 -18 19c-10 0 -17 -7 -17 -19s7 -20 17 -20zM562 54c-18 0 -34 2 -46 9v55h1c12 -6 26 -10 40 -10c39 0 37 27 37 26c0 -8 -24 -10 -32 -10c-29 0 -57 24 -57 54v17h-36l2 -29c1 -8 7 -11 12 -11c3 0 8 0 10 2h1v-48c-10 -6 -24 -10 -43 -10
c-40 0 -56 16 -55 43l1 53h-17v49l63 30h22l-1 -16h111l-2 -63c0 -14 4 -19 11 -19c8 0 13 6 12 19l-1 63h71c1 -17 3 -59 3 -80c0 -90 -30 -124 -107 -124zM683 62c0 72 1 133 3 197h58l2 -31c6 21 25 34 50 34c37 0 59 -28 59 -74c0 -54 -30 -87 -80 -87c-4 0 -11 1 -17 2
l2 -41h-77zM963 100c-66 0 -98 27 -98 79c0 51 31 83 86 83c50 0 77 -27 77 -76c0 -10 -1 -16 -2 -21l-87 -4c5 -8 21 -12 42 -12c12 0 25 1 35 5v-47c-15 -5 -33 -7 -53 -7zM139 154h119v82h-29v-46h-18v42h-28v-42h-15v45h-29v-81zM934 183l38 3c1 13 -7 20 -19 20
c-13 0 -19 -8 -19 -23zM765 157c14 0 21 7 21 20c0 12 -6 19 -16 19c-11 0 -19 -8 -19 -19c0 -3 1 -9 4 -19c3 -1 8 -1 10 -1zM1050 97c-9 0 -15 6 -15 15c0 8 6 14 15 14c8 0 14 -6 14 -14c0 -9 -6 -15 -14 -15zM139 11h119v45c0 41 -21 68 -61 68c-37 0 -60 -26 -60 -65
c0 -25 2 -43 2 -48zM1050 100c6 0 11 5 11 12c0 6 -5 11 -11 11c-7 0 -12 -5 -12 -11c0 -7 5 -12 12 -12zM1043 104v15h7c4 0 7 -1 7 -5c0 -3 -2 -4 -5 -4l4 -6h-4l-2 6h-4v-6h-3zM1046 112h4c2 0 3 1 3 2c0 2 -2 2 -3 2h-4v-4zM171 47c0 4 -1 5 -1 12c0 14 8 27 28 27
c19 0 28 -9 28 -27v-12h-55z" />
    <glyph glyph-name="Iacute" unicode="&#xcd;" 
d="M100 -50v668h191v-668h-191zM199 429c41 0 61 31 61 63c0 36 -23 63 -61 63c-42 0 -63 -31 -63 -63c0 -36 24 -63 63 -63zM820 452c-24 0 -42 17 -42 40c0 22 18 40 42 40c23 0 41 -18 41 -40c0 -23 -18 -40 -41 -40zM199 467c-18 0 -30 9 -30 25s12 25 30 25
c17 0 28 -9 28 -25s-11 -25 -28 -25zM380 283c0 63 1 130 4 204h68c3 -67 5 -136 6 -204h-78zM721 279c-37 0 -56 13 -55 47l1 49h-17v49l60 48h22l2 -33h118c3 -52 4 -104 4 -156h-77c0 18 0 62 1 92h-41l3 -28c0 -8 5 -12 11 -12c3 0 7 0 11 2v-48c-5 -5 -21 -10 -43 -10z
M529 280c-37 0 -60 28 -60 74c0 56 34 88 92 88c49 0 80 -23 80 -48l-1 -111h-56l-5 30c-6 -20 -25 -33 -50 -33zM871 283c1 54 2 105 5 156h56l5 -34c10 26 28 37 53 37c35 0 54 -22 55 -69l2 -90h-78l2 73c0 13 -3 19 -11 19s-13 -5 -12 -19l1 -73h-78zM1144 280
c-54 0 -86 29 -86 80s33 82 86 82c54 0 86 -31 86 -82s-32 -80 -86 -80zM258 265v35l-57 1v1l43 24v17l-43 22v1l57 3v34l-119 -8v-29l55 -31l-55 -32v-31zM554 337c11 0 18 8 18 18c0 4 -1 10 -2 15c-3 4 -9 6 -14 6c-12 0 -18 -7 -18 -20c0 -12 6 -19 16 -19zM1144 337
c11 0 18 8 18 20s-7 19 -18 19c-10 0 -17 -7 -17 -19s7 -20 17 -20zM562 54c-18 0 -34 2 -46 9v55h1c12 -6 26 -10 40 -10c39 0 37 27 37 26c0 -8 -24 -10 -32 -10c-29 0 -57 24 -57 54v17h-36l2 -29c1 -8 7 -11 12 -11c3 0 8 0 10 2h1v-48c-10 -6 -24 -10 -43 -10
c-40 0 -56 16 -55 43l1 53h-17v49l63 30h22l-1 -16h111l-2 -63c0 -14 4 -19 11 -19c8 0 13 6 12 19l-1 63h71c1 -17 3 -59 3 -80c0 -90 -30 -124 -107 -124zM683 62c0 72 1 133 3 197h58l2 -31c6 21 25 34 50 34c37 0 59 -28 59 -74c0 -54 -30 -87 -80 -87c-4 0 -11 1 -17 2
l2 -41h-77zM963 100c-66 0 -98 27 -98 79c0 51 31 83 86 83c50 0 77 -27 77 -76c0 -10 -1 -16 -2 -21l-87 -4c5 -8 21 -12 42 -12c12 0 25 1 35 5v-47c-15 -5 -33 -7 -53 -7zM139 154h119v82h-29v-46h-18v42h-28v-42h-15v45h-29v-81zM934 183l38 3c1 13 -7 20 -19 20
c-13 0 -19 -8 -19 -23zM765 157c14 0 21 7 21 20c0 12 -6 19 -16 19c-11 0 -19 -8 -19 -19c0 -3 1 -9 4 -19c3 -1 8 -1 10 -1zM1050 97c-9 0 -15 6 -15 15c0 8 6 14 15 14c8 0 14 -6 14 -14c0 -9 -6 -15 -14 -15zM139 11h119v45c0 41 -21 68 -61 68c-37 0 -60 -26 -60 -65
c0 -25 2 -43 2 -48zM1050 100c6 0 11 5 11 12c0 6 -5 11 -11 11c-7 0 -12 -5 -12 -11c0 -7 5 -12 12 -12zM1043 104v15h7c4 0 7 -1 7 -5c0 -3 -2 -4 -5 -4l4 -6h-4l-2 6h-4v-6h-3zM1046 112h4c2 0 3 1 3 2c0 2 -2 2 -3 2h-4v-4zM171 47c0 4 -1 5 -1 12c0 14 8 27 28 27
c19 0 28 -9 28 -27v-12h-55z" />
    <glyph glyph-name="Icircumflex" unicode="&#xce;" 
d="M100 -50v668h191v-668h-191zM199 429c41 0 61 31 61 63c0 36 -23 63 -61 63c-42 0 -63 -31 -63 -63c0 -36 24 -63 63 -63zM820 452c-24 0 -42 17 -42 40c0 22 18 40 42 40c23 0 41 -18 41 -40c0 -23 -18 -40 -41 -40zM199 467c-18 0 -30 9 -30 25s12 25 30 25
c17 0 28 -9 28 -25s-11 -25 -28 -25zM380 283c0 63 1 130 4 204h68c3 -67 5 -136 6 -204h-78zM721 279c-37 0 -56 13 -55 47l1 49h-17v49l60 48h22l2 -33h118c3 -52 4 -104 4 -156h-77c0 18 0 62 1 92h-41l3 -28c0 -8 5 -12 11 -12c3 0 7 0 11 2v-48c-5 -5 -21 -10 -43 -10z
M529 280c-37 0 -60 28 -60 74c0 56 34 88 92 88c49 0 80 -23 80 -48l-1 -111h-56l-5 30c-6 -20 -25 -33 -50 -33zM871 283c1 54 2 105 5 156h56l5 -34c10 26 28 37 53 37c35 0 54 -22 55 -69l2 -90h-78l2 73c0 13 -3 19 -11 19s-13 -5 -12 -19l1 -73h-78zM1144 280
c-54 0 -86 29 -86 80s33 82 86 82c54 0 86 -31 86 -82s-32 -80 -86 -80zM258 265v35l-57 1v1l43 24v17l-43 22v1l57 3v34l-119 -8v-29l55 -31l-55 -32v-31zM554 337c11 0 18 8 18 18c0 4 -1 10 -2 15c-3 4 -9 6 -14 6c-12 0 -18 -7 -18 -20c0 -12 6 -19 16 -19zM1144 337
c11 0 18 8 18 20s-7 19 -18 19c-10 0 -17 -7 -17 -19s7 -20 17 -20zM562 54c-18 0 -34 2 -46 9v55h1c12 -6 26 -10 40 -10c39 0 37 27 37 26c0 -8 -24 -10 -32 -10c-29 0 -57 24 -57 54v17h-36l2 -29c1 -8 7 -11 12 -11c3 0 8 0 10 2h1v-48c-10 -6 -24 -10 -43 -10
c-40 0 -56 16 -55 43l1 53h-17v49l63 30h22l-1 -16h111l-2 -63c0 -14 4 -19 11 -19c8 0 13 6 12 19l-1 63h71c1 -17 3 -59 3 -80c0 -90 -30 -124 -107 -124zM683 62c0 72 1 133 3 197h58l2 -31c6 21 25 34 50 34c37 0 59 -28 59 -74c0 -54 -30 -87 -80 -87c-4 0 -11 1 -17 2
l2 -41h-77zM963 100c-66 0 -98 27 -98 79c0 51 31 83 86 83c50 0 77 -27 77 -76c0 -10 -1 -16 -2 -21l-87 -4c5 -8 21 -12 42 -12c12 0 25 1 35 5v-47c-15 -5 -33 -7 -53 -7zM139 154h119v82h-29v-46h-18v42h-28v-42h-15v45h-29v-81zM934 183l38 3c1 13 -7 20 -19 20
c-13 0 -19 -8 -19 -23zM765 157c14 0 21 7 21 20c0 12 -6 19 -16 19c-11 0 -19 -8 -19 -19c0 -3 1 -9 4 -19c3 -1 8 -1 10 -1zM1050 97c-9 0 -15 6 -15 15c0 8 6 14 15 14c8 0 14 -6 14 -14c0 -9 -6 -15 -14 -15zM139 11h119v45c0 41 -21 68 -61 68c-37 0 -60 -26 -60 -65
c0 -25 2 -43 2 -48zM1050 100c6 0 11 5 11 12c0 6 -5 11 -11 11c-7 0 -12 -5 -12 -11c0 -7 5 -12 12 -12zM1043 104v15h7c4 0 7 -1 7 -5c0 -3 -2 -4 -5 -4l4 -6h-4l-2 6h-4v-6h-3zM1046 112h4c2 0 3 1 3 2c0 2 -2 2 -3 2h-4v-4zM171 47c0 4 -1 5 -1 12c0 14 8 27 28 27
c19 0 28 -9 28 -27v-12h-55z" />
    <glyph glyph-name="Idieresis" unicode="&#xcf;" 
d="M100 -50v668h191v-668h-191zM199 429c41 0 61 31 61 63c0 36 -23 63 -61 63c-42 0 -63 -31 -63 -63c0 -36 24 -63 63 -63zM820 452c-24 0 -42 17 -42 40c0 22 18 40 42 40c23 0 41 -18 41 -40c0 -23 -18 -40 -41 -40zM199 467c-18 0 -30 9 -30 25s12 25 30 25
c17 0 28 -9 28 -25s-11 -25 -28 -25zM380 283c0 63 1 130 4 204h68c3 -67 5 -136 6 -204h-78zM721 279c-37 0 -56 13 -55 47l1 49h-17v49l60 48h22l2 -33h118c3 -52 4 -104 4 -156h-77c0 18 0 62 1 92h-41l3 -28c0 -8 5 -12 11 -12c3 0 7 0 11 2v-48c-5 -5 -21 -10 -43 -10z
M529 280c-37 0 -60 28 -60 74c0 56 34 88 92 88c49 0 80 -23 80 -48l-1 -111h-56l-5 30c-6 -20 -25 -33 -50 -33zM871 283c1 54 2 105 5 156h56l5 -34c10 26 28 37 53 37c35 0 54 -22 55 -69l2 -90h-78l2 73c0 13 -3 19 -11 19s-13 -5 -12 -19l1 -73h-78zM1144 280
c-54 0 -86 29 -86 80s33 82 86 82c54 0 86 -31 86 -82s-32 -80 -86 -80zM258 265v35l-57 1v1l43 24v17l-43 22v1l57 3v34l-119 -8v-29l55 -31l-55 -32v-31zM554 337c11 0 18 8 18 18c0 4 -1 10 -2 15c-3 4 -9 6 -14 6c-12 0 -18 -7 -18 -20c0 -12 6 -19 16 -19zM1144 337
c11 0 18 8 18 20s-7 19 -18 19c-10 0 -17 -7 -17 -19s7 -20 17 -20zM562 54c-18 0 -34 2 -46 9v55h1c12 -6 26 -10 40 -10c39 0 37 27 37 26c0 -8 -24 -10 -32 -10c-29 0 -57 24 -57 54v17h-36l2 -29c1 -8 7 -11 12 -11c3 0 8 0 10 2h1v-48c-10 -6 -24 -10 -43 -10
c-40 0 -56 16 -55 43l1 53h-17v49l63 30h22l-1 -16h111l-2 -63c0 -14 4 -19 11 -19c8 0 13 6 12 19l-1 63h71c1 -17 3 -59 3 -80c0 -90 -30 -124 -107 -124zM683 62c0 72 1 133 3 197h58l2 -31c6 21 25 34 50 34c37 0 59 -28 59 -74c0 -54 -30 -87 -80 -87c-4 0 -11 1 -17 2
l2 -41h-77zM963 100c-66 0 -98 27 -98 79c0 51 31 83 86 83c50 0 77 -27 77 -76c0 -10 -1 -16 -2 -21l-87 -4c5 -8 21 -12 42 -12c12 0 25 1 35 5v-47c-15 -5 -33 -7 -53 -7zM139 154h119v82h-29v-46h-18v42h-28v-42h-15v45h-29v-81zM934 183l38 3c1 13 -7 20 -19 20
c-13 0 -19 -8 -19 -23zM765 157c14 0 21 7 21 20c0 12 -6 19 -16 19c-11 0 -19 -8 -19 -19c0 -3 1 -9 4 -19c3 -1 8 -1 10 -1zM1050 97c-9 0 -15 6 -15 15c0 8 6 14 15 14c8 0 14 -6 14 -14c0 -9 -6 -15 -14 -15zM139 11h119v45c0 41 -21 68 -61 68c-37 0 -60 -26 -60 -65
c0 -25 2 -43 2 -48zM1050 100c6 0 11 5 11 12c0 6 -5 11 -11 11c-7 0 -12 -5 -12 -11c0 -7 5 -12 12 -12zM1043 104v15h7c4 0 7 -1 7 -5c0 -3 -2 -4 -5 -4l4 -6h-4l-2 6h-4v-6h-3zM1046 112h4c2 0 3 1 3 2c0 2 -2 2 -3 2h-4v-4zM171 47c0 4 -1 5 -1 12c0 14 8 27 28 27
c19 0 28 -9 28 -27v-12h-55z" />
    <glyph glyph-name="Idotaccent" unicode="&#x130;" 
d="M100 -50v668h191v-668h-191zM199 429c41 0 61 31 61 63c0 36 -23 63 -61 63c-42 0 -63 -31 -63 -63c0 -36 24 -63 63 -63zM820 452c-24 0 -42 17 -42 40c0 22 18 40 42 40c23 0 41 -18 41 -40c0 -23 -18 -40 -41 -40zM199 467c-18 0 -30 9 -30 25s12 25 30 25
c17 0 28 -9 28 -25s-11 -25 -28 -25zM380 283c0 63 1 130 4 204h68c3 -67 5 -136 6 -204h-78zM721 279c-37 0 -56 13 -55 47l1 49h-17v49l60 48h22l2 -33h118c3 -52 4 -104 4 -156h-77c0 18 0 62 1 92h-41l3 -28c0 -8 5 -12 11 -12c3 0 7 0 11 2v-48c-5 -5 -21 -10 -43 -10z
M529 280c-37 0 -60 28 -60 74c0 56 34 88 92 88c49 0 80 -23 80 -48l-1 -111h-56l-5 30c-6 -20 -25 -33 -50 -33zM871 283c1 54 2 105 5 156h56l5 -34c10 26 28 37 53 37c35 0 54 -22 55 -69l2 -90h-78l2 73c0 13 -3 19 -11 19s-13 -5 -12 -19l1 -73h-78zM1144 280
c-54 0 -86 29 -86 80s33 82 86 82c54 0 86 -31 86 -82s-32 -80 -86 -80zM258 265v35l-57 1v1l43 24v17l-43 22v1l57 3v34l-119 -8v-29l55 -31l-55 -32v-31zM554 337c11 0 18 8 18 18c0 4 -1 10 -2 15c-3 4 -9 6 -14 6c-12 0 -18 -7 -18 -20c0 -12 6 -19 16 -19zM1144 337
c11 0 18 8 18 20s-7 19 -18 19c-10 0 -17 -7 -17 -19s7 -20 17 -20zM562 54c-18 0 -34 2 -46 9v55h1c12 -6 26 -10 40 -10c39 0 37 27 37 26c0 -8 -24 -10 -32 -10c-29 0 -57 24 -57 54v17h-36l2 -29c1 -8 7 -11 12 -11c3 0 8 0 10 2h1v-48c-10 -6 -24 -10 -43 -10
c-40 0 -56 16 -55 43l1 53h-17v49l63 30h22l-1 -16h111l-2 -63c0 -14 4 -19 11 -19c8 0 13 6 12 19l-1 63h71c1 -17 3 -59 3 -80c0 -90 -30 -124 -107 -124zM683 62c0 72 1 133 3 197h58l2 -31c6 21 25 34 50 34c37 0 59 -28 59 -74c0 -54 -30 -87 -80 -87c-4 0 -11 1 -17 2
l2 -41h-77zM963 100c-66 0 -98 27 -98 79c0 51 31 83 86 83c50 0 77 -27 77 -76c0 -10 -1 -16 -2 -21l-87 -4c5 -8 21 -12 42 -12c12 0 25 1 35 5v-47c-15 -5 -33 -7 -53 -7zM139 154h119v82h-29v-46h-18v42h-28v-42h-15v45h-29v-81zM934 183l38 3c1 13 -7 20 -19 20
c-13 0 -19 -8 -19 -23zM765 157c14 0 21 7 21 20c0 12 -6 19 -16 19c-11 0 -19 -8 -19 -19c0 -3 1 -9 4 -19c3 -1 8 -1 10 -1zM1050 97c-9 0 -15 6 -15 15c0 8 6 14 15 14c8 0 14 -6 14 -14c0 -9 -6 -15 -14 -15zM139 11h119v45c0 41 -21 68 -61 68c-37 0 -60 -26 -60 -65
c0 -25 2 -43 2 -48zM1050 100c6 0 11 5 11 12c0 6 -5 11 -11 11c-7 0 -12 -5 -12 -11c0 -7 5 -12 12 -12zM1043 104v15h7c4 0 7 -1 7 -5c0 -3 -2 -4 -5 -4l4 -6h-4l-2 6h-4v-6h-3zM1046 112h4c2 0 3 1 3 2c0 2 -2 2 -3 2h-4v-4zM171 47c0 4 -1 5 -1 12c0 14 8 27 28 27
c19 0 28 -9 28 -27v-12h-55z" />
    <glyph glyph-name="Igrave" unicode="&#xcc;" 
d="M100 -50v668h191v-668h-191zM199 429c41 0 61 31 61 63c0 36 -23 63 -61 63c-42 0 -63 -31 -63 -63c0 -36 24 -63 63 -63zM820 452c-24 0 -42 17 -42 40c0 22 18 40 42 40c23 0 41 -18 41 -40c0 -23 -18 -40 -41 -40zM199 467c-18 0 -30 9 -30 25s12 25 30 25
c17 0 28 -9 28 -25s-11 -25 -28 -25zM380 283c0 63 1 130 4 204h68c3 -67 5 -136 6 -204h-78zM721 279c-37 0 -56 13 -55 47l1 49h-17v49l60 48h22l2 -33h118c3 -52 4 -104 4 -156h-77c0 18 0 62 1 92h-41l3 -28c0 -8 5 -12 11 -12c3 0 7 0 11 2v-48c-5 -5 -21 -10 -43 -10z
M529 280c-37 0 -60 28 -60 74c0 56 34 88 92 88c49 0 80 -23 80 -48l-1 -111h-56l-5 30c-6 -20 -25 -33 -50 -33zM871 283c1 54 2 105 5 156h56l5 -34c10 26 28 37 53 37c35 0 54 -22 55 -69l2 -90h-78l2 73c0 13 -3 19 -11 19s-13 -5 -12 -19l1 -73h-78zM1144 280
c-54 0 -86 29 -86 80s33 82 86 82c54 0 86 -31 86 -82s-32 -80 -86 -80zM258 265v35l-57 1v1l43 24v17l-43 22v1l57 3v34l-119 -8v-29l55 -31l-55 -32v-31zM554 337c11 0 18 8 18 18c0 4 -1 10 -2 15c-3 4 -9 6 -14 6c-12 0 -18 -7 -18 -20c0 -12 6 -19 16 -19zM1144 337
c11 0 18 8 18 20s-7 19 -18 19c-10 0 -17 -7 -17 -19s7 -20 17 -20zM562 54c-18 0 -34 2 -46 9v55h1c12 -6 26 -10 40 -10c39 0 37 27 37 26c0 -8 -24 -10 -32 -10c-29 0 -57 24 -57 54v17h-36l2 -29c1 -8 7 -11 12 -11c3 0 8 0 10 2h1v-48c-10 -6 -24 -10 -43 -10
c-40 0 -56 16 -55 43l1 53h-17v49l63 30h22l-1 -16h111l-2 -63c0 -14 4 -19 11 -19c8 0 13 6 12 19l-1 63h71c1 -17 3 -59 3 -80c0 -90 -30 -124 -107 -124zM683 62c0 72 1 133 3 197h58l2 -31c6 21 25 34 50 34c37 0 59 -28 59 -74c0 -54 -30 -87 -80 -87c-4 0 -11 1 -17 2
l2 -41h-77zM963 100c-66 0 -98 27 -98 79c0 51 31 83 86 83c50 0 77 -27 77 -76c0 -10 -1 -16 -2 -21l-87 -4c5 -8 21 -12 42 -12c12 0 25 1 35 5v-47c-15 -5 -33 -7 -53 -7zM139 154h119v82h-29v-46h-18v42h-28v-42h-15v45h-29v-81zM934 183l38 3c1 13 -7 20 -19 20
c-13 0 -19 -8 -19 -23zM765 157c14 0 21 7 21 20c0 12 -6 19 -16 19c-11 0 -19 -8 -19 -19c0 -3 1 -9 4 -19c3 -1 8 -1 10 -1zM1050 97c-9 0 -15 6 -15 15c0 8 6 14 15 14c8 0 14 -6 14 -14c0 -9 -6 -15 -14 -15zM139 11h119v45c0 41 -21 68 -61 68c-37 0 -60 -26 -60 -65
c0 -25 2 -43 2 -48zM1050 100c6 0 11 5 11 12c0 6 -5 11 -11 11c-7 0 -12 -5 -12 -11c0 -7 5 -12 12 -12zM1043 104v15h7c4 0 7 -1 7 -5c0 -3 -2 -4 -5 -4l4 -6h-4l-2 6h-4v-6h-3zM1046 112h4c2 0 3 1 3 2c0 2 -2 2 -3 2h-4v-4zM171 47c0 4 -1 5 -1 12c0 14 8 27 28 27
c19 0 28 -9 28 -27v-12h-55z" />
    <glyph glyph-name="Imacron" unicode="&#x12a;" 
d="M100 -50v668h191v-668h-191zM199 429c41 0 61 31 61 63c0 36 -23 63 -61 63c-42 0 -63 -31 -63 -63c0 -36 24 -63 63 -63zM820 452c-24 0 -42 17 -42 40c0 22 18 40 42 40c23 0 41 -18 41 -40c0 -23 -18 -40 -41 -40zM199 467c-18 0 -30 9 -30 25s12 25 30 25
c17 0 28 -9 28 -25s-11 -25 -28 -25zM380 283c0 63 1 130 4 204h68c3 -67 5 -136 6 -204h-78zM721 279c-37 0 -56 13 -55 47l1 49h-17v49l60 48h22l2 -33h118c3 -52 4 -104 4 -156h-77c0 18 0 62 1 92h-41l3 -28c0 -8 5 -12 11 -12c3 0 7 0 11 2v-48c-5 -5 -21 -10 -43 -10z
M529 280c-37 0 -60 28 -60 74c0 56 34 88 92 88c49 0 80 -23 80 -48l-1 -111h-56l-5 30c-6 -20 -25 -33 -50 -33zM871 283c1 54 2 105 5 156h56l5 -34c10 26 28 37 53 37c35 0 54 -22 55 -69l2 -90h-78l2 73c0 13 -3 19 -11 19s-13 -5 -12 -19l1 -73h-78zM1144 280
c-54 0 -86 29 -86 80s33 82 86 82c54 0 86 -31 86 -82s-32 -80 -86 -80zM258 265v35l-57 1v1l43 24v17l-43 22v1l57 3v34l-119 -8v-29l55 -31l-55 -32v-31zM554 337c11 0 18 8 18 18c0 4 -1 10 -2 15c-3 4 -9 6 -14 6c-12 0 -18 -7 -18 -20c0 -12 6 -19 16 -19zM1144 337
c11 0 18 8 18 20s-7 19 -18 19c-10 0 -17 -7 -17 -19s7 -20 17 -20zM562 54c-18 0 -34 2 -46 9v55h1c12 -6 26 -10 40 -10c39 0 37 27 37 26c0 -8 -24 -10 -32 -10c-29 0 -57 24 -57 54v17h-36l2 -29c1 -8 7 -11 12 -11c3 0 8 0 10 2h1v-48c-10 -6 -24 -10 -43 -10
c-40 0 -56 16 -55 43l1 53h-17v49l63 30h22l-1 -16h111l-2 -63c0 -14 4 -19 11 -19c8 0 13 6 12 19l-1 63h71c1 -17 3 -59 3 -80c0 -90 -30 -124 -107 -124zM683 62c0 72 1 133 3 197h58l2 -31c6 21 25 34 50 34c37 0 59 -28 59 -74c0 -54 -30 -87 -80 -87c-4 0 -11 1 -17 2
l2 -41h-77zM963 100c-66 0 -98 27 -98 79c0 51 31 83 86 83c50 0 77 -27 77 -76c0 -10 -1 -16 -2 -21l-87 -4c5 -8 21 -12 42 -12c12 0 25 1 35 5v-47c-15 -5 -33 -7 -53 -7zM139 154h119v82h-29v-46h-18v42h-28v-42h-15v45h-29v-81zM934 183l38 3c1 13 -7 20 -19 20
c-13 0 -19 -8 -19 -23zM765 157c14 0 21 7 21 20c0 12 -6 19 -16 19c-11 0 -19 -8 -19 -19c0 -3 1 -9 4 -19c3 -1 8 -1 10 -1zM1050 97c-9 0 -15 6 -15 15c0 8 6 14 15 14c8 0 14 -6 14 -14c0 -9 -6 -15 -14 -15zM139 11h119v45c0 41 -21 68 -61 68c-37 0 -60 -26 -60 -65
c0 -25 2 -43 2 -48zM1050 100c6 0 11 5 11 12c0 6 -5 11 -11 11c-7 0 -12 -5 -12 -11c0 -7 5 -12 12 -12zM1043 104v15h7c4 0 7 -1 7 -5c0 -3 -2 -4 -5 -4l4 -6h-4l-2 6h-4v-6h-3zM1046 112h4c2 0 3 1 3 2c0 2 -2 2 -3 2h-4v-4zM171 47c0 4 -1 5 -1 12c0 14 8 27 28 27
c19 0 28 -9 28 -27v-12h-55z" />
    <glyph glyph-name="Iogonek" unicode="&#x12e;" 
d="M100 -50v668h191v-668h-191zM199 429c41 0 61 31 61 63c0 36 -23 63 -61 63c-42 0 -63 -31 -63 -63c0 -36 24 -63 63 -63zM820 452c-24 0 -42 17 -42 40c0 22 18 40 42 40c23 0 41 -18 41 -40c0 -23 -18 -40 -41 -40zM199 467c-18 0 -30 9 -30 25s12 25 30 25
c17 0 28 -9 28 -25s-11 -25 -28 -25zM380 283c0 63 1 130 4 204h68c3 -67 5 -136 6 -204h-78zM721 279c-37 0 -56 13 -55 47l1 49h-17v49l60 48h22l2 -33h118c3 -52 4 -104 4 -156h-77c0 18 0 62 1 92h-41l3 -28c0 -8 5 -12 11 -12c3 0 7 0 11 2v-48c-5 -5 -21 -10 -43 -10z
M529 280c-37 0 -60 28 -60 74c0 56 34 88 92 88c49 0 80 -23 80 -48l-1 -111h-56l-5 30c-6 -20 -25 -33 -50 -33zM871 283c1 54 2 105 5 156h56l5 -34c10 26 28 37 53 37c35 0 54 -22 55 -69l2 -90h-78l2 73c0 13 -3 19 -11 19s-13 -5 -12 -19l1 -73h-78zM1144 280
c-54 0 -86 29 -86 80s33 82 86 82c54 0 86 -31 86 -82s-32 -80 -86 -80zM258 265v35l-57 1v1l43 24v17l-43 22v1l57 3v34l-119 -8v-29l55 -31l-55 -32v-31zM554 337c11 0 18 8 18 18c0 4 -1 10 -2 15c-3 4 -9 6 -14 6c-12 0 -18 -7 -18 -20c0 -12 6 -19 16 -19zM1144 337
c11 0 18 8 18 20s-7 19 -18 19c-10 0 -17 -7 -17 -19s7 -20 17 -20zM562 54c-18 0 -34 2 -46 9v55h1c12 -6 26 -10 40 -10c39 0 37 27 37 26c0 -8 -24 -10 -32 -10c-29 0 -57 24 -57 54v17h-36l2 -29c1 -8 7 -11 12 -11c3 0 8 0 10 2h1v-48c-10 -6 -24 -10 -43 -10
c-40 0 -56 16 -55 43l1 53h-17v49l63 30h22l-1 -16h111l-2 -63c0 -14 4 -19 11 -19c8 0 13 6 12 19l-1 63h71c1 -17 3 -59 3 -80c0 -90 -30 -124 -107 -124zM683 62c0 72 1 133 3 197h58l2 -31c6 21 25 34 50 34c37 0 59 -28 59 -74c0 -54 -30 -87 -80 -87c-4 0 -11 1 -17 2
l2 -41h-77zM963 100c-66 0 -98 27 -98 79c0 51 31 83 86 83c50 0 77 -27 77 -76c0 -10 -1 -16 -2 -21l-87 -4c5 -8 21 -12 42 -12c12 0 25 1 35 5v-47c-15 -5 -33 -7 -53 -7zM139 154h119v82h-29v-46h-18v42h-28v-42h-15v45h-29v-81zM934 183l38 3c1 13 -7 20 -19 20
c-13 0 -19 -8 -19 -23zM765 157c14 0 21 7 21 20c0 12 -6 19 -16 19c-11 0 -19 -8 -19 -19c0 -3 1 -9 4 -19c3 -1 8 -1 10 -1zM1050 97c-9 0 -15 6 -15 15c0 8 6 14 15 14c8 0 14 -6 14 -14c0 -9 -6 -15 -14 -15zM139 11h119v45c0 41 -21 68 -61 68c-37 0 -60 -26 -60 -65
c0 -25 2 -43 2 -48zM1050 100c6 0 11 5 11 12c0 6 -5 11 -11 11c-7 0 -12 -5 -12 -11c0 -7 5 -12 12 -12zM1043 104v15h7c4 0 7 -1 7 -5c0 -3 -2 -4 -5 -4l4 -6h-4l-2 6h-4v-6h-3zM1046 112h4c2 0 3 1 3 2c0 2 -2 2 -3 2h-4v-4zM171 47c0 4 -1 5 -1 12c0 14 8 27 28 27
c19 0 28 -9 28 -27v-12h-55z" />
    <glyph glyph-name="Itilde" unicode="&#x128;" 
d="M100 -50v668h191v-668h-191zM199 429c41 0 61 31 61 63c0 36 -23 63 -61 63c-42 0 -63 -31 -63 -63c0 -36 24 -63 63 -63zM820 452c-24 0 -42 17 -42 40c0 22 18 40 42 40c23 0 41 -18 41 -40c0 -23 -18 -40 -41 -40zM199 467c-18 0 -30 9 -30 25s12 25 30 25
c17 0 28 -9 28 -25s-11 -25 -28 -25zM380 283c0 63 1 130 4 204h68c3 -67 5 -136 6 -204h-78zM721 279c-37 0 -56 13 -55 47l1 49h-17v49l60 48h22l2 -33h118c3 -52 4 -104 4 -156h-77c0 18 0 62 1 92h-41l3 -28c0 -8 5 -12 11 -12c3 0 7 0 11 2v-48c-5 -5 -21 -10 -43 -10z
M529 280c-37 0 -60 28 -60 74c0 56 34 88 92 88c49 0 80 -23 80 -48l-1 -111h-56l-5 30c-6 -20 -25 -33 -50 -33zM871 283c1 54 2 105 5 156h56l5 -34c10 26 28 37 53 37c35 0 54 -22 55 -69l2 -90h-78l2 73c0 13 -3 19 -11 19s-13 -5 -12 -19l1 -73h-78zM1144 280
c-54 0 -86 29 -86 80s33 82 86 82c54 0 86 -31 86 -82s-32 -80 -86 -80zM258 265v35l-57 1v1l43 24v17l-43 22v1l57 3v34l-119 -8v-29l55 -31l-55 -32v-31zM554 337c11 0 18 8 18 18c0 4 -1 10 -2 15c-3 4 -9 6 -14 6c-12 0 -18 -7 -18 -20c0 -12 6 -19 16 -19zM1144 337
c11 0 18 8 18 20s-7 19 -18 19c-10 0 -17 -7 -17 -19s7 -20 17 -20zM562 54c-18 0 -34 2 -46 9v55h1c12 -6 26 -10 40 -10c39 0 37 27 37 26c0 -8 -24 -10 -32 -10c-29 0 -57 24 -57 54v17h-36l2 -29c1 -8 7 -11 12 -11c3 0 8 0 10 2h1v-48c-10 -6 -24 -10 -43 -10
c-40 0 -56 16 -55 43l1 53h-17v49l63 30h22l-1 -16h111l-2 -63c0 -14 4 -19 11 -19c8 0 13 6 12 19l-1 63h71c1 -17 3 -59 3 -80c0 -90 -30 -124 -107 -124zM683 62c0 72 1 133 3 197h58l2 -31c6 21 25 34 50 34c37 0 59 -28 59 -74c0 -54 -30 -87 -80 -87c-4 0 -11 1 -17 2
l2 -41h-77zM963 100c-66 0 -98 27 -98 79c0 51 31 83 86 83c50 0 77 -27 77 -76c0 -10 -1 -16 -2 -21l-87 -4c5 -8 21 -12 42 -12c12 0 25 1 35 5v-47c-15 -5 -33 -7 -53 -7zM139 154h119v82h-29v-46h-18v42h-28v-42h-15v45h-29v-81zM934 183l38 3c1 13 -7 20 -19 20
c-13 0 -19 -8 -19 -23zM765 157c14 0 21 7 21 20c0 12 -6 19 -16 19c-11 0 -19 -8 -19 -19c0 -3 1 -9 4 -19c3 -1 8 -1 10 -1zM1050 97c-9 0 -15 6 -15 15c0 8 6 14 15 14c8 0 14 -6 14 -14c0 -9 -6 -15 -14 -15zM139 11h119v45c0 41 -21 68 -61 68c-37 0 -60 -26 -60 -65
c0 -25 2 -43 2 -48zM1050 100c6 0 11 5 11 12c0 6 -5 11 -11 11c-7 0 -12 -5 -12 -11c0 -7 5 -12 12 -12zM1043 104v15h7c4 0 7 -1 7 -5c0 -3 -2 -4 -5 -4l4 -6h-4l-2 6h-4v-6h-3zM1046 112h4c2 0 3 1 3 2c0 2 -2 2 -3 2h-4v-4zM171 47c0 4 -1 5 -1 12c0 14 8 27 28 27
c19 0 28 -9 28 -27v-12h-55z" />
    <glyph glyph-name="J" unicode="J" horiz-adv-x="517" 
d="M340 640c0 36 -37 37 -37 56v2c0 8 8 12 21 12h126c12 0 19 -4 19 -12v-2c0 -19 -38 -20 -38 -56l-1 -385c-1 -197 -91 -264 -212 -265c-152 -1 -208 101 -208 161c0 28 17 46 43 46c81 0 29 -166 173 -166c63 0 114 61 114 182v427z" />
    <glyph glyph-name="uni00A40301" 
d="M100 -50v668h191v-668h-191zM199 429c41 0 61 31 61 63c0 36 -23 63 -61 63c-42 0 -63 -31 -63 -63c0 -36 24 -63 63 -63zM820 452c-24 0 -42 17 -42 40c0 22 18 40 42 40c23 0 41 -18 41 -40c0 -23 -18 -40 -41 -40zM199 467c-18 0 -30 9 -30 25s12 25 30 25
c17 0 28 -9 28 -25s-11 -25 -28 -25zM380 283c0 63 1 130 4 204h68c3 -67 5 -136 6 -204h-78zM721 279c-37 0 -56 13 -55 47l1 49h-17v49l60 48h22l2 -33h118c3 -52 4 -104 4 -156h-77c0 18 0 62 1 92h-41l3 -28c0 -8 5 -12 11 -12c3 0 7 0 11 2v-48c-5 -5 -21 -10 -43 -10z
M529 280c-37 0 -60 28 -60 74c0 56 34 88 92 88c49 0 80 -23 80 -48l-1 -111h-56l-5 30c-6 -20 -25 -33 -50 -33zM871 283c1 54 2 105 5 156h56l5 -34c10 26 28 37 53 37c35 0 54 -22 55 -69l2 -90h-78l2 73c0 13 -3 19 -11 19s-13 -5 -12 -19l1 -73h-78zM1144 280
c-54 0 -86 29 -86 80s33 82 86 82c54 0 86 -31 86 -82s-32 -80 -86 -80zM258 265v35l-57 1v1l43 24v17l-43 22v1l57 3v34l-119 -8v-29l55 -31l-55 -32v-31zM554 337c11 0 18 8 18 18c0 4 -1 10 -2 15c-3 4 -9 6 -14 6c-12 0 -18 -7 -18 -20c0 -12 6 -19 16 -19zM1144 337
c11 0 18 8 18 20s-7 19 -18 19c-10 0 -17 -7 -17 -19s7 -20 17 -20zM562 54c-18 0 -34 2 -46 9v55h1c12 -6 26 -10 40 -10c39 0 37 27 37 26c0 -8 -24 -10 -32 -10c-29 0 -57 24 -57 54v17h-36l2 -29c1 -8 7 -11 12 -11c3 0 8 0 10 2h1v-48c-10 -6 -24 -10 -43 -10
c-40 0 -56 16 -55 43l1 53h-17v49l63 30h22l-1 -16h111l-2 -63c0 -14 4 -19 11 -19c8 0 13 6 12 19l-1 63h71c1 -17 3 -59 3 -80c0 -90 -30 -124 -107 -124zM683 62c0 72 1 133 3 197h58l2 -31c6 21 25 34 50 34c37 0 59 -28 59 -74c0 -54 -30 -87 -80 -87c-4 0 -11 1 -17 2
l2 -41h-77zM963 100c-66 0 -98 27 -98 79c0 51 31 83 86 83c50 0 77 -27 77 -76c0 -10 -1 -16 -2 -21l-87 -4c5 -8 21 -12 42 -12c12 0 25 1 35 5v-47c-15 -5 -33 -7 -53 -7zM139 154h119v82h-29v-46h-18v42h-28v-42h-15v45h-29v-81zM934 183l38 3c1 13 -7 20 -19 20
c-13 0 -19 -8 -19 -23zM765 157c14 0 21 7 21 20c0 12 -6 19 -16 19c-11 0 -19 -8 -19 -19c0 -3 1 -9 4 -19c3 -1 8 -1 10 -1zM1050 97c-9 0 -15 6 -15 15c0 8 6 14 15 14c8 0 14 -6 14 -14c0 -9 -6 -15 -14 -15zM139 11h119v45c0 41 -21 68 -61 68c-37 0 -60 -26 -60 -65
c0 -25 2 -43 2 -48zM1050 100c6 0 11 5 11 12c0 6 -5 11 -11 11c-7 0 -12 -5 -12 -11c0 -7 5 -12 12 -12zM1043 104v15h7c4 0 7 -1 7 -5c0 -3 -2 -4 -5 -4l4 -6h-4l-2 6h-4v-6h-3zM1046 112h4c2 0 3 1 3 2c0 2 -2 2 -3 2h-4v-4zM171 47c0 4 -1 5 -1 12c0 14 8 27 28 27
c19 0 28 -9 28 -27v-12h-55z" />
    <glyph glyph-name="K" unicode="K" horiz-adv-x="679" 
d="M643 71c28 -45 51 -39 51 -57v-2c0 -7 -5 -12 -17 -12h-143c-12 0 -18 4 -18 12v2c0 18 42 23 24 52l-208 330l-145 -143v-182c0 -35 39 -38 39 -57v-2c0 -8 -9 -12 -21 -12h-125c-12 0 -20 4 -20 12v2c0 19 36 22 36 57v569c0 36 -36 37 -36 56v2c0 8 8 12 20 12h125
c12 0 20 -4 20 -12v-2c0 -19 -38 -20 -38 -56v-326l326 323c32 32 -12 41 -12 59v2c0 8 8 12 21 12h104c13 0 20 -4 20 -12v-2c0 -18 -38 -26 -71 -59l-182 -180z" />
    <glyph glyph-name="uni0136" unicode="&#x136;" 
d="M100 -50v668h191v-668h-191zM199 429c41 0 61 31 61 63c0 36 -23 63 -61 63c-42 0 -63 -31 -63 -63c0 -36 24 -63 63 -63zM820 452c-24 0 -42 17 -42 40c0 22 18 40 42 40c23 0 41 -18 41 -40c0 -23 -18 -40 -41 -40zM199 467c-18 0 -30 9 -30 25s12 25 30 25
c17 0 28 -9 28 -25s-11 -25 -28 -25zM380 283c0 63 1 130 4 204h68c3 -67 5 -136 6 -204h-78zM721 279c-37 0 -56 13 -55 47l1 49h-17v49l60 48h22l2 -33h118c3 -52 4 -104 4 -156h-77c0 18 0 62 1 92h-41l3 -28c0 -8 5 -12 11 -12c3 0 7 0 11 2v-48c-5 -5 -21 -10 -43 -10z
M529 280c-37 0 -60 28 -60 74c0 56 34 88 92 88c49 0 80 -23 80 -48l-1 -111h-56l-5 30c-6 -20 -25 -33 -50 -33zM871 283c1 54 2 105 5 156h56l5 -34c10 26 28 37 53 37c35 0 54 -22 55 -69l2 -90h-78l2 73c0 13 -3 19 -11 19s-13 -5 -12 -19l1 -73h-78zM1144 280
c-54 0 -86 29 -86 80s33 82 86 82c54 0 86 -31 86 -82s-32 -80 -86 -80zM258 265v35l-57 1v1l43 24v17l-43 22v1l57 3v34l-119 -8v-29l55 -31l-55 -32v-31zM554 337c11 0 18 8 18 18c0 4 -1 10 -2 15c-3 4 -9 6 -14 6c-12 0 -18 -7 -18 -20c0 -12 6 -19 16 -19zM1144 337
c11 0 18 8 18 20s-7 19 -18 19c-10 0 -17 -7 -17 -19s7 -20 17 -20zM562 54c-18 0 -34 2 -46 9v55h1c12 -6 26 -10 40 -10c39 0 37 27 37 26c0 -8 -24 -10 -32 -10c-29 0 -57 24 -57 54v17h-36l2 -29c1 -8 7 -11 12 -11c3 0 8 0 10 2h1v-48c-10 -6 -24 -10 -43 -10
c-40 0 -56 16 -55 43l1 53h-17v49l63 30h22l-1 -16h111l-2 -63c0 -14 4 -19 11 -19c8 0 13 6 12 19l-1 63h71c1 -17 3 -59 3 -80c0 -90 -30 -124 -107 -124zM683 62c0 72 1 133 3 197h58l2 -31c6 21 25 34 50 34c37 0 59 -28 59 -74c0 -54 -30 -87 -80 -87c-4 0 -11 1 -17 2
l2 -41h-77zM963 100c-66 0 -98 27 -98 79c0 51 31 83 86 83c50 0 77 -27 77 -76c0 -10 -1 -16 -2 -21l-87 -4c5 -8 21 -12 42 -12c12 0 25 1 35 5v-47c-15 -5 -33 -7 -53 -7zM139 154h119v82h-29v-46h-18v42h-28v-42h-15v45h-29v-81zM934 183l38 3c1 13 -7 20 -19 20
c-13 0 -19 -8 -19 -23zM765 157c14 0 21 7 21 20c0 12 -6 19 -16 19c-11 0 -19 -8 -19 -19c0 -3 1 -9 4 -19c3 -1 8 -1 10 -1zM1050 97c-9 0 -15 6 -15 15c0 8 6 14 15 14c8 0 14 -6 14 -14c0 -9 -6 -15 -14 -15zM139 11h119v45c0 41 -21 68 -61 68c-37 0 -60 -26 -60 -65
c0 -25 2 -43 2 -48zM1050 100c6 0 11 5 11 12c0 6 -5 11 -11 11c-7 0 -12 -5 -12 -11c0 -7 5 -12 12 -12zM1043 104v15h7c4 0 7 -1 7 -5c0 -3 -2 -4 -5 -4l4 -6h-4l-2 6h-4v-6h-3zM1046 112h4c2 0 3 1 3 2c0 2 -2 2 -3 2h-4v-4zM171 47c0 4 -1 5 -1 12c0 14 8 27 28 27
c19 0 28 -9 28 -27v-12h-55z" />
    <glyph glyph-name="L" unicode="L" horiz-adv-x="575" 
d="M80 0c-12 0 -20 5 -20 12v2c0 19 36 21 36 56v570c0 37 -36 36 -36 56v2c0 8 8 12 20 12h126c12 0 20 -4 20 -12v-2c0 -20 -39 -19 -39 -56v-560c0 -23 11 -39 32 -39h222c58 0 70 110 105 110h8c9 0 14 -6 11 -18l-25 -110c-3 -15 -10 -23 -25 -23h-435z" />
    <glyph glyph-name="Lacute" unicode="&#x139;" 
d="M100 -50v668h191v-668h-191zM199 429c41 0 61 31 61 63c0 36 -23 63 -61 63c-42 0 -63 -31 -63 -63c0 -36 24 -63 63 -63zM820 452c-24 0 -42 17 -42 40c0 22 18 40 42 40c23 0 41 -18 41 -40c0 -23 -18 -40 -41 -40zM199 467c-18 0 -30 9 -30 25s12 25 30 25
c17 0 28 -9 28 -25s-11 -25 -28 -25zM380 283c0 63 1 130 4 204h68c3 -67 5 -136 6 -204h-78zM721 279c-37 0 -56 13 -55 47l1 49h-17v49l60 48h22l2 -33h118c3 -52 4 -104 4 -156h-77c0 18 0 62 1 92h-41l3 -28c0 -8 5 -12 11 -12c3 0 7 0 11 2v-48c-5 -5 -21 -10 -43 -10z
M529 280c-37 0 -60 28 -60 74c0 56 34 88 92 88c49 0 80 -23 80 -48l-1 -111h-56l-5 30c-6 -20 -25 -33 -50 -33zM871 283c1 54 2 105 5 156h56l5 -34c10 26 28 37 53 37c35 0 54 -22 55 -69l2 -90h-78l2 73c0 13 -3 19 -11 19s-13 -5 -12 -19l1 -73h-78zM1144 280
c-54 0 -86 29 -86 80s33 82 86 82c54 0 86 -31 86 -82s-32 -80 -86 -80zM258 265v35l-57 1v1l43 24v17l-43 22v1l57 3v34l-119 -8v-29l55 -31l-55 -32v-31zM554 337c11 0 18 8 18 18c0 4 -1 10 -2 15c-3 4 -9 6 -14 6c-12 0 -18 -7 -18 -20c0 -12 6 -19 16 -19zM1144 337
c11 0 18 8 18 20s-7 19 -18 19c-10 0 -17 -7 -17 -19s7 -20 17 -20zM562 54c-18 0 -34 2 -46 9v55h1c12 -6 26 -10 40 -10c39 0 37 27 37 26c0 -8 -24 -10 -32 -10c-29 0 -57 24 -57 54v17h-36l2 -29c1 -8 7 -11 12 -11c3 0 8 0 10 2h1v-48c-10 -6 -24 -10 -43 -10
c-40 0 -56 16 -55 43l1 53h-17v49l63 30h22l-1 -16h111l-2 -63c0 -14 4 -19 11 -19c8 0 13 6 12 19l-1 63h71c1 -17 3 -59 3 -80c0 -90 -30 -124 -107 -124zM683 62c0 72 1 133 3 197h58l2 -31c6 21 25 34 50 34c37 0 59 -28 59 -74c0 -54 -30 -87 -80 -87c-4 0 -11 1 -17 2
l2 -41h-77zM963 100c-66 0 -98 27 -98 79c0 51 31 83 86 83c50 0 77 -27 77 -76c0 -10 -1 -16 -2 -21l-87 -4c5 -8 21 -12 42 -12c12 0 25 1 35 5v-47c-15 -5 -33 -7 -53 -7zM139 154h119v82h-29v-46h-18v42h-28v-42h-15v45h-29v-81zM934 183l38 3c1 13 -7 20 -19 20
c-13 0 -19 -8 -19 -23zM765 157c14 0 21 7 21 20c0 12 -6 19 -16 19c-11 0 -19 -8 -19 -19c0 -3 1 -9 4 -19c3 -1 8 -1 10 -1zM1050 97c-9 0 -15 6 -15 15c0 8 6 14 15 14c8 0 14 -6 14 -14c0 -9 -6 -15 -14 -15zM139 11h119v45c0 41 -21 68 -61 68c-37 0 -60 -26 -60 -65
c0 -25 2 -43 2 -48zM1050 100c6 0 11 5 11 12c0 6 -5 11 -11 11c-7 0 -12 -5 -12 -11c0 -7 5 -12 12 -12zM1043 104v15h7c4 0 7 -1 7 -5c0 -3 -2 -4 -5 -4l4 -6h-4l-2 6h-4v-6h-3zM1046 112h4c2 0 3 1 3 2c0 2 -2 2 -3 2h-4v-4zM171 47c0 4 -1 5 -1 12c0 14 8 27 28 27
c19 0 28 -9 28 -27v-12h-55z" />
    <glyph glyph-name="Lcaron" unicode="&#x13d;" 
d="M100 -50v668h191v-668h-191zM199 429c41 0 61 31 61 63c0 36 -23 63 -61 63c-42 0 -63 -31 -63 -63c0 -36 24 -63 63 -63zM820 452c-24 0 -42 17 -42 40c0 22 18 40 42 40c23 0 41 -18 41 -40c0 -23 -18 -40 -41 -40zM199 467c-18 0 -30 9 -30 25s12 25 30 25
c17 0 28 -9 28 -25s-11 -25 -28 -25zM380 283c0 63 1 130 4 204h68c3 -67 5 -136 6 -204h-78zM721 279c-37 0 -56 13 -55 47l1 49h-17v49l60 48h22l2 -33h118c3 -52 4 -104 4 -156h-77c0 18 0 62 1 92h-41l3 -28c0 -8 5 -12 11 -12c3 0 7 0 11 2v-48c-5 -5 -21 -10 -43 -10z
M529 280c-37 0 -60 28 -60 74c0 56 34 88 92 88c49 0 80 -23 80 -48l-1 -111h-56l-5 30c-6 -20 -25 -33 -50 -33zM871 283c1 54 2 105 5 156h56l5 -34c10 26 28 37 53 37c35 0 54 -22 55 -69l2 -90h-78l2 73c0 13 -3 19 -11 19s-13 -5 -12 -19l1 -73h-78zM1144 280
c-54 0 -86 29 -86 80s33 82 86 82c54 0 86 -31 86 -82s-32 -80 -86 -80zM258 265v35l-57 1v1l43 24v17l-43 22v1l57 3v34l-119 -8v-29l55 -31l-55 -32v-31zM554 337c11 0 18 8 18 18c0 4 -1 10 -2 15c-3 4 -9 6 -14 6c-12 0 -18 -7 -18 -20c0 -12 6 -19 16 -19zM1144 337
c11 0 18 8 18 20s-7 19 -18 19c-10 0 -17 -7 -17 -19s7 -20 17 -20zM562 54c-18 0 -34 2 -46 9v55h1c12 -6 26 -10 40 -10c39 0 37 27 37 26c0 -8 -24 -10 -32 -10c-29 0 -57 24 -57 54v17h-36l2 -29c1 -8 7 -11 12 -11c3 0 8 0 10 2h1v-48c-10 -6 -24 -10 -43 -10
c-40 0 -56 16 -55 43l1 53h-17v49l63 30h22l-1 -16h111l-2 -63c0 -14 4 -19 11 -19c8 0 13 6 12 19l-1 63h71c1 -17 3 -59 3 -80c0 -90 -30 -124 -107 -124zM683 62c0 72 1 133 3 197h58l2 -31c6 21 25 34 50 34c37 0 59 -28 59 -74c0 -54 -30 -87 -80 -87c-4 0 -11 1 -17 2
l2 -41h-77zM963 100c-66 0 -98 27 -98 79c0 51 31 83 86 83c50 0 77 -27 77 -76c0 -10 -1 -16 -2 -21l-87 -4c5 -8 21 -12 42 -12c12 0 25 1 35 5v-47c-15 -5 -33 -7 -53 -7zM139 154h119v82h-29v-46h-18v42h-28v-42h-15v45h-29v-81zM934 183l38 3c1 13 -7 20 -19 20
c-13 0 -19 -8 -19 -23zM765 157c14 0 21 7 21 20c0 12 -6 19 -16 19c-11 0 -19 -8 -19 -19c0 -3 1 -9 4 -19c3 -1 8 -1 10 -1zM1050 97c-9 0 -15 6 -15 15c0 8 6 14 15 14c8 0 14 -6 14 -14c0 -9 -6 -15 -14 -15zM139 11h119v45c0 41 -21 68 -61 68c-37 0 -60 -26 -60 -65
c0 -25 2 -43 2 -48zM1050 100c6 0 11 5 11 12c0 6 -5 11 -11 11c-7 0 -12 -5 -12 -11c0 -7 5 -12 12 -12zM1043 104v15h7c4 0 7 -1 7 -5c0 -3 -2 -4 -5 -4l4 -6h-4l-2 6h-4v-6h-3zM1046 112h4c2 0 3 1 3 2c0 2 -2 2 -3 2h-4v-4zM171 47c0 4 -1 5 -1 12c0 14 8 27 28 27
c19 0 28 -9 28 -27v-12h-55z" />
    <glyph glyph-name="uni013B" unicode="&#x13b;" 
d="M100 -50v668h191v-668h-191zM199 429c41 0 61 31 61 63c0 36 -23 63 -61 63c-42 0 -63 -31 -63 -63c0 -36 24 -63 63 -63zM820 452c-24 0 -42 17 -42 40c0 22 18 40 42 40c23 0 41 -18 41 -40c0 -23 -18 -40 -41 -40zM199 467c-18 0 -30 9 -30 25s12 25 30 25
c17 0 28 -9 28 -25s-11 -25 -28 -25zM380 283c0 63 1 130 4 204h68c3 -67 5 -136 6 -204h-78zM721 279c-37 0 -56 13 -55 47l1 49h-17v49l60 48h22l2 -33h118c3 -52 4 -104 4 -156h-77c0 18 0 62 1 92h-41l3 -28c0 -8 5 -12 11 -12c3 0 7 0 11 2v-48c-5 -5 -21 -10 -43 -10z
M529 280c-37 0 -60 28 -60 74c0 56 34 88 92 88c49 0 80 -23 80 -48l-1 -111h-56l-5 30c-6 -20 -25 -33 -50 -33zM871 283c1 54 2 105 5 156h56l5 -34c10 26 28 37 53 37c35 0 54 -22 55 -69l2 -90h-78l2 73c0 13 -3 19 -11 19s-13 -5 -12 -19l1 -73h-78zM1144 280
c-54 0 -86 29 -86 80s33 82 86 82c54 0 86 -31 86 -82s-32 -80 -86 -80zM258 265v35l-57 1v1l43 24v17l-43 22v1l57 3v34l-119 -8v-29l55 -31l-55 -32v-31zM554 337c11 0 18 8 18 18c0 4 -1 10 -2 15c-3 4 -9 6 -14 6c-12 0 -18 -7 -18 -20c0 -12 6 -19 16 -19zM1144 337
c11 0 18 8 18 20s-7 19 -18 19c-10 0 -17 -7 -17 -19s7 -20 17 -20zM562 54c-18 0 -34 2 -46 9v55h1c12 -6 26 -10 40 -10c39 0 37 27 37 26c0 -8 -24 -10 -32 -10c-29 0 -57 24 -57 54v17h-36l2 -29c1 -8 7 -11 12 -11c3 0 8 0 10 2h1v-48c-10 -6 -24 -10 -43 -10
c-40 0 -56 16 -55 43l1 53h-17v49l63 30h22l-1 -16h111l-2 -63c0 -14 4 -19 11 -19c8 0 13 6 12 19l-1 63h71c1 -17 3 -59 3 -80c0 -90 -30 -124 -107 -124zM683 62c0 72 1 133 3 197h58l2 -31c6 21 25 34 50 34c37 0 59 -28 59 -74c0 -54 -30 -87 -80 -87c-4 0 -11 1 -17 2
l2 -41h-77zM963 100c-66 0 -98 27 -98 79c0 51 31 83 86 83c50 0 77 -27 77 -76c0 -10 -1 -16 -2 -21l-87 -4c5 -8 21 -12 42 -12c12 0 25 1 35 5v-47c-15 -5 -33 -7 -53 -7zM139 154h119v82h-29v-46h-18v42h-28v-42h-15v45h-29v-81zM934 183l38 3c1 13 -7 20 -19 20
c-13 0 -19 -8 -19 -23zM765 157c14 0 21 7 21 20c0 12 -6 19 -16 19c-11 0 -19 -8 -19 -19c0 -3 1 -9 4 -19c3 -1 8 -1 10 -1zM1050 97c-9 0 -15 6 -15 15c0 8 6 14 15 14c8 0 14 -6 14 -14c0 -9 -6 -15 -14 -15zM139 11h119v45c0 41 -21 68 -61 68c-37 0 -60 -26 -60 -65
c0 -25 2 -43 2 -48zM1050 100c6 0 11 5 11 12c0 6 -5 11 -11 11c-7 0 -12 -5 -12 -11c0 -7 5 -12 12 -12zM1043 104v15h7c4 0 7 -1 7 -5c0 -3 -2 -4 -5 -4l4 -6h-4l-2 6h-4v-6h-3zM1046 112h4c2 0 3 1 3 2c0 2 -2 2 -3 2h-4v-4zM171 47c0 4 -1 5 -1 12c0 14 8 27 28 27
c19 0 28 -9 28 -27v-12h-55z" />
    <glyph glyph-name="Ldot" unicode="&#x13f;" 
d="M100 -50v668h191v-668h-191zM199 429c41 0 61 31 61 63c0 36 -23 63 -61 63c-42 0 -63 -31 -63 -63c0 -36 24 -63 63 -63zM820 452c-24 0 -42 17 -42 40c0 22 18 40 42 40c23 0 41 -18 41 -40c0 -23 -18 -40 -41 -40zM199 467c-18 0 -30 9 -30 25s12 25 30 25
c17 0 28 -9 28 -25s-11 -25 -28 -25zM380 283c0 63 1 130 4 204h68c3 -67 5 -136 6 -204h-78zM721 279c-37 0 -56 13 -55 47l1 49h-17v49l60 48h22l2 -33h118c3 -52 4 -104 4 -156h-77c0 18 0 62 1 92h-41l3 -28c0 -8 5 -12 11 -12c3 0 7 0 11 2v-48c-5 -5 -21 -10 -43 -10z
M529 280c-37 0 -60 28 -60 74c0 56 34 88 92 88c49 0 80 -23 80 -48l-1 -111h-56l-5 30c-6 -20 -25 -33 -50 -33zM871 283c1 54 2 105 5 156h56l5 -34c10 26 28 37 53 37c35 0 54 -22 55 -69l2 -90h-78l2 73c0 13 -3 19 -11 19s-13 -5 -12 -19l1 -73h-78zM1144 280
c-54 0 -86 29 -86 80s33 82 86 82c54 0 86 -31 86 -82s-32 -80 -86 -80zM258 265v35l-57 1v1l43 24v17l-43 22v1l57 3v34l-119 -8v-29l55 -31l-55 -32v-31zM554 337c11 0 18 8 18 18c0 4 -1 10 -2 15c-3 4 -9 6 -14 6c-12 0 -18 -7 -18 -20c0 -12 6 -19 16 -19zM1144 337
c11 0 18 8 18 20s-7 19 -18 19c-10 0 -17 -7 -17 -19s7 -20 17 -20zM562 54c-18 0 -34 2 -46 9v55h1c12 -6 26 -10 40 -10c39 0 37 27 37 26c0 -8 -24 -10 -32 -10c-29 0 -57 24 -57 54v17h-36l2 -29c1 -8 7 -11 12 -11c3 0 8 0 10 2h1v-48c-10 -6 -24 -10 -43 -10
c-40 0 -56 16 -55 43l1 53h-17v49l63 30h22l-1 -16h111l-2 -63c0 -14 4 -19 11 -19c8 0 13 6 12 19l-1 63h71c1 -17 3 -59 3 -80c0 -90 -30 -124 -107 -124zM683 62c0 72 1 133 3 197h58l2 -31c6 21 25 34 50 34c37 0 59 -28 59 -74c0 -54 -30 -87 -80 -87c-4 0 -11 1 -17 2
l2 -41h-77zM963 100c-66 0 -98 27 -98 79c0 51 31 83 86 83c50 0 77 -27 77 -76c0 -10 -1 -16 -2 -21l-87 -4c5 -8 21 -12 42 -12c12 0 25 1 35 5v-47c-15 -5 -33 -7 -53 -7zM139 154h119v82h-29v-46h-18v42h-28v-42h-15v45h-29v-81zM934 183l38 3c1 13 -7 20 -19 20
c-13 0 -19 -8 -19 -23zM765 157c14 0 21 7 21 20c0 12 -6 19 -16 19c-11 0 -19 -8 -19 -19c0 -3 1 -9 4 -19c3 -1 8 -1 10 -1zM1050 97c-9 0 -15 6 -15 15c0 8 6 14 15 14c8 0 14 -6 14 -14c0 -9 -6 -15 -14 -15zM139 11h119v45c0 41 -21 68 -61 68c-37 0 -60 -26 -60 -65
c0 -25 2 -43 2 -48zM1050 100c6 0 11 5 11 12c0 6 -5 11 -11 11c-7 0 -12 -5 -12 -11c0 -7 5 -12 12 -12zM1043 104v15h7c4 0 7 -1 7 -5c0 -3 -2 -4 -5 -4l4 -6h-4l-2 6h-4v-6h-3zM1046 112h4c2 0 3 1 3 2c0 2 -2 2 -3 2h-4v-4zM171 47c0 4 -1 5 -1 12c0 14 8 27 28 27
c19 0 28 -9 28 -27v-12h-55z" />
    <glyph glyph-name="Lslash" unicode="&#x141;" 
d="M100 -50v668h191v-668h-191zM199 429c41 0 61 31 61 63c0 36 -23 63 -61 63c-42 0 -63 -31 -63 -63c0 -36 24 -63 63 -63zM820 452c-24 0 -42 17 -42 40c0 22 18 40 42 40c23 0 41 -18 41 -40c0 -23 -18 -40 -41 -40zM199 467c-18 0 -30 9 -30 25s12 25 30 25
c17 0 28 -9 28 -25s-11 -25 -28 -25zM380 283c0 63 1 130 4 204h68c3 -67 5 -136 6 -204h-78zM721 279c-37 0 -56 13 -55 47l1 49h-17v49l60 48h22l2 -33h118c3 -52 4 -104 4 -156h-77c0 18 0 62 1 92h-41l3 -28c0 -8 5 -12 11 -12c3 0 7 0 11 2v-48c-5 -5 -21 -10 -43 -10z
M529 280c-37 0 -60 28 -60 74c0 56 34 88 92 88c49 0 80 -23 80 -48l-1 -111h-56l-5 30c-6 -20 -25 -33 -50 -33zM871 283c1 54 2 105 5 156h56l5 -34c10 26 28 37 53 37c35 0 54 -22 55 -69l2 -90h-78l2 73c0 13 -3 19 -11 19s-13 -5 -12 -19l1 -73h-78zM1144 280
c-54 0 -86 29 -86 80s33 82 86 82c54 0 86 -31 86 -82s-32 -80 -86 -80zM258 265v35l-57 1v1l43 24v17l-43 22v1l57 3v34l-119 -8v-29l55 -31l-55 -32v-31zM554 337c11 0 18 8 18 18c0 4 -1 10 -2 15c-3 4 -9 6 -14 6c-12 0 -18 -7 -18 -20c0 -12 6 -19 16 -19zM1144 337
c11 0 18 8 18 20s-7 19 -18 19c-10 0 -17 -7 -17 -19s7 -20 17 -20zM562 54c-18 0 -34 2 -46 9v55h1c12 -6 26 -10 40 -10c39 0 37 27 37 26c0 -8 -24 -10 -32 -10c-29 0 -57 24 -57 54v17h-36l2 -29c1 -8 7 -11 12 -11c3 0 8 0 10 2h1v-48c-10 -6 -24 -10 -43 -10
c-40 0 -56 16 -55 43l1 53h-17v49l63 30h22l-1 -16h111l-2 -63c0 -14 4 -19 11 -19c8 0 13 6 12 19l-1 63h71c1 -17 3 -59 3 -80c0 -90 -30 -124 -107 -124zM683 62c0 72 1 133 3 197h58l2 -31c6 21 25 34 50 34c37 0 59 -28 59 -74c0 -54 -30 -87 -80 -87c-4 0 -11 1 -17 2
l2 -41h-77zM963 100c-66 0 -98 27 -98 79c0 51 31 83 86 83c50 0 77 -27 77 -76c0 -10 -1 -16 -2 -21l-87 -4c5 -8 21 -12 42 -12c12 0 25 1 35 5v-47c-15 -5 -33 -7 -53 -7zM139 154h119v82h-29v-46h-18v42h-28v-42h-15v45h-29v-81zM934 183l38 3c1 13 -7 20 -19 20
c-13 0 -19 -8 -19 -23zM765 157c14 0 21 7 21 20c0 12 -6 19 -16 19c-11 0 -19 -8 -19 -19c0 -3 1 -9 4 -19c3 -1 8 -1 10 -1zM1050 97c-9 0 -15 6 -15 15c0 8 6 14 15 14c8 0 14 -6 14 -14c0 -9 -6 -15 -14 -15zM139 11h119v45c0 41 -21 68 -61 68c-37 0 -60 -26 -60 -65
c0 -25 2 -43 2 -48zM1050 100c6 0 11 5 11 12c0 6 -5 11 -11 11c-7 0 -12 -5 -12 -11c0 -7 5 -12 12 -12zM1043 104v15h7c4 0 7 -1 7 -5c0 -3 -2 -4 -5 -4l4 -6h-4l-2 6h-4v-6h-3zM1046 112h4c2 0 3 1 3 2c0 2 -2 2 -3 2h-4v-4zM171 47c0 4 -1 5 -1 12c0 14 8 27 28 27
c19 0 28 -9 28 -27v-12h-55z" />
    <glyph glyph-name="M" unicode="M" horiz-adv-x="895" 
d="M835 73c8 -39 41 -40 41 -59v-2c0 -8 -8 -12 -21 -12h-123c-12 0 -20 4 -20 12v2c0 19 41 20 33 59l-88 499l-201 -550c-6 -14 -12 -21 -26 -21c-13 0 -21 6 -27 20l-203 563l-86 -511c-7 -38 38 -40 38 -59v-2c0 -8 -8 -12 -20 -12h-91c-12 0 -20 4 -20 12v2
c0 19 33 21 40 59l97 565c6 35 -33 36 -33 57v2c0 8 6 13 17 13h66c19 0 33 -9 39 -26l195 -565l201 566c6 16 17 25 36 25h71c8 0 15 -4 15 -11v-3c0 -20 -42 -23 -34 -66z" />
    <glyph glyph-name="N" unicode="N" horiz-adv-x="750" 
d="M676 710c12 0 20 -5 20 -13v-2c0 -18 -40 -19 -40 -55v-613c0 -17 -9 -27 -25 -27h-25c-10 0 -19 6 -32 26l-427 582v-535c0 -37 43 -40 43 -59v-2c0 -8 -9 -12 -21 -12h-91c-13 0 -20 4 -20 12v2c0 19 38 22 38 59v566c0 35 -38 35 -38 54v4c0 8 7 13 20 13h76
c16 0 27 -7 36 -20l415 -574v524c0 36 -41 37 -41 55v2c0 8 8 13 21 13h91z" />
    <glyph glyph-name="Nacute" unicode="&#x143;" 
d="M100 -50v668h191v-668h-191zM199 429c41 0 61 31 61 63c0 36 -23 63 -61 63c-42 0 -63 -31 -63 -63c0 -36 24 -63 63 -63zM820 452c-24 0 -42 17 -42 40c0 22 18 40 42 40c23 0 41 -18 41 -40c0 -23 -18 -40 -41 -40zM199 467c-18 0 -30 9 -30 25s12 25 30 25
c17 0 28 -9 28 -25s-11 -25 -28 -25zM380 283c0 63 1 130 4 204h68c3 -67 5 -136 6 -204h-78zM721 279c-37 0 -56 13 -55 47l1 49h-17v49l60 48h22l2 -33h118c3 -52 4 -104 4 -156h-77c0 18 0 62 1 92h-41l3 -28c0 -8 5 -12 11 -12c3 0 7 0 11 2v-48c-5 -5 -21 -10 -43 -10z
M529 280c-37 0 -60 28 -60 74c0 56 34 88 92 88c49 0 80 -23 80 -48l-1 -111h-56l-5 30c-6 -20 -25 -33 -50 -33zM871 283c1 54 2 105 5 156h56l5 -34c10 26 28 37 53 37c35 0 54 -22 55 -69l2 -90h-78l2 73c0 13 -3 19 -11 19s-13 -5 -12 -19l1 -73h-78zM1144 280
c-54 0 -86 29 -86 80s33 82 86 82c54 0 86 -31 86 -82s-32 -80 -86 -80zM258 265v35l-57 1v1l43 24v17l-43 22v1l57 3v34l-119 -8v-29l55 -31l-55 -32v-31zM554 337c11 0 18 8 18 18c0 4 -1 10 -2 15c-3 4 -9 6 -14 6c-12 0 -18 -7 -18 -20c0 -12 6 -19 16 -19zM1144 337
c11 0 18 8 18 20s-7 19 -18 19c-10 0 -17 -7 -17 -19s7 -20 17 -20zM562 54c-18 0 -34 2 -46 9v55h1c12 -6 26 -10 40 -10c39 0 37 27 37 26c0 -8 -24 -10 -32 -10c-29 0 -57 24 -57 54v17h-36l2 -29c1 -8 7 -11 12 -11c3 0 8 0 10 2h1v-48c-10 -6 -24 -10 -43 -10
c-40 0 -56 16 -55 43l1 53h-17v49l63 30h22l-1 -16h111l-2 -63c0 -14 4 -19 11 -19c8 0 13 6 12 19l-1 63h71c1 -17 3 -59 3 -80c0 -90 -30 -124 -107 -124zM683 62c0 72 1 133 3 197h58l2 -31c6 21 25 34 50 34c37 0 59 -28 59 -74c0 -54 -30 -87 -80 -87c-4 0 -11 1 -17 2
l2 -41h-77zM963 100c-66 0 -98 27 -98 79c0 51 31 83 86 83c50 0 77 -27 77 -76c0 -10 -1 -16 -2 -21l-87 -4c5 -8 21 -12 42 -12c12 0 25 1 35 5v-47c-15 -5 -33 -7 -53 -7zM139 154h119v82h-29v-46h-18v42h-28v-42h-15v45h-29v-81zM934 183l38 3c1 13 -7 20 -19 20
c-13 0 -19 -8 -19 -23zM765 157c14 0 21 7 21 20c0 12 -6 19 -16 19c-11 0 -19 -8 -19 -19c0 -3 1 -9 4 -19c3 -1 8 -1 10 -1zM1050 97c-9 0 -15 6 -15 15c0 8 6 14 15 14c8 0 14 -6 14 -14c0 -9 -6 -15 -14 -15zM139 11h119v45c0 41 -21 68 -61 68c-37 0 -60 -26 -60 -65
c0 -25 2 -43 2 -48zM1050 100c6 0 11 5 11 12c0 6 -5 11 -11 11c-7 0 -12 -5 -12 -11c0 -7 5 -12 12 -12zM1043 104v15h7c4 0 7 -1 7 -5c0 -3 -2 -4 -5 -4l4 -6h-4l-2 6h-4v-6h-3zM1046 112h4c2 0 3 1 3 2c0 2 -2 2 -3 2h-4v-4zM171 47c0 4 -1 5 -1 12c0 14 8 27 28 27
c19 0 28 -9 28 -27v-12h-55z" />
    <glyph glyph-name="Ncaron" unicode="&#x147;" 
d="M100 -50v668h191v-668h-191zM199 429c41 0 61 31 61 63c0 36 -23 63 -61 63c-42 0 -63 -31 -63 -63c0 -36 24 -63 63 -63zM820 452c-24 0 -42 17 -42 40c0 22 18 40 42 40c23 0 41 -18 41 -40c0 -23 -18 -40 -41 -40zM199 467c-18 0 -30 9 -30 25s12 25 30 25
c17 0 28 -9 28 -25s-11 -25 -28 -25zM380 283c0 63 1 130 4 204h68c3 -67 5 -136 6 -204h-78zM721 279c-37 0 -56 13 -55 47l1 49h-17v49l60 48h22l2 -33h118c3 -52 4 -104 4 -156h-77c0 18 0 62 1 92h-41l3 -28c0 -8 5 -12 11 -12c3 0 7 0 11 2v-48c-5 -5 -21 -10 -43 -10z
M529 280c-37 0 -60 28 -60 74c0 56 34 88 92 88c49 0 80 -23 80 -48l-1 -111h-56l-5 30c-6 -20 -25 -33 -50 -33zM871 283c1 54 2 105 5 156h56l5 -34c10 26 28 37 53 37c35 0 54 -22 55 -69l2 -90h-78l2 73c0 13 -3 19 -11 19s-13 -5 -12 -19l1 -73h-78zM1144 280
c-54 0 -86 29 -86 80s33 82 86 82c54 0 86 -31 86 -82s-32 -80 -86 -80zM258 265v35l-57 1v1l43 24v17l-43 22v1l57 3v34l-119 -8v-29l55 -31l-55 -32v-31zM554 337c11 0 18 8 18 18c0 4 -1 10 -2 15c-3 4 -9 6 -14 6c-12 0 -18 -7 -18 -20c0 -12 6 -19 16 -19zM1144 337
c11 0 18 8 18 20s-7 19 -18 19c-10 0 -17 -7 -17 -19s7 -20 17 -20zM562 54c-18 0 -34 2 -46 9v55h1c12 -6 26 -10 40 -10c39 0 37 27 37 26c0 -8 -24 -10 -32 -10c-29 0 -57 24 -57 54v17h-36l2 -29c1 -8 7 -11 12 -11c3 0 8 0 10 2h1v-48c-10 -6 -24 -10 -43 -10
c-40 0 -56 16 -55 43l1 53h-17v49l63 30h22l-1 -16h111l-2 -63c0 -14 4 -19 11 -19c8 0 13 6 12 19l-1 63h71c1 -17 3 -59 3 -80c0 -90 -30 -124 -107 -124zM683 62c0 72 1 133 3 197h58l2 -31c6 21 25 34 50 34c37 0 59 -28 59 -74c0 -54 -30 -87 -80 -87c-4 0 -11 1 -17 2
l2 -41h-77zM963 100c-66 0 -98 27 -98 79c0 51 31 83 86 83c50 0 77 -27 77 -76c0 -10 -1 -16 -2 -21l-87 -4c5 -8 21 -12 42 -12c12 0 25 1 35 5v-47c-15 -5 -33 -7 -53 -7zM139 154h119v82h-29v-46h-18v42h-28v-42h-15v45h-29v-81zM934 183l38 3c1 13 -7 20 -19 20
c-13 0 -19 -8 -19 -23zM765 157c14 0 21 7 21 20c0 12 -6 19 -16 19c-11 0 -19 -8 -19 -19c0 -3 1 -9 4 -19c3 -1 8 -1 10 -1zM1050 97c-9 0 -15 6 -15 15c0 8 6 14 15 14c8 0 14 -6 14 -14c0 -9 -6 -15 -14 -15zM139 11h119v45c0 41 -21 68 -61 68c-37 0 -60 -26 -60 -65
c0 -25 2 -43 2 -48zM1050 100c6 0 11 5 11 12c0 6 -5 11 -11 11c-7 0 -12 -5 -12 -11c0 -7 5 -12 12 -12zM1043 104v15h7c4 0 7 -1 7 -5c0 -3 -2 -4 -5 -4l4 -6h-4l-2 6h-4v-6h-3zM1046 112h4c2 0 3 1 3 2c0 2 -2 2 -3 2h-4v-4zM171 47c0 4 -1 5 -1 12c0 14 8 27 28 27
c19 0 28 -9 28 -27v-12h-55z" />
    <glyph glyph-name="uni0145" unicode="&#x145;" 
d="M100 -50v668h191v-668h-191zM199 429c41 0 61 31 61 63c0 36 -23 63 -61 63c-42 0 -63 -31 -63 -63c0 -36 24 -63 63 -63zM820 452c-24 0 -42 17 -42 40c0 22 18 40 42 40c23 0 41 -18 41 -40c0 -23 -18 -40 -41 -40zM199 467c-18 0 -30 9 -30 25s12 25 30 25
c17 0 28 -9 28 -25s-11 -25 -28 -25zM380 283c0 63 1 130 4 204h68c3 -67 5 -136 6 -204h-78zM721 279c-37 0 -56 13 -55 47l1 49h-17v49l60 48h22l2 -33h118c3 -52 4 -104 4 -156h-77c0 18 0 62 1 92h-41l3 -28c0 -8 5 -12 11 -12c3 0 7 0 11 2v-48c-5 -5 -21 -10 -43 -10z
M529 280c-37 0 -60 28 -60 74c0 56 34 88 92 88c49 0 80 -23 80 -48l-1 -111h-56l-5 30c-6 -20 -25 -33 -50 -33zM871 283c1 54 2 105 5 156h56l5 -34c10 26 28 37 53 37c35 0 54 -22 55 -69l2 -90h-78l2 73c0 13 -3 19 -11 19s-13 -5 -12 -19l1 -73h-78zM1144 280
c-54 0 -86 29 -86 80s33 82 86 82c54 0 86 -31 86 -82s-32 -80 -86 -80zM258 265v35l-57 1v1l43 24v17l-43 22v1l57 3v34l-119 -8v-29l55 -31l-55 -32v-31zM554 337c11 0 18 8 18 18c0 4 -1 10 -2 15c-3 4 -9 6 -14 6c-12 0 -18 -7 -18 -20c0 -12 6 -19 16 -19zM1144 337
c11 0 18 8 18 20s-7 19 -18 19c-10 0 -17 -7 -17 -19s7 -20 17 -20zM562 54c-18 0 -34 2 -46 9v55h1c12 -6 26 -10 40 -10c39 0 37 27 37 26c0 -8 -24 -10 -32 -10c-29 0 -57 24 -57 54v17h-36l2 -29c1 -8 7 -11 12 -11c3 0 8 0 10 2h1v-48c-10 -6 -24 -10 -43 -10
c-40 0 -56 16 -55 43l1 53h-17v49l63 30h22l-1 -16h111l-2 -63c0 -14 4 -19 11 -19c8 0 13 6 12 19l-1 63h71c1 -17 3 -59 3 -80c0 -90 -30 -124 -107 -124zM683 62c0 72 1 133 3 197h58l2 -31c6 21 25 34 50 34c37 0 59 -28 59 -74c0 -54 -30 -87 -80 -87c-4 0 -11 1 -17 2
l2 -41h-77zM963 100c-66 0 -98 27 -98 79c0 51 31 83 86 83c50 0 77 -27 77 -76c0 -10 -1 -16 -2 -21l-87 -4c5 -8 21 -12 42 -12c12 0 25 1 35 5v-47c-15 -5 -33 -7 -53 -7zM139 154h119v82h-29v-46h-18v42h-28v-42h-15v45h-29v-81zM934 183l38 3c1 13 -7 20 -19 20
c-13 0 -19 -8 -19 -23zM765 157c14 0 21 7 21 20c0 12 -6 19 -16 19c-11 0 -19 -8 -19 -19c0 -3 1 -9 4 -19c3 -1 8 -1 10 -1zM1050 97c-9 0 -15 6 -15 15c0 8 6 14 15 14c8 0 14 -6 14 -14c0 -9 -6 -15 -14 -15zM139 11h119v45c0 41 -21 68 -61 68c-37 0 -60 -26 -60 -65
c0 -25 2 -43 2 -48zM1050 100c6 0 11 5 11 12c0 6 -5 11 -11 11c-7 0 -12 -5 -12 -11c0 -7 5 -12 12 -12zM1043 104v15h7c4 0 7 -1 7 -5c0 -3 -2 -4 -5 -4l4 -6h-4l-2 6h-4v-6h-3zM1046 112h4c2 0 3 1 3 2c0 2 -2 2 -3 2h-4v-4zM171 47c0 4 -1 5 -1 12c0 14 8 27 28 27
c19 0 28 -9 28 -27v-12h-55z" />
    <glyph glyph-name="Eng" unicode="&#x14a;" 
d="M100 -50v668h191v-668h-191zM199 429c41 0 61 31 61 63c0 36 -23 63 -61 63c-42 0 -63 -31 -63 -63c0 -36 24 -63 63 -63zM820 452c-24 0 -42 17 -42 40c0 22 18 40 42 40c23 0 41 -18 41 -40c0 -23 -18 -40 -41 -40zM199 467c-18 0 -30 9 -30 25s12 25 30 25
c17 0 28 -9 28 -25s-11 -25 -28 -25zM380 283c0 63 1 130 4 204h68c3 -67 5 -136 6 -204h-78zM721 279c-37 0 -56 13 -55 47l1 49h-17v49l60 48h22l2 -33h118c3 -52 4 -104 4 -156h-77c0 18 0 62 1 92h-41l3 -28c0 -8 5 -12 11 -12c3 0 7 0 11 2v-48c-5 -5 -21 -10 -43 -10z
M529 280c-37 0 -60 28 -60 74c0 56 34 88 92 88c49 0 80 -23 80 -48l-1 -111h-56l-5 30c-6 -20 -25 -33 -50 -33zM871 283c1 54 2 105 5 156h56l5 -34c10 26 28 37 53 37c35 0 54 -22 55 -69l2 -90h-78l2 73c0 13 -3 19 -11 19s-13 -5 -12 -19l1 -73h-78zM1144 280
c-54 0 -86 29 -86 80s33 82 86 82c54 0 86 -31 86 -82s-32 -80 -86 -80zM258 265v35l-57 1v1l43 24v17l-43 22v1l57 3v34l-119 -8v-29l55 -31l-55 -32v-31zM554 337c11 0 18 8 18 18c0 4 -1 10 -2 15c-3 4 -9 6 -14 6c-12 0 -18 -7 -18 -20c0 -12 6 -19 16 -19zM1144 337
c11 0 18 8 18 20s-7 19 -18 19c-10 0 -17 -7 -17 -19s7 -20 17 -20zM562 54c-18 0 -34 2 -46 9v55h1c12 -6 26 -10 40 -10c39 0 37 27 37 26c0 -8 -24 -10 -32 -10c-29 0 -57 24 -57 54v17h-36l2 -29c1 -8 7 -11 12 -11c3 0 8 0 10 2h1v-48c-10 -6 -24 -10 -43 -10
c-40 0 -56 16 -55 43l1 53h-17v49l63 30h22l-1 -16h111l-2 -63c0 -14 4 -19 11 -19c8 0 13 6 12 19l-1 63h71c1 -17 3 -59 3 -80c0 -90 -30 -124 -107 -124zM683 62c0 72 1 133 3 197h58l2 -31c6 21 25 34 50 34c37 0 59 -28 59 -74c0 -54 -30 -87 -80 -87c-4 0 -11 1 -17 2
l2 -41h-77zM963 100c-66 0 -98 27 -98 79c0 51 31 83 86 83c50 0 77 -27 77 -76c0 -10 -1 -16 -2 -21l-87 -4c5 -8 21 -12 42 -12c12 0 25 1 35 5v-47c-15 -5 -33 -7 -53 -7zM139 154h119v82h-29v-46h-18v42h-28v-42h-15v45h-29v-81zM934 183l38 3c1 13 -7 20 -19 20
c-13 0 -19 -8 -19 -23zM765 157c14 0 21 7 21 20c0 12 -6 19 -16 19c-11 0 -19 -8 -19 -19c0 -3 1 -9 4 -19c3 -1 8 -1 10 -1zM1050 97c-9 0 -15 6 -15 15c0 8 6 14 15 14c8 0 14 -6 14 -14c0 -9 -6 -15 -14 -15zM139 11h119v45c0 41 -21 68 -61 68c-37 0 -60 -26 -60 -65
c0 -25 2 -43 2 -48zM1050 100c6 0 11 5 11 12c0 6 -5 11 -11 11c-7 0 -12 -5 -12 -11c0 -7 5 -12 12 -12zM1043 104v15h7c4 0 7 -1 7 -5c0 -3 -2 -4 -5 -4l4 -6h-4l-2 6h-4v-6h-3zM1046 112h4c2 0 3 1 3 2c0 2 -2 2 -3 2h-4v-4zM171 47c0 4 -1 5 -1 12c0 14 8 27 28 27
c19 0 28 -9 28 -27v-12h-55z" />
    <glyph glyph-name="Ntilde" unicode="&#xd1;" 
d="M100 -50v668h191v-668h-191zM199 429c41 0 61 31 61 63c0 36 -23 63 -61 63c-42 0 -63 -31 -63 -63c0 -36 24 -63 63 -63zM820 452c-24 0 -42 17 -42 40c0 22 18 40 42 40c23 0 41 -18 41 -40c0 -23 -18 -40 -41 -40zM199 467c-18 0 -30 9 -30 25s12 25 30 25
c17 0 28 -9 28 -25s-11 -25 -28 -25zM380 283c0 63 1 130 4 204h68c3 -67 5 -136 6 -204h-78zM721 279c-37 0 -56 13 -55 47l1 49h-17v49l60 48h22l2 -33h118c3 -52 4 -104 4 -156h-77c0 18 0 62 1 92h-41l3 -28c0 -8 5 -12 11 -12c3 0 7 0 11 2v-48c-5 -5 -21 -10 -43 -10z
M529 280c-37 0 -60 28 -60 74c0 56 34 88 92 88c49 0 80 -23 80 -48l-1 -111h-56l-5 30c-6 -20 -25 -33 -50 -33zM871 283c1 54 2 105 5 156h56l5 -34c10 26 28 37 53 37c35 0 54 -22 55 -69l2 -90h-78l2 73c0 13 -3 19 -11 19s-13 -5 -12 -19l1 -73h-78zM1144 280
c-54 0 -86 29 -86 80s33 82 86 82c54 0 86 -31 86 -82s-32 -80 -86 -80zM258 265v35l-57 1v1l43 24v17l-43 22v1l57 3v34l-119 -8v-29l55 -31l-55 -32v-31zM554 337c11 0 18 8 18 18c0 4 -1 10 -2 15c-3 4 -9 6 -14 6c-12 0 -18 -7 -18 -20c0 -12 6 -19 16 -19zM1144 337
c11 0 18 8 18 20s-7 19 -18 19c-10 0 -17 -7 -17 -19s7 -20 17 -20zM562 54c-18 0 -34 2 -46 9v55h1c12 -6 26 -10 40 -10c39 0 37 27 37 26c0 -8 -24 -10 -32 -10c-29 0 -57 24 -57 54v17h-36l2 -29c1 -8 7 -11 12 -11c3 0 8 0 10 2h1v-48c-10 -6 -24 -10 -43 -10
c-40 0 -56 16 -55 43l1 53h-17v49l63 30h22l-1 -16h111l-2 -63c0 -14 4 -19 11 -19c8 0 13 6 12 19l-1 63h71c1 -17 3 -59 3 -80c0 -90 -30 -124 -107 -124zM683 62c0 72 1 133 3 197h58l2 -31c6 21 25 34 50 34c37 0 59 -28 59 -74c0 -54 -30 -87 -80 -87c-4 0 -11 1 -17 2
l2 -41h-77zM963 100c-66 0 -98 27 -98 79c0 51 31 83 86 83c50 0 77 -27 77 -76c0 -10 -1 -16 -2 -21l-87 -4c5 -8 21 -12 42 -12c12 0 25 1 35 5v-47c-15 -5 -33 -7 -53 -7zM139 154h119v82h-29v-46h-18v42h-28v-42h-15v45h-29v-81zM934 183l38 3c1 13 -7 20 -19 20
c-13 0 -19 -8 -19 -23zM765 157c14 0 21 7 21 20c0 12 -6 19 -16 19c-11 0 -19 -8 -19 -19c0 -3 1 -9 4 -19c3 -1 8 -1 10 -1zM1050 97c-9 0 -15 6 -15 15c0 8 6 14 15 14c8 0 14 -6 14 -14c0 -9 -6 -15 -14 -15zM139 11h119v45c0 41 -21 68 -61 68c-37 0 -60 -26 -60 -65
c0 -25 2 -43 2 -48zM1050 100c6 0 11 5 11 12c0 6 -5 11 -11 11c-7 0 -12 -5 -12 -11c0 -7 5 -12 12 -12zM1043 104v15h7c4 0 7 -1 7 -5c0 -3 -2 -4 -5 -4l4 -6h-4l-2 6h-4v-6h-3zM1046 112h4c2 0 3 1 3 2c0 2 -2 2 -3 2h-4v-4zM171 47c0 4 -1 5 -1 12c0 14 8 27 28 27
c19 0 28 -9 28 -27v-12h-55z" />
    <glyph glyph-name="O" unicode="O" horiz-adv-x="772" 
d="M394 -10c-211 0 -356 174 -356 367c0 207 143 363 349 363c205 0 347 -169 347 -369c0 -197 -147 -361 -340 -361zM416 33c134 0 228 123 228 258c0 212 -117 386 -288 386c-135 0 -228 -112 -228 -259c0 -206 117 -385 288 -385z" />
    <glyph glyph-name="Oacute" unicode="&#xd3;" 
d="M100 -50v668h191v-668h-191zM199 429c41 0 61 31 61 63c0 36 -23 63 -61 63c-42 0 -63 -31 -63 -63c0 -36 24 -63 63 -63zM820 452c-24 0 -42 17 -42 40c0 22 18 40 42 40c23 0 41 -18 41 -40c0 -23 -18 -40 -41 -40zM199 467c-18 0 -30 9 -30 25s12 25 30 25
c17 0 28 -9 28 -25s-11 -25 -28 -25zM380 283c0 63 1 130 4 204h68c3 -67 5 -136 6 -204h-78zM721 279c-37 0 -56 13 -55 47l1 49h-17v49l60 48h22l2 -33h118c3 -52 4 -104 4 -156h-77c0 18 0 62 1 92h-41l3 -28c0 -8 5 -12 11 -12c3 0 7 0 11 2v-48c-5 -5 -21 -10 -43 -10z
M529 280c-37 0 -60 28 -60 74c0 56 34 88 92 88c49 0 80 -23 80 -48l-1 -111h-56l-5 30c-6 -20 -25 -33 -50 -33zM871 283c1 54 2 105 5 156h56l5 -34c10 26 28 37 53 37c35 0 54 -22 55 -69l2 -90h-78l2 73c0 13 -3 19 -11 19s-13 -5 -12 -19l1 -73h-78zM1144 280
c-54 0 -86 29 -86 80s33 82 86 82c54 0 86 -31 86 -82s-32 -80 -86 -80zM258 265v35l-57 1v1l43 24v17l-43 22v1l57 3v34l-119 -8v-29l55 -31l-55 -32v-31zM554 337c11 0 18 8 18 18c0 4 -1 10 -2 15c-3 4 -9 6 -14 6c-12 0 -18 -7 -18 -20c0 -12 6 -19 16 -19zM1144 337
c11 0 18 8 18 20s-7 19 -18 19c-10 0 -17 -7 -17 -19s7 -20 17 -20zM562 54c-18 0 -34 2 -46 9v55h1c12 -6 26 -10 40 -10c39 0 37 27 37 26c0 -8 -24 -10 -32 -10c-29 0 -57 24 -57 54v17h-36l2 -29c1 -8 7 -11 12 -11c3 0 8 0 10 2h1v-48c-10 -6 -24 -10 -43 -10
c-40 0 -56 16 -55 43l1 53h-17v49l63 30h22l-1 -16h111l-2 -63c0 -14 4 -19 11 -19c8 0 13 6 12 19l-1 63h71c1 -17 3 -59 3 -80c0 -90 -30 -124 -107 -124zM683 62c0 72 1 133 3 197h58l2 -31c6 21 25 34 50 34c37 0 59 -28 59 -74c0 -54 -30 -87 -80 -87c-4 0 -11 1 -17 2
l2 -41h-77zM963 100c-66 0 -98 27 -98 79c0 51 31 83 86 83c50 0 77 -27 77 -76c0 -10 -1 -16 -2 -21l-87 -4c5 -8 21 -12 42 -12c12 0 25 1 35 5v-47c-15 -5 -33 -7 -53 -7zM139 154h119v82h-29v-46h-18v42h-28v-42h-15v45h-29v-81zM934 183l38 3c1 13 -7 20 -19 20
c-13 0 -19 -8 -19 -23zM765 157c14 0 21 7 21 20c0 12 -6 19 -16 19c-11 0 -19 -8 -19 -19c0 -3 1 -9 4 -19c3 -1 8 -1 10 -1zM1050 97c-9 0 -15 6 -15 15c0 8 6 14 15 14c8 0 14 -6 14 -14c0 -9 -6 -15 -14 -15zM139 11h119v45c0 41 -21 68 -61 68c-37 0 -60 -26 -60 -65
c0 -25 2 -43 2 -48zM1050 100c6 0 11 5 11 12c0 6 -5 11 -11 11c-7 0 -12 -5 -12 -11c0 -7 5 -12 12 -12zM1043 104v15h7c4 0 7 -1 7 -5c0 -3 -2 -4 -5 -4l4 -6h-4l-2 6h-4v-6h-3zM1046 112h4c2 0 3 1 3 2c0 2 -2 2 -3 2h-4v-4zM171 47c0 4 -1 5 -1 12c0 14 8 27 28 27
c19 0 28 -9 28 -27v-12h-55z" />
    <glyph glyph-name="Ocircumflex" unicode="&#xd4;" 
d="M100 -50v668h191v-668h-191zM199 429c41 0 61 31 61 63c0 36 -23 63 -61 63c-42 0 -63 -31 -63 -63c0 -36 24 -63 63 -63zM820 452c-24 0 -42 17 -42 40c0 22 18 40 42 40c23 0 41 -18 41 -40c0 -23 -18 -40 -41 -40zM199 467c-18 0 -30 9 -30 25s12 25 30 25
c17 0 28 -9 28 -25s-11 -25 -28 -25zM380 283c0 63 1 130 4 204h68c3 -67 5 -136 6 -204h-78zM721 279c-37 0 -56 13 -55 47l1 49h-17v49l60 48h22l2 -33h118c3 -52 4 -104 4 -156h-77c0 18 0 62 1 92h-41l3 -28c0 -8 5 -12 11 -12c3 0 7 0 11 2v-48c-5 -5 -21 -10 -43 -10z
M529 280c-37 0 -60 28 -60 74c0 56 34 88 92 88c49 0 80 -23 80 -48l-1 -111h-56l-5 30c-6 -20 -25 -33 -50 -33zM871 283c1 54 2 105 5 156h56l5 -34c10 26 28 37 53 37c35 0 54 -22 55 -69l2 -90h-78l2 73c0 13 -3 19 -11 19s-13 -5 -12 -19l1 -73h-78zM1144 280
c-54 0 -86 29 -86 80s33 82 86 82c54 0 86 -31 86 -82s-32 -80 -86 -80zM258 265v35l-57 1v1l43 24v17l-43 22v1l57 3v34l-119 -8v-29l55 -31l-55 -32v-31zM554 337c11 0 18 8 18 18c0 4 -1 10 -2 15c-3 4 -9 6 -14 6c-12 0 -18 -7 -18 -20c0 -12 6 -19 16 -19zM1144 337
c11 0 18 8 18 20s-7 19 -18 19c-10 0 -17 -7 -17 -19s7 -20 17 -20zM562 54c-18 0 -34 2 -46 9v55h1c12 -6 26 -10 40 -10c39 0 37 27 37 26c0 -8 -24 -10 -32 -10c-29 0 -57 24 -57 54v17h-36l2 -29c1 -8 7 -11 12 -11c3 0 8 0 10 2h1v-48c-10 -6 -24 -10 -43 -10
c-40 0 -56 16 -55 43l1 53h-17v49l63 30h22l-1 -16h111l-2 -63c0 -14 4 -19 11 -19c8 0 13 6 12 19l-1 63h71c1 -17 3 -59 3 -80c0 -90 -30 -124 -107 -124zM683 62c0 72 1 133 3 197h58l2 -31c6 21 25 34 50 34c37 0 59 -28 59 -74c0 -54 -30 -87 -80 -87c-4 0 -11 1 -17 2
l2 -41h-77zM963 100c-66 0 -98 27 -98 79c0 51 31 83 86 83c50 0 77 -27 77 -76c0 -10 -1 -16 -2 -21l-87 -4c5 -8 21 -12 42 -12c12 0 25 1 35 5v-47c-15 -5 -33 -7 -53 -7zM139 154h119v82h-29v-46h-18v42h-28v-42h-15v45h-29v-81zM934 183l38 3c1 13 -7 20 -19 20
c-13 0 -19 -8 -19 -23zM765 157c14 0 21 7 21 20c0 12 -6 19 -16 19c-11 0 -19 -8 -19 -19c0 -3 1 -9 4 -19c3 -1 8 -1 10 -1zM1050 97c-9 0 -15 6 -15 15c0 8 6 14 15 14c8 0 14 -6 14 -14c0 -9 -6 -15 -14 -15zM139 11h119v45c0 41 -21 68 -61 68c-37 0 -60 -26 -60 -65
c0 -25 2 -43 2 -48zM1050 100c6 0 11 5 11 12c0 6 -5 11 -11 11c-7 0 -12 -5 -12 -11c0 -7 5 -12 12 -12zM1043 104v15h7c4 0 7 -1 7 -5c0 -3 -2 -4 -5 -4l4 -6h-4l-2 6h-4v-6h-3zM1046 112h4c2 0 3 1 3 2c0 2 -2 2 -3 2h-4v-4zM171 47c0 4 -1 5 -1 12c0 14 8 27 28 27
c19 0 28 -9 28 -27v-12h-55z" />
    <glyph glyph-name="Odieresis" unicode="&#xd6;" 
d="M100 -50v668h191v-668h-191zM199 429c41 0 61 31 61 63c0 36 -23 63 -61 63c-42 0 -63 -31 -63 -63c0 -36 24 -63 63 -63zM820 452c-24 0 -42 17 -42 40c0 22 18 40 42 40c23 0 41 -18 41 -40c0 -23 -18 -40 -41 -40zM199 467c-18 0 -30 9 -30 25s12 25 30 25
c17 0 28 -9 28 -25s-11 -25 -28 -25zM380 283c0 63 1 130 4 204h68c3 -67 5 -136 6 -204h-78zM721 279c-37 0 -56 13 -55 47l1 49h-17v49l60 48h22l2 -33h118c3 -52 4 -104 4 -156h-77c0 18 0 62 1 92h-41l3 -28c0 -8 5 -12 11 -12c3 0 7 0 11 2v-48c-5 -5 -21 -10 -43 -10z
M529 280c-37 0 -60 28 -60 74c0 56 34 88 92 88c49 0 80 -23 80 -48l-1 -111h-56l-5 30c-6 -20 -25 -33 -50 -33zM871 283c1 54 2 105 5 156h56l5 -34c10 26 28 37 53 37c35 0 54 -22 55 -69l2 -90h-78l2 73c0 13 -3 19 -11 19s-13 -5 -12 -19l1 -73h-78zM1144 280
c-54 0 -86 29 -86 80s33 82 86 82c54 0 86 -31 86 -82s-32 -80 -86 -80zM258 265v35l-57 1v1l43 24v17l-43 22v1l57 3v34l-119 -8v-29l55 -31l-55 -32v-31zM554 337c11 0 18 8 18 18c0 4 -1 10 -2 15c-3 4 -9 6 -14 6c-12 0 -18 -7 -18 -20c0 -12 6 -19 16 -19zM1144 337
c11 0 18 8 18 20s-7 19 -18 19c-10 0 -17 -7 -17 -19s7 -20 17 -20zM562 54c-18 0 -34 2 -46 9v55h1c12 -6 26 -10 40 -10c39 0 37 27 37 26c0 -8 -24 -10 -32 -10c-29 0 -57 24 -57 54v17h-36l2 -29c1 -8 7 -11 12 -11c3 0 8 0 10 2h1v-48c-10 -6 -24 -10 -43 -10
c-40 0 -56 16 -55 43l1 53h-17v49l63 30h22l-1 -16h111l-2 -63c0 -14 4 -19 11 -19c8 0 13 6 12 19l-1 63h71c1 -17 3 -59 3 -80c0 -90 -30 -124 -107 -124zM683 62c0 72 1 133 3 197h58l2 -31c6 21 25 34 50 34c37 0 59 -28 59 -74c0 -54 -30 -87 -80 -87c-4 0 -11 1 -17 2
l2 -41h-77zM963 100c-66 0 -98 27 -98 79c0 51 31 83 86 83c50 0 77 -27 77 -76c0 -10 -1 -16 -2 -21l-87 -4c5 -8 21 -12 42 -12c12 0 25 1 35 5v-47c-15 -5 -33 -7 -53 -7zM139 154h119v82h-29v-46h-18v42h-28v-42h-15v45h-29v-81zM934 183l38 3c1 13 -7 20 -19 20
c-13 0 -19 -8 -19 -23zM765 157c14 0 21 7 21 20c0 12 -6 19 -16 19c-11 0 -19 -8 -19 -19c0 -3 1 -9 4 -19c3 -1 8 -1 10 -1zM1050 97c-9 0 -15 6 -15 15c0 8 6 14 15 14c8 0 14 -6 14 -14c0 -9 -6 -15 -14 -15zM139 11h119v45c0 41 -21 68 -61 68c-37 0 -60 -26 -60 -65
c0 -25 2 -43 2 -48zM1050 100c6 0 11 5 11 12c0 6 -5 11 -11 11c-7 0 -12 -5 -12 -11c0 -7 5 -12 12 -12zM1043 104v15h7c4 0 7 -1 7 -5c0 -3 -2 -4 -5 -4l4 -6h-4l-2 6h-4v-6h-3zM1046 112h4c2 0 3 1 3 2c0 2 -2 2 -3 2h-4v-4zM171 47c0 4 -1 5 -1 12c0 14 8 27 28 27
c19 0 28 -9 28 -27v-12h-55z" />
    <glyph glyph-name="Ograve" unicode="&#xd2;" 
d="M100 -50v668h191v-668h-191zM199 429c41 0 61 31 61 63c0 36 -23 63 -61 63c-42 0 -63 -31 -63 -63c0 -36 24 -63 63 -63zM820 452c-24 0 -42 17 -42 40c0 22 18 40 42 40c23 0 41 -18 41 -40c0 -23 -18 -40 -41 -40zM199 467c-18 0 -30 9 -30 25s12 25 30 25
c17 0 28 -9 28 -25s-11 -25 -28 -25zM380 283c0 63 1 130 4 204h68c3 -67 5 -136 6 -204h-78zM721 279c-37 0 -56 13 -55 47l1 49h-17v49l60 48h22l2 -33h118c3 -52 4 -104 4 -156h-77c0 18 0 62 1 92h-41l3 -28c0 -8 5 -12 11 -12c3 0 7 0 11 2v-48c-5 -5 -21 -10 -43 -10z
M529 280c-37 0 -60 28 -60 74c0 56 34 88 92 88c49 0 80 -23 80 -48l-1 -111h-56l-5 30c-6 -20 -25 -33 -50 -33zM871 283c1 54 2 105 5 156h56l5 -34c10 26 28 37 53 37c35 0 54 -22 55 -69l2 -90h-78l2 73c0 13 -3 19 -11 19s-13 -5 -12 -19l1 -73h-78zM1144 280
c-54 0 -86 29 -86 80s33 82 86 82c54 0 86 -31 86 -82s-32 -80 -86 -80zM258 265v35l-57 1v1l43 24v17l-43 22v1l57 3v34l-119 -8v-29l55 -31l-55 -32v-31zM554 337c11 0 18 8 18 18c0 4 -1 10 -2 15c-3 4 -9 6 -14 6c-12 0 -18 -7 -18 -20c0 -12 6 -19 16 -19zM1144 337
c11 0 18 8 18 20s-7 19 -18 19c-10 0 -17 -7 -17 -19s7 -20 17 -20zM562 54c-18 0 -34 2 -46 9v55h1c12 -6 26 -10 40 -10c39 0 37 27 37 26c0 -8 -24 -10 -32 -10c-29 0 -57 24 -57 54v17h-36l2 -29c1 -8 7 -11 12 -11c3 0 8 0 10 2h1v-48c-10 -6 -24 -10 -43 -10
c-40 0 -56 16 -55 43l1 53h-17v49l63 30h22l-1 -16h111l-2 -63c0 -14 4 -19 11 -19c8 0 13 6 12 19l-1 63h71c1 -17 3 -59 3 -80c0 -90 -30 -124 -107 -124zM683 62c0 72 1 133 3 197h58l2 -31c6 21 25 34 50 34c37 0 59 -28 59 -74c0 -54 -30 -87 -80 -87c-4 0 -11 1 -17 2
l2 -41h-77zM963 100c-66 0 -98 27 -98 79c0 51 31 83 86 83c50 0 77 -27 77 -76c0 -10 -1 -16 -2 -21l-87 -4c5 -8 21 -12 42 -12c12 0 25 1 35 5v-47c-15 -5 -33 -7 -53 -7zM139 154h119v82h-29v-46h-18v42h-28v-42h-15v45h-29v-81zM934 183l38 3c1 13 -7 20 -19 20
c-13 0 -19 -8 -19 -23zM765 157c14 0 21 7 21 20c0 12 -6 19 -16 19c-11 0 -19 -8 -19 -19c0 -3 1 -9 4 -19c3 -1 8 -1 10 -1zM1050 97c-9 0 -15 6 -15 15c0 8 6 14 15 14c8 0 14 -6 14 -14c0 -9 -6 -15 -14 -15zM139 11h119v45c0 41 -21 68 -61 68c-37 0 -60 -26 -60 -65
c0 -25 2 -43 2 -48zM1050 100c6 0 11 5 11 12c0 6 -5 11 -11 11c-7 0 -12 -5 -12 -11c0 -7 5 -12 12 -12zM1043 104v15h7c4 0 7 -1 7 -5c0 -3 -2 -4 -5 -4l4 -6h-4l-2 6h-4v-6h-3zM1046 112h4c2 0 3 1 3 2c0 2 -2 2 -3 2h-4v-4zM171 47c0 4 -1 5 -1 12c0 14 8 27 28 27
c19 0 28 -9 28 -27v-12h-55z" />
    <glyph glyph-name="Ohungarumlaut" unicode="&#x150;" 
d="M100 -50v668h191v-668h-191zM199 429c41 0 61 31 61 63c0 36 -23 63 -61 63c-42 0 -63 -31 -63 -63c0 -36 24 -63 63 -63zM820 452c-24 0 -42 17 -42 40c0 22 18 40 42 40c23 0 41 -18 41 -40c0 -23 -18 -40 -41 -40zM199 467c-18 0 -30 9 -30 25s12 25 30 25
c17 0 28 -9 28 -25s-11 -25 -28 -25zM380 283c0 63 1 130 4 204h68c3 -67 5 -136 6 -204h-78zM721 279c-37 0 -56 13 -55 47l1 49h-17v49l60 48h22l2 -33h118c3 -52 4 -104 4 -156h-77c0 18 0 62 1 92h-41l3 -28c0 -8 5 -12 11 -12c3 0 7 0 11 2v-48c-5 -5 -21 -10 -43 -10z
M529 280c-37 0 -60 28 -60 74c0 56 34 88 92 88c49 0 80 -23 80 -48l-1 -111h-56l-5 30c-6 -20 -25 -33 -50 -33zM871 283c1 54 2 105 5 156h56l5 -34c10 26 28 37 53 37c35 0 54 -22 55 -69l2 -90h-78l2 73c0 13 -3 19 -11 19s-13 -5 -12 -19l1 -73h-78zM1144 280
c-54 0 -86 29 -86 80s33 82 86 82c54 0 86 -31 86 -82s-32 -80 -86 -80zM258 265v35l-57 1v1l43 24v17l-43 22v1l57 3v34l-119 -8v-29l55 -31l-55 -32v-31zM554 337c11 0 18 8 18 18c0 4 -1 10 -2 15c-3 4 -9 6 -14 6c-12 0 -18 -7 -18 -20c0 -12 6 -19 16 -19zM1144 337
c11 0 18 8 18 20s-7 19 -18 19c-10 0 -17 -7 -17 -19s7 -20 17 -20zM562 54c-18 0 -34 2 -46 9v55h1c12 -6 26 -10 40 -10c39 0 37 27 37 26c0 -8 -24 -10 -32 -10c-29 0 -57 24 -57 54v17h-36l2 -29c1 -8 7 -11 12 -11c3 0 8 0 10 2h1v-48c-10 -6 -24 -10 -43 -10
c-40 0 -56 16 -55 43l1 53h-17v49l63 30h22l-1 -16h111l-2 -63c0 -14 4 -19 11 -19c8 0 13 6 12 19l-1 63h71c1 -17 3 -59 3 -80c0 -90 -30 -124 -107 -124zM683 62c0 72 1 133 3 197h58l2 -31c6 21 25 34 50 34c37 0 59 -28 59 -74c0 -54 -30 -87 -80 -87c-4 0 -11 1 -17 2
l2 -41h-77zM963 100c-66 0 -98 27 -98 79c0 51 31 83 86 83c50 0 77 -27 77 -76c0 -10 -1 -16 -2 -21l-87 -4c5 -8 21 -12 42 -12c12 0 25 1 35 5v-47c-15 -5 -33 -7 -53 -7zM139 154h119v82h-29v-46h-18v42h-28v-42h-15v45h-29v-81zM934 183l38 3c1 13 -7 20 -19 20
c-13 0 -19 -8 -19 -23zM765 157c14 0 21 7 21 20c0 12 -6 19 -16 19c-11 0 -19 -8 -19 -19c0 -3 1 -9 4 -19c3 -1 8 -1 10 -1zM1050 97c-9 0 -15 6 -15 15c0 8 6 14 15 14c8 0 14 -6 14 -14c0 -9 -6 -15 -14 -15zM139 11h119v45c0 41 -21 68 -61 68c-37 0 -60 -26 -60 -65
c0 -25 2 -43 2 -48zM1050 100c6 0 11 5 11 12c0 6 -5 11 -11 11c-7 0 -12 -5 -12 -11c0 -7 5 -12 12 -12zM1043 104v15h7c4 0 7 -1 7 -5c0 -3 -2 -4 -5 -4l4 -6h-4l-2 6h-4v-6h-3zM1046 112h4c2 0 3 1 3 2c0 2 -2 2 -3 2h-4v-4zM171 47c0 4 -1 5 -1 12c0 14 8 27 28 27
c19 0 28 -9 28 -27v-12h-55z" />
    <glyph glyph-name="Omacron" unicode="&#x14c;" 
d="M100 -50v668h191v-668h-191zM199 429c41 0 61 31 61 63c0 36 -23 63 -61 63c-42 0 -63 -31 -63 -63c0 -36 24 -63 63 -63zM820 452c-24 0 -42 17 -42 40c0 22 18 40 42 40c23 0 41 -18 41 -40c0 -23 -18 -40 -41 -40zM199 467c-18 0 -30 9 -30 25s12 25 30 25
c17 0 28 -9 28 -25s-11 -25 -28 -25zM380 283c0 63 1 130 4 204h68c3 -67 5 -136 6 -204h-78zM721 279c-37 0 -56 13 -55 47l1 49h-17v49l60 48h22l2 -33h118c3 -52 4 -104 4 -156h-77c0 18 0 62 1 92h-41l3 -28c0 -8 5 -12 11 -12c3 0 7 0 11 2v-48c-5 -5 -21 -10 -43 -10z
M529 280c-37 0 -60 28 -60 74c0 56 34 88 92 88c49 0 80 -23 80 -48l-1 -111h-56l-5 30c-6 -20 -25 -33 -50 -33zM871 283c1 54 2 105 5 156h56l5 -34c10 26 28 37 53 37c35 0 54 -22 55 -69l2 -90h-78l2 73c0 13 -3 19 -11 19s-13 -5 -12 -19l1 -73h-78zM1144 280
c-54 0 -86 29 -86 80s33 82 86 82c54 0 86 -31 86 -82s-32 -80 -86 -80zM258 265v35l-57 1v1l43 24v17l-43 22v1l57 3v34l-119 -8v-29l55 -31l-55 -32v-31zM554 337c11 0 18 8 18 18c0 4 -1 10 -2 15c-3 4 -9 6 -14 6c-12 0 -18 -7 -18 -20c0 -12 6 -19 16 -19zM1144 337
c11 0 18 8 18 20s-7 19 -18 19c-10 0 -17 -7 -17 -19s7 -20 17 -20zM562 54c-18 0 -34 2 -46 9v55h1c12 -6 26 -10 40 -10c39 0 37 27 37 26c0 -8 -24 -10 -32 -10c-29 0 -57 24 -57 54v17h-36l2 -29c1 -8 7 -11 12 -11c3 0 8 0 10 2h1v-48c-10 -6 -24 -10 -43 -10
c-40 0 -56 16 -55 43l1 53h-17v49l63 30h22l-1 -16h111l-2 -63c0 -14 4 -19 11 -19c8 0 13 6 12 19l-1 63h71c1 -17 3 -59 3 -80c0 -90 -30 -124 -107 -124zM683 62c0 72 1 133 3 197h58l2 -31c6 21 25 34 50 34c37 0 59 -28 59 -74c0 -54 -30 -87 -80 -87c-4 0 -11 1 -17 2
l2 -41h-77zM963 100c-66 0 -98 27 -98 79c0 51 31 83 86 83c50 0 77 -27 77 -76c0 -10 -1 -16 -2 -21l-87 -4c5 -8 21 -12 42 -12c12 0 25 1 35 5v-47c-15 -5 -33 -7 -53 -7zM139 154h119v82h-29v-46h-18v42h-28v-42h-15v45h-29v-81zM934 183l38 3c1 13 -7 20 -19 20
c-13 0 -19 -8 -19 -23zM765 157c14 0 21 7 21 20c0 12 -6 19 -16 19c-11 0 -19 -8 -19 -19c0 -3 1 -9 4 -19c3 -1 8 -1 10 -1zM1050 97c-9 0 -15 6 -15 15c0 8 6 14 15 14c8 0 14 -6 14 -14c0 -9 -6 -15 -14 -15zM139 11h119v45c0 41 -21 68 -61 68c-37 0 -60 -26 -60 -65
c0 -25 2 -43 2 -48zM1050 100c6 0 11 5 11 12c0 6 -5 11 -11 11c-7 0 -12 -5 -12 -11c0 -7 5 -12 12 -12zM1043 104v15h7c4 0 7 -1 7 -5c0 -3 -2 -4 -5 -4l4 -6h-4l-2 6h-4v-6h-3zM1046 112h4c2 0 3 1 3 2c0 2 -2 2 -3 2h-4v-4zM171 47c0 4 -1 5 -1 12c0 14 8 27 28 27
c19 0 28 -9 28 -27v-12h-55z" />
    <glyph glyph-name="uni01EA" unicode="&#x1ea;" 
d="M100 -50v668h191v-668h-191zM199 429c41 0 61 31 61 63c0 36 -23 63 -61 63c-42 0 -63 -31 -63 -63c0 -36 24 -63 63 -63zM820 452c-24 0 -42 17 -42 40c0 22 18 40 42 40c23 0 41 -18 41 -40c0 -23 -18 -40 -41 -40zM199 467c-18 0 -30 9 -30 25s12 25 30 25
c17 0 28 -9 28 -25s-11 -25 -28 -25zM380 283c0 63 1 130 4 204h68c3 -67 5 -136 6 -204h-78zM721 279c-37 0 -56 13 -55 47l1 49h-17v49l60 48h22l2 -33h118c3 -52 4 -104 4 -156h-77c0 18 0 62 1 92h-41l3 -28c0 -8 5 -12 11 -12c3 0 7 0 11 2v-48c-5 -5 -21 -10 -43 -10z
M529 280c-37 0 -60 28 -60 74c0 56 34 88 92 88c49 0 80 -23 80 -48l-1 -111h-56l-5 30c-6 -20 -25 -33 -50 -33zM871 283c1 54 2 105 5 156h56l5 -34c10 26 28 37 53 37c35 0 54 -22 55 -69l2 -90h-78l2 73c0 13 -3 19 -11 19s-13 -5 -12 -19l1 -73h-78zM1144 280
c-54 0 -86 29 -86 80s33 82 86 82c54 0 86 -31 86 -82s-32 -80 -86 -80zM258 265v35l-57 1v1l43 24v17l-43 22v1l57 3v34l-119 -8v-29l55 -31l-55 -32v-31zM554 337c11 0 18 8 18 18c0 4 -1 10 -2 15c-3 4 -9 6 -14 6c-12 0 -18 -7 -18 -20c0 -12 6 -19 16 -19zM1144 337
c11 0 18 8 18 20s-7 19 -18 19c-10 0 -17 -7 -17 -19s7 -20 17 -20zM562 54c-18 0 -34 2 -46 9v55h1c12 -6 26 -10 40 -10c39 0 37 27 37 26c0 -8 -24 -10 -32 -10c-29 0 -57 24 -57 54v17h-36l2 -29c1 -8 7 -11 12 -11c3 0 8 0 10 2h1v-48c-10 -6 -24 -10 -43 -10
c-40 0 -56 16 -55 43l1 53h-17v49l63 30h22l-1 -16h111l-2 -63c0 -14 4 -19 11 -19c8 0 13 6 12 19l-1 63h71c1 -17 3 -59 3 -80c0 -90 -30 -124 -107 -124zM683 62c0 72 1 133 3 197h58l2 -31c6 21 25 34 50 34c37 0 59 -28 59 -74c0 -54 -30 -87 -80 -87c-4 0 -11 1 -17 2
l2 -41h-77zM963 100c-66 0 -98 27 -98 79c0 51 31 83 86 83c50 0 77 -27 77 -76c0 -10 -1 -16 -2 -21l-87 -4c5 -8 21 -12 42 -12c12 0 25 1 35 5v-47c-15 -5 -33 -7 -53 -7zM139 154h119v82h-29v-46h-18v42h-28v-42h-15v45h-29v-81zM934 183l38 3c1 13 -7 20 -19 20
c-13 0 -19 -8 -19 -23zM765 157c14 0 21 7 21 20c0 12 -6 19 -16 19c-11 0 -19 -8 -19 -19c0 -3 1 -9 4 -19c3 -1 8 -1 10 -1zM1050 97c-9 0 -15 6 -15 15c0 8 6 14 15 14c8 0 14 -6 14 -14c0 -9 -6 -15 -14 -15zM139 11h119v45c0 41 -21 68 -61 68c-37 0 -60 -26 -60 -65
c0 -25 2 -43 2 -48zM1050 100c6 0 11 5 11 12c0 6 -5 11 -11 11c-7 0 -12 -5 -12 -11c0 -7 5 -12 12 -12zM1043 104v15h7c4 0 7 -1 7 -5c0 -3 -2 -4 -5 -4l4 -6h-4l-2 6h-4v-6h-3zM1046 112h4c2 0 3 1 3 2c0 2 -2 2 -3 2h-4v-4zM171 47c0 4 -1 5 -1 12c0 14 8 27 28 27
c19 0 28 -9 28 -27v-12h-55z" />
    <glyph glyph-name="Oslash" unicode="&#xd8;" 
d="M100 -50v668h191v-668h-191zM199 429c41 0 61 31 61 63c0 36 -23 63 -61 63c-42 0 -63 -31 -63 -63c0 -36 24 -63 63 -63zM820 452c-24 0 -42 17 -42 40c0 22 18 40 42 40c23 0 41 -18 41 -40c0 -23 -18 -40 -41 -40zM199 467c-18 0 -30 9 -30 25s12 25 30 25
c17 0 28 -9 28 -25s-11 -25 -28 -25zM380 283c0 63 1 130 4 204h68c3 -67 5 -136 6 -204h-78zM721 279c-37 0 -56 13 -55 47l1 49h-17v49l60 48h22l2 -33h118c3 -52 4 -104 4 -156h-77c0 18 0 62 1 92h-41l3 -28c0 -8 5 -12 11 -12c3 0 7 0 11 2v-48c-5 -5 -21 -10 -43 -10z
M529 280c-37 0 -60 28 -60 74c0 56 34 88 92 88c49 0 80 -23 80 -48l-1 -111h-56l-5 30c-6 -20 -25 -33 -50 -33zM871 283c1 54 2 105 5 156h56l5 -34c10 26 28 37 53 37c35 0 54 -22 55 -69l2 -90h-78l2 73c0 13 -3 19 -11 19s-13 -5 -12 -19l1 -73h-78zM1144 280
c-54 0 -86 29 -86 80s33 82 86 82c54 0 86 -31 86 -82s-32 -80 -86 -80zM258 265v35l-57 1v1l43 24v17l-43 22v1l57 3v34l-119 -8v-29l55 -31l-55 -32v-31zM554 337c11 0 18 8 18 18c0 4 -1 10 -2 15c-3 4 -9 6 -14 6c-12 0 -18 -7 -18 -20c0 -12 6 -19 16 -19zM1144 337
c11 0 18 8 18 20s-7 19 -18 19c-10 0 -17 -7 -17 -19s7 -20 17 -20zM562 54c-18 0 -34 2 -46 9v55h1c12 -6 26 -10 40 -10c39 0 37 27 37 26c0 -8 -24 -10 -32 -10c-29 0 -57 24 -57 54v17h-36l2 -29c1 -8 7 -11 12 -11c3 0 8 0 10 2h1v-48c-10 -6 -24 -10 -43 -10
c-40 0 -56 16 -55 43l1 53h-17v49l63 30h22l-1 -16h111l-2 -63c0 -14 4 -19 11 -19c8 0 13 6 12 19l-1 63h71c1 -17 3 -59 3 -80c0 -90 -30 -124 -107 -124zM683 62c0 72 1 133 3 197h58l2 -31c6 21 25 34 50 34c37 0 59 -28 59 -74c0 -54 -30 -87 -80 -87c-4 0 -11 1 -17 2
l2 -41h-77zM963 100c-66 0 -98 27 -98 79c0 51 31 83 86 83c50 0 77 -27 77 -76c0 -10 -1 -16 -2 -21l-87 -4c5 -8 21 -12 42 -12c12 0 25 1 35 5v-47c-15 -5 -33 -7 -53 -7zM139 154h119v82h-29v-46h-18v42h-28v-42h-15v45h-29v-81zM934 183l38 3c1 13 -7 20 -19 20
c-13 0 -19 -8 -19 -23zM765 157c14 0 21 7 21 20c0 12 -6 19 -16 19c-11 0 -19 -8 -19 -19c0 -3 1 -9 4 -19c3 -1 8 -1 10 -1zM1050 97c-9 0 -15 6 -15 15c0 8 6 14 15 14c8 0 14 -6 14 -14c0 -9 -6 -15 -14 -15zM139 11h119v45c0 41 -21 68 -61 68c-37 0 -60 -26 -60 -65
c0 -25 2 -43 2 -48zM1050 100c6 0 11 5 11 12c0 6 -5 11 -11 11c-7 0 -12 -5 -12 -11c0 -7 5 -12 12 -12zM1043 104v15h7c4 0 7 -1 7 -5c0 -3 -2 -4 -5 -4l4 -6h-4l-2 6h-4v-6h-3zM1046 112h4c2 0 3 1 3 2c0 2 -2 2 -3 2h-4v-4zM171 47c0 4 -1 5 -1 12c0 14 8 27 28 27
c19 0 28 -9 28 -27v-12h-55z" />
    <glyph glyph-name="Oslashacute" unicode="&#x1fe;" 
d="M100 -50v668h191v-668h-191zM199 429c41 0 61 31 61 63c0 36 -23 63 -61 63c-42 0 -63 -31 -63 -63c0 -36 24 -63 63 -63zM820 452c-24 0 -42 17 -42 40c0 22 18 40 42 40c23 0 41 -18 41 -40c0 -23 -18 -40 -41 -40zM199 467c-18 0 -30 9 -30 25s12 25 30 25
c17 0 28 -9 28 -25s-11 -25 -28 -25zM380 283c0 63 1 130 4 204h68c3 -67 5 -136 6 -204h-78zM721 279c-37 0 -56 13 -55 47l1 49h-17v49l60 48h22l2 -33h118c3 -52 4 -104 4 -156h-77c0 18 0 62 1 92h-41l3 -28c0 -8 5 -12 11 -12c3 0 7 0 11 2v-48c-5 -5 -21 -10 -43 -10z
M529 280c-37 0 -60 28 -60 74c0 56 34 88 92 88c49 0 80 -23 80 -48l-1 -111h-56l-5 30c-6 -20 -25 -33 -50 -33zM871 283c1 54 2 105 5 156h56l5 -34c10 26 28 37 53 37c35 0 54 -22 55 -69l2 -90h-78l2 73c0 13 -3 19 -11 19s-13 -5 -12 -19l1 -73h-78zM1144 280
c-54 0 -86 29 -86 80s33 82 86 82c54 0 86 -31 86 -82s-32 -80 -86 -80zM258 265v35l-57 1v1l43 24v17l-43 22v1l57 3v34l-119 -8v-29l55 -31l-55 -32v-31zM554 337c11 0 18 8 18 18c0 4 -1 10 -2 15c-3 4 -9 6 -14 6c-12 0 -18 -7 -18 -20c0 -12 6 -19 16 -19zM1144 337
c11 0 18 8 18 20s-7 19 -18 19c-10 0 -17 -7 -17 -19s7 -20 17 -20zM562 54c-18 0 -34 2 -46 9v55h1c12 -6 26 -10 40 -10c39 0 37 27 37 26c0 -8 -24 -10 -32 -10c-29 0 -57 24 -57 54v17h-36l2 -29c1 -8 7 -11 12 -11c3 0 8 0 10 2h1v-48c-10 -6 -24 -10 -43 -10
c-40 0 -56 16 -55 43l1 53h-17v49l63 30h22l-1 -16h111l-2 -63c0 -14 4 -19 11 -19c8 0 13 6 12 19l-1 63h71c1 -17 3 -59 3 -80c0 -90 -30 -124 -107 -124zM683 62c0 72 1 133 3 197h58l2 -31c6 21 25 34 50 34c37 0 59 -28 59 -74c0 -54 -30 -87 -80 -87c-4 0 -11 1 -17 2
l2 -41h-77zM963 100c-66 0 -98 27 -98 79c0 51 31 83 86 83c50 0 77 -27 77 -76c0 -10 -1 -16 -2 -21l-87 -4c5 -8 21 -12 42 -12c12 0 25 1 35 5v-47c-15 -5 -33 -7 -53 -7zM139 154h119v82h-29v-46h-18v42h-28v-42h-15v45h-29v-81zM934 183l38 3c1 13 -7 20 -19 20
c-13 0 -19 -8 -19 -23zM765 157c14 0 21 7 21 20c0 12 -6 19 -16 19c-11 0 -19 -8 -19 -19c0 -3 1 -9 4 -19c3 -1 8 -1 10 -1zM1050 97c-9 0 -15 6 -15 15c0 8 6 14 15 14c8 0 14 -6 14 -14c0 -9 -6 -15 -14 -15zM139 11h119v45c0 41 -21 68 -61 68c-37 0 -60 -26 -60 -65
c0 -25 2 -43 2 -48zM1050 100c6 0 11 5 11 12c0 6 -5 11 -11 11c-7 0 -12 -5 -12 -11c0 -7 5 -12 12 -12zM1043 104v15h7c4 0 7 -1 7 -5c0 -3 -2 -4 -5 -4l4 -6h-4l-2 6h-4v-6h-3zM1046 112h4c2 0 3 1 3 2c0 2 -2 2 -3 2h-4v-4zM171 47c0 4 -1 5 -1 12c0 14 8 27 28 27
c19 0 28 -9 28 -27v-12h-55z" />
    <glyph glyph-name="Otilde" unicode="&#xd5;" 
d="M100 -50v668h191v-668h-191zM199 429c41 0 61 31 61 63c0 36 -23 63 -61 63c-42 0 -63 -31 -63 -63c0 -36 24 -63 63 -63zM820 452c-24 0 -42 17 -42 40c0 22 18 40 42 40c23 0 41 -18 41 -40c0 -23 -18 -40 -41 -40zM199 467c-18 0 -30 9 -30 25s12 25 30 25
c17 0 28 -9 28 -25s-11 -25 -28 -25zM380 283c0 63 1 130 4 204h68c3 -67 5 -136 6 -204h-78zM721 279c-37 0 -56 13 -55 47l1 49h-17v49l60 48h22l2 -33h118c3 -52 4 -104 4 -156h-77c0 18 0 62 1 92h-41l3 -28c0 -8 5 -12 11 -12c3 0 7 0 11 2v-48c-5 -5 -21 -10 -43 -10z
M529 280c-37 0 -60 28 -60 74c0 56 34 88 92 88c49 0 80 -23 80 -48l-1 -111h-56l-5 30c-6 -20 -25 -33 -50 -33zM871 283c1 54 2 105 5 156h56l5 -34c10 26 28 37 53 37c35 0 54 -22 55 -69l2 -90h-78l2 73c0 13 -3 19 -11 19s-13 -5 -12 -19l1 -73h-78zM1144 280
c-54 0 -86 29 -86 80s33 82 86 82c54 0 86 -31 86 -82s-32 -80 -86 -80zM258 265v35l-57 1v1l43 24v17l-43 22v1l57 3v34l-119 -8v-29l55 -31l-55 -32v-31zM554 337c11 0 18 8 18 18c0 4 -1 10 -2 15c-3 4 -9 6 -14 6c-12 0 -18 -7 -18 -20c0 -12 6 -19 16 -19zM1144 337
c11 0 18 8 18 20s-7 19 -18 19c-10 0 -17 -7 -17 -19s7 -20 17 -20zM562 54c-18 0 -34 2 -46 9v55h1c12 -6 26 -10 40 -10c39 0 37 27 37 26c0 -8 -24 -10 -32 -10c-29 0 -57 24 -57 54v17h-36l2 -29c1 -8 7 -11 12 -11c3 0 8 0 10 2h1v-48c-10 -6 -24 -10 -43 -10
c-40 0 -56 16 -55 43l1 53h-17v49l63 30h22l-1 -16h111l-2 -63c0 -14 4 -19 11 -19c8 0 13 6 12 19l-1 63h71c1 -17 3 -59 3 -80c0 -90 -30 -124 -107 -124zM683 62c0 72 1 133 3 197h58l2 -31c6 21 25 34 50 34c37 0 59 -28 59 -74c0 -54 -30 -87 -80 -87c-4 0 -11 1 -17 2
l2 -41h-77zM963 100c-66 0 -98 27 -98 79c0 51 31 83 86 83c50 0 77 -27 77 -76c0 -10 -1 -16 -2 -21l-87 -4c5 -8 21 -12 42 -12c12 0 25 1 35 5v-47c-15 -5 -33 -7 -53 -7zM139 154h119v82h-29v-46h-18v42h-28v-42h-15v45h-29v-81zM934 183l38 3c1 13 -7 20 -19 20
c-13 0 -19 -8 -19 -23zM765 157c14 0 21 7 21 20c0 12 -6 19 -16 19c-11 0 -19 -8 -19 -19c0 -3 1 -9 4 -19c3 -1 8 -1 10 -1zM1050 97c-9 0 -15 6 -15 15c0 8 6 14 15 14c8 0 14 -6 14 -14c0 -9 -6 -15 -14 -15zM139 11h119v45c0 41 -21 68 -61 68c-37 0 -60 -26 -60 -65
c0 -25 2 -43 2 -48zM1050 100c6 0 11 5 11 12c0 6 -5 11 -11 11c-7 0 -12 -5 -12 -11c0 -7 5 -12 12 -12zM1043 104v15h7c4 0 7 -1 7 -5c0 -3 -2 -4 -5 -4l4 -6h-4l-2 6h-4v-6h-3zM1046 112h4c2 0 3 1 3 2c0 2 -2 2 -3 2h-4v-4zM171 47c0 4 -1 5 -1 12c0 14 8 27 28 27
c19 0 28 -9 28 -27v-12h-55z" />
    <glyph glyph-name="OE" unicode="&#x152;" 
d="M100 -50v668h191v-668h-191zM199 429c41 0 61 31 61 63c0 36 -23 63 -61 63c-42 0 -63 -31 -63 -63c0 -36 24 -63 63 -63zM820 452c-24 0 -42 17 -42 40c0 22 18 40 42 40c23 0 41 -18 41 -40c0 -23 -18 -40 -41 -40zM199 467c-18 0 -30 9 -30 25s12 25 30 25
c17 0 28 -9 28 -25s-11 -25 -28 -25zM380 283c0 63 1 130 4 204h68c3 -67 5 -136 6 -204h-78zM721 279c-37 0 -56 13 -55 47l1 49h-17v49l60 48h22l2 -33h118c3 -52 4 -104 4 -156h-77c0 18 0 62 1 92h-41l3 -28c0 -8 5 -12 11 -12c3 0 7 0 11 2v-48c-5 -5 -21 -10 -43 -10z
M529 280c-37 0 -60 28 -60 74c0 56 34 88 92 88c49 0 80 -23 80 -48l-1 -111h-56l-5 30c-6 -20 -25 -33 -50 -33zM871 283c1 54 2 105 5 156h56l5 -34c10 26 28 37 53 37c35 0 54 -22 55 -69l2 -90h-78l2 73c0 13 -3 19 -11 19s-13 -5 -12 -19l1 -73h-78zM1144 280
c-54 0 -86 29 -86 80s33 82 86 82c54 0 86 -31 86 -82s-32 -80 -86 -80zM258 265v35l-57 1v1l43 24v17l-43 22v1l57 3v34l-119 -8v-29l55 -31l-55 -32v-31zM554 337c11 0 18 8 18 18c0 4 -1 10 -2 15c-3 4 -9 6 -14 6c-12 0 -18 -7 -18 -20c0 -12 6 -19 16 -19zM1144 337
c11 0 18 8 18 20s-7 19 -18 19c-10 0 -17 -7 -17 -19s7 -20 17 -20zM562 54c-18 0 -34 2 -46 9v55h1c12 -6 26 -10 40 -10c39 0 37 27 37 26c0 -8 -24 -10 -32 -10c-29 0 -57 24 -57 54v17h-36l2 -29c1 -8 7 -11 12 -11c3 0 8 0 10 2h1v-48c-10 -6 -24 -10 -43 -10
c-40 0 -56 16 -55 43l1 53h-17v49l63 30h22l-1 -16h111l-2 -63c0 -14 4 -19 11 -19c8 0 13 6 12 19l-1 63h71c1 -17 3 -59 3 -80c0 -90 -30 -124 -107 -124zM683 62c0 72 1 133 3 197h58l2 -31c6 21 25 34 50 34c37 0 59 -28 59 -74c0 -54 -30 -87 -80 -87c-4 0 -11 1 -17 2
l2 -41h-77zM963 100c-66 0 -98 27 -98 79c0 51 31 83 86 83c50 0 77 -27 77 -76c0 -10 -1 -16 -2 -21l-87 -4c5 -8 21 -12 42 -12c12 0 25 1 35 5v-47c-15 -5 -33 -7 -53 -7zM139 154h119v82h-29v-46h-18v42h-28v-42h-15v45h-29v-81zM934 183l38 3c1 13 -7 20 -19 20
c-13 0 -19 -8 -19 -23zM765 157c14 0 21 7 21 20c0 12 -6 19 -16 19c-11 0 -19 -8 -19 -19c0 -3 1 -9 4 -19c3 -1 8 -1 10 -1zM1050 97c-9 0 -15 6 -15 15c0 8 6 14 15 14c8 0 14 -6 14 -14c0 -9 -6 -15 -14 -15zM139 11h119v45c0 41 -21 68 -61 68c-37 0 -60 -26 -60 -65
c0 -25 2 -43 2 -48zM1050 100c6 0 11 5 11 12c0 6 -5 11 -11 11c-7 0 -12 -5 -12 -11c0 -7 5 -12 12 -12zM1043 104v15h7c4 0 7 -1 7 -5c0 -3 -2 -4 -5 -4l4 -6h-4l-2 6h-4v-6h-3zM1046 112h4c2 0 3 1 3 2c0 2 -2 2 -3 2h-4v-4zM171 47c0 4 -1 5 -1 12c0 14 8 27 28 27
c19 0 28 -9 28 -27v-12h-55z" />
    <glyph glyph-name="P" unicode="P" horiz-adv-x="605" 
d="M80 0c-13 0 -21 5 -21 13v2c0 17 37 19 37 55v570c0 33 -37 37 -37 55v3c0 8 8 12 21 12h186c167 0 315 -65 315 -231c0 -153 -109 -238 -292 -238h-103v-171c0 -36 39 -38 39 -55v-2c0 -8 -8 -13 -20 -13h-125zM222 282h67c122 0 199 65 199 175
c0 146 -107 212 -222 212h-54c-18 0 -26 -11 -26 -32v-319c0 -23 12 -36 36 -36z" />
    <glyph glyph-name="Thorn" unicode="&#xde;" 
d="M100 -50v668h191v-668h-191zM199 429c41 0 61 31 61 63c0 36 -23 63 -61 63c-42 0 -63 -31 -63 -63c0 -36 24 -63 63 -63zM820 452c-24 0 -42 17 -42 40c0 22 18 40 42 40c23 0 41 -18 41 -40c0 -23 -18 -40 -41 -40zM199 467c-18 0 -30 9 -30 25s12 25 30 25
c17 0 28 -9 28 -25s-11 -25 -28 -25zM380 283c0 63 1 130 4 204h68c3 -67 5 -136 6 -204h-78zM721 279c-37 0 -56 13 -55 47l1 49h-17v49l60 48h22l2 -33h118c3 -52 4 -104 4 -156h-77c0 18 0 62 1 92h-41l3 -28c0 -8 5 -12 11 -12c3 0 7 0 11 2v-48c-5 -5 -21 -10 -43 -10z
M529 280c-37 0 -60 28 -60 74c0 56 34 88 92 88c49 0 80 -23 80 -48l-1 -111h-56l-5 30c-6 -20 -25 -33 -50 -33zM871 283c1 54 2 105 5 156h56l5 -34c10 26 28 37 53 37c35 0 54 -22 55 -69l2 -90h-78l2 73c0 13 -3 19 -11 19s-13 -5 -12 -19l1 -73h-78zM1144 280
c-54 0 -86 29 -86 80s33 82 86 82c54 0 86 -31 86 -82s-32 -80 -86 -80zM258 265v35l-57 1v1l43 24v17l-43 22v1l57 3v34l-119 -8v-29l55 -31l-55 -32v-31zM554 337c11 0 18 8 18 18c0 4 -1 10 -2 15c-3 4 -9 6 -14 6c-12 0 -18 -7 -18 -20c0 -12 6 -19 16 -19zM1144 337
c11 0 18 8 18 20s-7 19 -18 19c-10 0 -17 -7 -17 -19s7 -20 17 -20zM562 54c-18 0 -34 2 -46 9v55h1c12 -6 26 -10 40 -10c39 0 37 27 37 26c0 -8 -24 -10 -32 -10c-29 0 -57 24 -57 54v17h-36l2 -29c1 -8 7 -11 12 -11c3 0 8 0 10 2h1v-48c-10 -6 -24 -10 -43 -10
c-40 0 -56 16 -55 43l1 53h-17v49l63 30h22l-1 -16h111l-2 -63c0 -14 4 -19 11 -19c8 0 13 6 12 19l-1 63h71c1 -17 3 -59 3 -80c0 -90 -30 -124 -107 -124zM683 62c0 72 1 133 3 197h58l2 -31c6 21 25 34 50 34c37 0 59 -28 59 -74c0 -54 -30 -87 -80 -87c-4 0 -11 1 -17 2
l2 -41h-77zM963 100c-66 0 -98 27 -98 79c0 51 31 83 86 83c50 0 77 -27 77 -76c0 -10 -1 -16 -2 -21l-87 -4c5 -8 21 -12 42 -12c12 0 25 1 35 5v-47c-15 -5 -33 -7 -53 -7zM139 154h119v82h-29v-46h-18v42h-28v-42h-15v45h-29v-81zM934 183l38 3c1 13 -7 20 -19 20
c-13 0 -19 -8 -19 -23zM765 157c14 0 21 7 21 20c0 12 -6 19 -16 19c-11 0 -19 -8 -19 -19c0 -3 1 -9 4 -19c3 -1 8 -1 10 -1zM1050 97c-9 0 -15 6 -15 15c0 8 6 14 15 14c8 0 14 -6 14 -14c0 -9 -6 -15 -14 -15zM139 11h119v45c0 41 -21 68 -61 68c-37 0 -60 -26 -60 -65
c0 -25 2 -43 2 -48zM1050 100c6 0 11 5 11 12c0 6 -5 11 -11 11c-7 0 -12 -5 -12 -11c0 -7 5 -12 12 -12zM1043 104v15h7c4 0 7 -1 7 -5c0 -3 -2 -4 -5 -4l4 -6h-4l-2 6h-4v-6h-3zM1046 112h4c2 0 3 1 3 2c0 2 -2 2 -3 2h-4v-4zM171 47c0 4 -1 5 -1 12c0 14 8 27 28 27
c19 0 28 -9 28 -27v-12h-55z" />
    <glyph glyph-name="Q" unicode="Q" horiz-adv-x="771" 
d="M745 -58c7 3 21 -5 11 -17c-20 -42 -86 -74 -159 -74c-139 0 -209 122 -337 122c-54 0 -98 -16 -127 -31c-20 -8 -28 18 -14 32c27 24 65 47 114 54c-120 62 -195 191 -195 329c0 207 143 363 349 363c205 0 347 -169 347 -369c0 -193 -141 -354 -327 -361
c61 -34 118 -77 206 -77c70 0 109 15 132 29zM128 418c0 -206 117 -385 288 -385c134 0 228 123 228 258c0 212 -117 386 -288 386c-135 0 -228 -112 -228 -259z" />
    <glyph glyph-name="R" unicode="R" horiz-adv-x="648" 
d="M578 70c27 -38 63 -37 63 -56v-2c0 -8 -8 -12 -20 -12h-139c-12 0 -20 4 -20 12v2c0 19 43 19 20 56l-150 207c-8 -1 -16 -1 -25 -1l-120 -2v-204c0 -36 39 -37 39 -56v-2c0 -8 -8 -12 -20 -12h-126c-12 0 -20 4 -20 12v2c0 19 36 20 36 56v570c0 36 -36 37 -36 56v2
c0 8 8 12 20 12h205c171 0 301 -69 302 -220c0 -91 -59 -168 -169 -199zM298 316c116 0 196 60 196 161c0 132 -102 192 -214 192h-67c-18 0 -26 -13 -26 -34v-272c0 -33 15 -47 42 -47h69z" />
    <glyph glyph-name="Racute" unicode="&#x154;" 
d="M100 -50v668h191v-668h-191zM199 429c41 0 61 31 61 63c0 36 -23 63 -61 63c-42 0 -63 -31 -63 -63c0 -36 24 -63 63 -63zM820 452c-24 0 -42 17 -42 40c0 22 18 40 42 40c23 0 41 -18 41 -40c0 -23 -18 -40 -41 -40zM199 467c-18 0 -30 9 -30 25s12 25 30 25
c17 0 28 -9 28 -25s-11 -25 -28 -25zM380 283c0 63 1 130 4 204h68c3 -67 5 -136 6 -204h-78zM721 279c-37 0 -56 13 -55 47l1 49h-17v49l60 48h22l2 -33h118c3 -52 4 -104 4 -156h-77c0 18 0 62 1 92h-41l3 -28c0 -8 5 -12 11 -12c3 0 7 0 11 2v-48c-5 -5 -21 -10 -43 -10z
M529 280c-37 0 -60 28 -60 74c0 56 34 88 92 88c49 0 80 -23 80 -48l-1 -111h-56l-5 30c-6 -20 -25 -33 -50 -33zM871 283c1 54 2 105 5 156h56l5 -34c10 26 28 37 53 37c35 0 54 -22 55 -69l2 -90h-78l2 73c0 13 -3 19 -11 19s-13 -5 -12 -19l1 -73h-78zM1144 280
c-54 0 -86 29 -86 80s33 82 86 82c54 0 86 -31 86 -82s-32 -80 -86 -80zM258 265v35l-57 1v1l43 24v17l-43 22v1l57 3v34l-119 -8v-29l55 -31l-55 -32v-31zM554 337c11 0 18 8 18 18c0 4 -1 10 -2 15c-3 4 -9 6 -14 6c-12 0 -18 -7 -18 -20c0 -12 6 -19 16 -19zM1144 337
c11 0 18 8 18 20s-7 19 -18 19c-10 0 -17 -7 -17 -19s7 -20 17 -20zM562 54c-18 0 -34 2 -46 9v55h1c12 -6 26 -10 40 -10c39 0 37 27 37 26c0 -8 -24 -10 -32 -10c-29 0 -57 24 -57 54v17h-36l2 -29c1 -8 7 -11 12 -11c3 0 8 0 10 2h1v-48c-10 -6 -24 -10 -43 -10
c-40 0 -56 16 -55 43l1 53h-17v49l63 30h22l-1 -16h111l-2 -63c0 -14 4 -19 11 -19c8 0 13 6 12 19l-1 63h71c1 -17 3 -59 3 -80c0 -90 -30 -124 -107 -124zM683 62c0 72 1 133 3 197h58l2 -31c6 21 25 34 50 34c37 0 59 -28 59 -74c0 -54 -30 -87 -80 -87c-4 0 -11 1 -17 2
l2 -41h-77zM963 100c-66 0 -98 27 -98 79c0 51 31 83 86 83c50 0 77 -27 77 -76c0 -10 -1 -16 -2 -21l-87 -4c5 -8 21 -12 42 -12c12 0 25 1 35 5v-47c-15 -5 -33 -7 -53 -7zM139 154h119v82h-29v-46h-18v42h-28v-42h-15v45h-29v-81zM934 183l38 3c1 13 -7 20 -19 20
c-13 0 -19 -8 -19 -23zM765 157c14 0 21 7 21 20c0 12 -6 19 -16 19c-11 0 -19 -8 -19 -19c0 -3 1 -9 4 -19c3 -1 8 -1 10 -1zM1050 97c-9 0 -15 6 -15 15c0 8 6 14 15 14c8 0 14 -6 14 -14c0 -9 -6 -15 -14 -15zM139 11h119v45c0 41 -21 68 -61 68c-37 0 -60 -26 -60 -65
c0 -25 2 -43 2 -48zM1050 100c6 0 11 5 11 12c0 6 -5 11 -11 11c-7 0 -12 -5 -12 -11c0 -7 5 -12 12 -12zM1043 104v15h7c4 0 7 -1 7 -5c0 -3 -2 -4 -5 -4l4 -6h-4l-2 6h-4v-6h-3zM1046 112h4c2 0 3 1 3 2c0 2 -2 2 -3 2h-4v-4zM171 47c0 4 -1 5 -1 12c0 14 8 27 28 27
c19 0 28 -9 28 -27v-12h-55z" />
    <glyph glyph-name="Rcaron" unicode="&#x158;" 
d="M100 -50v668h191v-668h-191zM199 429c41 0 61 31 61 63c0 36 -23 63 -61 63c-42 0 -63 -31 -63 -63c0 -36 24 -63 63 -63zM820 452c-24 0 -42 17 -42 40c0 22 18 40 42 40c23 0 41 -18 41 -40c0 -23 -18 -40 -41 -40zM199 467c-18 0 -30 9 -30 25s12 25 30 25
c17 0 28 -9 28 -25s-11 -25 -28 -25zM380 283c0 63 1 130 4 204h68c3 -67 5 -136 6 -204h-78zM721 279c-37 0 -56 13 -55 47l1 49h-17v49l60 48h22l2 -33h118c3 -52 4 -104 4 -156h-77c0 18 0 62 1 92h-41l3 -28c0 -8 5 -12 11 -12c3 0 7 0 11 2v-48c-5 -5 -21 -10 -43 -10z
M529 280c-37 0 -60 28 -60 74c0 56 34 88 92 88c49 0 80 -23 80 -48l-1 -111h-56l-5 30c-6 -20 -25 -33 -50 -33zM871 283c1 54 2 105 5 156h56l5 -34c10 26 28 37 53 37c35 0 54 -22 55 -69l2 -90h-78l2 73c0 13 -3 19 -11 19s-13 -5 -12 -19l1 -73h-78zM1144 280
c-54 0 -86 29 -86 80s33 82 86 82c54 0 86 -31 86 -82s-32 -80 -86 -80zM258 265v35l-57 1v1l43 24v17l-43 22v1l57 3v34l-119 -8v-29l55 -31l-55 -32v-31zM554 337c11 0 18 8 18 18c0 4 -1 10 -2 15c-3 4 -9 6 -14 6c-12 0 -18 -7 -18 -20c0 -12 6 -19 16 -19zM1144 337
c11 0 18 8 18 20s-7 19 -18 19c-10 0 -17 -7 -17 -19s7 -20 17 -20zM562 54c-18 0 -34 2 -46 9v55h1c12 -6 26 -10 40 -10c39 0 37 27 37 26c0 -8 -24 -10 -32 -10c-29 0 -57 24 -57 54v17h-36l2 -29c1 -8 7 -11 12 -11c3 0 8 0 10 2h1v-48c-10 -6 -24 -10 -43 -10
c-40 0 -56 16 -55 43l1 53h-17v49l63 30h22l-1 -16h111l-2 -63c0 -14 4 -19 11 -19c8 0 13 6 12 19l-1 63h71c1 -17 3 -59 3 -80c0 -90 -30 -124 -107 -124zM683 62c0 72 1 133 3 197h58l2 -31c6 21 25 34 50 34c37 0 59 -28 59 -74c0 -54 -30 -87 -80 -87c-4 0 -11 1 -17 2
l2 -41h-77zM963 100c-66 0 -98 27 -98 79c0 51 31 83 86 83c50 0 77 -27 77 -76c0 -10 -1 -16 -2 -21l-87 -4c5 -8 21 -12 42 -12c12 0 25 1 35 5v-47c-15 -5 -33 -7 -53 -7zM139 154h119v82h-29v-46h-18v42h-28v-42h-15v45h-29v-81zM934 183l38 3c1 13 -7 20 -19 20
c-13 0 -19 -8 -19 -23zM765 157c14 0 21 7 21 20c0 12 -6 19 -16 19c-11 0 -19 -8 -19 -19c0 -3 1 -9 4 -19c3 -1 8 -1 10 -1zM1050 97c-9 0 -15 6 -15 15c0 8 6 14 15 14c8 0 14 -6 14 -14c0 -9 -6 -15 -14 -15zM139 11h119v45c0 41 -21 68 -61 68c-37 0 -60 -26 -60 -65
c0 -25 2 -43 2 -48zM1050 100c6 0 11 5 11 12c0 6 -5 11 -11 11c-7 0 -12 -5 -12 -11c0 -7 5 -12 12 -12zM1043 104v15h7c4 0 7 -1 7 -5c0 -3 -2 -4 -5 -4l4 -6h-4l-2 6h-4v-6h-3zM1046 112h4c2 0 3 1 3 2c0 2 -2 2 -3 2h-4v-4zM171 47c0 4 -1 5 -1 12c0 14 8 27 28 27
c19 0 28 -9 28 -27v-12h-55z" />
    <glyph glyph-name="uni0156" unicode="&#x156;" 
d="M100 -50v668h191v-668h-191zM199 429c41 0 61 31 61 63c0 36 -23 63 -61 63c-42 0 -63 -31 -63 -63c0 -36 24 -63 63 -63zM820 452c-24 0 -42 17 -42 40c0 22 18 40 42 40c23 0 41 -18 41 -40c0 -23 -18 -40 -41 -40zM199 467c-18 0 -30 9 -30 25s12 25 30 25
c17 0 28 -9 28 -25s-11 -25 -28 -25zM380 283c0 63 1 130 4 204h68c3 -67 5 -136 6 -204h-78zM721 279c-37 0 -56 13 -55 47l1 49h-17v49l60 48h22l2 -33h118c3 -52 4 -104 4 -156h-77c0 18 0 62 1 92h-41l3 -28c0 -8 5 -12 11 -12c3 0 7 0 11 2v-48c-5 -5 -21 -10 -43 -10z
M529 280c-37 0 -60 28 -60 74c0 56 34 88 92 88c49 0 80 -23 80 -48l-1 -111h-56l-5 30c-6 -20 -25 -33 -50 -33zM871 283c1 54 2 105 5 156h56l5 -34c10 26 28 37 53 37c35 0 54 -22 55 -69l2 -90h-78l2 73c0 13 -3 19 -11 19s-13 -5 -12 -19l1 -73h-78zM1144 280
c-54 0 -86 29 -86 80s33 82 86 82c54 0 86 -31 86 -82s-32 -80 -86 -80zM258 265v35l-57 1v1l43 24v17l-43 22v1l57 3v34l-119 -8v-29l55 -31l-55 -32v-31zM554 337c11 0 18 8 18 18c0 4 -1 10 -2 15c-3 4 -9 6 -14 6c-12 0 -18 -7 -18 -20c0 -12 6 -19 16 -19zM1144 337
c11 0 18 8 18 20s-7 19 -18 19c-10 0 -17 -7 -17 -19s7 -20 17 -20zM562 54c-18 0 -34 2 -46 9v55h1c12 -6 26 -10 40 -10c39 0 37 27 37 26c0 -8 -24 -10 -32 -10c-29 0 -57 24 -57 54v17h-36l2 -29c1 -8 7 -11 12 -11c3 0 8 0 10 2h1v-48c-10 -6 -24 -10 -43 -10
c-40 0 -56 16 -55 43l1 53h-17v49l63 30h22l-1 -16h111l-2 -63c0 -14 4 -19 11 -19c8 0 13 6 12 19l-1 63h71c1 -17 3 -59 3 -80c0 -90 -30 -124 -107 -124zM683 62c0 72 1 133 3 197h58l2 -31c6 21 25 34 50 34c37 0 59 -28 59 -74c0 -54 -30 -87 -80 -87c-4 0 -11 1 -17 2
l2 -41h-77zM963 100c-66 0 -98 27 -98 79c0 51 31 83 86 83c50 0 77 -27 77 -76c0 -10 -1 -16 -2 -21l-87 -4c5 -8 21 -12 42 -12c12 0 25 1 35 5v-47c-15 -5 -33 -7 -53 -7zM139 154h119v82h-29v-46h-18v42h-28v-42h-15v45h-29v-81zM934 183l38 3c1 13 -7 20 -19 20
c-13 0 -19 -8 -19 -23zM765 157c14 0 21 7 21 20c0 12 -6 19 -16 19c-11 0 -19 -8 -19 -19c0 -3 1 -9 4 -19c3 -1 8 -1 10 -1zM1050 97c-9 0 -15 6 -15 15c0 8 6 14 15 14c8 0 14 -6 14 -14c0 -9 -6 -15 -14 -15zM139 11h119v45c0 41 -21 68 -61 68c-37 0 -60 -26 -60 -65
c0 -25 2 -43 2 -48zM1050 100c6 0 11 5 11 12c0 6 -5 11 -11 11c-7 0 -12 -5 -12 -11c0 -7 5 -12 12 -12zM1043 104v15h7c4 0 7 -1 7 -5c0 -3 -2 -4 -5 -4l4 -6h-4l-2 6h-4v-6h-3zM1046 112h4c2 0 3 1 3 2c0 2 -2 2 -3 2h-4v-4zM171 47c0 4 -1 5 -1 12c0 14 8 27 28 27
c19 0 28 -9 28 -27v-12h-55z" />
    <glyph glyph-name="S" unicode="S" horiz-adv-x="606" 
d="M315 -10c-196 0 -282 115 -282 176c0 23 13 40 38 40c72 -3 47 -177 248 -177c95 0 160 55 160 134c0 249 -427 61 -427 361c0 111 90 195 249 195c170 0 259 -94 259 -163c0 -24 -14 -40 -41 -40c-75 0 -37 164 -221 164c-101 0 -155 -59 -155 -135
c0 -233 428 -59 428 -361c0 -120 -116 -194 -256 -194z" />
    <glyph glyph-name="Sacute" unicode="&#x15a;" 
d="M100 -50v668h191v-668h-191zM199 429c41 0 61 31 61 63c0 36 -23 63 -61 63c-42 0 -63 -31 -63 -63c0 -36 24 -63 63 -63zM820 452c-24 0 -42 17 -42 40c0 22 18 40 42 40c23 0 41 -18 41 -40c0 -23 -18 -40 -41 -40zM199 467c-18 0 -30 9 -30 25s12 25 30 25
c17 0 28 -9 28 -25s-11 -25 -28 -25zM380 283c0 63 1 130 4 204h68c3 -67 5 -136 6 -204h-78zM721 279c-37 0 -56 13 -55 47l1 49h-17v49l60 48h22l2 -33h118c3 -52 4 -104 4 -156h-77c0 18 0 62 1 92h-41l3 -28c0 -8 5 -12 11 -12c3 0 7 0 11 2v-48c-5 -5 -21 -10 -43 -10z
M529 280c-37 0 -60 28 -60 74c0 56 34 88 92 88c49 0 80 -23 80 -48l-1 -111h-56l-5 30c-6 -20 -25 -33 -50 -33zM871 283c1 54 2 105 5 156h56l5 -34c10 26 28 37 53 37c35 0 54 -22 55 -69l2 -90h-78l2 73c0 13 -3 19 -11 19s-13 -5 -12 -19l1 -73h-78zM1144 280
c-54 0 -86 29 -86 80s33 82 86 82c54 0 86 -31 86 -82s-32 -80 -86 -80zM258 265v35l-57 1v1l43 24v17l-43 22v1l57 3v34l-119 -8v-29l55 -31l-55 -32v-31zM554 337c11 0 18 8 18 18c0 4 -1 10 -2 15c-3 4 -9 6 -14 6c-12 0 -18 -7 -18 -20c0 -12 6 -19 16 -19zM1144 337
c11 0 18 8 18 20s-7 19 -18 19c-10 0 -17 -7 -17 -19s7 -20 17 -20zM562 54c-18 0 -34 2 -46 9v55h1c12 -6 26 -10 40 -10c39 0 37 27 37 26c0 -8 -24 -10 -32 -10c-29 0 -57 24 -57 54v17h-36l2 -29c1 -8 7 -11 12 -11c3 0 8 0 10 2h1v-48c-10 -6 -24 -10 -43 -10
c-40 0 -56 16 -55 43l1 53h-17v49l63 30h22l-1 -16h111l-2 -63c0 -14 4 -19 11 -19c8 0 13 6 12 19l-1 63h71c1 -17 3 -59 3 -80c0 -90 -30 -124 -107 -124zM683 62c0 72 1 133 3 197h58l2 -31c6 21 25 34 50 34c37 0 59 -28 59 -74c0 -54 -30 -87 -80 -87c-4 0 -11 1 -17 2
l2 -41h-77zM963 100c-66 0 -98 27 -98 79c0 51 31 83 86 83c50 0 77 -27 77 -76c0 -10 -1 -16 -2 -21l-87 -4c5 -8 21 -12 42 -12c12 0 25 1 35 5v-47c-15 -5 -33 -7 -53 -7zM139 154h119v82h-29v-46h-18v42h-28v-42h-15v45h-29v-81zM934 183l38 3c1 13 -7 20 -19 20
c-13 0 -19 -8 -19 -23zM765 157c14 0 21 7 21 20c0 12 -6 19 -16 19c-11 0 -19 -8 -19 -19c0 -3 1 -9 4 -19c3 -1 8 -1 10 -1zM1050 97c-9 0 -15 6 -15 15c0 8 6 14 15 14c8 0 14 -6 14 -14c0 -9 -6 -15 -14 -15zM139 11h119v45c0 41 -21 68 -61 68c-37 0 -60 -26 -60 -65
c0 -25 2 -43 2 -48zM1050 100c6 0 11 5 11 12c0 6 -5 11 -11 11c-7 0 -12 -5 -12 -11c0 -7 5 -12 12 -12zM1043 104v15h7c4 0 7 -1 7 -5c0 -3 -2 -4 -5 -4l4 -6h-4l-2 6h-4v-6h-3zM1046 112h4c2 0 3 1 3 2c0 2 -2 2 -3 2h-4v-4zM171 47c0 4 -1 5 -1 12c0 14 8 27 28 27
c19 0 28 -9 28 -27v-12h-55z" />
    <glyph glyph-name="Scaron" unicode="&#x160;" 
d="M100 -50v668h191v-668h-191zM199 429c41 0 61 31 61 63c0 36 -23 63 -61 63c-42 0 -63 -31 -63 -63c0 -36 24 -63 63 -63zM820 452c-24 0 -42 17 -42 40c0 22 18 40 42 40c23 0 41 -18 41 -40c0 -23 -18 -40 -41 -40zM199 467c-18 0 -30 9 -30 25s12 25 30 25
c17 0 28 -9 28 -25s-11 -25 -28 -25zM380 283c0 63 1 130 4 204h68c3 -67 5 -136 6 -204h-78zM721 279c-37 0 -56 13 -55 47l1 49h-17v49l60 48h22l2 -33h118c3 -52 4 -104 4 -156h-77c0 18 0 62 1 92h-41l3 -28c0 -8 5 -12 11 -12c3 0 7 0 11 2v-48c-5 -5 -21 -10 -43 -10z
M529 280c-37 0 -60 28 -60 74c0 56 34 88 92 88c49 0 80 -23 80 -48l-1 -111h-56l-5 30c-6 -20 -25 -33 -50 -33zM871 283c1 54 2 105 5 156h56l5 -34c10 26 28 37 53 37c35 0 54 -22 55 -69l2 -90h-78l2 73c0 13 -3 19 -11 19s-13 -5 -12 -19l1 -73h-78zM1144 280
c-54 0 -86 29 -86 80s33 82 86 82c54 0 86 -31 86 -82s-32 -80 -86 -80zM258 265v35l-57 1v1l43 24v17l-43 22v1l57 3v34l-119 -8v-29l55 -31l-55 -32v-31zM554 337c11 0 18 8 18 18c0 4 -1 10 -2 15c-3 4 -9 6 -14 6c-12 0 -18 -7 -18 -20c0 -12 6 -19 16 -19zM1144 337
c11 0 18 8 18 20s-7 19 -18 19c-10 0 -17 -7 -17 -19s7 -20 17 -20zM562 54c-18 0 -34 2 -46 9v55h1c12 -6 26 -10 40 -10c39 0 37 27 37 26c0 -8 -24 -10 -32 -10c-29 0 -57 24 -57 54v17h-36l2 -29c1 -8 7 -11 12 -11c3 0 8 0 10 2h1v-48c-10 -6 -24 -10 -43 -10
c-40 0 -56 16 -55 43l1 53h-17v49l63 30h22l-1 -16h111l-2 -63c0 -14 4 -19 11 -19c8 0 13 6 12 19l-1 63h71c1 -17 3 -59 3 -80c0 -90 -30 -124 -107 -124zM683 62c0 72 1 133 3 197h58l2 -31c6 21 25 34 50 34c37 0 59 -28 59 -74c0 -54 -30 -87 -80 -87c-4 0 -11 1 -17 2
l2 -41h-77zM963 100c-66 0 -98 27 -98 79c0 51 31 83 86 83c50 0 77 -27 77 -76c0 -10 -1 -16 -2 -21l-87 -4c5 -8 21 -12 42 -12c12 0 25 1 35 5v-47c-15 -5 -33 -7 -53 -7zM139 154h119v82h-29v-46h-18v42h-28v-42h-15v45h-29v-81zM934 183l38 3c1 13 -7 20 -19 20
c-13 0 -19 -8 -19 -23zM765 157c14 0 21 7 21 20c0 12 -6 19 -16 19c-11 0 -19 -8 -19 -19c0 -3 1 -9 4 -19c3 -1 8 -1 10 -1zM1050 97c-9 0 -15 6 -15 15c0 8 6 14 15 14c8 0 14 -6 14 -14c0 -9 -6 -15 -14 -15zM139 11h119v45c0 41 -21 68 -61 68c-37 0 -60 -26 -60 -65
c0 -25 2 -43 2 -48zM1050 100c6 0 11 5 11 12c0 6 -5 11 -11 11c-7 0 -12 -5 -12 -11c0 -7 5 -12 12 -12zM1043 104v15h7c4 0 7 -1 7 -5c0 -3 -2 -4 -5 -4l4 -6h-4l-2 6h-4v-6h-3zM1046 112h4c2 0 3 1 3 2c0 2 -2 2 -3 2h-4v-4zM171 47c0 4 -1 5 -1 12c0 14 8 27 28 27
c19 0 28 -9 28 -27v-12h-55z" />
    <glyph glyph-name="Scedilla" unicode="&#x15e;" 
d="M100 -50v668h191v-668h-191zM199 429c41 0 61 31 61 63c0 36 -23 63 -61 63c-42 0 -63 -31 -63 -63c0 -36 24 -63 63 -63zM820 452c-24 0 -42 17 -42 40c0 22 18 40 42 40c23 0 41 -18 41 -40c0 -23 -18 -40 -41 -40zM199 467c-18 0 -30 9 -30 25s12 25 30 25
c17 0 28 -9 28 -25s-11 -25 -28 -25zM380 283c0 63 1 130 4 204h68c3 -67 5 -136 6 -204h-78zM721 279c-37 0 -56 13 -55 47l1 49h-17v49l60 48h22l2 -33h118c3 -52 4 -104 4 -156h-77c0 18 0 62 1 92h-41l3 -28c0 -8 5 -12 11 -12c3 0 7 0 11 2v-48c-5 -5 -21 -10 -43 -10z
M529 280c-37 0 -60 28 -60 74c0 56 34 88 92 88c49 0 80 -23 80 -48l-1 -111h-56l-5 30c-6 -20 -25 -33 -50 -33zM871 283c1 54 2 105 5 156h56l5 -34c10 26 28 37 53 37c35 0 54 -22 55 -69l2 -90h-78l2 73c0 13 -3 19 -11 19s-13 -5 -12 -19l1 -73h-78zM1144 280
c-54 0 -86 29 -86 80s33 82 86 82c54 0 86 -31 86 -82s-32 -80 -86 -80zM258 265v35l-57 1v1l43 24v17l-43 22v1l57 3v34l-119 -8v-29l55 -31l-55 -32v-31zM554 337c11 0 18 8 18 18c0 4 -1 10 -2 15c-3 4 -9 6 -14 6c-12 0 -18 -7 -18 -20c0 -12 6 -19 16 -19zM1144 337
c11 0 18 8 18 20s-7 19 -18 19c-10 0 -17 -7 -17 -19s7 -20 17 -20zM562 54c-18 0 -34 2 -46 9v55h1c12 -6 26 -10 40 -10c39 0 37 27 37 26c0 -8 -24 -10 -32 -10c-29 0 -57 24 -57 54v17h-36l2 -29c1 -8 7 -11 12 -11c3 0 8 0 10 2h1v-48c-10 -6 -24 -10 -43 -10
c-40 0 -56 16 -55 43l1 53h-17v49l63 30h22l-1 -16h111l-2 -63c0 -14 4 -19 11 -19c8 0 13 6 12 19l-1 63h71c1 -17 3 -59 3 -80c0 -90 -30 -124 -107 -124zM683 62c0 72 1 133 3 197h58l2 -31c6 21 25 34 50 34c37 0 59 -28 59 -74c0 -54 -30 -87 -80 -87c-4 0 -11 1 -17 2
l2 -41h-77zM963 100c-66 0 -98 27 -98 79c0 51 31 83 86 83c50 0 77 -27 77 -76c0 -10 -1 -16 -2 -21l-87 -4c5 -8 21 -12 42 -12c12 0 25 1 35 5v-47c-15 -5 -33 -7 -53 -7zM139 154h119v82h-29v-46h-18v42h-28v-42h-15v45h-29v-81zM934 183l38 3c1 13 -7 20 -19 20
c-13 0 -19 -8 -19 -23zM765 157c14 0 21 7 21 20c0 12 -6 19 -16 19c-11 0 -19 -8 -19 -19c0 -3 1 -9 4 -19c3 -1 8 -1 10 -1zM1050 97c-9 0 -15 6 -15 15c0 8 6 14 15 14c8 0 14 -6 14 -14c0 -9 -6 -15 -14 -15zM139 11h119v45c0 41 -21 68 -61 68c-37 0 -60 -26 -60 -65
c0 -25 2 -43 2 -48zM1050 100c6 0 11 5 11 12c0 6 -5 11 -11 11c-7 0 -12 -5 -12 -11c0 -7 5 -12 12 -12zM1043 104v15h7c4 0 7 -1 7 -5c0 -3 -2 -4 -5 -4l4 -6h-4l-2 6h-4v-6h-3zM1046 112h4c2 0 3 1 3 2c0 2 -2 2 -3 2h-4v-4zM171 47c0 4 -1 5 -1 12c0 14 8 27 28 27
c19 0 28 -9 28 -27v-12h-55z" />
    <glyph glyph-name="uni0218" unicode="&#x218;" 
d="M100 -50v668h191v-668h-191zM199 429c41 0 61 31 61 63c0 36 -23 63 -61 63c-42 0 -63 -31 -63 -63c0 -36 24 -63 63 -63zM820 452c-24 0 -42 17 -42 40c0 22 18 40 42 40c23 0 41 -18 41 -40c0 -23 -18 -40 -41 -40zM199 467c-18 0 -30 9 -30 25s12 25 30 25
c17 0 28 -9 28 -25s-11 -25 -28 -25zM380 283c0 63 1 130 4 204h68c3 -67 5 -136 6 -204h-78zM721 279c-37 0 -56 13 -55 47l1 49h-17v49l60 48h22l2 -33h118c3 -52 4 -104 4 -156h-77c0 18 0 62 1 92h-41l3 -28c0 -8 5 -12 11 -12c3 0 7 0 11 2v-48c-5 -5 -21 -10 -43 -10z
M529 280c-37 0 -60 28 -60 74c0 56 34 88 92 88c49 0 80 -23 80 -48l-1 -111h-56l-5 30c-6 -20 -25 -33 -50 -33zM871 283c1 54 2 105 5 156h56l5 -34c10 26 28 37 53 37c35 0 54 -22 55 -69l2 -90h-78l2 73c0 13 -3 19 -11 19s-13 -5 -12 -19l1 -73h-78zM1144 280
c-54 0 -86 29 -86 80s33 82 86 82c54 0 86 -31 86 -82s-32 -80 -86 -80zM258 265v35l-57 1v1l43 24v17l-43 22v1l57 3v34l-119 -8v-29l55 -31l-55 -32v-31zM554 337c11 0 18 8 18 18c0 4 -1 10 -2 15c-3 4 -9 6 -14 6c-12 0 -18 -7 -18 -20c0 -12 6 -19 16 -19zM1144 337
c11 0 18 8 18 20s-7 19 -18 19c-10 0 -17 -7 -17 -19s7 -20 17 -20zM562 54c-18 0 -34 2 -46 9v55h1c12 -6 26 -10 40 -10c39 0 37 27 37 26c0 -8 -24 -10 -32 -10c-29 0 -57 24 -57 54v17h-36l2 -29c1 -8 7 -11 12 -11c3 0 8 0 10 2h1v-48c-10 -6 -24 -10 -43 -10
c-40 0 -56 16 -55 43l1 53h-17v49l63 30h22l-1 -16h111l-2 -63c0 -14 4 -19 11 -19c8 0 13 6 12 19l-1 63h71c1 -17 3 -59 3 -80c0 -90 -30 -124 -107 -124zM683 62c0 72 1 133 3 197h58l2 -31c6 21 25 34 50 34c37 0 59 -28 59 -74c0 -54 -30 -87 -80 -87c-4 0 -11 1 -17 2
l2 -41h-77zM963 100c-66 0 -98 27 -98 79c0 51 31 83 86 83c50 0 77 -27 77 -76c0 -10 -1 -16 -2 -21l-87 -4c5 -8 21 -12 42 -12c12 0 25 1 35 5v-47c-15 -5 -33 -7 -53 -7zM139 154h119v82h-29v-46h-18v42h-28v-42h-15v45h-29v-81zM934 183l38 3c1 13 -7 20 -19 20
c-13 0 -19 -8 -19 -23zM765 157c14 0 21 7 21 20c0 12 -6 19 -16 19c-11 0 -19 -8 -19 -19c0 -3 1 -9 4 -19c3 -1 8 -1 10 -1zM1050 97c-9 0 -15 6 -15 15c0 8 6 14 15 14c8 0 14 -6 14 -14c0 -9 -6 -15 -14 -15zM139 11h119v45c0 41 -21 68 -61 68c-37 0 -60 -26 -60 -65
c0 -25 2 -43 2 -48zM1050 100c6 0 11 5 11 12c0 6 -5 11 -11 11c-7 0 -12 -5 -12 -11c0 -7 5 -12 12 -12zM1043 104v15h7c4 0 7 -1 7 -5c0 -3 -2 -4 -5 -4l4 -6h-4l-2 6h-4v-6h-3zM1046 112h4c2 0 3 1 3 2c0 2 -2 2 -3 2h-4v-4zM171 47c0 4 -1 5 -1 12c0 14 8 27 28 27
c19 0 28 -9 28 -27v-12h-55z" />
    <glyph glyph-name="uni1E9E" unicode="&#x1e9e;" 
d="M100 -50v668h191v-668h-191zM199 429c41 0 61 31 61 63c0 36 -23 63 -61 63c-42 0 -63 -31 -63 -63c0 -36 24 -63 63 -63zM820 452c-24 0 -42 17 -42 40c0 22 18 40 42 40c23 0 41 -18 41 -40c0 -23 -18 -40 -41 -40zM199 467c-18 0 -30 9 -30 25s12 25 30 25
c17 0 28 -9 28 -25s-11 -25 -28 -25zM380 283c0 63 1 130 4 204h68c3 -67 5 -136 6 -204h-78zM721 279c-37 0 -56 13 -55 47l1 49h-17v49l60 48h22l2 -33h118c3 -52 4 -104 4 -156h-77c0 18 0 62 1 92h-41l3 -28c0 -8 5 -12 11 -12c3 0 7 0 11 2v-48c-5 -5 -21 -10 -43 -10z
M529 280c-37 0 -60 28 -60 74c0 56 34 88 92 88c49 0 80 -23 80 -48l-1 -111h-56l-5 30c-6 -20 -25 -33 -50 -33zM871 283c1 54 2 105 5 156h56l5 -34c10 26 28 37 53 37c35 0 54 -22 55 -69l2 -90h-78l2 73c0 13 -3 19 -11 19s-13 -5 -12 -19l1 -73h-78zM1144 280
c-54 0 -86 29 -86 80s33 82 86 82c54 0 86 -31 86 -82s-32 -80 -86 -80zM258 265v35l-57 1v1l43 24v17l-43 22v1l57 3v34l-119 -8v-29l55 -31l-55 -32v-31zM554 337c11 0 18 8 18 18c0 4 -1 10 -2 15c-3 4 -9 6 -14 6c-12 0 -18 -7 -18 -20c0 -12 6 -19 16 -19zM1144 337
c11 0 18 8 18 20s-7 19 -18 19c-10 0 -17 -7 -17 -19s7 -20 17 -20zM562 54c-18 0 -34 2 -46 9v55h1c12 -6 26 -10 40 -10c39 0 37 27 37 26c0 -8 -24 -10 -32 -10c-29 0 -57 24 -57 54v17h-36l2 -29c1 -8 7 -11 12 -11c3 0 8 0 10 2h1v-48c-10 -6 -24 -10 -43 -10
c-40 0 -56 16 -55 43l1 53h-17v49l63 30h22l-1 -16h111l-2 -63c0 -14 4 -19 11 -19c8 0 13 6 12 19l-1 63h71c1 -17 3 -59 3 -80c0 -90 -30 -124 -107 -124zM683 62c0 72 1 133 3 197h58l2 -31c6 21 25 34 50 34c37 0 59 -28 59 -74c0 -54 -30 -87 -80 -87c-4 0 -11 1 -17 2
l2 -41h-77zM963 100c-66 0 -98 27 -98 79c0 51 31 83 86 83c50 0 77 -27 77 -76c0 -10 -1 -16 -2 -21l-87 -4c5 -8 21 -12 42 -12c12 0 25 1 35 5v-47c-15 -5 -33 -7 -53 -7zM139 154h119v82h-29v-46h-18v42h-28v-42h-15v45h-29v-81zM934 183l38 3c1 13 -7 20 -19 20
c-13 0 -19 -8 -19 -23zM765 157c14 0 21 7 21 20c0 12 -6 19 -16 19c-11 0 -19 -8 -19 -19c0 -3 1 -9 4 -19c3 -1 8 -1 10 -1zM1050 97c-9 0 -15 6 -15 15c0 8 6 14 15 14c8 0 14 -6 14 -14c0 -9 -6 -15 -14 -15zM139 11h119v45c0 41 -21 68 -61 68c-37 0 -60 -26 -60 -65
c0 -25 2 -43 2 -48zM1050 100c6 0 11 5 11 12c0 6 -5 11 -11 11c-7 0 -12 -5 -12 -11c0 -7 5 -12 12 -12zM1043 104v15h7c4 0 7 -1 7 -5c0 -3 -2 -4 -5 -4l4 -6h-4l-2 6h-4v-6h-3zM1046 112h4c2 0 3 1 3 2c0 2 -2 2 -3 2h-4v-4zM171 47c0 4 -1 5 -1 12c0 14 8 27 28 27
c19 0 28 -9 28 -27v-12h-55z" />
    <glyph glyph-name="T" unicode="T" horiz-adv-x="608" 
d="M238 0c-12 0 -20 4 -20 12v2c0 19 37 20 37 56v597h-136c-51 0 -57 -108 -86 -108h-9c-10 0 -15 6 -13 20l16 109c2 14 9 22 25 22h497c16 0 23 -8 26 -22l22 -110c3 -13 -3 -19 -12 -19h-10c-29 0 -42 108 -92 108h-138v-597c0 -36 39 -37 39 -56v-2
c0 -8 -8 -12 -21 -12h-125z" />
    <glyph glyph-name="Tbar" unicode="&#x166;" 
d="M100 -50v668h191v-668h-191zM199 429c41 0 61 31 61 63c0 36 -23 63 -61 63c-42 0 -63 -31 -63 -63c0 -36 24 -63 63 -63zM820 452c-24 0 -42 17 -42 40c0 22 18 40 42 40c23 0 41 -18 41 -40c0 -23 -18 -40 -41 -40zM199 467c-18 0 -30 9 -30 25s12 25 30 25
c17 0 28 -9 28 -25s-11 -25 -28 -25zM380 283c0 63 1 130 4 204h68c3 -67 5 -136 6 -204h-78zM721 279c-37 0 -56 13 -55 47l1 49h-17v49l60 48h22l2 -33h118c3 -52 4 -104 4 -156h-77c0 18 0 62 1 92h-41l3 -28c0 -8 5 -12 11 -12c3 0 7 0 11 2v-48c-5 -5 -21 -10 -43 -10z
M529 280c-37 0 -60 28 -60 74c0 56 34 88 92 88c49 0 80 -23 80 -48l-1 -111h-56l-5 30c-6 -20 -25 -33 -50 -33zM871 283c1 54 2 105 5 156h56l5 -34c10 26 28 37 53 37c35 0 54 -22 55 -69l2 -90h-78l2 73c0 13 -3 19 -11 19s-13 -5 -12 -19l1 -73h-78zM1144 280
c-54 0 -86 29 -86 80s33 82 86 82c54 0 86 -31 86 -82s-32 -80 -86 -80zM258 265v35l-57 1v1l43 24v17l-43 22v1l57 3v34l-119 -8v-29l55 -31l-55 -32v-31zM554 337c11 0 18 8 18 18c0 4 -1 10 -2 15c-3 4 -9 6 -14 6c-12 0 -18 -7 -18 -20c0 -12 6 -19 16 -19zM1144 337
c11 0 18 8 18 20s-7 19 -18 19c-10 0 -17 -7 -17 -19s7 -20 17 -20zM562 54c-18 0 -34 2 -46 9v55h1c12 -6 26 -10 40 -10c39 0 37 27 37 26c0 -8 -24 -10 -32 -10c-29 0 -57 24 -57 54v17h-36l2 -29c1 -8 7 -11 12 -11c3 0 8 0 10 2h1v-48c-10 -6 -24 -10 -43 -10
c-40 0 -56 16 -55 43l1 53h-17v49l63 30h22l-1 -16h111l-2 -63c0 -14 4 -19 11 -19c8 0 13 6 12 19l-1 63h71c1 -17 3 -59 3 -80c0 -90 -30 -124 -107 -124zM683 62c0 72 1 133 3 197h58l2 -31c6 21 25 34 50 34c37 0 59 -28 59 -74c0 -54 -30 -87 -80 -87c-4 0 -11 1 -17 2
l2 -41h-77zM963 100c-66 0 -98 27 -98 79c0 51 31 83 86 83c50 0 77 -27 77 -76c0 -10 -1 -16 -2 -21l-87 -4c5 -8 21 -12 42 -12c12 0 25 1 35 5v-47c-15 -5 -33 -7 -53 -7zM139 154h119v82h-29v-46h-18v42h-28v-42h-15v45h-29v-81zM934 183l38 3c1 13 -7 20 -19 20
c-13 0 -19 -8 -19 -23zM765 157c14 0 21 7 21 20c0 12 -6 19 -16 19c-11 0 -19 -8 -19 -19c0 -3 1 -9 4 -19c3 -1 8 -1 10 -1zM1050 97c-9 0 -15 6 -15 15c0 8 6 14 15 14c8 0 14 -6 14 -14c0 -9 -6 -15 -14 -15zM139 11h119v45c0 41 -21 68 -61 68c-37 0 -60 -26 -60 -65
c0 -25 2 -43 2 -48zM1050 100c6 0 11 5 11 12c0 6 -5 11 -11 11c-7 0 -12 -5 -12 -11c0 -7 5 -12 12 -12zM1043 104v15h7c4 0 7 -1 7 -5c0 -3 -2 -4 -5 -4l4 -6h-4l-2 6h-4v-6h-3zM1046 112h4c2 0 3 1 3 2c0 2 -2 2 -3 2h-4v-4zM171 47c0 4 -1 5 -1 12c0 14 8 27 28 27
c19 0 28 -9 28 -27v-12h-55z" />
    <glyph glyph-name="Tcaron" unicode="&#x164;" 
d="M100 -50v668h191v-668h-191zM199 429c41 0 61 31 61 63c0 36 -23 63 -61 63c-42 0 -63 -31 -63 -63c0 -36 24 -63 63 -63zM820 452c-24 0 -42 17 -42 40c0 22 18 40 42 40c23 0 41 -18 41 -40c0 -23 -18 -40 -41 -40zM199 467c-18 0 -30 9 -30 25s12 25 30 25
c17 0 28 -9 28 -25s-11 -25 -28 -25zM380 283c0 63 1 130 4 204h68c3 -67 5 -136 6 -204h-78zM721 279c-37 0 -56 13 -55 47l1 49h-17v49l60 48h22l2 -33h118c3 -52 4 -104 4 -156h-77c0 18 0 62 1 92h-41l3 -28c0 -8 5 -12 11 -12c3 0 7 0 11 2v-48c-5 -5 -21 -10 -43 -10z
M529 280c-37 0 -60 28 -60 74c0 56 34 88 92 88c49 0 80 -23 80 -48l-1 -111h-56l-5 30c-6 -20 -25 -33 -50 -33zM871 283c1 54 2 105 5 156h56l5 -34c10 26 28 37 53 37c35 0 54 -22 55 -69l2 -90h-78l2 73c0 13 -3 19 -11 19s-13 -5 -12 -19l1 -73h-78zM1144 280
c-54 0 -86 29 -86 80s33 82 86 82c54 0 86 -31 86 -82s-32 -80 -86 -80zM258 265v35l-57 1v1l43 24v17l-43 22v1l57 3v34l-119 -8v-29l55 -31l-55 -32v-31zM554 337c11 0 18 8 18 18c0 4 -1 10 -2 15c-3 4 -9 6 -14 6c-12 0 -18 -7 -18 -20c0 -12 6 -19 16 -19zM1144 337
c11 0 18 8 18 20s-7 19 -18 19c-10 0 -17 -7 -17 -19s7 -20 17 -20zM562 54c-18 0 -34 2 -46 9v55h1c12 -6 26 -10 40 -10c39 0 37 27 37 26c0 -8 -24 -10 -32 -10c-29 0 -57 24 -57 54v17h-36l2 -29c1 -8 7 -11 12 -11c3 0 8 0 10 2h1v-48c-10 -6 -24 -10 -43 -10
c-40 0 -56 16 -55 43l1 53h-17v49l63 30h22l-1 -16h111l-2 -63c0 -14 4 -19 11 -19c8 0 13 6 12 19l-1 63h71c1 -17 3 -59 3 -80c0 -90 -30 -124 -107 -124zM683 62c0 72 1 133 3 197h58l2 -31c6 21 25 34 50 34c37 0 59 -28 59 -74c0 -54 -30 -87 -80 -87c-4 0 -11 1 -17 2
l2 -41h-77zM963 100c-66 0 -98 27 -98 79c0 51 31 83 86 83c50 0 77 -27 77 -76c0 -10 -1 -16 -2 -21l-87 -4c5 -8 21 -12 42 -12c12 0 25 1 35 5v-47c-15 -5 -33 -7 -53 -7zM139 154h119v82h-29v-46h-18v42h-28v-42h-15v45h-29v-81zM934 183l38 3c1 13 -7 20 -19 20
c-13 0 -19 -8 -19 -23zM765 157c14 0 21 7 21 20c0 12 -6 19 -16 19c-11 0 -19 -8 -19 -19c0 -3 1 -9 4 -19c3 -1 8 -1 10 -1zM1050 97c-9 0 -15 6 -15 15c0 8 6 14 15 14c8 0 14 -6 14 -14c0 -9 -6 -15 -14 -15zM139 11h119v45c0 41 -21 68 -61 68c-37 0 -60 -26 -60 -65
c0 -25 2 -43 2 -48zM1050 100c6 0 11 5 11 12c0 6 -5 11 -11 11c-7 0 -12 -5 -12 -11c0 -7 5 -12 12 -12zM1043 104v15h7c4 0 7 -1 7 -5c0 -3 -2 -4 -5 -4l4 -6h-4l-2 6h-4v-6h-3zM1046 112h4c2 0 3 1 3 2c0 2 -2 2 -3 2h-4v-4zM171 47c0 4 -1 5 -1 12c0 14 8 27 28 27
c19 0 28 -9 28 -27v-12h-55z" />
    <glyph glyph-name="uni0162" unicode="&#x162;" 
d="M100 -50v668h191v-668h-191zM199 429c41 0 61 31 61 63c0 36 -23 63 -61 63c-42 0 -63 -31 -63 -63c0 -36 24 -63 63 -63zM820 452c-24 0 -42 17 -42 40c0 22 18 40 42 40c23 0 41 -18 41 -40c0 -23 -18 -40 -41 -40zM199 467c-18 0 -30 9 -30 25s12 25 30 25
c17 0 28 -9 28 -25s-11 -25 -28 -25zM380 283c0 63 1 130 4 204h68c3 -67 5 -136 6 -204h-78zM721 279c-37 0 -56 13 -55 47l1 49h-17v49l60 48h22l2 -33h118c3 -52 4 -104 4 -156h-77c0 18 0 62 1 92h-41l3 -28c0 -8 5 -12 11 -12c3 0 7 0 11 2v-48c-5 -5 -21 -10 -43 -10z
M529 280c-37 0 -60 28 -60 74c0 56 34 88 92 88c49 0 80 -23 80 -48l-1 -111h-56l-5 30c-6 -20 -25 -33 -50 -33zM871 283c1 54 2 105 5 156h56l5 -34c10 26 28 37 53 37c35 0 54 -22 55 -69l2 -90h-78l2 73c0 13 -3 19 -11 19s-13 -5 -12 -19l1 -73h-78zM1144 280
c-54 0 -86 29 -86 80s33 82 86 82c54 0 86 -31 86 -82s-32 -80 -86 -80zM258 265v35l-57 1v1l43 24v17l-43 22v1l57 3v34l-119 -8v-29l55 -31l-55 -32v-31zM554 337c11 0 18 8 18 18c0 4 -1 10 -2 15c-3 4 -9 6 -14 6c-12 0 -18 -7 -18 -20c0 -12 6 -19 16 -19zM1144 337
c11 0 18 8 18 20s-7 19 -18 19c-10 0 -17 -7 -17 -19s7 -20 17 -20zM562 54c-18 0 -34 2 -46 9v55h1c12 -6 26 -10 40 -10c39 0 37 27 37 26c0 -8 -24 -10 -32 -10c-29 0 -57 24 -57 54v17h-36l2 -29c1 -8 7 -11 12 -11c3 0 8 0 10 2h1v-48c-10 -6 -24 -10 -43 -10
c-40 0 -56 16 -55 43l1 53h-17v49l63 30h22l-1 -16h111l-2 -63c0 -14 4 -19 11 -19c8 0 13 6 12 19l-1 63h71c1 -17 3 -59 3 -80c0 -90 -30 -124 -107 -124zM683 62c0 72 1 133 3 197h58l2 -31c6 21 25 34 50 34c37 0 59 -28 59 -74c0 -54 -30 -87 -80 -87c-4 0 -11 1 -17 2
l2 -41h-77zM963 100c-66 0 -98 27 -98 79c0 51 31 83 86 83c50 0 77 -27 77 -76c0 -10 -1 -16 -2 -21l-87 -4c5 -8 21 -12 42 -12c12 0 25 1 35 5v-47c-15 -5 -33 -7 -53 -7zM139 154h119v82h-29v-46h-18v42h-28v-42h-15v45h-29v-81zM934 183l38 3c1 13 -7 20 -19 20
c-13 0 -19 -8 -19 -23zM765 157c14 0 21 7 21 20c0 12 -6 19 -16 19c-11 0 -19 -8 -19 -19c0 -3 1 -9 4 -19c3 -1 8 -1 10 -1zM1050 97c-9 0 -15 6 -15 15c0 8 6 14 15 14c8 0 14 -6 14 -14c0 -9 -6 -15 -14 -15zM139 11h119v45c0 41 -21 68 -61 68c-37 0 -60 -26 -60 -65
c0 -25 2 -43 2 -48zM1050 100c6 0 11 5 11 12c0 6 -5 11 -11 11c-7 0 -12 -5 -12 -11c0 -7 5 -12 12 -12zM1043 104v15h7c4 0 7 -1 7 -5c0 -3 -2 -4 -5 -4l4 -6h-4l-2 6h-4v-6h-3zM1046 112h4c2 0 3 1 3 2c0 2 -2 2 -3 2h-4v-4zM171 47c0 4 -1 5 -1 12c0 14 8 27 28 27
c19 0 28 -9 28 -27v-12h-55z" />
    <glyph glyph-name="uni021A" unicode="&#x21a;" 
d="M100 -50v668h191v-668h-191zM199 429c41 0 61 31 61 63c0 36 -23 63 -61 63c-42 0 -63 -31 -63 -63c0 -36 24 -63 63 -63zM820 452c-24 0 -42 17 -42 40c0 22 18 40 42 40c23 0 41 -18 41 -40c0 -23 -18 -40 -41 -40zM199 467c-18 0 -30 9 -30 25s12 25 30 25
c17 0 28 -9 28 -25s-11 -25 -28 -25zM380 283c0 63 1 130 4 204h68c3 -67 5 -136 6 -204h-78zM721 279c-37 0 -56 13 -55 47l1 49h-17v49l60 48h22l2 -33h118c3 -52 4 -104 4 -156h-77c0 18 0 62 1 92h-41l3 -28c0 -8 5 -12 11 -12c3 0 7 0 11 2v-48c-5 -5 -21 -10 -43 -10z
M529 280c-37 0 -60 28 -60 74c0 56 34 88 92 88c49 0 80 -23 80 -48l-1 -111h-56l-5 30c-6 -20 -25 -33 -50 -33zM871 283c1 54 2 105 5 156h56l5 -34c10 26 28 37 53 37c35 0 54 -22 55 -69l2 -90h-78l2 73c0 13 -3 19 -11 19s-13 -5 -12 -19l1 -73h-78zM1144 280
c-54 0 -86 29 -86 80s33 82 86 82c54 0 86 -31 86 -82s-32 -80 -86 -80zM258 265v35l-57 1v1l43 24v17l-43 22v1l57 3v34l-119 -8v-29l55 -31l-55 -32v-31zM554 337c11 0 18 8 18 18c0 4 -1 10 -2 15c-3 4 -9 6 -14 6c-12 0 -18 -7 -18 -20c0 -12 6 -19 16 -19zM1144 337
c11 0 18 8 18 20s-7 19 -18 19c-10 0 -17 -7 -17 -19s7 -20 17 -20zM562 54c-18 0 -34 2 -46 9v55h1c12 -6 26 -10 40 -10c39 0 37 27 37 26c0 -8 -24 -10 -32 -10c-29 0 -57 24 -57 54v17h-36l2 -29c1 -8 7 -11 12 -11c3 0 8 0 10 2h1v-48c-10 -6 -24 -10 -43 -10
c-40 0 -56 16 -55 43l1 53h-17v49l63 30h22l-1 -16h111l-2 -63c0 -14 4 -19 11 -19c8 0 13 6 12 19l-1 63h71c1 -17 3 -59 3 -80c0 -90 -30 -124 -107 -124zM683 62c0 72 1 133 3 197h58l2 -31c6 21 25 34 50 34c37 0 59 -28 59 -74c0 -54 -30 -87 -80 -87c-4 0 -11 1 -17 2
l2 -41h-77zM963 100c-66 0 -98 27 -98 79c0 51 31 83 86 83c50 0 77 -27 77 -76c0 -10 -1 -16 -2 -21l-87 -4c5 -8 21 -12 42 -12c12 0 25 1 35 5v-47c-15 -5 -33 -7 -53 -7zM139 154h119v82h-29v-46h-18v42h-28v-42h-15v45h-29v-81zM934 183l38 3c1 13 -7 20 -19 20
c-13 0 -19 -8 -19 -23zM765 157c14 0 21 7 21 20c0 12 -6 19 -16 19c-11 0 -19 -8 -19 -19c0 -3 1 -9 4 -19c3 -1 8 -1 10 -1zM1050 97c-9 0 -15 6 -15 15c0 8 6 14 15 14c8 0 14 -6 14 -14c0 -9 -6 -15 -14 -15zM139 11h119v45c0 41 -21 68 -61 68c-37 0 -60 -26 -60 -65
c0 -25 2 -43 2 -48zM1050 100c6 0 11 5 11 12c0 6 -5 11 -11 11c-7 0 -12 -5 -12 -11c0 -7 5 -12 12 -12zM1043 104v15h7c4 0 7 -1 7 -5c0 -3 -2 -4 -5 -4l4 -6h-4l-2 6h-4v-6h-3zM1046 112h4c2 0 3 1 3 2c0 2 -2 2 -3 2h-4v-4zM171 47c0 4 -1 5 -1 12c0 14 8 27 28 27
c19 0 28 -9 28 -27v-12h-55z" />
    <glyph glyph-name="U" unicode="U" horiz-adv-x="719" 
d="M367 -10c-167 0 -283 112 -283 286v364c0 35 -36 37 -36 55v3c0 8 8 12 20 12h126c12 0 20 -4 20 -12v-3c0 -18 -38 -20 -38 -55v-364c0 -148 83 -243 208 -243c105 0 199 84 199 243v364c0 35 -38 37 -38 55v3c0 8 9 12 21 12h88c12 0 21 -4 21 -12v-3
c0 -18 -41 -20 -41 -55v-365c0 -173 -110 -285 -267 -285z" />
    <glyph glyph-name="Uacute" unicode="&#xda;" 
d="M100 -50v668h191v-668h-191zM199 429c41 0 61 31 61 63c0 36 -23 63 -61 63c-42 0 -63 -31 -63 -63c0 -36 24 -63 63 -63zM820 452c-24 0 -42 17 -42 40c0 22 18 40 42 40c23 0 41 -18 41 -40c0 -23 -18 -40 -41 -40zM199 467c-18 0 -30 9 -30 25s12 25 30 25
c17 0 28 -9 28 -25s-11 -25 -28 -25zM380 283c0 63 1 130 4 204h68c3 -67 5 -136 6 -204h-78zM721 279c-37 0 -56 13 -55 47l1 49h-17v49l60 48h22l2 -33h118c3 -52 4 -104 4 -156h-77c0 18 0 62 1 92h-41l3 -28c0 -8 5 -12 11 -12c3 0 7 0 11 2v-48c-5 -5 -21 -10 -43 -10z
M529 280c-37 0 -60 28 -60 74c0 56 34 88 92 88c49 0 80 -23 80 -48l-1 -111h-56l-5 30c-6 -20 -25 -33 -50 -33zM871 283c1 54 2 105 5 156h56l5 -34c10 26 28 37 53 37c35 0 54 -22 55 -69l2 -90h-78l2 73c0 13 -3 19 -11 19s-13 -5 -12 -19l1 -73h-78zM1144 280
c-54 0 -86 29 -86 80s33 82 86 82c54 0 86 -31 86 -82s-32 -80 -86 -80zM258 265v35l-57 1v1l43 24v17l-43 22v1l57 3v34l-119 -8v-29l55 -31l-55 -32v-31zM554 337c11 0 18 8 18 18c0 4 -1 10 -2 15c-3 4 -9 6 -14 6c-12 0 -18 -7 -18 -20c0 -12 6 -19 16 -19zM1144 337
c11 0 18 8 18 20s-7 19 -18 19c-10 0 -17 -7 -17 -19s7 -20 17 -20zM562 54c-18 0 -34 2 -46 9v55h1c12 -6 26 -10 40 -10c39 0 37 27 37 26c0 -8 -24 -10 -32 -10c-29 0 -57 24 -57 54v17h-36l2 -29c1 -8 7 -11 12 -11c3 0 8 0 10 2h1v-48c-10 -6 -24 -10 -43 -10
c-40 0 -56 16 -55 43l1 53h-17v49l63 30h22l-1 -16h111l-2 -63c0 -14 4 -19 11 -19c8 0 13 6 12 19l-1 63h71c1 -17 3 -59 3 -80c0 -90 -30 -124 -107 -124zM683 62c0 72 1 133 3 197h58l2 -31c6 21 25 34 50 34c37 0 59 -28 59 -74c0 -54 -30 -87 -80 -87c-4 0 -11 1 -17 2
l2 -41h-77zM963 100c-66 0 -98 27 -98 79c0 51 31 83 86 83c50 0 77 -27 77 -76c0 -10 -1 -16 -2 -21l-87 -4c5 -8 21 -12 42 -12c12 0 25 1 35 5v-47c-15 -5 -33 -7 -53 -7zM139 154h119v82h-29v-46h-18v42h-28v-42h-15v45h-29v-81zM934 183l38 3c1 13 -7 20 -19 20
c-13 0 -19 -8 -19 -23zM765 157c14 0 21 7 21 20c0 12 -6 19 -16 19c-11 0 -19 -8 -19 -19c0 -3 1 -9 4 -19c3 -1 8 -1 10 -1zM1050 97c-9 0 -15 6 -15 15c0 8 6 14 15 14c8 0 14 -6 14 -14c0 -9 -6 -15 -14 -15zM139 11h119v45c0 41 -21 68 -61 68c-37 0 -60 -26 -60 -65
c0 -25 2 -43 2 -48zM1050 100c6 0 11 5 11 12c0 6 -5 11 -11 11c-7 0 -12 -5 -12 -11c0 -7 5 -12 12 -12zM1043 104v15h7c4 0 7 -1 7 -5c0 -3 -2 -4 -5 -4l4 -6h-4l-2 6h-4v-6h-3zM1046 112h4c2 0 3 1 3 2c0 2 -2 2 -3 2h-4v-4zM171 47c0 4 -1 5 -1 12c0 14 8 27 28 27
c19 0 28 -9 28 -27v-12h-55z" />
    <glyph glyph-name="Ucircumflex" unicode="&#xdb;" 
d="M100 -50v668h191v-668h-191zM199 429c41 0 61 31 61 63c0 36 -23 63 -61 63c-42 0 -63 -31 -63 -63c0 -36 24 -63 63 -63zM820 452c-24 0 -42 17 -42 40c0 22 18 40 42 40c23 0 41 -18 41 -40c0 -23 -18 -40 -41 -40zM199 467c-18 0 -30 9 -30 25s12 25 30 25
c17 0 28 -9 28 -25s-11 -25 -28 -25zM380 283c0 63 1 130 4 204h68c3 -67 5 -136 6 -204h-78zM721 279c-37 0 -56 13 -55 47l1 49h-17v49l60 48h22l2 -33h118c3 -52 4 -104 4 -156h-77c0 18 0 62 1 92h-41l3 -28c0 -8 5 -12 11 -12c3 0 7 0 11 2v-48c-5 -5 -21 -10 -43 -10z
M529 280c-37 0 -60 28 -60 74c0 56 34 88 92 88c49 0 80 -23 80 -48l-1 -111h-56l-5 30c-6 -20 -25 -33 -50 -33zM871 283c1 54 2 105 5 156h56l5 -34c10 26 28 37 53 37c35 0 54 -22 55 -69l2 -90h-78l2 73c0 13 -3 19 -11 19s-13 -5 -12 -19l1 -73h-78zM1144 280
c-54 0 -86 29 -86 80s33 82 86 82c54 0 86 -31 86 -82s-32 -80 -86 -80zM258 265v35l-57 1v1l43 24v17l-43 22v1l57 3v34l-119 -8v-29l55 -31l-55 -32v-31zM554 337c11 0 18 8 18 18c0 4 -1 10 -2 15c-3 4 -9 6 -14 6c-12 0 -18 -7 -18 -20c0 -12 6 -19 16 -19zM1144 337
c11 0 18 8 18 20s-7 19 -18 19c-10 0 -17 -7 -17 -19s7 -20 17 -20zM562 54c-18 0 -34 2 -46 9v55h1c12 -6 26 -10 40 -10c39 0 37 27 37 26c0 -8 -24 -10 -32 -10c-29 0 -57 24 -57 54v17h-36l2 -29c1 -8 7 -11 12 -11c3 0 8 0 10 2h1v-48c-10 -6 -24 -10 -43 -10
c-40 0 -56 16 -55 43l1 53h-17v49l63 30h22l-1 -16h111l-2 -63c0 -14 4 -19 11 -19c8 0 13 6 12 19l-1 63h71c1 -17 3 -59 3 -80c0 -90 -30 -124 -107 -124zM683 62c0 72 1 133 3 197h58l2 -31c6 21 25 34 50 34c37 0 59 -28 59 -74c0 -54 -30 -87 -80 -87c-4 0 -11 1 -17 2
l2 -41h-77zM963 100c-66 0 -98 27 -98 79c0 51 31 83 86 83c50 0 77 -27 77 -76c0 -10 -1 -16 -2 -21l-87 -4c5 -8 21 -12 42 -12c12 0 25 1 35 5v-47c-15 -5 -33 -7 -53 -7zM139 154h119v82h-29v-46h-18v42h-28v-42h-15v45h-29v-81zM934 183l38 3c1 13 -7 20 -19 20
c-13 0 -19 -8 -19 -23zM765 157c14 0 21 7 21 20c0 12 -6 19 -16 19c-11 0 -19 -8 -19 -19c0 -3 1 -9 4 -19c3 -1 8 -1 10 -1zM1050 97c-9 0 -15 6 -15 15c0 8 6 14 15 14c8 0 14 -6 14 -14c0 -9 -6 -15 -14 -15zM139 11h119v45c0 41 -21 68 -61 68c-37 0 -60 -26 -60 -65
c0 -25 2 -43 2 -48zM1050 100c6 0 11 5 11 12c0 6 -5 11 -11 11c-7 0 -12 -5 -12 -11c0 -7 5 -12 12 -12zM1043 104v15h7c4 0 7 -1 7 -5c0 -3 -2 -4 -5 -4l4 -6h-4l-2 6h-4v-6h-3zM1046 112h4c2 0 3 1 3 2c0 2 -2 2 -3 2h-4v-4zM171 47c0 4 -1 5 -1 12c0 14 8 27 28 27
c19 0 28 -9 28 -27v-12h-55z" />
    <glyph glyph-name="Udieresis" unicode="&#xdc;" 
d="M100 -50v668h191v-668h-191zM199 429c41 0 61 31 61 63c0 36 -23 63 -61 63c-42 0 -63 -31 -63 -63c0 -36 24 -63 63 -63zM820 452c-24 0 -42 17 -42 40c0 22 18 40 42 40c23 0 41 -18 41 -40c0 -23 -18 -40 -41 -40zM199 467c-18 0 -30 9 -30 25s12 25 30 25
c17 0 28 -9 28 -25s-11 -25 -28 -25zM380 283c0 63 1 130 4 204h68c3 -67 5 -136 6 -204h-78zM721 279c-37 0 -56 13 -55 47l1 49h-17v49l60 48h22l2 -33h118c3 -52 4 -104 4 -156h-77c0 18 0 62 1 92h-41l3 -28c0 -8 5 -12 11 -12c3 0 7 0 11 2v-48c-5 -5 -21 -10 -43 -10z
M529 280c-37 0 -60 28 -60 74c0 56 34 88 92 88c49 0 80 -23 80 -48l-1 -111h-56l-5 30c-6 -20 -25 -33 -50 -33zM871 283c1 54 2 105 5 156h56l5 -34c10 26 28 37 53 37c35 0 54 -22 55 -69l2 -90h-78l2 73c0 13 -3 19 -11 19s-13 -5 -12 -19l1 -73h-78zM1144 280
c-54 0 -86 29 -86 80s33 82 86 82c54 0 86 -31 86 -82s-32 -80 -86 -80zM258 265v35l-57 1v1l43 24v17l-43 22v1l57 3v34l-119 -8v-29l55 -31l-55 -32v-31zM554 337c11 0 18 8 18 18c0 4 -1 10 -2 15c-3 4 -9 6 -14 6c-12 0 -18 -7 -18 -20c0 -12 6 -19 16 -19zM1144 337
c11 0 18 8 18 20s-7 19 -18 19c-10 0 -17 -7 -17 -19s7 -20 17 -20zM562 54c-18 0 -34 2 -46 9v55h1c12 -6 26 -10 40 -10c39 0 37 27 37 26c0 -8 -24 -10 -32 -10c-29 0 -57 24 -57 54v17h-36l2 -29c1 -8 7 -11 12 -11c3 0 8 0 10 2h1v-48c-10 -6 -24 -10 -43 -10
c-40 0 -56 16 -55 43l1 53h-17v49l63 30h22l-1 -16h111l-2 -63c0 -14 4 -19 11 -19c8 0 13 6 12 19l-1 63h71c1 -17 3 -59 3 -80c0 -90 -30 -124 -107 -124zM683 62c0 72 1 133 3 197h58l2 -31c6 21 25 34 50 34c37 0 59 -28 59 -74c0 -54 -30 -87 -80 -87c-4 0 -11 1 -17 2
l2 -41h-77zM963 100c-66 0 -98 27 -98 79c0 51 31 83 86 83c50 0 77 -27 77 -76c0 -10 -1 -16 -2 -21l-87 -4c5 -8 21 -12 42 -12c12 0 25 1 35 5v-47c-15 -5 -33 -7 -53 -7zM139 154h119v82h-29v-46h-18v42h-28v-42h-15v45h-29v-81zM934 183l38 3c1 13 -7 20 -19 20
c-13 0 -19 -8 -19 -23zM765 157c14 0 21 7 21 20c0 12 -6 19 -16 19c-11 0 -19 -8 -19 -19c0 -3 1 -9 4 -19c3 -1 8 -1 10 -1zM1050 97c-9 0 -15 6 -15 15c0 8 6 14 15 14c8 0 14 -6 14 -14c0 -9 -6 -15 -14 -15zM139 11h119v45c0 41 -21 68 -61 68c-37 0 -60 -26 -60 -65
c0 -25 2 -43 2 -48zM1050 100c6 0 11 5 11 12c0 6 -5 11 -11 11c-7 0 -12 -5 -12 -11c0 -7 5 -12 12 -12zM1043 104v15h7c4 0 7 -1 7 -5c0 -3 -2 -4 -5 -4l4 -6h-4l-2 6h-4v-6h-3zM1046 112h4c2 0 3 1 3 2c0 2 -2 2 -3 2h-4v-4zM171 47c0 4 -1 5 -1 12c0 14 8 27 28 27
c19 0 28 -9 28 -27v-12h-55z" />
    </font>
</defs>
</svg>
