<?xml version="1.0" encoding="UTF-8" standalone="no"?>
<svg
   xmlns:dc="http://purl.org/dc/elements/1.1/"
   xmlns:cc="http://creativecommons.org/ns#"
   xmlns:rdf="http://www.w3.org/1999/02/22-rdf-syntax-ns#"
   xmlns:svg="http://www.w3.org/2000/svg"
   xmlns="http://www.w3.org/2000/svg"
   height="100"
   width="100"
   id="svg8"
   xml:space="preserve"
   enable-background="new 0 0 100 100"
   viewBox="0 0 100 100"
   y="0px"
   x="0px"
   version="1.1"><metadata
     id="metadata14"><rdf:RDF><cc:Work
         rdf:about=""><dc:format>image/svg+xml</dc:format><dc:type
           rdf:resource="http://purl.org/dc/dcmitype/StillImage" /><dc:title></dc:title></cc:Work></rdf:RDF></metadata><defs
     id="defs12" /><path
     style="clip-rule:evenodd;fill-rule:evenodd"
     id="path2"
     d="m 97.01,52.886068 c -1.657,0 -3,-1.344 -3,-3 0,-1.656 1.343,-3 3,-3 1.657,0 3,1.343 3,3 0,1.657 -1.343,3 -3,3 z m -5.01,-1.023 h -2 c -0.552,0 -1,-0.448 -1,-1 v -2 c 0,-0.553 0.448,-1 1,-1 h 2 c 0.553,0 1,0.447 1,1 v 2 c 0,0.552 -0.447,1 -1,1 z m -42.507,35.031 c -19.595,0 -36.493,-17.134 -36.493,-37 0,-19.866 16.898,-37 36.493,-37 19.595,0 37.507,17.133 37.507,37 0,19.867 -17.912,37 -37.507,37 z m 0.015,-70 c -17.682,0 -32.508,15.05 -32.508,33 0,17.95 14.826,33 32.508,33 17.682,0 33.492,-15.051 33.492,-33 0,-17.95 -15.811,-33 -33.492,-33 z M 47,57.833068 v -2.998 c 1.14,0.036 2.295,0.059 3.474,0.059 15.158,0 26.526,-3 26.526,-5 0,-2 -11.368,-5 -26.526,-5 -1.179,0 -2.334,0.023 -3.474,0.058 v -2.998 c 1.146,-0.037 2.306,-0.06 3.492,-0.06 17.714,0 30.508,4 30.508,8 0,4 -12.794,8 -30.508,8 -1.186,0 -2.346,-0.024 -3.492,-0.061 z m 16,-7.939 c 0,1.657 -5.82,3 -13,3 -1.039,0 -2.032,-0.038 -3,-0.092 v -5.817 c 0.968,-0.054 1.961,-0.091 3,-0.091 7.18,0 13,1.343 13,3 z m -15,0 c 0,1.105 0.896,2 2,2 1.104,0 2,-0.896 2,-2 0,-1.104 -0.896,-2 -2,-2 -1.104,0 -2,0.895 -2,2 z m 2,-27 c -2,0 -5,11.572 -5,27 0,15.428 3,27 5,27 1.536,0 3.656,-6.842 4.559,-17 h 2.988 c -1.142,12.607 -4.338,21 -7.547,21 -4,0 -8,-13 -8,-31 0,-18 4,-31 8,-31 3.211,0 6.417,8.386 7.559,21 h -2.997 c -0.905,-10.159 -3.026,-17 -4.562,-17 z m -31,27 c 0,-3.163 8.634,-6.318 21,-7.503 v 2.985 c -9.97,0.928 -17,3.007 -17,4.518 0,1.511 7.03,3.59 17,4.518 v 2.985 c -12.366,-1.185 -21,-4.34 -21,-7.503 z m 18,0 c 0,-0.729 1.128,-1.396 3,-1.917 v 3.833 c -1.872,-0.52 -3,-1.187 -3,-1.916 z M 50.948,6.8940678 c 0.55,0 0.995,0.448 0.995,1 v 2 c 0,0.5520002 -0.445,1.0000002 -0.995,1.0000002 h -1.989 c -0.55,0 -0.995,-0.448 -0.995,-1.0000002 v -2 c 0,-0.552 0.445,-1 0.995,-1 z m -0.971,-1.01 c -1.648,0 -2.984,-1.343 -2.984,-3 0,-1.657 1.336,-3 2.984,-3 1.648,0 2.984,1.343 2.984,3 0,1.657 -1.336,3 -2.984,3 z M 10,51.894068 H 8 c -0.552,0 -1,-0.448 -1,-1 v -2 c 0,-0.552 0.448,-1 1,-1 h 2 c 0.553,0 1,0.448 1,1 v 2 c 0,0.552 -0.447,1 -1,1 z m -7.01,1.023 c -1.656,0 -3,-1.344 -3,-3 0,-1.657 1.344,-3 3,-3 1.657,0 3,1.343 3,3 0,1.657 -1.343,3 -3,3 z m 46,39.977 c -0.55,0 -0.995,-0.448 -0.995,-1 v -2 c 0,-0.553 0.445,-1 0.995,-1 h 1.989 c 0.55,0 0.995,0.447 0.995,1 v 2 c 0,0.552 -0.445,1 -0.995,1 z m 1.018,1.01 c 1.648,0 2.984,1.343 2.984,3 0,1.656 -1.336,3 -2.984,3 -1.648,0 -2.984,-1.344 -2.984,-3 -10e-4,-1.657 1.335,-3 2.984,-3 z" /></svg>