<?xml version="1.0" encoding="UTF-8" standalone="no"?>
<svg
   xmlns:dc="http://purl.org/dc/elements/1.1/"
   xmlns:cc="http://creativecommons.org/ns#"
   xmlns:rdf="http://www.w3.org/1999/02/22-rdf-syntax-ns#"
   xmlns:svg="http://www.w3.org/2000/svg"
   xmlns="http://www.w3.org/2000/svg"
   xmlns:sodipodi="http://sodipodi.sourceforge.net/DTD/sodipodi-0.dtd"
   xmlns:inkscape="http://www.inkscape.org/namespaces/inkscape"
   version="1.1"
   x="0px"
   y="0px"
   viewBox="0 0 100 100"
   enable-background="new 0 0 100 100"
   xml:space="preserve"
   id="svg8"
   sodipodi:docname="acid.svg"
   width="100"
   height="100"
   inkscape:version="0.92.3 (2405546, 2018-03-11)"><metadata
     id="metadata14"><rdf:RDF><cc:Work
         rdf:about=""><dc:format>image/svg+xml</dc:format><dc:type
           rdf:resource="http://purl.org/dc/dcmitype/StillImage" /><dc:title></dc:title></cc:Work></rdf:RDF></metadata><defs
     id="defs12" /><sodipodi:namedview
     pagecolor="#ffffff"
     bordercolor="#666666"
     borderopacity="1"
     objecttolerance="10"
     gridtolerance="10"
     guidetolerance="10"
     inkscape:pageopacity="0"
     inkscape:pageshadow="2"
     inkscape:window-width="867"
     inkscape:window-height="480"
     id="namedview10"
     showgrid="false"
     inkscape:zoom="1.888"
     inkscape:cx="50"
     inkscape:cy="62.5"
     inkscape:window-x="0"
     inkscape:window-y="27"
     inkscape:window-maximized="0"
     inkscape:current-layer="svg8" /><path
     d="m 89.231339,88.554746 h -79.551 v -30.411 h 19.688 l 0.243,2.693 c 0.189,2.07 2.206,3.693 4.592,3.693 1.396,0 2.706,-0.55 3.59,-1.509 l 2.879,-3.12 1.936,3.778 c 1.393,2.723 4.442,4.482 7.769,4.482 4.536,0 8.279,-3.178 8.522,-7.234 l 0.168,-2.784 h 30.164 z m -73.627,-5.923 h 67.703 v -18.565 h -18.973 c -1.67,5.797 -7.317,10.019 -13.958,10.019 -4.31,0 -8.371,-1.839 -11.087,-4.869 -1.541,0.803 -3.287,1.237 -5.086,1.237 -4.503,0 -8.339,-2.607 -9.847,-6.387 h -8.753 v 18.565 z m 29.828,-34.643 c 0,-1.468 -0.918,-3.283 -2.731,-5.395 l -2.247,-2.617 -2.247,2.617 c -1.813,2.111 -2.731,3.927 -2.731,5.395 0,2.744 2.233,4.978 4.979,4.978 2.746,0 4.977,-2.234 4.977,-4.978 z m 4.75,-30.515 v 5.875 h 39.499 v 5.923 h -39.533 c -0.17,1.475 -1.408,2.623 -2.928,2.623 -1.52,0 -2.758,-1.148 -2.928,-2.623 h -0.034 v -0.339 -17.044 -0.339 h 0.034 c 0.17,-1.475 1.408,-2.6220002 2.928,-2.6220002 1.52,0 2.758,1.1470002 2.928,2.6220002 h 39.533 v 5.924 z"
     id="path2"
     inkscape:connector-curvature="0" /></svg>