<?xml version="1.0" encoding="UTF-8" standalone="no"?>
<svg
   xmlns:dc="http://purl.org/dc/elements/1.1/"
   xmlns:cc="http://creativecommons.org/ns#"
   xmlns:rdf="http://www.w3.org/1999/02/22-rdf-syntax-ns#"
   xmlns:svg="http://www.w3.org/2000/svg"
   xmlns="http://www.w3.org/2000/svg"
   xmlns:sodipodi="http://sodipodi.sourceforge.net/DTD/sodipodi-0.dtd"
   xmlns:inkscape="http://www.inkscape.org/namespaces/inkscape"
   version="1.1"
   x="0px"
   y="0px"
   viewBox="0 0 105 105"
   enable-background="new 0 0 100 100"
   xml:space="preserve"
   id="svg82"
   sodipodi:docname="arduino.svg"
   width="105"
   height="105"
   inkscape:version="0.92.3 (2405546, 2018-03-11)"><metadata
     id="metadata88"><rdf:RDF><cc:Work
         rdf:about=""><dc:format>image/svg+xml</dc:format><dc:type
           rdf:resource="http://purl.org/dc/dcmitype/StillImage" /><dc:title></dc:title></cc:Work></rdf:RDF></metadata><defs
     id="defs86" /><sodipodi:namedview
     pagecolor="#ffffff"
     bordercolor="#666666"
     borderopacity="1"
     objecttolerance="10"
     gridtolerance="10"
     guidetolerance="10"
     inkscape:pageopacity="0"
     inkscape:pageshadow="2"
     inkscape:window-width="867"
     inkscape:window-height="480"
     id="namedview84"
     showgrid="false"
     inkscape:zoom="1.888"
     inkscape:cx="51.367766"
     inkscape:cy="62.5"
     inkscape:window-x="0"
     inkscape:window-y="0"
     inkscape:window-maximized="0"
     inkscape:current-layer="svg82" /><g
     id="g4"
     transform="translate(2,2)"><path
       d="M 90,83 H 15 c -1.1,0 -2,-0.9 -2,-2 v -1 c 0,-1.1 0.9,-2 2,-2 0.7,0 1.4,0.4 1.7,1 h 72.4 l 1.8,-1.8 V 37.8 L 88.5,35.4 C 88.2,35 88,34.5 88,34 V 22 H 17 v 6 c 0,1.1 -0.9,2 -2,2 -1.1,0 -2,-0.9 -2,-2 v -8 c 0,-1.1 0.9,-2 2,-2 h 75 c 1.1,0 2,0.9 2,2 v 13.2 l 2.4,2.4 C 94.8,36 95,36.5 95,37 v 41 c 0,0.5 -0.2,1 -0.6,1.4 l -3,3 C 91,82.8 90.5,83 90,83 Z"
       id="path2"
       inkscape:connector-curvature="0" /></g><g
     id="g8"
     transform="translate(2,2)"><path
       d="m 15,65 c -1.1,0 -2,-0.9 -2,-2 V 48 c 0,-1.1 0.9,-2 2,-2 1.1,0 2,0.9 2,2 v 15 c 0,1.1 -0.9,2 -2,2 z"
       id="path6"
       inkscape:connector-curvature="0" /></g><path
     d="M 24.5,47 H 8.5 C 7.7,47 7,46.3 7,45.5 v -11 C 7,33.7 7.7,33 8.5,33 h 16 c 0.8,0 1.5,0.7 1.5,1.5 v 11 c 0,0.8 -0.7,1.5 -1.5,1.5 z"
     id="path10"
     inkscape:connector-curvature="0" /><path
     d="m 27.5,79 h -14 C 12.7,79 12,78.3 12,77.5 v -8 C 12,68.7 12.7,68 13.5,68 h 14 c 0.8,0 1.5,0.7 1.5,1.5 v 8 c 0,0.8 -0.7,1.5 -1.5,1.5 z"
     id="path12"
     inkscape:connector-curvature="0" /><path
     d="m 51,58 c -0.6,0 -1,0.4 -1,1 v 1 h 2 v -1 c 0,-0.6 -0.4,-1 -1,-1 z"
     id="path14"
     inkscape:connector-curvature="0" /><path
     d="m 48,58 c -0.6,0 -1,0.4 -1,1 v 1 h 2 v -1 c 0,-0.6 -0.4,-1 -1,-1 z"
     id="path16"
     inkscape:connector-curvature="0" /><path
     d="m 54,58 c -0.6,0 -1,0.4 -1,1 v 1 h 2 v -1 c 0,-0.6 -0.4,-1 -1,-1 z"
     id="path18"
     inkscape:connector-curvature="0" /><path
     d="m 57,58 c -0.6,0 -1,0.4 -1,1 v 1 h 2 v -1 c 0,-0.6 -0.4,-1 -1,-1 z"
     id="path20"
     inkscape:connector-curvature="0" /><path
     d="m 60,58 c -0.6,0 -1,0.4 -1,1 v 1 h 2 v -1 c 0,-0.6 -0.4,-1 -1,-1 z"
     id="path22"
     inkscape:connector-curvature="0" /><path
     d="m 63,58 c -0.6,0 -1,0.4 -1,1 v 1 h 2 v -1 c 0,-0.6 -0.4,-1 -1,-1 z"
     id="path24"
     inkscape:connector-curvature="0" /><path
     d="m 66,58 c -0.6,0 -1,0.4 -1,1 v 1 h 2 v -1 c 0,-0.6 -0.4,-1 -1,-1 z"
     id="path26"
     inkscape:connector-curvature="0" /><path
     d="m 69,58 c -0.6,0 -1,0.4 -1,1 v 1 h 2 v -1 c 0,-0.6 -0.4,-1 -1,-1 z"
     id="path28"
     inkscape:connector-curvature="0" /><path
     d="m 72,58 c -0.6,0 -1,0.4 -1,1 v 1 h 2 v -1 c 0,-0.6 -0.4,-1 -1,-1 z"
     id="path30"
     inkscape:connector-curvature="0" /><path
     d="m 75,58 c -0.6,0 -1,0.4 -1,1 v 1 h 2 v -1 c 0,-0.6 -0.4,-1 -1,-1 z"
     id="path32"
     inkscape:connector-curvature="0" /><path
     d="m 78,58 c -0.6,0 -1,0.4 -1,1 v 1 h 2 v -1 c 0,-0.6 -0.4,-1 -1,-1 z"
     id="path34"
     inkscape:connector-curvature="0" /><path
     d="m 81,58 c -0.6,0 -1,0.4 -1,1 v 1 h 2 v -1 c 0,-0.6 -0.4,-1 -1,-1 z"
     id="path36"
     inkscape:connector-curvature="0" /><path
     d="m 84,58 c -0.6,0 -1,0.4 -1,1 v 1 h 2 v -1 c 0,-0.6 -0.4,-1 -1,-1 z"
     id="path38"
     inkscape:connector-curvature="0" /><path
     d="m 87,58 c -0.6,0 -1,0.4 -1,1 v 1 h 2 v -1 c 0,-0.6 -0.4,-1 -1,-1 z"
     id="path40"
     inkscape:connector-curvature="0" /><path
     d="m 84,73 c 0.6,0 1,-0.4 1,-1 v -1 h -2 v 1 c 0,0.6 0.4,1 1,1 z"
     id="path42"
     inkscape:connector-curvature="0" /><path
     d="m 87,73 c 0.6,0 1,-0.4 1,-1 v -1 h -2 v 1 c 0,0.6 0.4,1 1,1 z"
     id="path44"
     inkscape:connector-curvature="0" /><path
     d="m 81,73 c 0.6,0 1,-0.4 1,-1 v -1 h -2 v 1 c 0,0.6 0.4,1 1,1 z"
     id="path46"
     inkscape:connector-curvature="0" /><path
     d="m 78,73 c 0.6,0 1,-0.4 1,-1 v -1 h -2 v 1 c 0,0.6 0.4,1 1,1 z"
     id="path48"
     inkscape:connector-curvature="0" /><path
     d="m 75,73 c 0.6,0 1,-0.4 1,-1 v -1 h -2 v 1 c 0,0.6 0.4,1 1,1 z"
     id="path50"
     inkscape:connector-curvature="0" /><path
     d="m 72,73 c 0.6,0 1,-0.4 1,-1 v -1 h -2 v 1 c 0,0.6 0.4,1 1,1 z"
     id="path52"
     inkscape:connector-curvature="0" /><path
     d="m 69,73 c 0.6,0 1,-0.4 1,-1 v -1 h -2 v 1 c 0,0.6 0.4,1 1,1 z"
     id="path54"
     inkscape:connector-curvature="0" /><path
     d="m 66,73 c 0.6,0 1,-0.4 1,-1 v -1 h -2 v 1 c 0,0.6 0.4,1 1,1 z"
     id="path56"
     inkscape:connector-curvature="0" /><path
     d="m 63,73 c 0.6,0 1,-0.4 1,-1 v -1 h -2 v 1 c 0,0.6 0.4,1 1,1 z"
     id="path58"
     inkscape:connector-curvature="0" /><path
     d="m 60,73 c 0.6,0 1,-0.4 1,-1 v -1 h -2 v 1 c 0,0.6 0.4,1 1,1 z"
     id="path60"
     inkscape:connector-curvature="0" /><path
     d="m 57,73 c 0.6,0 1,-0.4 1,-1 v -1 h -2 v 1 c 0,0.6 0.4,1 1,1 z"
     id="path62"
     inkscape:connector-curvature="0" /><path
     d="m 54,73 c 0.6,0 1,-0.4 1,-1 v -1 h -2 v 1 c 0,0.6 0.4,1 1,1 z"
     id="path64"
     inkscape:connector-curvature="0" /><path
     d="m 51,73 c 0.6,0 1,-0.4 1,-1 v -1 h -2 v 1 c 0,0.6 0.4,1 1,1 z"
     id="path66"
     inkscape:connector-curvature="0" /><path
     d="m 48,73 c 0.6,0 1,-0.4 1,-1 v -1 h -2 v 1 c 0,0.6 0.4,1 1,1 z"
     id="path68"
     inkscape:connector-curvature="0" /><path
     d="M 89,61 H 46 c -0.6,0 -1,0.4 -1,1 v 7 c 0,0.6 0.4,1 1,1 h 43 c 0.6,0 1,-0.4 1,-1 v -7 c 0,-0.6 -0.4,-1 -1,-1 z m 0,6.5 c -1.1,0 -2,-0.9 -2,-2 0,-1.1 0.9,-2 2,-2 z"
     id="path70"
     inkscape:connector-curvature="0" /><path
     d="m 37.2,40.1 c 0,8.7 12,12 17.9,3.1 6.1,9.2 17.6,5.3 17.6,-3.1 C 72.7,31.7 61.3,27.6 55.1,37 49.3,27.7 37.2,31.4 37.2,40.1 Z m 3.2,0 c 0,-6.3 8.9,-8.3 13,0 -4.2,7.9 -13,6.3 -13,0 z m 16.5,0 c 3.7,-8.4 12.9,-6.1 12.8,0 0,6.1 -9.2,8 -12.8,0 z"
     id="path72"
     inkscape:connector-curvature="0"
     style="clip-rule:evenodd;fill-rule:evenodd" /><rect
     x="43.700001"
     y="39.200001"
     width="5.3000002"
     height="1.7"
     id="rect74"
     style="clip-rule:evenodd;fill-rule:evenodd" /><polygon
     points="62.7,40.6 60.9,40.6 60.9,38.9 59.1,38.9 59.1,37.1 60.9,37.1 60.9,35.3 62.7,35.3 62.7,37.1 64.4,37.1 64.4,38.9 62.7,38.9 "
     id="polygon76"
     style="clip-rule:evenodd;fill-rule:evenodd"
     transform="translate(2,2)" /></svg>