<?xml version="1.0" encoding="UTF-8" standalone="no"?>
<svg
   xmlns:dc="http://purl.org/dc/elements/1.1/"
   xmlns:cc="http://creativecommons.org/ns#"
   xmlns:rdf="http://www.w3.org/1999/02/22-rdf-syntax-ns#"
   xmlns:svg="http://www.w3.org/2000/svg"
   xmlns="http://www.w3.org/2000/svg"
   xmlns:sodipodi="http://sodipodi.sourceforge.net/DTD/sodipodi-0.dtd"
   xmlns:inkscape="http://www.inkscape.org/namespaces/inkscape"
   version="1.1"
   x="0px"
   y="0px"
   viewBox="0 0 100 100"
   enable-background="new 0 0 100 100"
   xml:space="preserve"
   id="svg10"
   sodipodi:docname="audio-input.svg"
   width="100"
   height="100"
   inkscape:version="0.92.3 (2405546, 2018-03-11)"><metadata
     id="metadata16"><rdf:RDF><cc:Work
         rdf:about=""><dc:format>image/svg+xml</dc:format><dc:type
           rdf:resource="http://purl.org/dc/dcmitype/StillImage" /><dc:title></dc:title></cc:Work></rdf:RDF></metadata><defs
     id="defs14" /><sodipodi:namedview
     pagecolor="#ffffff"
     bordercolor="#666666"
     borderopacity="1"
     objecttolerance="10"
     gridtolerance="10"
     guidetolerance="10"
     inkscape:pageopacity="0"
     inkscape:pageshadow="2"
     inkscape:window-width="1339"
     inkscape:window-height="722"
     id="namedview12"
     showgrid="false"
     inkscape:zoom="1.888"
     inkscape:cx="50"
     inkscape:cy="62.5"
     inkscape:window-x="0"
     inkscape:window-y="27"
     inkscape:window-maximized="0"
     inkscape:current-layer="svg10" /><path
     d="m 75,4.8940678 c -4.6,0 -8.9,1.6 -12.2,4.2 l -1,-1 -3.5,3.5000002 1,1 c -2.7,3.4 -4.3,7.7 -4.3,12.3 0,0.8 0.1,1.6 0.2,2.4 l -37.5,41.4 -2.5,12.4 -9.5,9.5 c -1,1 -1,2.6 0,3.5 0.5,0.6 1.2,0.8 1.8,0.8 0.6,0 1.3,-0.2 1.8,-0.7 l 9.5,-9.5 12.4,-2.5 41.4,-37.5 c 0.8,0.1 1.6,0.2 2.4,0.2 4.6,0 8.9,-1.6 12.2,-4.2 l 1,1 3.5,-3.5 -1,-1 c 2.7,-3.4 4.3,-7.7 4.3,-12.3 0,-11 -9,-20.0000002 -20,-20.0000002 z m -54.3,74.3000002 0.8,-4.2 3.4,3.4 z m 9.4,-2.7 -6.6,-6.6 33.3,-36.8 c 2,4.5 5.6,8.1 10.1,10.1 z m 44.9,-36.6 c -8.3,0 -15,-6.7 -15,-15 0,-3.2 1,-6.2 2.8,-8.7 l 4.8,4.8 11.3,11.3 4.8,4.8 c -2.5,1.8 -5.5,2.8 -8.7,2.8 z m 12.2,-6.3 -1.1,-1.1 -18.7,-18.7 -1.1,-1.1 c 2.5,-1.8 5.5,-2.8000002 8.7,-2.8000002 8.3,0 15,6.7000002 15,15.0000002 0,3.2 -1,6.2 -2.8,8.7 z"
     id="path2"
     inkscape:connector-curvature="0" /><rect
     x="-73.136246"
     y="0.1099777"
     transform="rotate(-135)"
     width="4.9999518"
     height="7.0999317"
     id="rect4"
     style="stroke-width:0.9999904" /></svg>