<?xml version="1.0" encoding="UTF-8" standalone="no"?>
<svg
   xmlns:dc="http://purl.org/dc/elements/1.1/"
   xmlns:cc="http://creativecommons.org/ns#"
   xmlns:rdf="http://www.w3.org/1999/02/22-rdf-syntax-ns#"
   xmlns:svg="http://www.w3.org/2000/svg"
   xmlns="http://www.w3.org/2000/svg"
   xmlns:sodipodi="http://sodipodi.sourceforge.net/DTD/sodipodi-0.dtd"
   xmlns:inkscape="http://www.inkscape.org/namespaces/inkscape"
   version="1.1"
   x="0px"
   y="0px"
   viewBox="0 0 110 110"
   enable-background="new 0 0 75 100"
   xml:space="preserve"
   id="svg14"
   sodipodi:docname="audio-output.svg"
   width="100"
   height="100"
   inkscape:version="0.92.3 (2405546, 2018-03-11)"
   inkscape:export-filename="/home/ed/Aloes/aloes-client/public/icons/aloes/audio-output-white.png"
   inkscape:export-xdpi="649"
   inkscape:export-ydpi="649"><metadata
     id="metadata20"><rdf:RDF><cc:Work
         rdf:about=""><dc:format>image/svg+xml</dc:format><dc:type
           rdf:resource="http://purl.org/dc/dcmitype/StillImage" /><dc:title></dc:title></cc:Work></rdf:RDF></metadata><defs
     id="defs18" /><sodipodi:namedview
     pagecolor="#ffffff"
     bordercolor="#666666"
     borderopacity="1"
     objecttolerance="10"
     gridtolerance="10"
     guidetolerance="10"
     inkscape:pageopacity="0"
     inkscape:pageshadow="2"
     inkscape:window-width="1403"
     inkscape:window-height="765"
     id="namedview16"
     showgrid="false"
     inkscape:zoom="1.888"
     inkscape:cx="32.733051"
     inkscape:cy="41.84322"
     inkscape:window-x="0"
     inkscape:window-y="27"
     inkscape:window-maximized="0"
     inkscape:current-layer="svg14" /><path
     d="m 85.529661,5.0317797 h -62.5 c -3.452,0 -6.25,2.798 -6.25,6.2500003 v 87.5 c 0,3.451 2.798,6.25 6.25,6.25 h 62.5 c 3.451,0 6.25,-2.799 6.25,-6.25 v -87.5 c 0,-3.4520003 -2.799,-6.2500003 -6.25,-6.2500003 z m 0,88.5420003 c 0,3.452 -1.758,5.208 -5.208,5.208 h -52.084 c -3.452,0 -5.208,-1.756 -5.208,-5.208 v -77.084 c 0,-3.452 1.756,-5.208 5.208,-5.208 h 52.084 c 3.45,0 5.208,1.756 5.208,5.208 z"
     id="path2"
     inkscape:connector-curvature="0"
     style="fill:#010101" /><path
     d="m 54.279661,48.78178 c -12.081,0 -21.876,9.793 -21.876,21.875 0,12.082 9.795,21.875 21.876,21.875 12.081,0 21.875,-9.794 21.875,-21.875 0,-12.081 -9.794,-21.875 -21.875,-21.875 z m 0,41.666 c -10.931,0 -19.792,-8.86 -19.792,-19.791 0,-10.932 8.861,-19.792 19.792,-19.792 10.93,0 19.792,8.86 19.792,19.792 0,10.931 -8.862,19.791 -19.792,19.791 z"
     id="path4"
     inkscape:connector-curvature="0"
     style="fill:#010101" /><path
     d="m 54.279661,64.30578 c 3.508,0 6.351,2.843 6.351,6.351 0,3.508 -2.843,6.351 -6.351,6.351 -3.507,0 -6.352,-2.843 -6.352,-6.351 0,-3.508 2.845,-6.351 6.352,-6.351 z"
     id="path6"
     inkscape:connector-curvature="0"
     style="fill:#010101" /><path
     d="m 54.279661,19.60978 c -5.756,0 -10.422,4.666 -10.422,10.422 0,5.756 4.666,10.421 10.422,10.421 5.755,0 10.422,-4.666 10.422,-10.422 0,-5.756 -4.667,-10.421 -10.422,-10.421 z m 0,18.759 c -4.604,0 -8.338,-3.733 -8.338,-8.338 0,-4.604 3.733,-8.338 8.338,-8.338 4.605,0 8.337,3.733 8.337,8.338 0,4.605 -3.733,8.338 -8.337,8.338 z"
     id="path8"
     inkscape:connector-curvature="0"
     style="fill:#010101" /></svg>