<?xml version="1.0" encoding="UTF-8" standalone="no"?>
<svg
   xmlns:dc="http://purl.org/dc/elements/1.1/"
   xmlns:cc="http://creativecommons.org/ns#"
   xmlns:rdf="http://www.w3.org/1999/02/22-rdf-syntax-ns#"
   xmlns:svg="http://www.w3.org/2000/svg"
   xmlns="http://www.w3.org/2000/svg"
   xmlns:sodipodi="http://sodipodi.sourceforge.net/DTD/sodipodi-0.dtd"
   xmlns:inkscape="http://www.inkscape.org/namespaces/inkscape"
   version="1.1"
   x="0px"
   y="0px"
   viewBox="0 0 100 100"
   id="svg10"
   sodipodi:docname="browser.svg"
   width="100"
   height="100"
   inkscape:version="0.92.3 (2405546, 2018-03-11)">
  <metadata
     id="metadata16">
    <rdf:RDF>
      <cc:Work
         rdf:about="">
        <dc:format>image/svg+xml</dc:format>
        <dc:type
           rdf:resource="http://purl.org/dc/dcmitype/StillImage" />
        <dc:title></dc:title>
      </cc:Work>
    </rdf:RDF>
  </metadata>
  <defs
     id="defs14" />
  <sodipodi:namedview
     pagecolor="#ffffff"
     bordercolor="#666666"
     borderopacity="1"
     objecttolerance="10"
     gridtolerance="10"
     guidetolerance="10"
     inkscape:pageopacity="0"
     inkscape:pageshadow="2"
     inkscape:window-width="1920"
     inkscape:window-height="1025"
     id="namedview12"
     showgrid="false"
     inkscape:zoom="1.888"
     inkscape:cx="50"
     inkscape:cy="62.5"
     inkscape:window-x="0"
     inkscape:window-y="27"
     inkscape:window-maximized="1"
     inkscape:current-layer="svg10" />
  <g
     transform="translate(0.52966102,-952.87913)"
     id="g4">
    <path
       style="color:#000000;text-indent:0;text-transform:none;direction:ltr;baseline-shift:baseline;display:inline;overflow:visible;visibility:visible;fill:#000000;fill-opacity:1;stroke:none;enable-background:accumulate"
       d="m 50,959.36215 c -23.71267,0 -43.0000002,19.28734 -43.0000002,43.00005 0,23.7127 19.2873302,43 43.0000002,43 23.71266,0 43,-19.2873 43,-43 0,-23.71271 -19.28734,-43.00005 -43,-43.00005 z m -3,6.5 V 979.3309 H 36.59375 C 39.03058,972.46382 42.58451,967.43467 47,965.86215 Z m 6,0 c 4.41549,1.57252 7.96942,6.60167 10.40625,13.46875 H 53 Z m -16.84375,2.1875 c -2.19812,3.10842 -4.07807,6.92295 -5.5625,11.28125 h -9.5625 c 3.9487,-4.96621 9.14457,-8.8728 15.125,-11.28125 z m 27.6875,0 c 5.98043,2.40845 11.17631,6.31504 15.125,11.28125 h -9.5625 c -1.48443,-4.3583 -3.36438,-8.17283 -5.5625,-11.28125 z M 17.15625,985.3309 H 28.875 c -1.00559,4.34015 -1.6263,9.06619 -1.8125,14 H 13.125 c 0.40577,-5.01733 1.83046,-9.7527 4.03125,-14 z m 17.6875,0 H 47 v 14 H 33.0625 c 0.18021,-4.91204 0.78405,-9.67995 1.78125,-14 z m 18.15625,0 h 12.15625 c 0.9972,4.32005 1.60104,9.08796 1.78125,14 H 53 Z m 18.125,0 h 11.71875 c 2.20079,4.2473 3.62548,8.98267 4.03125,14 H 72.9375 c -0.1862,-4.93381 -0.80691,-9.65985 -1.8125,-14 z m -58,20 h 13.9375 c 0.18086,4.9446 0.80855,9.6522 1.8125,14 h -11.75 c -2.19139,-4.2489 -3.60278,-8.9839 -4,-14 z m 19.9375,0 H 47 v 14 H 34.84375 c -0.99568,-4.3228 -1.60314,-9.0862 -1.78125,-14 z m 19.9375,0 h 13.9375 c -0.17811,4.9138 -0.78557,9.6772 -1.78125,14 H 53 Z m 19.9375,0 H 86.875 c -0.39722,5.0161 -1.80861,9.7511 -4,14 h -11.75 c 1.00395,-4.3478 1.63164,-9.0554 1.8125,-14 z m -51.9375,20 h 9.5625 c 1.48776,4.3812 3.38461,8.2244 5.59375,11.3438 C 30.15897,1034.2594 24.95274,1030.317 21,1025.3309 Z m 15.5625,0 H 47 v 13.5 c -4.42326,-1.5753 -8.00042,-6.6143 -10.4375,-13.5 z m 16.4375,0 h 10.4375 c -2.43708,6.8857 -6.01424,11.9247 -10.4375,13.5 z m 16.4375,0 H 79 c -3.95274,4.9861 -9.15898,8.9285 -15.15625,11.3438 2.20914,-3.1194 4.10599,-6.9626 5.59375,-11.3438 z"
       marker="none"
       visibility="visible"
       display="inline"
       overflow="visible"
       id="path2"
       inkscape:connector-curvature="0" />
  </g>
</svg>
