<?xml version="1.0" encoding="UTF-8" standalone="no"?>
<svg
   xmlns:dc="http://purl.org/dc/elements/1.1/"
   xmlns:cc="http://creativecommons.org/ns#"
   xmlns:rdf="http://www.w3.org/1999/02/22-rdf-syntax-ns#"
   xmlns:svg="http://www.w3.org/2000/svg"
   xmlns="http://www.w3.org/2000/svg"
   xmlns:sodipodi="http://sodipodi.sourceforge.net/DTD/sodipodi-0.dtd"
   xmlns:inkscape="http://www.inkscape.org/namespaces/inkscape"
   version="1.1"
   x="0px"
   y="0px"
   viewBox="0 0 100 100"
   id="svg10"
   sodipodi:docname="camera.svg"
   width="100"
   height="100"
   inkscape:version="0.92.3 (2405546, 2018-03-11)">
  <metadata
     id="metadata16">
    <rdf:RDF>
      <cc:Work
         rdf:about="">
        <dc:format>image/svg+xml</dc:format>
        <dc:type
           rdf:resource="http://purl.org/dc/dcmitype/StillImage" />
        <dc:title></dc:title>
      </cc:Work>
    </rdf:RDF>
  </metadata>
  <defs
     id="defs14" />
  <sodipodi:namedview
     pagecolor="#ffffff"
     bordercolor="#666666"
     borderopacity="1"
     objecttolerance="10"
     gridtolerance="10"
     guidetolerance="10"
     inkscape:pageopacity="0"
     inkscape:pageshadow="2"
     inkscape:window-width="867"
     inkscape:window-height="480"
     id="namedview12"
     showgrid="false"
     inkscape:zoom="1.888"
     inkscape:cx="50"
     inkscape:cy="62.5"
     inkscape:window-x="0"
     inkscape:window-y="0"
     inkscape:window-maximized="0"
     inkscape:current-layer="svg10" />
  <g
     transform="translate(0,-953.36218)"
     id="g4">
    <path
       style="color:#000000;text-indent:0;text-transform:none;direction:ltr;baseline-shift:baseline;display:inline;overflow:visible;visibility:visible;fill:#000000;fill-opacity:1;stroke:none;enable-background:accumulate"
       d="m 24,967.36215 c -4.9341,0 -9,4.0659 -9,9 v 52.00005 c 0,4.9341 4.0659,9 9,9 h 52 c 4.9341,0 9,-4.0659 9,-9 v -52.00005 c 0,-4.9341 -4.0659,-9 -9,-9 z m 0,6 h 52 c 1.7139,0 3,1.2861 3,3 v 22.99996 H 66.7188 C 65.2861,991.43501 58.325,985.36215 50,985.36215 c -8.325,0 -15.2861,6.07286 -16.7188,13.99996 H 21 v -22.99996 c 0,-1.7139 1.2861,-3 3,-3 z m 46,6 c -2.2092,0 -4,1.7908 -4,4 0,2.2091 1.7908,4 4,4 2.2091,0 4,-1.7909 4,-4 0,-2.2092 -1.7909,-4 -4,-4 z m -20,11.99996 c 6.1107,0 11,4.8894 11,10.99999 0,6.1106 -4.8893,11 -11,11 -6.1107,0 -11,-4.8894 -11,-11 0,-6.11059 4.8893,-10.99999 11,-10.99999 z m -29,13.99999 h 12.2812 c 1.4204,7.9419 8.3832,14.0001 16.7188,14.0001 8.3356,0 15.2984,-6.0582 16.7188,-14.0001 H 79 v 23.0001 c 0,1.7139 -1.2861,3 -3,3 H 24 c -1.7139,0 -3,-1.2861 -3,-3 z"
       marker="none"
       visibility="visible"
       display="inline"
       overflow="visible"
       id="path2"
       inkscape:connector-curvature="0" />
  </g>
</svg>
