<?xml version="1.0" encoding="UTF-8" standalone="no"?>
<svg
   xmlns:ns="http://ns.adobe.com/SaveForWeb/1.0/"
   xmlns:dc="http://purl.org/dc/elements/1.1/"
   xmlns:cc="http://creativecommons.org/ns#"
   xmlns:rdf="http://www.w3.org/1999/02/22-rdf-syntax-ns#"
   xmlns:svg="http://www.w3.org/2000/svg"
   xmlns="http://www.w3.org/2000/svg"
   xmlns:sodipodi="http://sodipodi.sourceforge.net/DTD/sodipodi-0.dtd"
   xmlns:inkscape="http://www.inkscape.org/namespaces/inkscape"
   version="1.1"
   x="0px"
   y="0px"
   viewBox="0 0 58 58"
   enable-background="new 0 0 64 64"
   xml:space="preserve"
   id="svg20"
   sodipodi:docname="camera.svg"
   width="100"
   height="100"
   inkscape:version="0.92.3 (2405546, 2018-03-11)"><defs
     id="defs24" /><sodipodi:namedview
     pagecolor="#ffffff"
     bordercolor="#666666"
     borderopacity="1"
     objecttolerance="10"
     gridtolerance="10"
     guidetolerance="10"
     inkscape:pageopacity="0"
     inkscape:pageshadow="2"
     inkscape:window-width="1433"
     inkscape:window-height="770"
     id="namedview22"
     showgrid="false"
     scale-x="0.58"
     inkscape:zoom="2.95"
     inkscape:cx="32"
     inkscape:cy="40"
     inkscape:window-x="0"
     inkscape:window-y="27"
     inkscape:window-maximized="0"
     inkscape:current-layer="svg20" /><metadata
     id="metadata2"><ns:sfw><ns:slices /><ns:sliceSourceBounds
         height="16384"
         width="16389"
         x="-8165"
         y="-8160"
         bottomLeftOrigin="true" /></ns:sfw><rdf:RDF><cc:Work
         rdf:about=""><dc:format>image/svg+xml</dc:format><dc:type
           rdf:resource="http://purl.org/dc/dcmitype/StillImage" /><dc:title></dc:title></cc:Work></rdf:RDF></metadata><g
     id="g14"
     transform="translate(-2.9898305,-2.7728814)"><g
       id="g12"><path
         d="m 30,21 c -8.271,0 -15,6.729 -15,15 0,8.271 6.729,15 15,15 8.271,0 15,-6.729 15,-15 0,-8.271 -6.729,-15 -15,-15 z m 0,28 c -7.168,0 -13,-5.832 -13,-13 0,-7.168 5.832,-13 13,-13 7.168,0 13,5.832 13,13 0,7.168 -5.832,13 -13,13 z"
         id="path4"
         inkscape:connector-curvature="0" /><path
         d="m 30,27 c -4.962,0 -9,4.038 -9,9 0,4.963 4.038,9 9,9 4.963,0 9,-4.037 9,-9 0,-4.962 -4.037,-9 -9,-9 z m 0,16 c -3.86,0 -7,-3.141 -7,-7 0,-3.86 3.14,-7 7,-7 3.859,0 7,3.14 7,7 0,3.859 -3.141,7 -7,7 z"
         id="path6"
         inkscape:connector-curvature="0" /><path
         d="M 52,15 H 43 V 12 C 43,9.243 40.757,7 38,7 H 26 c -2.757,0 -5,2.243 -5,5 v 3 h -9 c -2.757,0 -5,2.243 -5,5 v 32 c 0,2.757 2.243,5 5,5 h 40 c 2.757,0 5,-2.243 5,-5 V 20 c 0,-2.757 -2.243,-5 -5,-5 z M 23,12 c 0,-1.654 1.346,-3 3,-3 h 12 c 1.654,0 3,1.346 3,3 v 3 H 23 Z m 32,40 c 0,1.654 -1.346,3 -3,3 H 12 C 10.346,55 9,53.654 9,52 V 20 c 0,-1.654 1.346,-3 3,-3 h 40 c 1.654,0 3,1.346 3,3 z"
         id="path8"
         inkscape:connector-curvature="0" /><circle
         cx="48"
         cy="24"
         r="2"
         id="circle10" /></g></g></svg>