<?xml version="1.0" encoding="UTF-8" standalone="no"?>
<svg
   xmlns:dc="http://purl.org/dc/elements/1.1/"
   xmlns:cc="http://creativecommons.org/ns#"
   xmlns:rdf="http://www.w3.org/1999/02/22-rdf-syntax-ns#"
   xmlns:svg="http://www.w3.org/2000/svg"
   xmlns="http://www.w3.org/2000/svg"
   xmlns:sodipodi="http://sodipodi.sourceforge.net/DTD/sodipodi-0.dtd"
   xmlns:inkscape="http://www.inkscape.org/namespaces/inkscape"
   version="1.1"
   x="0px"
   y="0px"
   viewBox="0 0 95 118.75"
   enable-background="new 0 0 95 95"
   xml:space="preserve"
   id="svg16"
   sodipodi:docname="clock.svg"
   inkscape:version="0.92.3 (2405546, 2018-03-11)"><metadata
     id="metadata22"><rdf:RDF><cc:Work
         rdf:about=""><dc:format>image/svg+xml</dc:format><dc:type
           rdf:resource="http://purl.org/dc/dcmitype/StillImage" /></cc:Work></rdf:RDF></metadata><defs
     id="defs20" /><sodipodi:namedview
     pagecolor="#ffffff"
     bordercolor="#666666"
     borderopacity="1"
     objecttolerance="10"
     gridtolerance="10"
     guidetolerance="10"
     inkscape:pageopacity="0"
     inkscape:pageshadow="2"
     inkscape:window-width="867"
     inkscape:window-height="480"
     id="namedview18"
     showgrid="false"
     inkscape:zoom="1.9873684"
     inkscape:cx="47.5"
     inkscape:cy="59.375"
     inkscape:window-x="0"
     inkscape:window-y="27"
     inkscape:window-maximized="0"
     inkscape:current-layer="svg16" /><g
     id="g10"
     inkscape:export-xdpi="649.51172"
     inkscape:export-ydpi="649.51172"
     style="fill:#f9f9f9"><g
       id="g4"
       style="fill:#f9f9f9"><path
         d="m 47.5,53.011 c -3.039,0 -5.512,-2.473 -5.512,-5.512 0,-1.703 0.781,-3.283 2.111,-4.325 L 44.822,22.68 c 0,-1.618 1.201,-2.964 2.678,-2.964 1.477,0 2.68,1.346 2.68,2.999 l 0.721,20.46 c 0.361,0.284 0.684,0.612 0.965,0.98 l 14.084,0.667 h 0.002 c 1.322,0 2.438,1.201 2.438,2.678 0,1.478 -1.115,2.679 -2.486,2.679 l -14.037,0.667 c -1.043,1.365 -2.638,2.165 -4.367,2.165 z m 0,-31.295 c -0.32,0 -0.678,0.41 -0.678,0.999 l -0.76,21.548 -0.441,0.283 c -1.021,0.651 -1.633,1.755 -1.633,2.953 0,1.937 1.576,3.512 3.512,3.512 1.213,0 2.324,-0.624 2.975,-1.669 l 0.277,-0.446 15.104,-0.716 c 0.305,-10e-4 0.533,-0.318 0.533,-0.68 0,-0.362 -0.229,-0.679 -0.486,-0.679 l -15.15,-0.717 -0.277,-0.446 c -0.283,-0.456 -0.65,-0.83 -1.094,-1.112 L 48.939,44.263 48.18,22.75 c 0,-0.624 -0.358,-1.034 -0.68,-1.034 z"
         id="path2"
         inkscape:connector-curvature="0"
         style="fill:#f9f9f9" /></g><g
       id="g8"
       style="fill:#f9f9f9"><path
         d="M 47.5,91.841 C 23.051,91.841 3.158,71.949 3.158,47.5 3.158,23.05 23.051,3.159 47.5,3.159 c 24.449,0 44.342,19.891 44.342,44.341 0,24.449 -19.893,44.341 -44.342,44.341 z m 0,-86.682 C 24.152,5.159 5.158,24.153 5.158,47.5 5.158,70.847 24.152,89.841 47.5,89.841 70.848,89.841 89.842,70.847 89.842,47.5 89.842,24.153 70.848,5.159 47.5,5.159 Z M 46.627,85.701 45.576,85.648 C 39.92,85.366 34.521,83.867 29.529,81.193 l -0.91,-0.487 1.807,-3.13 c 0.043,-0.074 0.037,-0.145 0.025,-0.19 -0.014,-0.046 -0.043,-0.108 -0.117,-0.151 -0.039,-0.023 -0.082,-0.034 -0.125,-0.034 -0.033,0 -0.15,0.009 -0.219,0.125 l -1.805,3.127 -0.879,-0.549 C 22.392,76.83 18.169,72.607 15.097,67.693 l -0.551,-0.878 3.129,-1.807 c 0.119,-0.068 0.16,-0.223 0.092,-0.342 -0.068,-0.116 -0.184,-0.125 -0.219,-0.125 -0.043,0 -0.086,0.011 -0.123,0.033 l -3.133,1.809 -0.486,-0.91 C 11.206,60.619 9.718,55.365 9.382,49.853 L 9.318,48.792 h 6.098 c 0.598,0 1.084,-0.486 1.084,-1.083 0,-0.598 -0.486,-1.083 -1.084,-1.083 H 9.299 l 0.053,-1.05 c 0.281,-5.655 1.781,-11.055 4.455,-16.049 l 0.488,-0.91 3.129,1.809 c 0.039,0.021 0.08,0.033 0.125,0.033 0.033,0 0.15,-0.01 0.217,-0.125 0.043,-0.075 0.039,-0.146 0.025,-0.19 -0.012,-0.046 -0.041,-0.109 -0.115,-0.152 l -3.129,-1.806 0.551,-0.878 c 3.072,-4.914 7.295,-9.137 12.211,-12.211 l 0.879,-0.549 1.805,3.127 c 0.066,0.116 0.184,0.125 0.217,0.125 0.045,0 0.086,-0.012 0.125,-0.033 0.074,-0.044 0.104,-0.106 0.117,-0.152 0.012,-0.046 0.018,-0.116 -0.025,-0.19 l -1.807,-3.13 0.91,-0.487 C 34.384,11.208 39.637,9.72 45.149,9.384 L 46.21,9.319 v 6.098 c 0,0.598 0.484,1.083 1.082,1.083 0.598,0 1.084,-0.485 1.084,-1.083 V 9.3 l 1.049,0.053 c 5.656,0.281 11.055,1.78 16.049,4.455 l 0.91,0.487 -1.807,3.13 c -0.043,0.074 -0.039,0.144 -0.025,0.189 0.012,0.046 0.041,0.109 0.117,0.152 0.039,0.022 0.08,0.034 0.123,0.034 0.035,0 0.15,-0.01 0.219,-0.126 l 1.803,-3.127 0.879,0.549 c 4.916,3.074 9.139,7.296 12.211,12.211 l 0.551,0.878 -3.127,1.806 c -0.121,0.069 -0.162,0.223 -0.092,0.343 0.066,0.115 0.184,0.124 0.217,0.124 0.043,0 0.086,-0.011 0.125,-0.034 l 3.131,-1.807 0.486,0.91 c 2.6,4.853 4.088,10.107 4.426,15.619 l 0.064,1.062 h -6.1 c -0.598,0 -1.082,0.485 -1.082,1.083 0,0.597 0.484,1.083 1.082,1.083 h 6.117 l -0.053,1.05 c -0.281,5.655 -1.781,11.055 -4.455,16.049 l -0.486,0.91 -3.131,-1.807 c -0.039,-0.023 -0.082,-0.034 -0.125,-0.034 -0.033,0 -0.15,0.009 -0.217,0.126 -0.043,0.073 -0.039,0.144 -0.025,0.188 0.012,0.046 0.041,0.109 0.117,0.152 l 3.127,1.805 -0.549,0.879 c -3.074,4.915 -7.297,9.138 -12.213,12.211 l -0.879,0.549 -1.805,-3.127 c -0.066,-0.116 -0.184,-0.126 -0.217,-0.126 -0.043,0 -0.086,0.012 -0.125,0.034 -0.074,0.043 -0.104,0.106 -0.115,0.151 -0.014,0.046 -0.018,0.115 0.025,0.189 l 1.807,3.131 -0.91,0.487 c -4.854,2.6 -10.107,4.088 -15.619,4.425 l -1.061,0.065 v -6.1 c 0,-0.597 -0.486,-1.083 -1.084,-1.083 -0.598,0 -1.082,0.486 -1.082,1.083 z M 31.391,79.905 c 4.158,2.08 8.602,3.314 13.236,3.679 v -4.001 c 0,-1.7 1.383,-3.083 3.082,-3.083 1.701,0 3.084,1.383 3.084,3.083 v 3.958 c 4.492,-0.404 8.795,-1.625 12.818,-3.637 l -0.768,-1.329 c -0.301,-0.521 -0.381,-1.127 -0.225,-1.708 0.154,-0.58 0.527,-1.065 1.047,-1.365 1.041,-0.601 2.479,-0.212 3.074,0.823 l 0.762,1.319 c 4,-2.665 7.479,-6.142 10.145,-10.142 l -1.32,-0.762 c -0.521,-0.301 -0.895,-0.786 -1.049,-1.367 -0.156,-0.581 -0.076,-1.188 0.225,-1.707 0.598,-1.034 2.035,-1.423 3.074,-0.823 l 1.33,0.768 c 2.08,-4.16 3.314,-8.604 3.678,-13.237 h -4 c -1.699,0 -3.082,-1.383 -3.082,-3.083 0,-1.7 1.383,-3.083 3.082,-3.083 h 3.959 C 83.137,39.715 81.916,35.412 79.906,31.389 l -1.33,0.768 c -1.039,0.6 -2.477,0.212 -3.074,-0.822 -0.301,-0.522 -0.381,-1.129 -0.225,-1.709 0.154,-0.581 0.527,-1.066 1.049,-1.366 l 1.318,-0.762 C 74.98,23.499 71.501,20.021 67.501,17.356 l -0.76,1.318 c -0.598,1.036 -2.037,1.426 -3.076,0.824 -0.52,-0.3 -0.893,-0.785 -1.047,-1.365 -0.156,-0.581 -0.076,-1.188 0.225,-1.708 l 0.768,-1.329 c -4.158,-2.08 -8.604,-3.315 -13.236,-3.679 v 3.998 c 0,1.7 -1.383,3.083 -3.084,3.083 -1.699,0 -3.082,-1.383 -3.082,-3.083 v -3.956 c -4.492,0.404 -8.795,1.624 -12.818,3.636 l 0.768,1.33 c 0.299,0.521 0.379,1.127 0.225,1.707 -0.156,0.581 -0.529,1.066 -1.049,1.366 -1.037,0.6 -2.477,0.212 -3.074,-0.823 l -0.762,-1.32 c -4,2.666 -7.479,6.144 -10.143,10.143 l 1.32,0.763 c 0.52,0.301 0.893,0.786 1.047,1.366 0.156,0.581 0.076,1.188 -0.225,1.708 -0.596,1.032 -2.031,1.423 -3.072,0.824 L 15.094,31.39 c -2.08,4.159 -3.314,8.603 -3.678,13.236 h 4 c 1.701,0 3.084,1.383 3.084,3.083 0,1.7 -1.383,3.083 -3.084,3.083 h -3.957 c 0.404,4.492 1.625,8.795 3.635,12.818 l 1.332,-0.769 c 1.037,-0.6 2.475,-0.211 3.074,0.824 0.619,1.074 0.25,2.453 -0.824,3.074 l -1.32,0.763 c 2.664,3.999 6.141,7.477 10.141,10.143 l 0.764,-1.32 c 0.598,-1.035 2.037,-1.422 3.074,-0.823 0.52,0.3 0.893,0.785 1.049,1.366 0.154,0.58 0.074,1.187 -0.225,1.707 z"
         id="path6"
         inkscape:connector-curvature="0"
         style="fill:#f9f9f9" /></g></g></svg>