<?xml version="1.0" encoding="UTF-8" standalone="no"?>
<svg
   xmlns:dc="http://purl.org/dc/elements/1.1/"
   xmlns:cc="http://creativecommons.org/ns#"
   xmlns:rdf="http://www.w3.org/1999/02/22-rdf-syntax-ns#"
   xmlns:svg="http://www.w3.org/2000/svg"
   xmlns="http://www.w3.org/2000/svg"
   xmlns:sodipodi="http://sodipodi.sourceforge.net/DTD/sodipodi-0.dtd"
   xmlns:inkscape="http://www.inkscape.org/namespaces/inkscape"
   version="1.1"
   x="0px"
   y="0px"
   viewBox="0 0 90 90"
   xml:space="preserve"
   id="svg14"
   sodipodi:docname="coffee-machine.svg"
   width="100"
   height="100"
   inkscape:version="0.92.3 (2405546, 2018-03-11)"><metadata
     id="metadata20"><rdf:RDF><cc:Work
         rdf:about=""><dc:format>image/svg+xml</dc:format><dc:type
           rdf:resource="http://purl.org/dc/dcmitype/StillImage" /><dc:title></dc:title></cc:Work></rdf:RDF></metadata><defs
     id="defs18" /><sodipodi:namedview
     pagecolor="#ffffff"
     bordercolor="#666666"
     borderopacity="1"
     objecttolerance="10"
     gridtolerance="10"
     guidetolerance="10"
     inkscape:pageopacity="0"
     inkscape:pageshadow="2"
     inkscape:window-width="1200"
     inkscape:window-height="840"
     id="namedview16"
     showgrid="false"
     scale-x="0.9"
     inkscape:zoom="1.888"
     inkscape:cx="50"
     inkscape:cy="62.5"
     inkscape:window-x="0"
     inkscape:window-y="27"
     inkscape:window-maximized="0"
     inkscape:current-layer="svg14" /><path
     d="m 13.044848,84.247763 h 56.895 c 4.132,0 7.493,-3.362 7.493,-7.494 v -2.265 c 0,-0.552 -0.448,-1 -1,-1 h -4.937 v -30.963 h 11.167 c 1.59,0 2.884,-1.293 2.884,-2.883 v -2.146 c 0,-1.59 -1.293,-2.884 -2.884,-2.884 h -11.168 v -3.15 h 5.373 c 0.552,0 1,-0.448 1,-1 v -7.004 c 0,-10.626 -8.645,-19.2710002 -19.271,-19.2710002 h -33.338 c -10.626,0 -19.2710006,8.6450002 -19.2710006,19.2710002 v 7.004 c 0,0.552 0.448,1 1,1 h 5.0210006 v 42.027 H 6.5508474 c -0.552,0 -1,0.448 -1,1 v 2.265 c 0,4.132 3.3620001,7.493 7.4940006,7.493 z m 69.618,-47.635 c 0.487,0 0.884,0.396 0.884,0.884 v 2.146 c 0,0.487 -0.396,0.883 -0.884,0.883 h -19.24 c -0.487,0 -0.883,-0.396 -0.883,-0.883 v -2.146 c 0,-0.487 0.396,-0.884 0.883,-0.884 z m -30.523,34.145 0.393,-0.211 c 3.244,-1.739 6.598,-3.537 6.598,-7.541 0,-1.61 -0.694,-2.449 -1.277,-2.869 -0.949,-0.684 -2.165,-0.697 -3.057,-0.579 -0.037,-1.015 -0.129,-1.674 -0.145,-1.783 -0.073,-0.49 -0.494,-0.854 -0.989,-0.854 h -24.009 c -0.492,0 -0.911,0.357 -0.988,0.843 -0.069,0.438 -1.46,9.781 4.693,15.725 h -19.35 v -42.026 h 16.027 v 12.827 c 0,2.976 2.421,5.397 5.398,5.397 h 12.988 c 2.977,0 5.398,-2.421 5.398,-5.397 v -4.72 h 6.72 v 0.073 c 0,1.59 1.293,2.883 2.883,2.883 h 6.072 v 30.964 h -19.545 c 0.875,-0.851 1.596,-1.773 2.19,-2.732 z m -5.359,2.732 h -10.246 c -6.188,-4.119 -6.17,-11.985 -5.98,-14.568 h 22.198 c 0.169,2.604 0.131,10.509 -5.972,14.568 z m 6.852,-5.852 c 0.773,-2.172 1.068,-4.322 1.152,-6.06 0.614,-0.113 1.443,-0.149 1.9,0.18 0.11,0.08 0.447,0.322 0.447,1.247 -10e-4,2.087 -1.299,3.317 -3.499,4.633 z m -21.597,-23.348 v -12.827 h 19.784 v 12.827 c 0,1.874 -1.524,3.397 -3.398,3.397 h -12.988 c -1.874,0 -3.398,-1.524 -3.398,-3.397 z m 21.784,-6.72 v -6.106 h 15.676 v 3.15 h -6.072 c -1.59,0 -2.883,1.293 -2.883,2.884 v 0.073 h -6.721 z m -45.8330005,-8.107 v -6.004 c 0,-9.523 7.7480005,-17.2710002 17.2710005,-17.2710002 h 33.338 c 9.523,0 17.271,7.7480002 17.271,17.2710002 v 6.004 z m -0.436,46.027 h 28.6880005 10.837 28.355 v 1.265 c 0,3.029 -2.464,5.494 -5.493,5.494 h -56.893 c -3.029,0 -5.4930005,-2.464 -5.4930005,-5.494 v -1.265 z"
     id="path2"
     inkscape:connector-curvature="0" /><path
     d="m 29.904848,15.080763 c -2.007,0 -3.64,1.633 -3.64,3.64 0,2.007 1.633,3.64 3.64,3.64 2.007,0 3.639,-1.633 3.639,-3.64 0,-2.007 -1.632,-3.64 -3.639,-3.64 z m 0,5.28 c -0.904,0 -1.64,-0.735 -1.64,-1.64 0,-0.905 0.735,-1.64 1.64,-1.64 0.904,0 1.639,0.735 1.639,1.64 0,0.905 -0.735,1.64 -1.639,1.64 z"
     id="path4"
     inkscape:connector-curvature="0" /><path
     d="m 41.927848,15.080763 c -2.007,0 -3.64,1.633 -3.64,3.64 0,2.007 1.633,3.64 3.64,3.64 2.007,0 3.639,-1.633 3.639,-3.64 0,-2.007 -1.632,-3.64 -3.639,-3.64 z m 0,5.28 c -0.904,0 -1.64,-0.735 -1.64,-1.64 0,-0.905 0.735,-1.64 1.64,-1.64 0.904,0 1.639,0.735 1.639,1.64 0,0.905 -0.735,1.64 -1.639,1.64 z"
     id="path6"
     inkscape:connector-curvature="0" /><path
     d="m 53.949848,15.080763 c -2.007,0 -3.64,1.633 -3.64,3.64 0,2.007 1.633,3.64 3.64,3.64 2.007,0 3.639,-1.633 3.639,-3.64 0,-2.007 -1.632,-3.64 -3.639,-3.64 z m 0,5.28 c -0.904,0 -1.64,-0.735 -1.64,-1.64 0,-0.905 0.735,-1.64 1.64,-1.64 0.904,0 1.639,0.735 1.639,1.64 0,0.905 -0.735,1.64 -1.639,1.64 z"
     id="path8"
     inkscape:connector-curvature="0" /></svg>