<?xml version="1.0" encoding="UTF-8" standalone="no"?>
<svg
   xmlns:dc="http://purl.org/dc/elements/1.1/"
   xmlns:cc="http://creativecommons.org/ns#"
   xmlns:rdf="http://www.w3.org/1999/02/22-rdf-syntax-ns#"
   xmlns:svg="http://www.w3.org/2000/svg"
   xmlns="http://www.w3.org/2000/svg"
   xmlns:sodipodi="http://sodipodi.sourceforge.net/DTD/sodipodi-0.dtd"
   xmlns:inkscape="http://www.inkscape.org/namespaces/inkscape"
   data-name="Layer 1 copy 2"
   viewBox="0 0 65 65"
   x="0px"
   y="0px"
   version="1.1"
   id="svg12"
   sodipodi:docname="noun_colors_1752111.svg"
   width="65"
   height="65"
   inkscape:version="0.92.3 (2405546, 2018-03-11)">
  <metadata
     id="metadata18">
    <rdf:RDF>
      <cc:Work
         rdf:about="">
        <dc:format>image/svg+xml</dc:format>
        <dc:type
           rdf:resource="http://purl.org/dc/dcmitype/StillImage" />
        <dc:title>Colors-design-pantone-graphic</dc:title>
      </cc:Work>
    </rdf:RDF>
  </metadata>
  <defs
     id="defs16" />
  <sodipodi:namedview
     pagecolor="#ffffff"
     bordercolor="#666666"
     borderopacity="1"
     objecttolerance="10"
     gridtolerance="10"
     guidetolerance="10"
     inkscape:pageopacity="0"
     inkscape:pageshadow="2"
     inkscape:window-width="867"
     inkscape:window-height="480"
     id="namedview14"
     showgrid="false"
     inkscape:zoom="2.95"
     inkscape:cx="22.702064"
     inkscape:cy="40"
     inkscape:window-x="0"
     inkscape:window-y="27"
     inkscape:window-maximized="0"
     inkscape:current-layer="svg12" />
  <title
     id="title2">Colors-design-pantone-graphic</title>
  <path
     d="m 61.677966,2.5932203 h -49.5 A 9.511,9.511 0 0 0 2.6779661,12.09322 v 49.5 a 1,1 0 0 0 1,1 H 20.677966 a 1,1 0 0 0 1,-1 v -14.047 l 2.024,3.506 5,8.661 a 1,1 0 0 0 0.608,0.465 0.992,0.992 0 0 0 0.259,0.035 1.01,1.01 0 0 0 0.5,-0.134 l 14.721,-8.5 a 1,1 0 0 0 0.367,-1.366 l -5,-8.661 -2.023,-3.5 3.5,2.022 8.661,5 a 1,1 0 0 0 1.366,-0.366 l 8.5,-14.723 a 1,1 0 0 0 -0.366,-1.366 l -8.661,-5 -3.502,-2.026 h 14.046 a 1,1 0 0 0 1,-1 V 3.5932203 a 1,1 0 0 0 -1,-1 z m -29,2 h 8 V 19.59322 h -8 z m 6.926,16.9999997 -6.493,11.247 -6.928,-4 4.184,-7.247 z m -16.926,-16.9999997 h 8 V 19.59322 h -8 z m 5.379,16.9999997 -3.606,6.246 -0.773,-0.446 -6.156,-3.554 1.298,-2.246 z m -14.879,2.049 2.478,1.43 5.522,3.188 -6.242,3.6 -0.448,-0.767 v 0 l -3.552,-6.154 z m -3.2439999,-0.437 -1.243,-2.155 2.4869999,1.437 z m 3.6969999,-1.612 h 2.879 l -0.72,1.246 -2.112,-1.219 v 0 z m -1.453,-16.9999997 h 8.5 V 19.59322 h -8.5 a 7.5,7.5 0 0 1 0,-14.9999997 z M 4.6779661,18.10122 l 1.439,2.492 h -1.439 z m 0,4.492 h 2.593 l 1.431,2.479 1.181,2.045 2.0069999,3.476 H 4.6779661 Z m 0,10 h 8.3669999 l 0.657,1.139 3.962,6.861 H 4.6779661 Z m 14.9999999,28 H 4.6779661 v -8 H 19.677966 Z m 0,-10 H 4.6779661 v -8 H 18.817966 l 0.86,1.489 z m 0.28,-10.081 -4.017,-6.919 7.237,-4.178 1.138,0.657 6.862,3.962 z m 1.592,2.812 v 0 l -0.6,-1.072 6.557,-3.786 5.671,-3.273 1.491,0.86 3.254,5.637 -6.5,3.75 -6.494,3.75 z m 17.374,0.095 4,6.927 -12.989,7.5 -4,-6.927 6.494,-3.75 z m 19.008,-13.57 -7.5,12.991 -6.929,-4 3.75,-6.5 3.75,-6.5 z m -8.661,-5 -3.75,6.5 -3.75,6.5 -5.867,-3.388 v 0 l -1.059,-0.61 7.069,-12.258 h 1.718 z m 1.407,-5.256 h -8 V 4.5932203 h 8 z m 10,0 h -8 V 4.5932203 h 8 z"
     id="path4"
     inkscape:connector-curvature="0" />
  <path
     d="m 10.926966,15.09322 a 3.249,3.249 0 1 0 -3.2489999,-3.251 3.252,3.252 0 0 0 3.2489999,3.251 z m 0,-4.5 a 1.249,1.249 0 1 1 -1.2489999,1.249 1.249,1.249 0 0 1 1.2489999,-1.249 z"
     id="path6"
     inkscape:connector-curvature="0" />
</svg>
