<?xml version="1.0" encoding="UTF-8" standalone="no"?>
<svg
   xmlns:dc="http://purl.org/dc/elements/1.1/"
   xmlns:cc="http://creativecommons.org/ns#"
   xmlns:rdf="http://www.w3.org/1999/02/22-rdf-syntax-ns#"
   xmlns:svg="http://www.w3.org/2000/svg"
   xmlns="http://www.w3.org/2000/svg"
   xmlns:sodipodi="http://sodipodi.sourceforge.net/DTD/sodipodi-0.dtd"
   xmlns:inkscape="http://www.inkscape.org/namespaces/inkscape"
   version="1.1"
   x="0px"
   y="0px"
   viewBox="0 0 52 52"
   enable-background="new 0 0 52 52"
   xml:space="preserve"
   id="svg16"
   sodipodi:docname="custom.svg"
   width="52"
   height="52"
   inkscape:version="0.92.3 (2405546, 2018-03-11)"><metadata
     id="metadata22"><rdf:RDF><cc:Work
         rdf:about=""><dc:format>image/svg+xml</dc:format><dc:type
           rdf:resource="http://purl.org/dc/dcmitype/StillImage" /><dc:title></dc:title></cc:Work></rdf:RDF></metadata><defs
     id="defs20" /><sodipodi:namedview
     pagecolor="#ffffff"
     bordercolor="#666666"
     borderopacity="1"
     objecttolerance="10"
     gridtolerance="10"
     guidetolerance="10"
     inkscape:pageopacity="0"
     inkscape:pageshadow="2"
     inkscape:window-width="867"
     inkscape:window-height="480"
     id="namedview18"
     showgrid="false"
     inkscape:zoom="2.5673415"
     inkscape:cx="19.710466"
     inkscape:cy="31.347264"
     inkscape:window-x="0"
     inkscape:window-y="27"
     inkscape:window-maximized="0"
     inkscape:current-layer="svg16" /><g
     id="g10"
     transform="translate(0,0.24327107)"><g
       id="g4"><path
         d="M 26,50.256348 25.25,49.404785 C 24.541016,48.600098 7.8818359,29.582519 7.8818359,19.861816 7.8818359,9.871582 16.009766,1.7436523 26,1.7436523 c 9.990234,0 18.118164,8.1279297 18.118164,18.1181637 0,9.720703 -16.65918,28.738282 -17.368164,29.542969 z M 26,3.7436523 c -8.887695,0 -16.1181641,7.2304687 -16.1181641,16.1181637 C 9.8818359,27.731445 22.726562,43.356445 26,47.209961 29.273437,43.355957 42.118164,27.728027 42.118164,19.861816 42.118164,10.974121 34.887695,3.7436523 26,3.7436523 Z"
         id="path2"
         inkscape:connector-curvature="0" /></g><g
       id="g8"><path
         d="M 38,19.743652 H 36 C 36,14.229492 31.513672,9.7436523 26,9.7436523 v -2 c 6.617187,0 12,5.3833007 12,11.9999997 z"
         id="path6"
         inkscape:connector-curvature="0" /></g></g></svg>