<?xml version="1.0" encoding="UTF-8" standalone="no"?>
<svg
   xmlns:dc="http://purl.org/dc/elements/1.1/"
   xmlns:cc="http://creativecommons.org/ns#"
   xmlns:rdf="http://www.w3.org/1999/02/22-rdf-syntax-ns#"
   xmlns:svg="http://www.w3.org/2000/svg"
   xmlns="http://www.w3.org/2000/svg"
   xmlns:sodipodi="http://sodipodi.sourceforge.net/DTD/sodipodi-0.dtd"
   xmlns:inkscape="http://www.inkscape.org/namespaces/inkscape"
   version="1.1"
   x="0px"
   y="0px"
   viewBox="0 0 35 35"
   enable-background="new 0 0 32 32"
   xml:space="preserve"
   id="svg18"
   sodipodi:docname="distance-sensor.svg"
   width="35"
   height="35"
   inkscape:version="0.92.3 (2405546, 2018-03-11)"><metadata
     id="metadata24"><rdf:RDF><cc:Work
         rdf:about=""><dc:format>image/svg+xml</dc:format><dc:type
           rdf:resource="http://purl.org/dc/dcmitype/StillImage" /><dc:title></dc:title></cc:Work></rdf:RDF></metadata><defs
     id="defs22" /><sodipodi:namedview
     pagecolor="#ffffff"
     bordercolor="#666666"
     borderopacity="1"
     objecttolerance="10"
     gridtolerance="10"
     guidetolerance="10"
     inkscape:pageopacity="0"
     inkscape:pageshadow="2"
     inkscape:window-width="867"
     inkscape:window-height="480"
     id="namedview20"
     showgrid="false"
     inkscape:zoom="2.95"
     inkscape:cx="30.578366"
     inkscape:cy="26.794984"
     inkscape:window-x="0"
     inkscape:window-y="0"
     inkscape:window-maximized="0"
     inkscape:current-layer="svg18" /><path
     style="fill:#000000;stroke:none;stroke-miterlimit:10"
     d="m 23.5,15.5 c -0.166,-0.221 -0.479,-0.266 -0.7,-0.1 -0.221,0.165 -0.266,0.479 -0.1,0.699 0.399,0.534 0.399,1.267 0,1.801 -0.166,0.221 -0.121,0.534 0.1,0.699 0.222,0.166 0.534,0.121 0.7,-0.1 0.666,-0.888 0.666,-2.11 0,-2.999 z"
     stroke-miterlimit="10"
     id="path2"
     inkscape:connector-curvature="0" /><path
     style="fill:#000000;stroke:none;stroke-miterlimit:10"
     d="m 25.1,14.3 c -0.166,-0.221 -0.479,-0.266 -0.699,-0.1 -0.221,0.165 -0.266,0.479 -0.101,0.7 0.934,1.244 0.934,2.955 0,4.199 -0.165,0.222 -0.12,0.535 0.101,0.7 0.221,0.166 0.533,0.121 0.699,-0.1 1.2,-1.599 1.2,-3.799 0,-5.399 z"
     stroke-miterlimit="10"
     id="path4"
     inkscape:connector-curvature="0" /><path
     style="fill:#000000;stroke:none;stroke-miterlimit:10"
     d="M 26.7,13.1 C 26.534,12.879 26.221,12.834 26,13 c -0.221,0.166 -0.266,0.479 -0.1,0.7 1.467,1.955 1.467,4.645 0,6.6 -0.166,0.221 -0.121,0.534 0.1,0.7 0.221,0.166 0.534,0.121 0.7,-0.1 1.734,-2.311 1.734,-5.489 0,-7.8 z"
     stroke-miterlimit="10"
     id="path6"
     inkscape:connector-curvature="0" /><path
     style="fill:#000000;stroke:none;stroke-miterlimit:10"
     d="m 28.3,11.9 c -0.165,-0.222 -0.479,-0.266 -0.7,-0.101 -0.221,0.166 -0.266,0.479 -0.1,0.7 2,2.667 2,6.333 0,9 -0.166,0.221 -0.121,0.534 0.1,0.7 0.221,0.165 0.535,0.121 0.7,-0.101 2.266,-3.02 2.266,-7.176 0,-10.198 z"
     stroke-miterlimit="10"
     id="path8"
     inkscape:connector-curvature="0" /><path
     style="fill:#000000;stroke:none;stroke-miterlimit:10"
     d="m 29.9,10.7 c -0.166,-0.221 -0.479,-0.266 -0.7,-0.101 -0.222,0.166 -0.267,0.479 -0.101,0.7 2.533,3.378 2.533,8.022 0,11.4 -0.166,0.221 -0.121,0.534 0.101,0.7 0.221,0.165 0.534,0.12 0.7,-0.101 2.8,-3.732 2.8,-8.864 0,-12.598 z"
     stroke-miterlimit="10"
     id="path10"
     inkscape:connector-curvature="0" /><path
     style="fill:#000000;stroke:none;stroke-miterlimit:10"
     d="m 19,14 h -5 v 2.5 h -1.797 c -0.385,0 -0.764,-0.102 -1.098,-0.294 C 9.89,15.504 8.358,15.678 7.331,16.634 7.24,16.719 7.143,16.795 7.039,16.863 6.025,17.527 4.665,17.244 4,16.23 v 1.411 c 1.235,0.867 2.908,0.752 4.013,-0.275 0.706,-0.657 1.758,-0.776 2.593,-0.294 0.486,0.28 1.037,0.428 1.598,0.428 H 14 V 20 h 5 c 0.364,0 0.699,0.197 0.875,0.516 0.16,0.29 0.525,0.396 0.815,0.234 C 20.88,20.645 21,20.443 21,20.226 v -6.451 c 0,-0.331 -0.269,-0.6 -0.6,-0.6 -0.219,0 -0.42,0.118 -0.525,0.31 C 19.699,13.803 19.364,14 19,14 Z"
     stroke-miterlimit="10"
     id="path12"
     inkscape:connector-curvature="0" /></svg>