<?xml version="1.0" encoding="UTF-8" standalone="no"?>
<svg
   xmlns:dc="http://purl.org/dc/elements/1.1/"
   xmlns:cc="http://creativecommons.org/ns#"
   xmlns:rdf="http://www.w3.org/1999/02/22-rdf-syntax-ns#"
   xmlns:svg="http://www.w3.org/2000/svg"
   xmlns="http://www.w3.org/2000/svg"
   height="100"
   width="100"
   id="svg244"
   xml:space="preserve"
   enable-background="new 0 0 100 100"
   viewBox="0 0 100 100"
   y="0px"
   x="0px"
   version="1.1"><metadata
     id="metadata250"><rdf:RDF><cc:Work
         rdf:about=""><dc:format>image/svg+xml</dc:format><dc:type
           rdf:resource="http://purl.org/dc/dcmitype/StillImage" /><dc:title></dc:title></cc:Work></rdf:RDF></metadata><defs
     id="defs248" /><path
     id="path2"
     d="M 90,52 H 87.5 V 44.5 H 85 V 42 H 82.5 V 44.5 47 H 85 v 2.5 H 82.5 V 47 H 80 V 49.5 52 H 77.5 V 47 H 80 V 44.5 42 h -2.5 v 2.5 H 75 V 47 H 70 V 44.5 H 67.5 V 42 H 65 v 2.5 2.5 h 2.5 v 2.5 H 70 v 5 h -2.5 v -5 H 65 V 47 h -2.5 v -5 h -5 v 2.5 H 60 v 5 h 2.5 V 52 H 65 v 2.5 H 62.5 V 52 H 60 v 2.5 H 57.5 V 52 H 60 v -2.5 h -2.5 v -5 H 55 V 42 H 52.5 V 44.5 47 H 55 v 2.5 H 52.5 V 52 H 55 v 2.5 H 52.5 V 52 H 50 v 2.5 H 47.5 V 52 H 50 v -2.5 h 2.5 V 47 H 50 V 44.5 42 H 47.5 45 v 2.5 h 2.5 v 5 H 45 v -5 h -2.5 v 5 H 40 V 52 H 37.5 V 49.5 H 40 V 47 44.5 H 37.5 V 47 H 35 v 5 h -2.5 v 2.5 H 30 V 52 h 2.5 V 47 H 35 V 44.5 H 30 V 42 h -2.5 v 5 H 30 v 2.5 H 27.5 V 47 H 25 v -5 h -2.5 v 2.5 H 20 V 47 h 2.5 v 2.5 H 25 V 52 h 2.5 v 2.5 H 25 V 57 h 2.5 v 2.5 H 25 V 57 H 22.5 V 54.5 H 25 V 52 H 22.5 V 49.5 H 20 V 52 H 17.5 V 49.5 H 20 V 47 H 17.5 V 44.5 H 15 V 42 h -2.5 v 5 H 15 v 5 H 12.5 V 47 H 10 V 42 H 7.5 v 5 H 5 V 92 H 95 V 57 H 92.5 V 54.5 H 95 V 52 H 92.5 V 49.5 H 95 V 47 H 92.5 V 44.5 H 90 Z M 17.5,54.5 H 20 V 57 h -2.5 z m -5,0 H 15 V 57 h -2.5 z m -5,-5 H 10 v 5 H 7.5 Z m 0,7.5 H 10 v 2.5 H 7.5 Z M 10,67 H 7.5 V 64.5 H 10 V 62 h 2.5 v 2.5 H 10 Z m 5,5 H 12.5 V 69.5 H 15 Z m 0,-12.5 h 2.5 V 62 H 15 Z M 20,67 H 17.5 V 64.5 H 20 V 62 h 2.5 v 2.5 H 20 Z m 5,5 H 22.5 V 69.5 H 25 Z M 72.5,49.5 H 75 V 52 H 72.5 Z M 60,57 h 2.5 v 2.5 H 60 Z m -10,0 h 2.5 v 2.5 H 50 Z M 40,54.5 h 2.5 V 52 H 45 v 2.5 H 42.5 V 57 H 40 Z m -5,0 h 2.5 V 57 H 35 Z M 30,57 h 2.5 v 2.5 H 30 Z m 0,10 H 27.5 V 64.5 H 30 V 62 h 2.5 v 2.5 H 30 Z m 5,5 H 32.5 V 69.5 H 35 Z m 0,-10 v -2.5 h 2.5 V 62 H 40 v 2.5 H 37.5 V 62 Z m 7.5,10 H 40 v -2.5 h 2.5 z M 45,67 H 42.5 V 64.5 H 45 Z m 0,-10 h 2.5 v 2.5 H 45 Z m 2.5,5 H 50 v 2.5 h -2.5 z m 5,10 H 50 v -2.5 h 2.5 z M 55,67 H 52.5 V 64.5 H 55 Z m 0,-10 h 2.5 v 2.5 H 55 Z m 2.5,5 H 60 v 2.5 h -2.5 z m 5,10 H 60 V 70.75 69.5 h 2.5 z M 65,67 H 62.5 V 64.5 H 65 Z m 2.5,-5 H 65 v -2.5 h 2.5 V 57 H 70 v 2.5 h -2.5 z m 5,10 H 70 v -2.5 h 2.5 z m 0,-7.5 H 70 V 62 h 2.5 z m 0,-10 H 75 V 57 h 2.5 v 2.5 H 75 V 57 H 72.5 Z M 75,62 h 2.5 v 2.5 H 75 Z m 5,10 H 77.5 V 69.5 H 80 Z m 5,-7.5 H 82.5 V 67 H 80 v -2.5 h 2.5 V 62 H 85 Z m 0,-10 H 82.5 V 57 H 85 v 2.5 H 82.5 V 57 H 80 v -2.5 h 2.5 V 52 H 85 Z m 2.5,0 H 90 V 57 H 87.5 Z M 90,72 H 87.5 V 69.5 H 90 Z m 2.5,-7.5 H 90 V 62 H 87.5 V 59.5 H 90 V 62 h 2.5 z" /><rect
     id="rect4"
     height="7.5"
     width="2.5"
     y="29.5"
     x="62.5" /><rect
     id="rect6"
     height="2.5"
     width="2.5"
     y="9.5"
     x="72.5" /><rect
     id="rect8"
     height="2.5"
     width="2.5"
     y="9.5"
     x="50" /><rect
     id="rect10"
     height="2.5"
     width="2.5"
     y="12"
     x="35" /><rect
     id="rect12"
     height="2.5"
     width="2.5"
     y="17"
     x="30" /><rect
     id="rect14"
     height="2.5"
     width="2.5"
     y="19.5"
     x="25" /><rect
     id="rect16"
     height="2.5"
     width="2.5"
     y="24.5"
     x="25" /><rect
     id="rect18"
     height="2.5"
     width="2.5"
     y="29.5"
     x="25" /><rect
     id="rect20"
     height="2.5"
     width="2.5"
     y="34.5"
     x="25" /><rect
     id="rect22"
     height="2.5"
     width="2.5"
     y="39.5"
     x="25" /><rect
     id="rect24"
     height="2.5"
     width="2.5"
     y="37"
     x="22.5" /><rect
     id="rect26"
     height="2.5"
     width="2.5"
     y="39.5"
     x="20" /><rect
     id="rect28"
     height="2.5"
     width="2.5"
     y="37"
     x="17.5" /><rect
     id="rect30"
     height="2.5"
     width="2.5"
     y="39.5"
     x="15" /><rect
     id="rect32"
     height="2.5"
     width="2.5"
     y="37"
     x="12.5" /><rect
     id="rect34"
     height="2.5"
     width="2.5"
     y="39.5"
     x="10" /><rect
     id="rect36"
     height="2.5"
     width="2.5"
     y="37"
     x="7.5" /><rect
     id="rect38"
     height="2.5"
     width="2.5"
     y="39.5"
     x="5" /><rect
     id="rect40"
     height="5"
     width="2.5"
     y="32"
     x="5" /><rect
     id="rect42"
     height="2.5"
     width="2.5"
     y="27"
     x="5" /><rect
     id="rect44"
     height="2.5"
     width="2.5"
     y="22"
     x="5" /><rect
     id="rect46"
     height="2.5"
     width="2.5"
     y="14.5"
     x="20" /><rect
     id="rect48"
     height="2.5"
     width="2.5"
     y="12"
     x="10" /><rect
     id="rect50"
     height="2.5"
     width="2.5"
     y="19.5"
     x="10" /><rect
     id="rect52"
     height="2.5"
     width="2.5"
     y="19.5"
     x="15" /><rect
     id="rect54"
     height="2.5"
     width="2.5"
     y="22"
     x="20" /><rect
     id="rect56"
     height="2.5"
     width="2.5"
     y="24.5"
     x="17.5" /><rect
     id="rect58"
     height="2.5"
     width="2.5"
     y="27"
     x="20" /><rect
     id="rect60"
     height="2.5"
     width="2.5"
     y="29.5"
     x="17.5" /><rect
     id="rect62"
     height="5"
     width="2.5"
     y="32"
     x="20" /><rect
     id="rect64"
     height="2.5"
     width="2.5"
     y="34.5"
     x="15" /><rect
     id="rect66"
     height="2.5"
     width="2.5"
     y="34.5"
     x="10" /><rect
     id="rect68"
     height="2.5"
     width="2.5"
     y="32"
     x="12.5" /><rect
     id="rect70"
     height="2.5"
     width="2.5"
     y="29.5"
     x="10" /><rect
     id="rect72"
     height="2.5"
     width="2.5"
     y="27"
     x="12.5" /><rect
     id="rect74"
     height="2.5"
     width="2.5"
     y="27"
     x="27.5" /><rect
     id="rect76"
     height="2.5"
     width="2.5"
     y="32"
     x="27.5" /><rect
     id="rect78"
     height="2.5"
     width="2.5"
     y="37"
     x="27.5" /><rect
     id="rect80"
     height="2.5"
     width="5"
     y="34.5"
     x="30" /><rect
     id="rect82"
     height="2.5"
     width="2.5"
     y="37"
     x="35" /><rect
     id="rect84"
     height="2.5"
     width="2.5"
     y="37"
     x="40" /><rect
     id="rect86"
     height="2.5"
     width="2.5"
     y="39.5"
     x="37.5" /><rect
     id="rect88"
     height="2.5"
     width="5"
     y="39.5"
     x="30" /><rect
     id="rect90"
     height="2.5"
     width="2.5"
     y="42"
     x="17.5" /><rect
     id="rect92"
     height="2.5"
     width="2.5"
     y="42"
     x="35" /><rect
     id="rect94"
     height="2.5"
     width="2.5"
     y="42"
     x="40" /><rect
     id="rect96"
     height="2.5"
     width="2.5"
     y="39.5"
     x="42.5" /><rect
     id="rect98"
     height="2.5"
     width="2.5"
     y="34.5"
     x="42.5" /><rect
     id="rect100"
     height="2.5"
     width="2.5"
     y="29.5"
     x="42.5" /><rect
     id="rect102"
     height="2.5"
     width="2.5"
     y="24.5"
     x="42.5" /><rect
     id="rect104"
     height="2.5"
     width="2.5"
     y="17"
     x="42.5" /><rect
     id="rect106"
     height="2.5"
     width="2.5"
     y="19.5"
     x="37.5" /><rect
     id="rect108"
     height="2.5"
     width="2.5"
     y="24.5"
     x="37.5" /><rect
     id="rect110"
     height="2.5"
     width="2.5"
     y="22"
     x="32.5" /><rect
     id="rect112"
     height="2.5"
     width="2.5"
     y="39.5"
     x="50" /><rect
     id="rect114"
     height="2.5"
     width="2.5"
     y="24.5"
     x="50" /><rect
     id="rect116"
     height="2.5"
     width="2.5"
     y="19.5"
     x="50" /><rect
     id="rect118"
     height="2.5"
     width="2.5"
     y="22"
     x="45" /><rect
     id="rect120"
     height="2.5"
     width="2.5"
     y="27"
     x="45" /><rect
     id="rect122"
     height="2.5"
     width="2.5"
     y="32"
     x="45" /><rect
     id="rect124"
     height="2.5"
     width="2.5"
     y="34.5"
     x="55" /><rect
     id="rect126"
     height="2.5"
     width="2.5"
     y="29.5"
     x="55" /><rect
     id="rect128"
     height="2.5"
     width="2.5"
     y="24.5"
     x="55" /><rect
     id="rect130"
     height="2.5"
     width="2.5"
     y="17"
     x="55" /><rect
     id="rect132"
     height="2.5"
     width="2.5"
     y="12"
     x="60" /><rect
     id="rect134"
     height="2.5"
     width="2.5"
     y="19.5"
     x="62.5" /><rect
     id="rect136"
     height="2.5"
     width="2.5"
     y="22"
     x="57.5" /><rect
     id="rect138"
     height="2.5"
     width="2.5"
     y="24.5"
     x="62.5" /><rect
     id="rect140"
     height="2.5"
     width="2.5"
     y="27"
     x="57.5" /><rect
     id="rect142"
     height="2.5"
     width="2.5"
     y="32"
     x="57.5" /><rect
     id="rect144"
     height="2.5"
     width="2.5"
     y="37"
     x="52.5" /><rect
     id="rect146"
     height="2.5"
     width="2.5"
     y="39.5"
     x="55" /><rect
     id="rect148"
     height="2.5"
     width="5"
     y="37"
     x="57.5" /><rect
     id="rect150"
     height="2.5"
     width="2.5"
     y="39.5"
     x="62.5" /><rect
     id="rect152"
     height="2.5"
     width="2.5"
     y="37"
     x="65" /><rect
     id="rect154"
     height="2.5"
     width="2.5"
     y="34.5"
     x="67.5" /><rect
     id="rect156"
     height="2.5"
     width="2.5"
     y="32"
     x="70" /><rect
     id="rect158"
     height="2.5"
     width="2.5"
     y="29.5"
     x="67.5" /><rect
     id="rect160"
     height="2.5"
     width="2.5"
     y="24.5"
     x="67.5" /><rect
     id="rect162"
     height="2.5"
     width="2.5"
     y="22"
     x="70" /><rect
     id="rect164"
     height="2.5"
     width="2.5"
     y="17"
     x="67.5" /><rect
     id="rect166"
     height="2.5"
     width="2.5"
     y="19.5"
     x="75" /><rect
     id="rect168"
     height="2.5"
     width="2.5"
     y="24.5"
     x="75" /><rect
     id="rect170"
     height="2.5"
     width="2.5"
     y="27"
     x="72.5" /><rect
     id="rect172"
     height="2.5"
     width="2.5"
     y="29.5"
     x="77.5" /><rect
     id="rect174"
     height="2.5"
     width="2.5"
     y="27"
     x="80" /><rect
     id="rect176"
     height="2.5"
     width="2.5"
     y="24.5"
     x="85" /><rect
     id="rect178"
     height="2.5"
     width="2.5"
     y="22"
     x="80" /><rect
     id="rect180"
     height="2.5"
     width="2.5"
     y="17"
     x="80" /><rect
     id="rect182"
     height="2.5"
     width="2.5"
     y="17"
     x="87.5" /><rect
     id="rect184"
     height="2.5"
     width="2.5"
     y="22"
     x="87.5" /><rect
     id="rect186"
     height="2.5"
     width="2.5"
     y="27"
     x="87.5" /><rect
     id="rect188"
     height="2.5"
     width="2.5"
     y="29.5"
     x="85" /><rect
     id="rect190"
     height="2.5"
     width="2.5"
     y="32"
     x="82.5" /><rect
     id="rect192"
     height="2.5"
     width="2.5"
     y="34.5"
     x="80" /><rect
     id="rect194"
     height="2.5"
     width="2.5"
     y="37"
     x="77.5" /><rect
     id="rect196"
     height="2.5"
     width="2.5"
     y="39.5"
     x="75" /><rect
     id="rect198"
     height="2.5"
     width="5"
     y="42"
     x="70" /><rect
     id="rect200"
     height="2.5"
     width="2.5"
     y="39.5"
     x="67.5" /><rect
     id="rect202"
     height="2.5"
     width="2.5"
     y="39.5"
     x="80" /><rect
     id="rect204"
     height="2.5"
     width="2.5"
     y="37"
     x="82.5" /><rect
     id="rect206"
     height="2.5"
     width="2.5"
     y="34.5"
     x="85" /><rect
     id="rect208"
     height="2.5"
     width="2.5"
     y="37"
     x="87.5" /><rect
     id="rect210"
     height="2.5"
     width="2.5"
     y="39.5"
     x="90" /><rect
     id="rect212"
     height="2.5"
     width="2.5"
     y="42"
     x="92.5" /><rect
     id="rect214"
     height="2.5"
     width="2.5"
     y="39.5"
     x="85" /><rect
     id="rect216"
     height="2.5"
     width="2.5"
     y="42"
     x="87.5" /><rect
     id="rect218"
     height="2.5"
     width="2.5"
     y="37"
     x="92.5" /><rect
     id="rect220"
     height="2.5"
     width="2.5"
     y="29.5"
     x="92.5" /><rect
     id="rect222"
     height="5"
     width="2.5"
     y="22"
     x="92.5" /><rect
     id="rect224"
     height="2.5"
     width="2.5"
     y="24.5"
     x="10" /><rect
     id="rect226"
     height="5"
     width="2.5"
     y="27"
     x="32.5" /><rect
     id="rect228"
     height="7.5"
     width="2.5"
     y="29.5"
     x="50" /><rect
     id="rect230"
     height="7.5"
     width="2.5"
     y="29.5"
     x="37.5" /><rect
     id="rect232"
     height="5"
     width="2.5"
     y="32"
     x="75" /><rect
     id="rect234"
     height="5"
     width="2.5"
     y="32"
     x="90" /><rect
     id="rect236"
     height="2.5"
     width="5"
     y="37"
     x="70" /><rect
     id="rect238"
     height="2.5"
     width="5"
     y="37"
     x="45" /></svg>