<?xml version="1.0" encoding="UTF-8" standalone="no"?>
<svg
   xmlns:dc="http://purl.org/dc/elements/1.1/"
   xmlns:cc="http://creativecommons.org/ns#"
   xmlns:rdf="http://www.w3.org/1999/02/22-rdf-syntax-ns#"
   xmlns:svg="http://www.w3.org/2000/svg"
   xmlns="http://www.w3.org/2000/svg"
   xmlns:sodipodi="http://sodipodi.sourceforge.net/DTD/sodipodi-0.dtd"
   xmlns:inkscape="http://www.inkscape.org/namespaces/inkscape"
   version="1.1"
   x="0px"
   y="0px"
   viewBox="0 0 25 25"
   xml:space="preserve"
   id="svg16"
   sodipodi:docname="door.svg"
   width="100"
   height="100"
   inkscape:version="0.92.3 (2405546, 2018-03-11)"><metadata
     id="metadata22"><rdf:RDF><cc:Work
         rdf:about=""><dc:format>image/svg+xml</dc:format><dc:type
           rdf:resource="http://purl.org/dc/dcmitype/StillImage" /><dc:title>login-2</dc:title></cc:Work></rdf:RDF></metadata><defs
     id="defs20" /><sodipodi:namedview
     pagecolor="#ffffff"
     bordercolor="#666666"
     borderopacity="1"
     objecttolerance="10"
     gridtolerance="10"
     guidetolerance="10"
     inkscape:pageopacity="0"
     inkscape:pageshadow="2"
     inkscape:window-width="1237"
     inkscape:window-height="814"
     id="namedview18"
     showgrid="false"
     scale-x="0.25"
     inkscape:zoom="1.9666667"
     inkscape:cx="13.001743"
     inkscape:cy="18.002091"
     inkscape:window-x="0"
     inkscape:window-y="27"
     inkscape:window-maximized="0"
     inkscape:current-layer="svg16" /><title
     id="title2">login-2</title><g
     id="g10"
     transform="translate(0.6864406,0.34915248)"><path
       d="m 9.104,13.125 c 0.621,-10e-4 1.123,-0.504 1.123,-1.125 0,-0.621 -0.504,-1.125 -1.125,-1.125 -10e-4,0 -10e-4,0 -0.002,0 -0.621,10e-4 -1.124,0.506 -1.123,1.127 10e-4,0.621 0.506,1.124 1.127,1.123 z"
       id="path4"
       inkscape:connector-curvature="0" /><path
       d="m 20.249,2.25 h -4.5 c -0.414,0 -0.75,0.336 -0.75,0.75 0,0.414 0.336,0.75 0.75,0.75 h 4.5 c 0.413,0 0.75,0.336 0.75,0.75 v 15 c 0,0.413 -0.337,0.75 -0.75,0.75 h -4.5 c -0.414,0 -0.75,0.336 -0.75,0.75 0,0.414 0.336,0.75 0.75,0.75 h 4.5 c 1.24,0 2.25,-1.01 2.25,-2.25 v -15 c 0,-1.241 -1.01,-2.25 -2.25,-2.25 z"
       id="path6"
       inkscape:connector-curvature="0" /><path
       d="M 11.662,0.039 2.686,2.254 C 1.998,2.401 1.499,3.018 1.499,3.721 v 17.493 c 0,0.742 0.554,1.381 1.288,1.485 l 9,1.285 c 0,0 10e-4,0 10e-4,0 0.062,0.009 0.126,0.014 0.21,0.016 0.826,0 1.5,-0.673 1.5,-1.5 V 1.5 C 13.498,1.398 13.487,1.294 13.465,1.186 13.292,0.377 12.49,-0.138 11.662,0.039 Z M 11.995,22.499 2.999,21.214 3.021,3.716 11.999,1.5 Z"
       id="path8"
       inkscape:connector-curvature="0" /></g><text
     x="0"
     y="109"
     font-size="5px"
     font-weight="bold"
     id="text12"
     style="font-weight:bold;font-size:5px;font-family:'Helvetica Neue', Helvetica, Arial-Unicode, Arial, Sans-serif;fill:#000000">Created by Dumitriu Robert</text>
<text
     x="0"
     y="114"
     font-size="5px"
     font-weight="bold"
     id="text14"
     style="font-weight:bold;font-size:5px;font-family:'Helvetica Neue', Helvetica, Arial-Unicode, Arial, Sans-serif;fill:#000000">from the Noun Project</text>
</svg>