<?xml version="1.0" encoding="UTF-8" standalone="no"?>
<svg
   xmlns:dc="http://purl.org/dc/elements/1.1/"
   xmlns:cc="http://creativecommons.org/ns#"
   xmlns:rdf="http://www.w3.org/1999/02/22-rdf-syntax-ns#"
   xmlns:svg="http://www.w3.org/2000/svg"
   xmlns="http://www.w3.org/2000/svg"
   xmlns:sodipodi="http://sodipodi.sourceforge.net/DTD/sodipodi-0.dtd"
   xmlns:inkscape="http://www.inkscape.org/namespaces/inkscape"
   version="1.1"
   x="0px"
   y="0px"
   viewBox="7.5 7.5 55 55"
   enable-background="new 7.5 7.5 50 50"
   xml:space="preserve"
   id="svg62"
   sodipodi:docname="electrons.svg"
   width="55"
   height="55"
   inkscape:version="0.92.3 (2405546, 2018-03-11)"><metadata
     id="metadata68"><rdf:RDF><cc:Work
         rdf:about=""><dc:format>image/svg+xml</dc:format><dc:type
           rdf:resource="http://purl.org/dc/dcmitype/StillImage" /><dc:title></dc:title></cc:Work></rdf:RDF></metadata><defs
     id="defs66" /><sodipodi:namedview
     pagecolor="#ffffff"
     bordercolor="#666666"
     borderopacity="1"
     objecttolerance="10"
     gridtolerance="10"
     guidetolerance="10"
     inkscape:pageopacity="0"
     inkscape:pageshadow="2"
     inkscape:window-width="867"
     inkscape:window-height="480"
     id="namedview64"
     showgrid="false"
     inkscape:zoom="2.6700352"
     inkscape:cx="28.225074"
     inkscape:cy="15.658075"
     inkscape:window-x="0"
     inkscape:window-y="27"
     inkscape:window-maximized="0"
     inkscape:current-layer="svg62" /><path
     d="m 47.897742,40.921226 c 0,-2.356 -1.918,-4.274 -4.275,-4.274 -2.357,0 -4.275,1.918 -4.275,4.274 0,2.356 1.918,4.274 4.275,4.274 2.357,0 4.275,-1.918 4.275,-4.274 z m -4.275,3.274 c -1.806,0 -3.275,-1.469 -3.275,-3.274 0,-1.805 1.47,-3.274 3.275,-3.274 1.805,0 3.275,1.469 3.275,3.274 0,1.805 -1.469,3.274 -3.275,3.274 z"
     id="path2"
     inkscape:connector-curvature="0" /><path
     d="m 45.575742,40.421226 h -3.906 c -0.276,0 -0.5,0.224 -0.5,0.5 0,0.276 0.224,0.5 0.5,0.5 h 3.906 c 0.276,0 0.5,-0.224 0.5,-0.5 0,-0.276 -0.224,-0.5 -0.5,-0.5 z"
     id="path4"
     inkscape:connector-curvature="0" /><path
     d="m 49.259742,27.465226 c 0,2.357 1.918,4.275 4.275,4.275 2.356,0 4.273,-1.917 4.273,-4.275 0,-2.357 -1.917,-4.274 -4.273,-4.274 -2.357,0 -4.275,1.917 -4.275,4.274 z m 7.549,0 c 0,1.806 -1.469,3.275 -3.273,3.275 -1.806,0 -3.275,-1.469 -3.275,-3.275 0,-1.806 1.47,-3.274 3.275,-3.274 1.804,0 3.273,1.468 3.273,3.274 z"
     id="path6"
     inkscape:connector-curvature="0" /><path
     d="m 51.081742,27.465226 c 0,0.276 0.224,0.5 0.5,0.5 h 3.904 c 0.276,0 0.5,-0.224 0.5,-0.5 0,-0.276 -0.224,-0.5 -0.5,-0.5 h -3.904 c -0.276,0 -0.5,0.224 -0.5,0.5 z"
     id="path8"
     inkscape:connector-curvature="0" /><path
     d="m 41.669742,33.332226 c 2.357,0 4.275,-1.917 4.275,-4.275 0,-2.357 -1.918,-4.274 -4.275,-4.274 -2.356,0 -4.273,1.917 -4.273,4.274 -0.001,2.357 1.916,4.275 4.273,4.275 z m 0,-7.55 c 1.806,0 3.275,1.469 3.275,3.274 0,1.805 -1.47,3.275 -3.275,3.275 -1.805,0 -3.273,-1.469 -3.273,-3.275 0,-1.806 1.468,-3.274 3.273,-3.274 z"
     id="path10"
     inkscape:connector-curvature="0" /><path
     d="m 39.718742,29.557226 h 3.904 c 0.276,0 0.5,-0.224 0.5,-0.5 0,-0.276 -0.224,-0.5 -0.5,-0.5 h -3.904 c -0.276,0 -0.5,0.224 -0.5,0.5 0,0.276 0.223,0.5 0.5,0.5 z"
     id="path12"
     inkscape:connector-curvature="0" /><path
     d="m 50.481742,20.337226 c 2.357,0 4.275,-1.917 4.275,-4.275 0,-2.357 -1.918,-4.274 -4.275,-4.274 -2.357,0 -4.275,1.917 -4.275,4.274 0,2.357 1.918,4.275 4.275,4.275 z m 0,-7.55 c 1.806,0 3.275,1.469 3.275,3.274 0,1.805 -1.47,3.275 -3.275,3.275 -1.805,0 -3.275,-1.469 -3.275,-3.275 0,-1.806 1.47,-3.274 3.275,-3.274 z"
     id="path14"
     inkscape:connector-curvature="0" /><path
     d="m 48.528742,16.562226 h 3.906 c 0.276,0 0.5,-0.224 0.5,-0.5 0,-0.276 -0.224,-0.5 -0.5,-0.5 h -3.906 c -0.276,0 -0.5,0.224 -0.5,0.5 0,0.276 0.224,0.5 0.5,0.5 z"
     id="path16"
     inkscape:connector-curvature="0" /><path
     d="m 56.210742,35.760226 c -2.356,0 -4.273,1.918 -4.273,4.274 0,2.356 1.917,4.274 4.273,4.274 2.357,0 4.275,-1.918 4.275,-4.274 0,-2.356 -1.918,-4.274 -4.275,-4.274 z m 0,7.549 c -1.805,0 -3.273,-1.469 -3.273,-3.274 0,-1.805 1.469,-3.274 3.273,-3.274 1.806,0 3.275,1.469 3.275,3.274 0,1.805 -1.469,3.274 -3.275,3.274 z"
     id="path18"
     inkscape:connector-curvature="0" /><path
     d="m 58.165742,39.535226 h -3.906 c -0.276,0 -0.5,0.224 -0.5,0.5 0,0.276 0.224,0.5 0.5,0.5 h 3.906 c 0.276,0 0.5,-0.224 0.5,-0.5 0,-0.276 -0.224,-0.5 -0.5,-0.5 z"
     id="path20"
     inkscape:connector-curvature="0" /><path
     d="m 37.895742,50.008226 c -2.357,0 -4.275,1.918 -4.275,4.274 0,2.357 1.918,4.275 4.275,4.275 2.356,0 4.273,-1.918 4.273,-4.275 10e-4,-2.356 -1.916,-4.274 -4.273,-4.274 z m 0,7.55 c -1.806,0 -3.275,-1.47 -3.275,-3.275 0,-1.805 1.469,-3.274 3.275,-3.274 1.805,0 3.273,1.469 3.273,3.274 0,1.805 -1.468,3.275 -3.273,3.275 z"
     id="path22"
     inkscape:connector-curvature="0" /><path
     d="m 39.849742,53.783226 h -3.908 c -0.276,0 -0.5,0.224 -0.5,0.5 0,0.276 0.224,0.5 0.5,0.5 h 3.908 c 0.276,0 0.5,-0.224 0.5,-0.5 0,-0.276 -0.224,-0.5 -0.5,-0.5 z"
     id="path24"
     inkscape:connector-curvature="0" /><path
     d="m 49.759742,47.005226 c -2.357,0 -4.275,1.918 -4.275,4.274 0,2.357 1.918,4.275 4.275,4.275 2.357,0 4.275,-1.918 4.275,-4.275 0,-2.356 -1.918,-4.274 -4.275,-4.274 z m 0,7.549 c -1.806,0 -3.275,-1.47 -3.275,-3.275 0,-1.805 1.47,-3.274 3.275,-3.274 1.805,0 3.275,1.469 3.275,3.274 0,1.805 -1.47,3.275 -3.275,3.275 z"
     id="path26"
     inkscape:connector-curvature="0" /><path
     d="m 51.712742,50.779226 h -3.906 c -0.276,0 -0.5,0.224 -0.5,0.5 0,0.276 0.224,0.5 0.5,0.5 h 3.906 c 0.276,0 0.5,-0.224 0.5,-0.5 0,-0.276 -0.224,-0.5 -0.5,-0.5 z"
     id="path28"
     inkscape:connector-curvature="0" /><path
     d="m 20.079742,19.445226 c 2.357,0 4.275,-1.917 4.275,-4.274 0,-2.357 -1.917,-4.275 -4.275,-4.275 -2.357,0 -4.274,1.917 -4.274,4.275 0,2.356 1.918,4.274 4.274,4.274 z m 0,-7.55 c 1.806,0 3.275,1.469 3.275,3.275 0,1.806 -1.469,3.274 -3.275,3.274 -1.806,0 -3.274,-1.469 -3.274,-3.274 0,-1.805 1.469,-3.275 3.274,-3.275 z"
     id="path30"
     inkscape:connector-curvature="0" /><path
     d="m 18.126742,15.670226 h 1.453 v 1.453 c 0,0.276 0.224,0.5 0.5,0.5 0.276,0 0.5,-0.224 0.5,-0.5 v -1.453 h 1.453 c 0.276,0 0.5,-0.224 0.5,-0.5 0,-0.276 -0.224,-0.5 -0.5,-0.5 h -1.453 v -1.453 c 0,-0.276 -0.224,-0.5 -0.5,-0.5 -0.276,0 -0.5,0.224 -0.5,0.5 v 1.453 h -1.453 c -0.276,0 -0.5,0.224 -0.5,0.5 0,0.276 0.224,0.5 0.5,0.5 z"
     id="path32"
     inkscape:connector-curvature="0" /><path
     d="m 26.762742,19.416226 c -2.357,0 -4.275,1.917 -4.275,4.275 0,2.357 1.917,4.274 4.275,4.274 2.357,0 4.274,-1.917 4.274,-4.274 0,-2.358 -1.917,-4.275 -4.274,-4.275 z m 0,7.549 c -1.806,0 -3.275,-1.469 -3.275,-3.274 0,-1.805 1.469,-3.275 3.275,-3.275 1.806,0 3.274,1.469 3.274,3.275 0,1.806 -1.469,3.274 -3.274,3.274 z"
     id="path34"
     inkscape:connector-curvature="0" /><path
     d="m 28.714742,23.191226 h -1.453 v -1.453 c 0,-0.276 -0.224,-0.5 -0.5,-0.5 -0.276,0 -0.5,0.224 -0.5,0.5 v 1.453 h -1.454 c -0.276,0 -0.5,0.224 -0.5,0.5 0,0.276 0.224,0.5 0.5,0.5 h 1.454 v 1.453 c 0,0.276 0.224,0.5 0.5,0.5 0.276,0 0.5,-0.224 0.5,-0.5 v -1.453 h 1.453 c 0.276,0 0.5,-0.224 0.5,-0.5 0,-0.276 -0.223,-0.5 -0.5,-0.5 z"
     id="path36"
     inkscape:connector-curvature="0" /><path
     d="m 16.305742,32.673226 c 2.357,0 4.274,-1.917 4.274,-4.274 0,-2.357 -1.917,-4.275 -4.274,-4.275 -2.357,0 -4.275,1.917 -4.275,4.275 0,2.356 1.917,4.274 4.275,4.274 z m 0,-7.55 c 1.806,0 3.274,1.469 3.274,3.275 0,1.806 -1.469,3.274 -3.274,3.274 -1.805,0 -3.275,-1.468 -3.275,-3.274 0,-1.806 1.469,-3.275 3.275,-3.275 z"
     id="path38"
     inkscape:connector-curvature="0" /><path
     d="m 14.351742,28.898226 h 1.454 v 1.453 c 0,0.276 0.224,0.5 0.5,0.5 0.276,0 0.5,-0.224 0.5,-0.5 v -1.453 h 1.453 c 0.276,0 0.5,-0.224 0.5,-0.5 0,-0.276 -0.224,-0.5 -0.5,-0.5 h -1.453 v -1.453 c 0,-0.276 -0.224,-0.5 -0.5,-0.5 -0.276,0 -0.5,0.224 -0.5,0.5 v 1.453 h -1.454 c -0.276,0 -0.5,0.224 -0.5,0.5 0,0.276 0.224,0.5 0.5,0.5 z"
     id="path40"
     inkscape:connector-curvature="0" /><path
     d="m 25.806742,31.986226 c -2.357,0 -4.275,1.917 -4.275,4.274 0,2.356 1.917,4.274 4.275,4.274 2.357,0 4.274,-1.918 4.274,-4.274 0,-2.356 -1.917,-4.274 -4.274,-4.274 z m 0,7.549 c -1.806,0 -3.275,-1.469 -3.275,-3.274 0,-1.805 1.469,-3.274 3.275,-3.274 1.806,0 3.274,1.469 3.274,3.274 0,1.805 -1.468,3.274 -3.274,3.274 z"
     id="path42"
     inkscape:connector-curvature="0" /><path
     d="m 27.759742,35.760226 h -1.453 v -1.453 c 0,-0.276 -0.224,-0.5 -0.5,-0.5 -0.276,0 -0.5,0.224 -0.5,0.5 v 1.453 h -1.454 c -0.276,0 -0.5,0.224 -0.5,0.5 0,0.276 0.224,0.5 0.5,0.5 h 1.454 v 1.453 c 0,0.276 0.224,0.5 0.5,0.5 0.276,0 0.5,-0.224 0.5,-0.5 v -1.453 h 1.453 c 0.276,0 0.5,-0.224 0.5,-0.5 0,-0.276 -0.224,-0.5 -0.5,-0.5 z"
     id="path44"
     inkscape:connector-curvature="0" /><path
     d="m 15.531742,38.229226 c -2.357,0 -4.275,1.918 -4.275,4.274 0,2.357 1.917,4.275 4.275,4.275 2.357,0 4.274,-1.918 4.274,-4.275 0,-2.356 -1.917,-4.274 -4.274,-4.274 z m 0,7.55 c -1.806,0 -3.275,-1.47 -3.275,-3.275 0,-1.805 1.469,-3.274 3.275,-3.274 1.806,0 3.274,1.469 3.274,3.274 0,1.805 -1.469,3.275 -3.274,3.275 z"
     id="path46"
     inkscape:connector-curvature="0" /><path
     d="m 17.483742,42.004226 h -1.452 v -1.452 c 0,-0.276 -0.224,-0.5 -0.5,-0.5 -0.276,0 -0.5,0.224 -0.5,0.5 v 1.452 h -1.454 c -0.276,0 -0.5,0.224 -0.5,0.5 0,0.276 0.224,0.5 0.5,0.5 h 1.454 v 1.454 c 0,0.276 0.224,0.5 0.5,0.5 0.276,0 0.5,-0.224 0.5,-0.5 v -1.454 h 1.452 c 0.276,0 0.5,-0.224 0.5,-0.5 0,-0.276 -0.224,-0.5 -0.5,-0.5 z"
     id="path48"
     inkscape:connector-curvature="0" /><path
     d="m 24.809742,43.908226 c -2.357,0 -4.275,1.918 -4.275,4.274 0,2.356 1.917,4.274 4.275,4.274 2.358,0 4.275,-1.918 4.275,-4.274 0,-2.356 -1.918,-4.274 -4.275,-4.274 z m 0,7.549 c -1.806,0 -3.275,-1.469 -3.275,-3.274 0,-1.805 1.469,-3.274 3.275,-3.274 1.806,0 3.275,1.469 3.275,3.274 0,1.805 -1.469,3.274 -3.275,3.274 z"
     id="path50"
     inkscape:connector-curvature="0" /><path
     d="m 26.762742,47.682226 h -1.453 v -1.453 c 0,-0.276 -0.224,-0.5 -0.5,-0.5 -0.276,0 -0.5,0.224 -0.5,0.5 v 1.453 h -1.453 c -0.276,0 -0.5,0.224 -0.5,0.5 0,0.276 0.224,0.5 0.5,0.5 h 1.453 v 1.453 c 0,0.276 0.224,0.5 0.5,0.5 0.276,0 0.5,-0.224 0.5,-0.5 v -1.453 h 1.453 c 0.276,0 0.5,-0.224 0.5,-0.5 0,-0.276 -0.224,-0.5 -0.5,-0.5 z"
     id="path52"
     inkscape:connector-curvature="0" /><path
     d="m 15.530742,50.779226 c -2.357,0 -4.275,1.918 -4.275,4.275 0,2.356 1.917,4.274 4.275,4.274 2.357,0 4.274,-1.918 4.274,-4.274 10e-4,-2.357 -1.917,-4.275 -4.274,-4.275 z m 0,7.55 c -1.806,0 -3.275,-1.469 -3.275,-3.274 0,-1.805 1.469,-3.275 3.275,-3.275 1.806,0 3.274,1.47 3.274,3.275 0,1.805 -1.468,3.274 -3.274,3.274 z"
     id="path54"
     inkscape:connector-curvature="0" /><path
     d="m 17.482742,54.554226 h -1.452 v -1.454 c 0,-0.276 -0.224,-0.5 -0.5,-0.5 -0.276,0 -0.5,0.224 -0.5,0.5 v 1.454 h -1.453 c -0.276,0 -0.5,0.224 -0.5,0.5 0,0.276 0.224,0.5 0.5,0.5 h 1.453 v 1.452 c 0,0.276 0.224,0.5 0.5,0.5 0.276,0 0.5,-0.224 0.5,-0.5 v -1.452 h 1.453 c 0.276,0 0.5,-0.224 0.5,-0.5 0,-0.276 -0.224,-0.5 -0.501,-0.5 z"
     id="path56"
     inkscape:connector-curvature="0" /></svg>