<?xml version="1.0" encoding="UTF-8" standalone="no"?>
<svg
   xmlns:dc="http://purl.org/dc/elements/1.1/"
   xmlns:cc="http://creativecommons.org/ns#"
   xmlns:rdf="http://www.w3.org/1999/02/22-rdf-syntax-ns#"
   xmlns:svg="http://www.w3.org/2000/svg"
   xmlns="http://www.w3.org/2000/svg"
   xmlns:sodipodi="http://sodipodi.sourceforge.net/DTD/sodipodi-0.dtd"
   xmlns:inkscape="http://www.inkscape.org/namespaces/inkscape"
   viewBox="0 0 68 65"
   x="0px"
   y="0px"
   version="1.1"
   id="svg8"
   sodipodi:docname="energy.svg"
   width="68"
   height="65"
   inkscape:version="0.92.3 (2405546, 2018-03-11)">
  <metadata
     id="metadata14">
    <rdf:RDF>
      <cc:Work
         rdf:about="">
        <dc:format>image/svg+xml</dc:format>
        <dc:type
           rdf:resource="http://purl.org/dc/dcmitype/StillImage" />
        <dc:title></dc:title>
      </cc:Work>
    </rdf:RDF>
  </metadata>
  <defs
     id="defs12" />
  <sodipodi:namedview
     pagecolor="#ffffff"
     bordercolor="#666666"
     borderopacity="1"
     objecttolerance="10"
     gridtolerance="10"
     guidetolerance="10"
     inkscape:pageopacity="0"
     inkscape:pageshadow="2"
     inkscape:window-width="867"
     inkscape:window-height="480"
     id="namedview10"
     showgrid="false"
     inkscape:zoom="3.3714286"
     inkscape:cx="35.234955"
     inkscape:cy="22.297712"
     inkscape:window-x="0"
     inkscape:window-y="27"
     inkscape:window-maximized="0"
     inkscape:current-layer="svg8" />
  <path
     d="m 33.703389,7.8983051 c -12.2333,0 -22.32885,9.1527499 -23.8122995,20.9838699 l 2.6909795,-2.69098 c 0.39052,-0.39052 1.02369,-0.39052 1.41421,0 v 0 l 1.41422,1.41422 c 0.39052,0.39052 0.39052,1.02369 0,1.41421 v 0 l -6.2928995,6.29289 c -0.7810497,0.78105 -2.0473797,0.78105 -2.8284197,0 l -6.29289997,-6.29289 c -0.39052,-0.39052 -0.39052,-1.02369 0,-1.41421 v 0 l 1.41421997,-1.41422 c 0.39052,-0.39052 1.02369,-0.39052 1.41421,0 v 0 l 3.00718,3.00718 C 7.1902298,15.001135 19.150199,3.8983051 33.703389,3.8983051 c 7.02679,0 13.64564,2.60275 18.73773,7.1932599 0.0973,0.0878 0.21255,0.19438 0.34563,0.31991 0.007,0.007 0.0147,0.0141 0.0219,0.0213 0.39,0.39106 0.38914,1.02422 -0.002,1.41421 v 0 l -1.4169,1.41307 c -0.38183,0.3808 -0.99684,0.39025 -1.39019,0.0214 v 0 c -0.10685,-0.10021 -0.2003,-0.18621 -0.28034,-0.25801 -4.35981,-3.91144 -10.01031,-6.1251399 -16.01583,-6.1251399 z m 23.8123,27.0161199 -2.69098,2.69099 c -0.39052,0.39052 -1.02369,0.39052 -1.41421,0 v 0 l -1.41422,-1.41422 c -0.39052,-0.39052 -0.39052,-1.02369 0,-1.41421 l 6.2929,-6.29289 c 0.78104,-0.78105 2.04737,-0.78105 2.82842,0 l 6.2929,6.29289 c 0.39052,0.39052 0.39052,1.02369 0,1.41421 l -1.41422,1.41422 c -0.39052,0.39052 -1.02369,0.39052 -1.41421,0 v 0 l -3.00718,-3.00718 c -1.35834,14.19724 -13.31831,25.30007 -27.8715,25.30007 -7.02836,0 -13.64881,-2.60386 -18.7418,-7.19694 -0.0889,-0.0802 -0.19321,-0.17656 -0.31292,-0.28915 -0.007,-0.007 -0.0148,-0.0141 -0.022,-0.0213 -0.39054,-0.39051 -0.39057,-1.02368 -6e-5,-1.41422 v 0 l 1.41708,-1.4172 c 0.38109,-0.38112 0.99567,-0.39166 1.3896,-0.0238 v 0 c 0.21129,0.19729 0.38892,0.35854 0.5329,0.48376 4.321,3.75816 9.85911,5.87885 15.7372,5.87885 12.2333,0 22.32885,-9.15275 23.8123,-20.98388 z m -14.8123,-7.01612 c 1.61036,0 2.5604,1.80605 1.64808,3.13306 l -11,16 c -1.11271,1.61849 -3.64808,0.83103 -3.64808,-1.13306 v -10 h -5 c -1.56186,0 -2.521,-1.71019 -1.70656,-3.0429 l 11,-18 c 1.05327,-1.72355 3.70656,-0.977 3.70656,1.0429 v 12 z"
     id="path2"
     inkscape:connector-curvature="0"
     style="fill:#000000" />
</svg>
