<?xml version="1.0" encoding="UTF-8" standalone="no"?>
<svg
   xmlns:dc="http://purl.org/dc/elements/1.1/"
   xmlns:cc="http://creativecommons.org/ns#"
   xmlns:rdf="http://www.w3.org/1999/02/22-rdf-syntax-ns#"
   xmlns:svg="http://www.w3.org/2000/svg"
   xmlns="http://www.w3.org/2000/svg"
   xmlns:sodipodi="http://sodipodi.sourceforge.net/DTD/sodipodi-0.dtd"
   xmlns:inkscape="http://www.inkscape.org/namespaces/inkscape"
   version="1.1"
   x="0px"
   y="0px"
   viewBox="0 0 100 100"
   xml:space="preserve"
   id="svg30"
   sodipodi:docname="fan.svg"
   width="100"
   height="100"
   inkscape:version="0.92.3 (2405546, 2018-03-11)"><metadata
     id="metadata36"><rdf:RDF><cc:Work
         rdf:about=""><dc:format>image/svg+xml</dc:format><dc:type
           rdf:resource="http://purl.org/dc/dcmitype/StillImage" /><dc:title></dc:title></cc:Work></rdf:RDF></metadata><defs
     id="defs34" /><sodipodi:namedview
     pagecolor="#ffffff"
     bordercolor="#666666"
     borderopacity="1"
     objecttolerance="10"
     gridtolerance="10"
     guidetolerance="10"
     inkscape:pageopacity="0"
     inkscape:pageshadow="2"
     inkscape:window-width="1217"
     inkscape:window-height="942"
     id="namedview32"
     showgrid="false"
     inkscape:zoom="1.888"
     inkscape:cx="50"
     inkscape:cy="62.5"
     inkscape:window-x="0"
     inkscape:window-y="27"
     inkscape:window-maximized="0"
     inkscape:current-layer="svg30" /><style
     type="text/css"
     id="style2">
	.st0{fill:#010101;}
</style><g
     id="g24"
     transform="translate(-0.52966102,0.42372881)"><path
       class="st0"
       d="M 82.6,64.9 62.7,53.4 c 0,-0.4 0.1,-0.7 0.1,-1.1 0,-2.7 -1.2,-5.1 -3,-6.7 l 14.8,-8.7 c 4.8,-2.8 7.8,-8 7.8,-13.6 V 21.5 C 82.4,12.8 75.3,5.7 66.6,5.7 57.9,5.7 50.8,12.8 50.8,21.5 v 22.3 c -3,1.1 -5.3,3.7 -5.9,7 L 30,42.3 C 25.2,39.6 19.2,39.6 14.3,42.4 l -1.5,0.9 C 5.3,47.6 2.7,57.3 7,64.8 c 2.9,5.1 8.2,7.9 13.7,7.9 2.7,0 5.4,-0.7 7.9,-2.1 L 48.2,59.3 c 1.5,1.2 3.5,2 5.6,2 1.2,0 2.4,-0.2 3.5,-0.7 l 0.1,17.2 c 0,5.6 3.1,10.8 7.9,13.5 l 1.5,0.9 c 2.5,1.4 5.2,2.1 7.9,2.1 5.5,0 10.8,-2.8 13.7,-7.9 2.1,-3.6 2.7,-7.9 1.6,-12 -1.1,-4 -3.8,-7.4 -7.4,-9.5 z M 53.2,21.5 c 0,-7.4 6,-13.4 13.4,-13.4 7.4,0 13.4,6 13.4,13.4 v 1.8 c 0,4.7 -2.5,9.2 -6.6,11.6 l -15.8,9.3 c -1.2,-0.5 -2.4,-0.8 -3.8,-0.8 -0.2,0 -0.4,0 -0.7,0 V 21.5 Z M 27.5,68.6 C 24.4,70.4 20.8,70.9 17.3,69.9 13.8,69 10.9,66.7 9.1,63.6 7.3,60.5 6.8,56.9 7.8,53.4 8.7,49.9 11,47 14.1,45.2 l 1.5,-0.9 c 4.1,-2.4 9.2,-2.4 13.4,0 l 16,9.1 c 0.2,1.5 0.8,2.9 1.6,4.1 z m 26.3,-9.7 c -3.7,0 -6.7,-3 -6.7,-6.7 0,-3.7 3,-6.7 6.7,-6.7 3.7,0 6.7,3 6.7,6.7 0,3.7 -3,6.7 -6.7,6.7 z M 86.4,85.2 C 82.7,91.6 74.5,93.8 68,90.1 L 66.5,89.2 C 62.4,86.8 59.8,82.4 59.8,77.7 L 59.7,59.1 c 1.1,-0.9 1.9,-2.1 2.5,-3.4 l 19.3,11.2 c 3.1,1.8 5.3,4.7 6.3,8.2 0.8,3.4 0.3,7 -1.4,10.1 z"
       id="path4"
       inkscape:connector-curvature="0"
       style="fill:#010101" /><path
       class="st0"
       d="m 85.7,24.6 c -0.4,-0.5 -1.1,-0.6 -1.6,-0.1 -0.5,0.4 -0.6,1.1 -0.1,1.6 5.1,6.1 8.1,13.5 8.8,21.4 0.1,0.6 0.6,1.1 1.2,1.1 0,0 0.1,0 0.1,0 0.6,-0.1 1.1,-0.6 1.1,-1.3 C 94.3,38.9 91.1,31 85.7,24.6 Z"
       id="path6"
       inkscape:connector-curvature="0"
       style="fill:#010101" /><path
       class="st0"
       d="m 16.6,39.1 c 0.1,0 0.2,0.1 0.4,0.1 0.5,0 0.9,-0.3 1.1,-0.8 1.9,-5.8 5.3,-11.1 9.7,-15.3 0.5,-0.4 0.5,-1.2 0,-1.6 C 27.4,21 26.6,21 26.2,21.5 21.5,26 18,31.6 15.9,37.7 c -0.2,0.5 0.1,1.2 0.7,1.4 z"
       id="path8"
       inkscape:connector-curvature="0"
       style="fill:#010101" /><path
       class="st0"
       d="m 82.4,32.4 c 2.9,4.5 4.8,9.7 5.3,15 0.1,0.6 0.6,1.1 1.2,1.1 0,0 0.1,0 0.1,0 0.6,-0.1 1.1,-0.6 1,-1.3 -0.6,-5.7 -2.5,-11.3 -5.6,-16.1 -0.4,-0.5 -1.1,-0.7 -1.6,-0.3 -0.6,0.3 -0.7,1 -0.4,1.6 z"
       id="path10"
       inkscape:connector-curvature="0"
       style="fill:#010101" /><path
       class="st0"
       d="m 22.3,37.6 c 0.2,0.1 0.3,0.1 0.5,0.1 0.4,0 0.9,-0.3 1.1,-0.7 1.8,-4.1 4.5,-7.8 7.8,-10.9 0.5,-0.4 0.5,-1.2 0.1,-1.6 -0.4,-0.5 -1.2,-0.5 -1.6,-0.1 -3.6,3.3 -6.4,7.2 -8.3,11.7 -0.4,0.6 -0.1,1.3 0.4,1.5 z"
       id="path12"
       inkscape:connector-curvature="0"
       style="fill:#010101" /><path
       class="st0"
       d="m 79.9,35.5 c -0.6,0.3 -0.8,1 -0.5,1.6 1.8,3.4 3,7.1 3.3,10.9 0.1,0.6 0.6,1.1 1.2,1.1 0,0 0.1,0 0.1,0 0.6,-0.1 1.1,-0.6 1.1,-1.3 -0.4,-4.2 -1.6,-8.1 -3.6,-11.8 -0.3,-0.6 -1,-0.8 -1.6,-0.5 z"
       id="path14"
       inkscape:connector-curvature="0"
       style="fill:#010101" /><path
       class="st0"
       d="m 27,39.4 c 0.2,0.1 0.3,0.1 0.5,0.1 0.4,0 0.9,-0.3 1.1,-0.7 1.6,-3.4 3.7,-6.4 6.5,-9 0.5,-0.4 0.5,-1.2 0.1,-1.6 -0.4,-0.5 -1.2,-0.5 -1.6,-0.1 -3,2.8 -5.3,6 -7,9.7 -0.4,0.6 -0.1,1.3 0.4,1.6 z"
       id="path16"
       inkscape:connector-curvature="0"
       style="fill:#010101" /><path
       class="st0"
       d="m 57.1,88 c -6.8,1.3 -13.9,0.7 -20.5,-1.7 -0.6,-0.2 -1.3,0.1 -1.5,0.7 -0.2,0.6 0.1,1.3 0.7,1.5 4.6,1.7 9.4,2.6 14.2,2.6 2.5,0 5.1,-0.2 7.6,-0.7 0.6,-0.1 1,-0.7 0.9,-1.4 -0.2,-0.8 -0.8,-1.2 -1.4,-1 z"
       id="path18"
       inkscape:connector-curvature="0"
       style="fill:#010101" /><path
       class="st0"
       d="m 38.3,82.8 c -0.2,0.6 0.1,1.3 0.8,1.5 3.5,1.1 7.3,1.7 11,1.7 1.9,0 3.8,-0.1 5.6,-0.5 0.6,-0.1 1.1,-0.7 1,-1.3 -0.1,-0.6 -0.7,-1.1 -1.3,-1 -5.2,0.8 -10.5,0.4 -15.5,-1.2 -0.8,-0.1 -1.4,0.2 -1.6,0.8 z"
       id="path20"
       inkscape:connector-curvature="0"
       style="fill:#010101" /><path
       class="st0"
       d="m 49.9,81 c 1.5,0 3.1,-0.1 4.6,-0.3 0.6,-0.1 1.1,-0.7 1,-1.3 -0.1,-0.6 -0.7,-1.1 -1.3,-1 -3.9,0.6 -7.8,0.4 -11.7,-0.7 -0.6,-0.2 -1.3,0.2 -1.4,0.8 -0.2,0.6 0.2,1.3 0.8,1.4 2.6,0.7 5.3,1.1 8,1.1 z"
       id="path22"
       inkscape:connector-curvature="0"
       style="fill:#010101" /></g></svg>