<?xml version="1.0" encoding="UTF-8" standalone="no"?>
<svg
   xmlns:dc="http://purl.org/dc/elements/1.1/"
   xmlns:cc="http://creativecommons.org/ns#"
   xmlns:rdf="http://www.w3.org/1999/02/22-rdf-syntax-ns#"
   xmlns:svg="http://www.w3.org/2000/svg"
   xmlns="http://www.w3.org/2000/svg"
   xmlns:sodipodi="http://sodipodi.sourceforge.net/DTD/sodipodi-0.dtd"
   xmlns:inkscape="http://www.inkscape.org/namespaces/inkscape"
   version="1.1"
   x="0px"
   y="0px"
   viewBox="0 0 165 165"
   enable-background="new 0 0 164 164"
   xml:space="preserve"
   id="svg8"
   sodipodi:docname="flow-meter.svg"
   width="165"
   height="165"
   inkscape:version="0.92.3 (2405546, 2018-03-11)"><metadata
     id="metadata14"><rdf:RDF><cc:Work
         rdf:about=""><dc:format>image/svg+xml</dc:format><dc:type
           rdf:resource="http://purl.org/dc/dcmitype/StillImage" /><dc:title></dc:title></cc:Work></rdf:RDF></metadata><defs
     id="defs12" /><sodipodi:namedview
     pagecolor="#ffffff"
     bordercolor="#666666"
     borderopacity="1"
     objecttolerance="10"
     gridtolerance="10"
     guidetolerance="10"
     inkscape:pageopacity="0"
     inkscape:pageshadow="2"
     inkscape:window-width="867"
     inkscape:window-height="480"
     id="namedview10"
     showgrid="false"
     inkscape:zoom="1.1512195"
     inkscape:cx="82"
     inkscape:cy="102.5"
     inkscape:window-x="0"
     inkscape:window-y="0"
     inkscape:window-maximized="0"
     inkscape:current-layer="svg8" /><path
     d="m 116.27886,103.51498 h 30.372 c 1.657,0 3,1.343 3,3 v 20.733 c 0,1.656 -1.343,3 -3,3 h -30.372 c -0.303,3.437 -1.832,6.531 -4.143,8.842 -2.59,2.591 -6.166,4.198 -10.103,4.198 H 65.069864 c -3.937,0 -7.513,-1.607 -10.103,-4.198 -2.311,-2.311 -3.839,-5.406 -4.142,-8.842 h -30.372 c -1.657,0 -3,-1.344 -3,-3 v -20.733 c 0,-1.657 1.343,-3 3,-3 h 30.372 c 0.303,-3.437 1.832,-6.531997 4.142,-8.842997 2.59,-2.59 6.167,-4.198 10.103,-4.198 h 2.597 v -5.844 c -11.848,-5.729 -18.282,-17.242 -18.282,-30.254 0,-18.869 15.3,-34.167 34.168,-34.167 18.869996,0 34.166996,15.298 34.166996,34.167 0,11.839 -5.283,22.618 -15.543,28.812 v 7.287 c 3.88,0.038 7.401,1.638 9.96,4.197 2.31,2.311 3.84,5.405997 4.142,8.842997 z m 27.372,5.999 h -27.316 v 14.734 h 27.316 z M 66.016864,54.326983 c 0,10.382 7.245,17.223 17.535,17.223 10.307,0 17.534996,-6.82 17.534996,-17.223 0,-9.685 -7.849996,-17.535 -17.534996,-17.535 -9.684,10e-4 -17.535,7.851 -17.535,17.535 z m -6,0 c 0,13.68 9.953,23.223 23.535,23.223 13.598996,0 23.534996,-9.525 23.534996,-23.223 0,-12.998 -10.536,-23.535 -23.534996,-23.535 -12.997,0.001 -23.535,10.537 -23.535,23.535 z m 21.491,-0.117 c 0,0.644 0.188,1.132 0.498,1.437 0.345,0.34 0.89,0.53 1.546,0.53 0.665,0 1.205,-0.19 1.543,-0.524 0.313,-0.309 0.5,-0.802 0.5,-1.442 0,-0.564 -0.229,-1.076 -0.599,-1.445 -0.369,-0.37 -0.88,-0.598 -1.445,-0.598 -0.565,0 -1.076,0.229 -1.445,0.598 -0.369,0.367 -0.598,0.879 -0.598,1.444 z m -3.697,5.702 c 1.474,1.452 3.5,2.264 5.742,2.264 2.267,0 4.277,-0.819 5.739,-2.259 1.444,-1.422 2.305,-3.388 2.305,-5.708 0,-2.221 -0.9,-4.232 -2.355,-5.688 -1.456,-1.456 -3.467,-2.356 -5.688,-2.356 -0.792,0 -1.558,0.114 -2.281,0.328 l -2.806,-3.18 c -1.094,-1.236 -2.982,-1.352 -4.218,-0.258 -1.236,1.094 -1.352,2.983 -0.258,4.219 l 2.585,2.93 c -0.678,1.179 -1.066,2.547 -1.066,4.005 -0.002,2.337 0.868,4.291 2.301,5.703 z m -12.741,77.375997 h 36.963996 c 2.28,0 4.354,-0.935 5.86,-2.44 1.506,-1.505 2.44,-3.58 2.44,-5.86 v -24.213 c 0,-2.28 -0.935,-4.354 -2.44,-5.859997 -1.505,-1.506 -3.58,-2.44 -5.86,-2.44 h -2.857 c -1.657,0 -3,-1.344 -3,-3 v -12.027 h 0.006 c 10e-4,-1.075 0.583,-2.113 1.6,-2.648 9.246,-4.895 13.938,-14.141 13.938,-24.423 0,-15.556 -12.611,-28.167 -28.166996,-28.167 -15.555,0 -28.168,12.612 -28.168,28.167 0,11.261 5.659,21.025 16.2,25.465 1.208,0.388 2.083,1.52 2.083,2.856 v 10.776 c 0,1.656 -1.343,3 -3,3 h -5.597 c -2.28,0 -4.355,0.935 -5.86,2.44 -1.506,1.505997 -2.44,3.579997 -2.44,5.859997 v 24.213 c 0,2.28 0.935,4.355 2.44,5.86 1.503,1.507 3.578,2.441 5.858,2.441 z m -14.301,-13.04 v -14.734 h -27.316 v 14.734 z"
     id="path2"
     inkscape:connector-curvature="0"
     style="clip-rule:evenodd;fill-rule:evenodd" /></svg>