<?xml version="1.0" encoding="UTF-8" standalone="no"?>
<svg
   xmlns:dc="http://purl.org/dc/elements/1.1/"
   xmlns:cc="http://creativecommons.org/ns#"
   xmlns:rdf="http://www.w3.org/1999/02/22-rdf-syntax-ns#"
   xmlns:svg="http://www.w3.org/2000/svg"
   xmlns="http://www.w3.org/2000/svg"
   xmlns:sodipodi="http://sodipodi.sourceforge.net/DTD/sodipodi-0.dtd"
   xmlns:inkscape="http://www.inkscape.org/namespaces/inkscape"
   data-name="Layer 1"
   viewBox="0 0 100 70"
   x="0px"
   y="0px"
   version="1.1"
   id="svg10"
   sodipodi:docname="frequency.svg"
   width="100"
   height="70"
   inkscape:version="0.92.3 (2405546, 2018-03-11)">
  <metadata
     id="metadata16">
    <rdf:RDF>
      <cc:Work
         rdf:about="">
        <dc:format>image/svg+xml</dc:format>
        <dc:type
           rdf:resource="http://purl.org/dc/dcmitype/StillImage" />
        <dc:title>08</dc:title>
      </cc:Work>
    </rdf:RDF>
  </metadata>
  <defs
     id="defs14" />
  <sodipodi:namedview
     pagecolor="#ffffff"
     bordercolor="#666666"
     borderopacity="1"
     objecttolerance="10"
     gridtolerance="10"
     guidetolerance="10"
     inkscape:pageopacity="0"
     inkscape:pageshadow="2"
     inkscape:window-width="867"
     inkscape:window-height="480"
     id="namedview12"
     showgrid="false"
     inkscape:zoom="1.888"
     inkscape:cx="39.67161"
     inkscape:cy="83.686441"
     inkscape:window-x="0"
     inkscape:window-y="27"
     inkscape:window-maximized="0"
     inkscape:current-layer="svg10" />
  <title
     id="title2">08</title>
  <path
     d="m 34.470339,49.504237 a 4,4 0 0 0 2.92,-2.32 l 11,-25 12.33,38.69 a 4,4 0 0 0 3.52,2.78 h 0.29 a 4,4 0 0 0 3.59,-2.25 l 11.23,-23 h 10 a 4,4 0 0 0 0,-8 h -12.49 a 4,4 0 0 0 -3.6,2.25 l -7.95,16.3 -12.48,-39.3199999 a 4,4 0 0 0 -7.47,-0.4 l -12.95,29.3999999 -9.56,-9.5 a 4,4 0 0 0 -2.82,-1.16 h -10.47 a 4,4 0 0 0 0,8 h 8.82 l 12.53,12.44 a 4,4 0 0 0 3.56,1.09 z"
     id="path4"
     inkscape:connector-curvature="0" />
</svg>
