<?xml version="1.0" encoding="UTF-8" standalone="no"?>
<svg
   xmlns:dc="http://purl.org/dc/elements/1.1/"
   xmlns:cc="http://creativecommons.org/ns#"
   xmlns:rdf="http://www.w3.org/1999/02/22-rdf-syntax-ns#"
   xmlns:svg="http://www.w3.org/2000/svg"
   xmlns="http://www.w3.org/2000/svg"
   xmlns:sodipodi="http://sodipodi.sourceforge.net/DTD/sodipodi-0.dtd"
   xmlns:inkscape="http://www.inkscape.org/namespaces/inkscape"
   version="1.1"
   x="0px"
   y="0px"
   viewBox="0 0 72 72"
   xml:space="preserve"
   id="svg32"
   sodipodi:docname="router.svg"
   width="72"
   height="72"
   inkscape:version="0.92.3 (2405546, 2018-03-11)"><metadata
     id="metadata38"><rdf:RDF><cc:Work
         rdf:about=""><dc:format>image/svg+xml</dc:format><dc:type
           rdf:resource="http://purl.org/dc/dcmitype/StillImage" /><dc:title></dc:title></cc:Work></rdf:RDF></metadata><defs
     id="defs36" /><sodipodi:namedview
     pagecolor="#ffffff"
     bordercolor="#666666"
     borderopacity="1"
     objecttolerance="10"
     gridtolerance="10"
     guidetolerance="10"
     inkscape:pageopacity="0"
     inkscape:pageshadow="2"
     inkscape:window-width="867"
     inkscape:window-height="480"
     id="namedview34"
     showgrid="false"
     inkscape:zoom="2.95"
     inkscape:cx="30.677859"
     inkscape:cy="41.355932"
     inkscape:window-x="0"
     inkscape:window-y="0"
     inkscape:window-maximized="0"
     inkscape:current-layer="svg32" /><g
     id="g26"
     transform="translate(4,4)"><path
       d="M 58,37 H 57 V 23 c 0,-0.107 -0.018,-0.214 -0.052,-0.316 L 56,19.838 V 8 C 56,6.346 54.654,5 53,5 51.346,5 50,6.346 50,8 v 11.838 l -0.948,2.846 C 49.018,22.786 49,22.893 49,23 V 37 H 47 V 23 c 0,-0.107 -0.018,-0.214 -0.052,-0.316 L 46,19.838 V 8 C 46,6.346 44.654,5 43,5 41.346,5 40,6.346 40,8 v 11.838 l -0.948,2.846 C 39.018,22.786 39,22.893 39,23 V 37 H 37 V 23 c 0,-0.107 -0.018,-0.214 -0.052,-0.316 L 36,19.838 V 8 C 36,6.346 34.654,5 33,5 31.346,5 30,6.346 30,8 v 11.838 l -0.948,2.846 C 29.018,22.786 29,22.893 29,23 V 37 H 6 c -2.757,0 -5,2.243 -5,5 v 12 c 0,2.757 2.243,5 5,5 h 0.22 l 0.811,3.242 C 7.142,62.688 7.541,63 8,63 h 10 c 0.459,0 0.858,-0.312 0.97,-0.758 L 19.78,59 h 24.44 l 0.811,3.242 C 45.142,62.688 45.541,63 46,63 h 10 c 0.459,0 0.858,-0.312 0.97,-0.758 L 57.78,59 H 58 c 2.757,0 5,-2.243 5,-5 V 42 c 0,-2.757 -2.243,-5 -5,-5 z M 51,23.162 51.948,20.316 C 51.982,20.214 52,20.107 52,20 V 8 c 0,-0.552 0.448,-1 1,-1 0.552,0 1,0.448 1,1 v 12 c 0,0.107 0.018,0.214 0.052,0.316 L 55,23.162 V 37 h -4 z m -10,0 0.948,-2.846 C 41.982,20.214 42,20.107 42,20 V 8 c 0,-0.552 0.448,-1 1,-1 0.552,0 1,0.448 1,1 v 12 c 0,0.107 0.018,0.214 0.052,0.316 L 45,23.162 V 37 h -4 z m -10,0 0.948,-2.846 C 31.982,20.214 32,20.107 32,20 V 8 c 0,-0.552 0.448,-1 1,-1 0.552,0 1,0.448 1,1 v 12 c 0,0.107 0.018,0.214 0.052,0.316 L 35,23.162 V 37 H 31 Z M 17.219,61 H 8.781 L 8.28,59 h 9.439 z m 38,0 H 46.781 L 46.28,59 h 9.439 z M 61,54 c 0,1.654 -1.346,3 -3,3 H 6 C 4.346,57 3,55.654 3,54 V 42 c 0,-1.654 1.346,-3 3,-3 h 10 v 1 c 0,1.654 1.346,3 3,3 h 19 c 0.553,0 1,-0.447 1,-1 0,-0.553 -0.447,-1 -1,-1 H 19 c -0.552,0 -1,-0.448 -1,-1 v -1 h 28 v 1 c 0,0.552 -0.448,1 -1,1 h -3 c -0.553,0 -1,0.447 -1,1 0,0.553 0.447,1 1,1 h 3 c 1.654,0 3,-1.346 3,-3 v -1 h 10 c 1.654,0 3,1.346 3,3 z"
       id="path2"
       inkscape:connector-curvature="0" /><path
       d="m 13,16 c 0,1.654 1.346,3 3,3 1.654,0 3,-1.346 3,-3 0,-1.654 -1.346,-3 -3,-3 -1.654,0 -3,1.346 -3,3 z m 4,0 c 0,0.552 -0.448,1 -1,1 -0.552,0 -1,-0.448 -1,-1 0,-0.552 0.448,-1 1,-1 0.552,0 1,0.448 1,1 z"
       id="path4"
       inkscape:connector-curvature="0" /><path
       d="M 54,43.09 V 42 c 0,-0.553 -0.447,-1 -1,-1 -0.553,0 -1,0.447 -1,1 v 1.09 c -2.833,0.478 -5,2.942 -5,5.91 0,3.309 2.691,6 6,6 3.309,0 6,-2.691 6,-6 0,-2.967 -2.167,-5.431 -5,-5.91 z M 53,53 c -2.206,0 -4,-1.794 -4,-4 0,-1.859 1.279,-3.411 3,-3.858 V 48 c 0,0.553 0.447,1 1,1 0.553,0 1,-0.447 1,-1 v -2.858 c 1.721,0.447 3,1.999 3,3.858 0,2.206 -1.794,4 -4,4 z"
       id="path6"
       inkscape:connector-curvature="0" /><path
       d="M 20,45 H 6 c -0.553,0 -1,0.447 -1,1 v 8 c 0,0.553 0.447,1 1,1 h 14 c 0.553,0 1,-0.447 1,-1 v -8 c 0,-0.553 -0.447,-1 -1,-1 z m -1,8 H 7 v -6 h 12 z"
       id="path8"
       inkscape:connector-curvature="0" /><circle
       cx="24"
       cy="54"
       r="1"
       id="circle10" /><circle
       cx="24"
       cy="50"
       r="1"
       id="circle12" /><circle
       cx="24"
       cy="46"
       r="1"
       id="circle14" /><path
       d="M 44,53 H 28 c -0.553,0 -1,0.447 -1,1 0,0.553 0.447,1 1,1 h 16 c 0.553,0 1,-0.447 1,-1 0,-0.553 -0.447,-1 -1,-1 z"
       id="path16"
       inkscape:connector-curvature="0" /><path
       d="m 28,51 h 10 c 0.553,0 1,-0.447 1,-1 0,-0.553 -0.447,-1 -1,-1 H 28 c -0.553,0 -1,0.447 -1,1 0,0.553 0.447,1 1,1 z"
       id="path18"
       inkscape:connector-curvature="0" /><path
       d="m 16,21 c -2.757,0 -5,-2.243 -5,-5 0,-2.757 2.243,-5 5,-5 0.553,0 1,-0.447 1,-1 0,-0.553 -0.447,-1 -1,-1 -3.859,0 -7,3.141 -7,7 0,3.859 3.141,7 7,7 0.553,0 1,-0.447 1,-1 0,-0.553 -0.447,-1 -1,-1 z"
       id="path20"
       inkscape:connector-curvature="0" /><path
       d="M 16,25 C 11.037,25 7,20.963 7,16 7,11.037 11.037,7 16,7 16.553,7 17,6.553 17,6 17,5.447 16.553,5 16,5 9.935,5 5,9.935 5,16 c 0,6.065 4.935,11 11,11 0.553,0 1,-0.447 1,-1 0,-0.553 -0.447,-1 -1,-1 z"
       id="path22"
       inkscape:connector-curvature="0" /><path
       d="m 16,31 c 0.553,0 1,-0.447 1,-1 0,-0.553 -0.447,-1 -1,-1 C 8.832,29 3,23.168 3,16 3,8.832 8.832,3 16,3 16.553,3 17,2.553 17,2 17,1.447 16.553,1 16,1 7.729,1 1,7.729 1,16 1,24.271 7.729,31 16,31 Z"
       id="path24"
       inkscape:connector-curvature="0" /></g></svg>