<?xml version="1.0" encoding="UTF-8" standalone="no"?>
<svg
   xmlns:dc="http://purl.org/dc/elements/1.1/"
   xmlns:cc="http://creativecommons.org/ns#"
   xmlns:rdf="http://www.w3.org/1999/02/22-rdf-syntax-ns#"
   xmlns:svg="http://www.w3.org/2000/svg"
   xmlns="http://www.w3.org/2000/svg"
   xmlns:sodipodi="http://sodipodi.sourceforge.net/DTD/sodipodi-0.dtd"
   xmlns:inkscape="http://www.inkscape.org/namespaces/inkscape"
   version="1.1"
   x="0px"
   y="0px"
   viewBox="0 0 14 18"
   xml:space="preserve"
   id="svg16"
   sodipodi:docname="humidity.svg"
   width="14"
   height="18"
   inkscape:version="0.92.3 (2405546, 2018-03-11)"><metadata
     id="metadata22"><rdf:RDF><cc:Work
         rdf:about=""><dc:format>image/svg+xml</dc:format><dc:type
           rdf:resource="http://purl.org/dc/dcmitype/StillImage" /><dc:title></dc:title></cc:Work></rdf:RDF></metadata><defs
     id="defs20" /><sodipodi:namedview
     pagecolor="#ffffff"
     bordercolor="#666666"
     borderopacity="1"
     objecttolerance="10"
     gridtolerance="10"
     guidetolerance="10"
     inkscape:pageopacity="0"
     inkscape:pageshadow="2"
     inkscape:window-width="867"
     inkscape:window-height="480"
     id="namedview18"
     showgrid="false"
     inkscape:zoom="11.8"
     inkscape:cx="8"
     inkscape:cy="10"
     inkscape:window-x="0"
     inkscape:window-y="27"
     inkscape:window-maximized="0"
     inkscape:current-layer="svg16" /><g
     id="g10"
     transform="translate(-1.0169492,1.0508475)"><path
       d="M 8,16 C 4.691,16 2,13.309 2,10 2,7.636 3.566,5.639 5.224,3.525 6.042,2.482 6.888,1.403 7.57,0.246 7.659,0.094 7.823,0 8,0 V 0 C 8.177,0 8.341,0.094 8.431,0.246 9.113,1.404 9.959,2.482 10.777,3.526 12.435,5.64 14,7.637 14,10 c 0,3.309 -2.691,6 -6,6 z M 8,1.447 C 7.381,2.395 6.687,3.28 6.011,4.142 4.462,6.117 3,7.981 3,10 c 0,2.757 2.243,5 5,5 2.757,0 5,-2.243 5,-5 C 13,7.982 11.538,6.117 9.989,4.143 9.313,3.281 8.619,2.395 8,1.447 Z"
       id="path2"
       inkscape:connector-curvature="0" /><path
       d="M 6.5,9 C 5.673,9 5,8.327 5,7.5 5,6.673 5.673,6 6.5,6 7.327,6 8,6.673 8,7.5 8,8.327 7.327,9 6.5,9 Z m 0,-2 C 6.224,7 6,7.224 6,7.5 6,7.776 6.224,8 6.5,8 6.776,8 7,7.776 7,7.5 7,7.224 6.776,7 6.5,7 Z"
       id="path4"
       inkscape:connector-curvature="0" /><path
       d="M 9.5,14 C 8.673,14 8,13.327 8,12.5 8,11.673 8.673,11 9.5,11 10.327,11 11,11.673 11,12.5 11,13.327 10.327,14 9.5,14 Z m 0,-2 C 9.225,12 9,12.225 9,12.5 9,12.775 9.225,13 9.5,13 9.775,13 10,12.775 10,12.5 10,12.225 9.775,12 9.5,12 Z"
       id="path6"
       inkscape:connector-curvature="0" /><path
       d="m 5.5,13 c -0.128,0 -0.256,-0.049 -0.354,-0.146 -0.195,-0.195 -0.195,-0.512 0,-0.707 l 5,-5 c 0.195,-0.195 0.512,-0.195 0.707,0 0.195,0.195 0.195,0.512 0,0.707 l -5,5 C 5.756,12.951 5.628,13 5.5,13 Z"
       id="path8"
       inkscape:connector-curvature="0" /></g><text
     x="0"
     y="29"
     font-size="5px"
     font-weight="bold"
     id="text12"
     style="font-weight:bold;font-size:5px;font-family:'Helvetica Neue', Helvetica, Arial-Unicode, Arial, Sans-serif;fill:#000000">Created by icon 54</text>
<text
     x="0"
     y="34"
     font-size="5px"
     font-weight="bold"
     id="text14"
     style="font-weight:bold;font-size:5px;font-family:'Helvetica Neue', Helvetica, Arial-Unicode, Arial, Sans-serif;fill:#000000">from the Noun Project</text>
</svg>