<?xml version="1.0" encoding="UTF-8" standalone="no"?>
<svg
   xmlns:dc="http://purl.org/dc/elements/1.1/"
   xmlns:cc="http://creativecommons.org/ns#"
   xmlns:rdf="http://www.w3.org/1999/02/22-rdf-syntax-ns#"
   xmlns:svg="http://www.w3.org/2000/svg"
   xmlns="http://www.w3.org/2000/svg"
   xmlns:sodipodi="http://sodipodi.sourceforge.net/DTD/sodipodi-0.dtd"
   xmlns:inkscape="http://www.inkscape.org/namespaces/inkscape"
   version="1.1"
   x="0px"
   y="0px"
   viewBox="0 0 110 110"
   enable-background="new 0 0 110 110"
   xml:space="preserve"
   id="svg8"
   sodipodi:docname="iot-white.svg"
   width="110"
   height="110"
   inkscape:version="0.92.3 (2405546, 2018-03-11)"><metadata
     id="metadata14"><rdf:RDF><cc:Work
         rdf:about=""><dc:format>image/svg+xml</dc:format><dc:type
           rdf:resource="http://purl.org/dc/dcmitype/StillImage" /><dc:title></dc:title></cc:Work></rdf:RDF></metadata><defs
     id="defs12" /><sodipodi:namedview
     pagecolor="#ffffff"
     bordercolor="#666666"
     borderopacity="1"
     objecttolerance="10"
     gridtolerance="10"
     guidetolerance="10"
     inkscape:pageopacity="0"
     inkscape:pageshadow="2"
     inkscape:window-width="1229"
     inkscape:window-height="634"
     id="namedview10"
     showgrid="false"
     inkscape:zoom="1.7163636"
     inkscape:cx="55"
     inkscape:cy="68.75"
     inkscape:window-x="0"
     inkscape:window-y="0"
     inkscape:window-maximized="0"
     inkscape:current-layer="svg8" /><path
     d="m 92,59.5 c -3.71,0 -7,1.84 -8.99,4.67 L 67.51,57.04 C 67.83,55.91 68,54.73 68,53.5 c 0,-5 -2.82,-9.33 -6.95,-11.51 l 5.67,-16.58 c 0.42,0.06 0.85,0.09 1.28,0.09 5.53,0 10,-4.48 10,-10 0,-5.52 -4.47,-10 -10,-10 -5.52,0 -10,4.48 -10,10 0,3.67 1.98,6.89 4.94,8.62 L 57.27,40.7 c -0.74,-0.13 -1.5,-0.2 -2.27,-0.2 -3.94,0 -7.47,1.75 -9.85,4.52 L 25.64,32.89 C 25.87,32.14 26,31.33 26,30.5 c 0,-4.42 -3.58,-8 -8,-8 -4.42,0 -8,3.58 -8,8 0,4.42 3.58,8 8,8 2.14,0 4.08,-0.84 5.52,-2.21 L 43.03,48.42 C 42.37,49.98 42,51.7 42,53.5 c 0,2.14 0.52,4.17 1.44,5.95 L 25.55,72.51 C 23.58,70.64 20.92,69.5 18,69.5 c -6.07,0 -11,4.92 -11,11 0,6.08 4.93,11 11,11 6.08,0 11,-4.92 11,-11 0,-1.71 -0.39,-3.32 -1.08,-4.76 L 45.81,62.69 c 2.25,2.25 5.33,3.689 8.75,3.8 l 2.51,20.569 C 54.1,88.22 52,91.11 52,94.5 c 0,4.42 3.58,8 8,8 4.42,0 8,-3.58 8,-8 0,-4.06 -3.03,-7.42 -6.95,-7.93 L 58.54,66 c 3.03,-0.84 5.61,-2.77 7.3,-5.33 l 15.5,7.13 C 81.12,68.66 81,69.57 81,70.5 c 0,6.08 4.93,11 11,11 6.08,0 11,-4.92 11,-11 0,-6.08 -4.92,-11 -11,-11 z m -30,-44 c 0,-3.31 2.69,-6 6,-6 3.31,0 6,2.69 6,6 0,3.29 -2.66,5.97 -5.94,6 H 68 c -1.41,0 -2.7,-0.48 -3.72,-1.3 C 62.89,19.11 62,17.41 62,15.5 Z M 21.99,30.62 c -0.04,1.48 -0.88,2.75 -2.11,3.41 -0.56,0.3 -1.2,0.47 -1.88,0.47 -2.21,0 -4,-1.79 -4,-4 0,-2.21 1.79,-4 4,-4 2.21,0 4,1.79 4,4 0,0.04 0,0.08 -0.01,0.12 z M 18,87.5 c -3.86,0 -7,-3.14 -7,-7 0,-3.86 3.14,-7 7,-7 1.59,0 3.05,0.53 4.23,1.43 1.08,0.811 1.91,1.94 2.37,3.24 0.26,0.73 0.4,1.51 0.4,2.33 0,3.86 -3.14,7 -7,7 z m 42,3 c 0.56,0 1.09,0.12 1.57,0.33 1.43,0.6 2.43,2.02 2.43,3.67 0,2.21 -1.79,4 -4,4 -2.21,0 -4,-1.79 -4,-4 0,-1.3 0.62,-2.46 1.59,-3.19 C 58.26,90.8 59.1,90.5 60,90.5 Z m 3.81,-35.16 c -0.279,1.34 -0.859,2.58 -1.67,3.63 -1.04,1.36 -2.46,2.41 -4.09,2.99 C 57.1,62.31 56.07,62.5 55,62.5 54.69,62.5 54.38,62.48 54.07,62.45 52.18,62.26 50.46,61.47 49.1,60.29 48.09,59.41 47.27,58.3 46.73,57.05 46.26,55.96 46,54.76 46,53.5 c 0,-1.03 0.17,-2.01 0.5,-2.93 0.44,-1.29 1.17,-2.45 2.11,-3.4 1.63,-1.65 3.89,-2.67 6.39,-2.67 0.32,0 0.64,0.02 0.95,0.05 1.38,0.14 2.66,0.6 3.78,1.3 2.56,1.59 4.27,4.42 4.27,7.65 0,0.63 -0.07,1.25 -0.19,1.84 z M 92,77.5 c -3.86,0 -7,-3.14 -7,-7 0,-0.33 0.02,-0.66 0.08,-0.98 0.18,-1.38 0.78,-2.64 1.67,-3.64 1.28,-1.46 3.16,-2.38 5.25,-2.38 3.86,0 7,3.14 7,7 0,3.86 -3.14,7 -7,7 z"
     id="path2"
     inkscape:connector-curvature="0"
     style="fill:#f9f9f9" /></svg>