<svg xmlns="http://www.w3.org/2000/svg" xmlns:xlink="http://www.w3.org/1999/xlink" viewBox="0 0 18 30" version="1.1" x="0px" y="0px"><title>49 - Joystick (Outline)</title><desc>Created with Sketch.</desc><g stroke="none" stroke-width="1" fill="none" fill-rule="evenodd"><g fill="#000000"><path d="M11,15 C11,16.1047153 10.1047153,17 9,17 C7.89528475,17 7,16.1047153 7,15 C7,13.8952847 7.89528475,13 9,13 C10.1047153,13 11,13.8952847 11,15 Z M13,15 C13,12.7907153 11.2092847,11 9,11 C6.79071525,11 5,12.7907153 5,15 C5,17.2092847 6.79071525,19 9,19 C11.2092847,19 13,17.2092847 13,15 Z"/><path d="M12,5 C12,6.65671525 10.6567153,8 9,8 C7.34328475,8 6,6.65671525 6,5 C6,3.34328475 7.34328475,2 9,2 C10.6567153,2 12,3.34328475 12,5 Z M14,5 C14,2.23871525 11.7612847,0 9,0 C6.23871525,0 4,2.23871525 4,5 C4,7.76128475 6.23871525,10 9,10 C11.7612847,10 14,7.76128475 14,5 Z"/><path d="M13.192,6 C12.4594154,6 11.766358,6.3280502 11.3046734,6.89666914 C10.7374278,7.59194801 9.90460363,8 9,8 C8.09539637,8 7.2625722,7.59194801 6.69384273,6.89484595 C6.23364198,6.3280502 5.54058461,6 4.808,6 L2.453,6 C1.09771525,6 0,7.09771525 0,8.453 L0,21.547 C0,22.9022847 1.09771525,24 2.453,24 L15.547,24 C16.9022847,24 18,22.9022847 18,21.547 L18,8.453 C18,7.09771525 16.9022847,6 15.547,6 L13.192,6 Z M13.192,8 L15.547,8 C15.7977153,8 16,8.20228475 16,8.453 L16,21.547 C16,21.7977153 15.7977153,22 15.547,22 L2.453,22 C2.20228475,22 2,21.7977153 2,21.547 L2,8.453 C2,8.20228475 2.20228475,8 2.453,8 L4.808,8 C4.93978535,8 5.06183741,8.05777185 5.14267339,8.15733086 C6.08713471,9.31497866 7.48524656,10 9,10 C10.5147534,10 11.9128653,9.31497866 12.8558427,8.15915405 C12.9381626,8.05777185 13.0602147,8 13.192,8 Z"/><path d="M8,9 L8,15 C8,15.5522847 8.44771525,16 9,16 C9.55228475,16 10,15.5522847 10,15 L10,9 C10,8.44771525 9.55228475,8 9,8 C8.44771525,8 8,8.44771525 8,9 Z"/><path d="M4,21 L6,21 C6.55228475,21 7,20.5522847 7,20 C7,19.4477153 6.55228475,19 6,19 L4,19 C3.44771525,19 3,19.4477153 3,20 C3,20.5522847 3.44771525,21 4,21 Z"/><path d="M12,21 L14,21 C14.5522847,21 15,20.5522847 15,20 C15,19.4477153 14.5522847,19 14,19 L12,19 C11.4477153,19 11,19.4477153 11,20 C11,20.5522847 11.4477153,21 12,21 Z"/></g></g><text x="0" y="39" fill="#000000" font-size="5px" font-weight="bold" font-family="'Helvetica Neue', Helvetica, Arial-Unicode, Arial, Sans-serif">Created by Ben Davis</text><text x="0" y="44" fill="#000000" font-size="5px" font-weight="bold" font-family="'Helvetica Neue', Helvetica, Arial-Unicode, Arial, Sans-serif">from the Noun Project</text></svg>