<?xml version="1.0" encoding="UTF-8" standalone="no"?>
<svg
   xmlns:dc="http://purl.org/dc/elements/1.1/"
   xmlns:cc="http://creativecommons.org/ns#"
   xmlns:rdf="http://www.w3.org/1999/02/22-rdf-syntax-ns#"
   xmlns:svg="http://www.w3.org/2000/svg"
   xmlns="http://www.w3.org/2000/svg"
   xmlns:sodipodi="http://sodipodi.sourceforge.net/DTD/sodipodi-0.dtd"
   xmlns:inkscape="http://www.inkscape.org/namespaces/inkscape"
   version="1.1"
   x="0px"
   y="0px"
   viewBox="0 0 100 125"
   enable-background="new 0 0 100 100"
   xml:space="preserve"
   id="svg14"
   sodipodi:docname="level-control.svg"
   inkscape:version="0.92.3 (2405546, 2018-03-11)"><metadata
     id="metadata20"><rdf:RDF><cc:Work
         rdf:about=""><dc:format>image/svg+xml</dc:format><dc:type
           rdf:resource="http://purl.org/dc/dcmitype/StillImage" /></cc:Work></rdf:RDF></metadata><defs
     id="defs18" /><sodipodi:namedview
     pagecolor="#ffffff"
     bordercolor="#666666"
     borderopacity="1"
     objecttolerance="10"
     gridtolerance="10"
     guidetolerance="10"
     inkscape:pageopacity="0"
     inkscape:pageshadow="2"
     inkscape:window-width="867"
     inkscape:window-height="480"
     id="namedview16"
     showgrid="false"
     inkscape:zoom="1.888"
     inkscape:cx="53.442797"
     inkscape:cy="58.792373"
     inkscape:window-x="0"
     inkscape:window-y="27"
     inkscape:window-maximized="0"
     inkscape:current-layer="svg14" /><g
     id="g8"
     inkscape:export-xdpi="792.35071"
     inkscape:export-ydpi="792.35071"
     style="fill:#f9f9f9"><g
       id="g6"
       style="fill:#f9f9f9"><path
         d="m 50,17.029 c -20.057,0 -36.375,16.318 -36.375,36.375 0,0.828 0.671,1.5 1.5,1.5 0.829,0 1.5,-0.672 1.5,-1.5 0,-18.403 14.972,-33.375 33.375,-33.375 18.403,0 33.375,14.972 33.375,33.375 0,0.828 0.672,1.5 1.5,1.5 0.828,0 1.5,-0.672 1.5,-1.5 C 86.375,33.347 70.058,17.029 50,17.029 Z"
         id="path2"
         inkscape:connector-curvature="0"
         style="fill:#f9f9f9" /><path
         d="m 50,29.545 c -6.555,0 -12.571,2.35 -17.253,6.25 -0.03,0.022 -0.062,0.038 -0.091,0.062 -0.04,0.033 -0.071,0.073 -0.106,0.109 -5.837,4.956 -9.55,12.34 -9.55,20.579 0,14.888 12.112,27 27,27 14.888,0 27,-12.112 27,-27 0,-14.888 -12.112,-27 -27,-27 z m 0,51 c -13.233,0 -24,-10.767 -24,-24 0,-6.833 2.875,-13.003 7.474,-17.378 l 15.377,18.342 c 0.296,0.354 0.722,0.536 1.15,0.536 0.34,0 0.682,-0.115 0.963,-0.351 0.635,-0.532 0.718,-1.479 0.186,-2.113 L 35.77,37.234 c 3.985,-2.945 8.907,-4.689 14.231,-4.689 13.233,0 24,10.767 24,24 0,13.233 -10.768,24 -24.001,24 z"
         id="path4"
         inkscape:connector-curvature="0"
         style="fill:#f9f9f9" /></g></g></svg>