<?xml version="1.0" encoding="UTF-8" standalone="no"?>
<svg
   xmlns:dc="http://purl.org/dc/elements/1.1/"
   xmlns:cc="http://creativecommons.org/ns#"
   xmlns:rdf="http://www.w3.org/1999/02/22-rdf-syntax-ns#"
   xmlns:svg="http://www.w3.org/2000/svg"
   xmlns="http://www.w3.org/2000/svg"
   xmlns:sodipodi="http://sodipodi.sourceforge.net/DTD/sodipodi-0.dtd"
   xmlns:inkscape="http://www.inkscape.org/namespaces/inkscape"
   data-name="Layer 1"
   viewBox="0 0 105 105"
   x="0px"
   y="0px"
   version="1.1"
   id="svg16"
   sodipodi:docname="ligt-output.svg"
   width="105"
   height="105"
   inkscape:version="0.92.3 (2405546, 2018-03-11)">
  <metadata
     id="metadata22">
    <rdf:RDF>
      <cc:Work
         rdf:about="">
        <dc:format>image/svg+xml</dc:format>
        <dc:type
           rdf:resource="http://purl.org/dc/dcmitype/StillImage" />
        <dc:title>74 all</dc:title>
      </cc:Work>
    </rdf:RDF>
  </metadata>
  <defs
     id="defs20" />
  <sodipodi:namedview
     pagecolor="#ffffff"
     bordercolor="#666666"
     borderopacity="1"
     objecttolerance="10"
     gridtolerance="10"
     guidetolerance="10"
     inkscape:pageopacity="0"
     inkscape:pageshadow="2"
     inkscape:window-width="1382"
     inkscape:window-height="834"
     id="namedview18"
     showgrid="false"
     inkscape:zoom="1.888"
     inkscape:cx="50"
     inkscape:cy="62.5"
     inkscape:window-x="0"
     inkscape:window-y="27"
     inkscape:window-maximized="0"
     inkscape:current-layer="svg16" />
  <title
     id="title2">74 all</title>
  <path
     d="m 21.207627,55.725085 v -7.17 h -4 v 7.17 a 11,11 0 0 0 11,11 h 23.5 v 6.17 h -4.83 a 4,4 0 0 0 -4,4 v 18.66 a 4,4 0 0 0 4,4 h 13.66 a 4,4 0 0 0 4,-4 v -18.67 a 4,4 0 0 0 -4,-4 h -4.83 v -6.16 h 23.5 a 11,11 0 0 0 11,-11 v -7.17 h -4 v 7.17 a 7,7 0 0 1 -7,7 h -23.5 v -14.17 h -4 v 14.17 h -23.5 a 7,7 0 0 1 -7,-7 z m 25.67,39.83 v -8.83 h 13.66 v 8.83 z m 13.66,-12.83 h -13.66 v -5.84 h 13.66 z"
     id="path4"
     inkscape:connector-curvature="0" />
  <path
     d="m 66.867627,20.215085 a 13.16,13.16 0 1 0 -20.16,11.14 v 1.88 a 2,2 0 0 0 -0.36,1.14 v 4.11 a 7.34,7.34 0 0 0 14.68,0 v -4.11 a 2,2 0 0 0 -0.32,-1.14 v -1.88 a 13.08,13.08 0 0 0 6.16,-11.14 z m -13.16,-9.16 a 9.16,9.16 0 0 1 4.09,17.35 2,2 0 0 0 -1.09,1.9 c 0,0 0,0 0,0 v 2 h -6 v -2 c 0,0 0,0 0,0 a 2,2 0 0 0 -1.1,-1.92 9.16,9.16 0 0 1 4.1,-17.33 z m 3.34,27.43 a 3.34,3.34 0 0 1 -6.68,0 v -2.11 h 6.68 z"
     id="path6"
     inkscape:connector-curvature="0" />
  <path
     d="m 87.707627,7.0550847 a 13.15,13.15 0 0 0 -7,24.3000003 v 1.88 a 2,2 0 0 0 -0.36,1.14 v 4.11 a 7.34,7.34 0 0 0 14.68,0 v -4.11 a 2,2 0 0 0 -0.32,-1.14 v -1.88 a 13.15,13.15 0 0 0 -7,-24.3000003 z m 3.34,31.4300003 a 3.34,3.34 0 0 1 -6.68,0 v -2.11 h 6.68 z m 0.75,-10.08 a 2,2 0 0 0 -1.09,1.9 c 0,0 0,0 0,0 v 2 h -6 v -2 c 0,0 0,0 0,0 a 2,2 0 0 0 -1.1,-1.92 9.16,9.16 0 1 1 8.17,0 z"
     id="path8"
     inkscape:connector-curvature="0" />
  <path
     d="m 19.707627,7.0550847 a 13.15,13.15 0 0 0 -7,24.3000003 v 1.88 a 2,2 0 0 0 -0.36,1.14 v 4.11 a 7.34,7.34 0 0 0 14.68,0 v -4.11 a 2,2 0 0 0 -0.32,-1.14 v -1.88 a 13.15,13.15 0 0 0 -7,-24.3000003 z m 3.34,31.4300003 a 3.34,3.34 0 0 1 -6.68,0 v -2.11 h 6.68 z m 0.75,-10.08 a 2,2 0 0 0 -1.09,1.9 c 0,0 0,0 0,0 v 2 h -6 v -2 c 0,0 0,0 0,0 a 2,2 0 0 0 -1.1,-1.92 9.16,9.16 0 1 1 8.17,0 z"
     id="path10"
     inkscape:connector-curvature="0" />
</svg>
