<?xml version="1.0" encoding="UTF-8" standalone="no"?>
<svg
   xmlns:dc="http://purl.org/dc/elements/1.1/"
   xmlns:cc="http://creativecommons.org/ns#"
   xmlns:rdf="http://www.w3.org/1999/02/22-rdf-syntax-ns#"
   xmlns:svg="http://www.w3.org/2000/svg"
   xmlns="http://www.w3.org/2000/svg"
   xmlns:sodipodi="http://sodipodi.sourceforge.net/DTD/sodipodi-0.dtd"
   xmlns:inkscape="http://www.inkscape.org/namespaces/inkscape"
   data-name="Layer 1"
   viewBox="0 0 60 75"
   x="0px"
   y="0px"
   version="1.1"
   id="svg10"
   sodipodi:docname="noun_Location_1852598.svg"
   width="60"
   height="75"
   inkscape:version="0.92.3 (2405546, 2018-03-11)">
  <metadata
     id="metadata16">
    <rdf:RDF>
      <cc:Work
         rdf:about="">
        <dc:format>image/svg+xml</dc:format>
        <dc:type
           rdf:resource="http://purl.org/dc/dcmitype/StillImage" />
        <dc:title>x</dc:title>
      </cc:Work>
    </rdf:RDF>
  </metadata>
  <defs
     id="defs14" />
  <sodipodi:namedview
     pagecolor="#ffffff"
     bordercolor="#666666"
     borderopacity="1"
     objecttolerance="10"
     gridtolerance="10"
     guidetolerance="10"
     inkscape:pageopacity="0"
     inkscape:pageshadow="2"
     inkscape:window-width="867"
     inkscape:window-height="480"
     id="namedview12"
     showgrid="false"
     inkscape:zoom="2.95"
     inkscape:cx="32"
     inkscape:cy="40"
     inkscape:window-x="0"
     inkscape:window-y="27"
     inkscape:window-maximized="0"
     inkscape:current-layer="svg10" />
  <title
     id="title2">x</title>
  <path
     d="m 29.288136,68.768474 a 6.1,6.1 0 0 1 -5.13,-2.78 c -6.55,-10.07 -17.5400005,-28.27 -17.5400005,-37.08 a 22.67,22.67 0 0 1 45.3400005,0 c 0,8.8 -11,27 -17.54,37.08 a 6.1,6.1 0 0 1 -5.13,2.78 z m 0,-59.0799995 a 19.24,19.24 0 0 0 -19.22,19.2199995 c 0,8.44 13,29.07 17,35.2 a 2.67,2.67 0 0 0 4.48,0 c 4,-6.12 17,-26.76 17,-35.2 a 19.24,19.24 0 0 0 -19.26,-19.2199995 z m 0,29.4599995 a 10.47,10.47 0 1 1 10.47,-10.47 10.49,10.49 0 0 1 -10.47,10.47 z m 0,-17.49 a 7,7 0 1 0 7,7 7,7 0 0 0 -7,-7 z"
     id="path4"
     inkscape:connector-curvature="0" />
</svg>
