<?xml version="1.0" encoding="UTF-8" standalone="no"?>
<svg
   xmlns:dc="http://purl.org/dc/elements/1.1/"
   xmlns:cc="http://creativecommons.org/ns#"
   xmlns:rdf="http://www.w3.org/1999/02/22-rdf-syntax-ns#"
   xmlns:svg="http://www.w3.org/2000/svg"
   xmlns="http://www.w3.org/2000/svg"
   xmlns:sodipodi="http://sodipodi.sourceforge.net/DTD/sodipodi-0.dtd"
   xmlns:inkscape="http://www.inkscape.org/namespaces/inkscape"
   version="1.1"
   x="0px"
   y="0px"
   viewBox="0 0 24 27"
   enable-background="new 0 0 32 32"
   xml:space="preserve"
   id="svg20"
   sodipodi:docname="magnetism.svg"
   width="24"
   height="27"
   inkscape:version="0.92.3 (2405546, 2018-03-11)"><metadata
     id="metadata26"><rdf:RDF><cc:Work
         rdf:about=""><dc:format>image/svg+xml</dc:format><dc:type
           rdf:resource="http://purl.org/dc/dcmitype/StillImage" /><dc:title></dc:title></cc:Work></rdf:RDF></metadata><defs
     id="defs24" /><sodipodi:namedview
     pagecolor="#ffffff"
     bordercolor="#666666"
     borderopacity="1"
     objecttolerance="10"
     gridtolerance="10"
     guidetolerance="10"
     inkscape:pageopacity="0"
     inkscape:pageshadow="2"
     inkscape:window-width="867"
     inkscape:window-height="480"
     id="namedview22"
     showgrid="false"
     inkscape:zoom="5.9"
     inkscape:cx="13.098874"
     inkscape:cy="21.820359"
     inkscape:window-x="0"
     inkscape:window-y="27"
     inkscape:window-maximized="0"
     inkscape:current-layer="svg20" /><g
     id="g14"
     transform="translate(-3.8060753,-2.6930198)"><g
       id="g12"><path
         d="m 19.5,8.75 v 9.5 c 0,1.93 -1.57,3.5 -3.5,3.5 -1.93,0 -3.5,-1.57 -3.5,-3.5 v -9.5 h -6 v 9.5 c 0,5.238 4.262,9.5 9.5,9.5 5.238,0 9.5,-4.262 9.5,-9.5 v -9.5 z m 5,1 v 3 h -4 v -3 z m -13,0 v 3 h -4 v -3 z m 4.5,17 c -4.687,0 -8.5,-3.813 -8.5,-8.5 v -4.5 h 4 v 4.5 c 0,2.481 2.019,4.5 4.5,4.5 2.481,0 4.5,-2.019 4.5,-4.5 v -4.5 h 4 v 4.5 c 0,4.687 -3.813,8.5 -8.5,8.5 z"
         id="path2"
         inkscape:connector-curvature="0" /><rect
         x="7.5"
         y="5.25"
         width="1"
         height="2"
         id="rect4" /><rect
         x="10.5"
         y="4.25"
         width="1"
         height="3"
         id="rect6" /><rect
         x="20.5"
         y="4.25"
         width="1"
         height="3"
         id="rect8" /><rect
         x="23.5"
         y="5.25"
         width="1"
         height="2"
         id="rect10" /></g></g></svg>