<?xml version="1.0" encoding="UTF-8" standalone="no"?>
<svg
   xmlns:dc="http://purl.org/dc/elements/1.1/"
   xmlns:cc="http://creativecommons.org/ns#"
   xmlns:rdf="http://www.w3.org/1999/02/22-rdf-syntax-ns#"
   xmlns:svg="http://www.w3.org/2000/svg"
   xmlns="http://www.w3.org/2000/svg"
   xmlns:xlink="http://www.w3.org/1999/xlink"
   xmlns:sodipodi="http://sodipodi.sourceforge.net/DTD/sodipodi-0.dtd"
   xmlns:inkscape="http://www.inkscape.org/namespaces/inkscape"
   version="1.1"
   viewBox="0 0 65 65"
   x="0px"
   y="0px"
   id="svg99"
   sodipodi:docname="mcu.svg"
   width="100"
   height="100"
   inkscape:version="0.92.3 (2405546, 2018-03-11)">
  <metadata
     id="metadata103">
    <rdf:RDF>
      <cc:Work
         rdf:about="">
        <dc:format>image/svg+xml</dc:format>
        <dc:type
           rdf:resource="http://purl.org/dc/dcmitype/StillImage" />
        <dc:title></dc:title>
      </cc:Work>
    </rdf:RDF>
  </metadata>
  <sodipodi:namedview
     pagecolor="#ffffff"
     bordercolor="#666666"
     borderopacity="1"
     objecttolerance="10"
     gridtolerance="10"
     guidetolerance="10"
     inkscape:pageopacity="0"
     inkscape:pageshadow="2"
     inkscape:window-width="1017"
     inkscape:window-height="719"
     id="namedview101"
     showgrid="false"
     scale-x="0.65"
     inkscape:zoom="2.2250293"
     inkscape:cx="41.504957"
     inkscape:cy="5.3448069"
     inkscape:window-x="0"
     inkscape:window-y="27"
     inkscape:window-maximized="0"
     inkscape:current-layer="svg99" />
  <defs
     id="defs5">
    <path
       id="b"
       d="m 5,2 h -4 -4e-8 C 0.44771496,2 -4.37114e-8,1.552285 -4.37114e-8,1 -1.95703e-8,0.447715 0.44771496,0 0.99999996,0 H 5 h -1e-7 c 0.552285,-2.41411e-8 1,0.447715 1,1 0,0.552285 -0.447715,1 -0.9999999,1 z"
       inkscape:connector-curvature="0" />
    <path
       id="a"
       d="m 4,2 h -3 -4e-8 C 0.44771496,2 -4.37114e-8,1.552285 -4.37114e-8,1 -1.95703e-8,0.447715 0.44771496,0 0.99999996,0 H 4 h -10e-8 c 0.552285,-2.41411e-8 1,0.447715 1,1 0,0.552285 -0.447715,1 -0.9999999,1 z"
       inkscape:connector-curvature="0" />
    <path
       id="c"
       d="M 1,4 V 4 C 0.448036,4.0003204 3.2000041e-4,3.553125 0,3.00116 -2.2411944e-7,3.0007732 -2.2411944e-7,3.0003864 0,2.9999997 v -2.00000004 1.5e-7 C -8.2985598e-8,0.44771481 0.447715,-1.8900423e-7 1,-1.8900423e-7 1.552285,-2.7239693e-7 2,0.44771481 2,0.99999981 c 0,0 0,0 0,0 v 1.99999999 -1.73e-5 c 3.301e-4,0.551964 -0.446858,0.999687 -0.998822,1.00002 -3.868e-4,2e-7 -7.737e-4,2e-7 -0.00116,0 z"
       inkscape:connector-curvature="0" />
  </defs>
  <g
     id="g93"
     style="fill:#000000"
     transform="translate(2.9213098,3.3823075)">
    <path
       d="m 1,22 v 0 C 0.448036,22.00032 3.2000041e-4,21.553125 0,21.00116 -2.2411943e-7,21.000773 -2.2411943e-7,21.000386 0,21 v -18.0000003 -1e-6 C 0.00180825,1.3438987 1.3439,0.00180868 3,-1.3188452e-6 h 48 v 3.93e-11 C 52.6561,0.00180641 53.99819,1.3438987 54,2.9999987 v 13.0000003 0 c 0,0.552285 -0.447715,1 -1,1 -0.552285,0 -1,-0.447715 -1,-1 V 2.9999987 2.9999874 c -3.81e-4,-0.552129 -0.447882,-0.99962 -1.00001,-0.999989 h -48 v 0 c -0.552129,3.751e-4 -0.999625,0.447871 -1,1 v 17.9999996 -1.7e-5 c 3.301e-4,0.551964 -0.446858,0.999687 -0.998822,1.00002 -3.868e-4,0 -7.735e-4,0 -0.00116,0 z"
       transform="translate(3)"
       id="path7"
       inkscape:connector-curvature="0" />
    <use
       transform="translate(28,54)"
       xlink:href="#b"
       id="use9"
       x="0"
       y="0"
       width="100%"
       height="100%" />
    <path
       d="m 14,22 h -11 10e-8 C 1.3439001,21.998192 0.00181006,20.6561 5.93973e-8,19 V 1 l 1.2e-14,-1.3e-7 C 1.4279001e-7,0.44771487 0.44771506,-1.2985717e-7 1.0000001,-1.2985717e-7 c 0.552285,8.33927e-8 1,0.44771499985717 1,0.99999999985717 V 19 v 1.1e-5 C 2.0003814,19.55214 2.4478821,19.999631 3.0000101,20 H 14.00001 v 0 c 0.552285,0 1,0.447715 1,1 0,0.552285 -0.447715,1 -1,1 z"
       transform="translate(3,34)"
       id="path11"
       inkscape:connector-curvature="0" />
    <path
       d="m 12,28 h -11 -4e-8 C 0.44771496,28 -4.37114e-8,27.552285 -4.37114e-8,27 -1.95703e-8,26.447715 0.44771496,26 0.99999996,26 H 12 v 0 c 0.552129,-3.75e-4 0.999625,-0.447871 1,-1 v -24 2e-7 C 13,0.44771515 13.447715,1.5098051e-7 14,1.5098051e-7 14.552285,6.758781e-8 15,0.44771515 15,1.0000002 c 0,0 0,0 0,0 V 25 v 1e-6 c -0.0018,1.6561 -1.3439,2.99819 -3,3 z"
       transform="translate(42,28)"
       id="path13"
       inkscape:connector-curvature="0" />
    <path
       d="m 3,6 h -10e-8 C 1.3431499,5.9999999 -1.31134e-7,4.65685 -1.31134e-7,3 -5.87106e-8,1.34315 1.3431499,0 2.9999999,0 c 1.65685,7.2423396e-8 3,1.34315 3,3 v 7e-7 C 5.9981917,4.6561007 4.6560999,5.9981907 3,6 Z M 3,2 V 2 C 2.447715,2 2,2.447715 2,3 2,3.552285 2.447715,4 3,4 3.552285,4 4,3.552285 4,3 l -10e-8,-1.12e-5 c -3.812e-4,-0.552129 -0.447882,-0.99962 -1.00001,-0.999989 z"
       transform="translate(7,4)"
       id="path15"
       inkscape:connector-curvature="0" />
    <path
       d="m 3,6 h -10e-8 C 1.3431499,5.9999999 -1.31134e-7,4.65685 -1.31134e-7,3 -5.87106e-8,1.34315 1.3431499,0 2.9999999,0 c 1.65685,7.2423396e-8 3,1.34315 3,3 v 7e-7 C 5.9981917,4.6561007 4.6560999,5.9981907 3,6 Z M 3,2 V 2 C 2.447715,2 2,2.447715 2,3 2,3.552285 2.447715,4 3,4 3.552285,4 4,3.552285 4,3 l -10e-8,-1.12e-5 c -3.812e-4,-0.552129 -0.447882,-0.99962 -1.00001,-0.999989 z"
       transform="translate(47,4)"
       id="path17"
       inkscape:connector-curvature="0" />
    <path
       d="m 3,6 h -10e-8 C 1.3431499,5.9999999 -1.31134e-7,4.65685 -1.31134e-7,3 -5.87106e-8,1.34315 1.3431499,0 2.9999999,0 c 1.65685,7.24234e-8 3,1.34315 3,3 v 7e-7 C 5.9981917,4.6561007 4.6560999,5.9981907 3,6 Z M 3,2 V 2 C 2.447715,2 2,2.447715 2,3 2,3.552285 2.447715,4 3,4 3.552285,4 4,3.552285 4,3 l -10e-8,-1.12e-5 c -3.812e-4,-0.552129 -0.447882,-0.99962 -1.00001,-0.999989 z"
       transform="translate(7,46)"
       id="path19"
       inkscape:connector-curvature="0" />
    <path
       d="m 3,6 h -10e-8 C 1.3431499,5.9999999 -1.31134e-7,4.65685 -1.31134e-7,3 -5.87106e-8,1.34315 1.3431499,0 2.9999999,0 c 1.65685,7.24234e-8 3,1.34315 3,3 v 7e-7 C 5.9981917,4.6561007 4.6560999,5.9981907 3,6 Z M 3,2 V 2 C 2.447715,2 2,2.447715 2,3 2,3.552285 2.447715,4 3,4 3.552285,4 4,3.552285 4,3 l -10e-8,-1.12e-5 c -3.812e-4,-0.552129 -0.447882,-0.99962 -1.00001,-0.999989 z"
       transform="translate(47,46)"
       id="path21"
       inkscape:connector-curvature="0" />
    <path
       d="m 14,15 h -12 10e-8 C 0.89603009,14.998562 0.00144009,14.103973 9.24672e-8,13 V 2 l -2.74023e-8,2.11e-5 C 0.0014263,0.89605112 0.89600607,0.00145112 1.9999801,1.1246204e-6 H 13.99998 v -3.75e-11 C 15.10395,0.00143898 15.99854,0.89602812 15.99998,2.0000011 V 13.000001 12.99998 C 15.998554,14.10395 15.103975,14.99855 14,15 Z M 2,2 V 13 H 14.002 L 14,2 Z"
       transform="translate(44,15)"
       id="path23"
       inkscape:connector-curvature="0" />
    <path
       d="M 11,14 H 1 v 0 C 0.448036,14.00032 3.2000041e-4,13.553125 0,13.00116 -2.2411943e-7,13.000773 -2.2411943e-7,13.000386 0,13 V 1.9999997 l -2.6995202e-8,2.11e-5 C 0.0014262,0.89605078 0.89600597,0.00145078 1.99998,7.8449977e-7 h 8 l -1e-7,-3.753e-11 C 11.10395,0.00143864 11.99854,0.89602778 11.99998,2.0000008 v 11.0000002 -1.8e-5 c 3.3e-4,0.551964 -0.446858,0.999687 -0.998822,1.00002 -3.8e-4,0 -7.6e-4,1e-6 -0.0011,0 z M 2,12 h 8 V 2 H 2 Z"
       transform="translate(32,38)"
       id="path25"
       inkscape:connector-curvature="0" />
    <path
       d="m 9.00033,10.0003 h -6 1e-7 c -1.6561,-0.00181 -2.99819004,-1.3439 -3.0000000406,-3 v -6 l 1.036e-8,1.76e-5 C -6.32371e-8,0.44835359 0.44718807,6.3058956e-4 0.99915207,2.9758956e-4 c 3.8678e-4,-2.3133e-7 7.7356e-4,-2.3814e-7 0.00116,-2.042e-8 h 9.9999999 v -1e-11 c 0.551964,-3.20401005e-4 0.99968,0.44687500087 1,0.99884000087 1e-6,3.8678e-4 1e-6,7.7356e-4 0,0.00116 v 6 8e-7 c -0.0018,1.6561 -1.3439,2.99819 -2.9999999,3.0000006 z m -7,-8 v 5 1.13e-5 c 3.813e-4,0.552129 0.447882,0.99962 1.00001,0.999989 h 6 v 0 c 0.552129,-3.751e-4 0.999625,-0.447871 1,-1 v -5 z"
       transform="translate(31.9997,49.9997)"
       id="path27"
       inkscape:connector-curvature="0" />
    <path
       d="m 12,14 h -10 10e-8 C 0.89603009,13.998562 0.00144009,13.103973 9.24672e-8,12 V 2 l -2.74023e-8,2.11e-5 C 0.0014263,0.89605112 0.89600607,0.00145112 1.9999801,1.1246204e-6 H 11.99998 v -3.75e-11 C 13.10395,0.00143898 13.99854,0.89602812 13.99998,2.0000011 v 9.9999999 -2.1e-5 C 13.998554,13.10395 13.103975,13.99855 12,14 Z M 2,2 V 12 H 12.002 L 12,2 Z"
       transform="translate(16,45)"
       id="path29"
       inkscape:connector-curvature="0" />
    <path
       d="m 14,16 h -12 10e-8 C 0.89603009,15.998562 0.00144009,15.103973 9.24672e-8,14 V 2 l -2.74023e-8,2.11e-5 C 0.0014263,0.89605112 0.89600607,0.00145112 1.9999801,1.1246204e-6 H 13.99998 v -3.75e-11 C 15.10395,0.00143898 15.99854,0.89602812 15.99998,2.0000011 V 14.000001 13.99998 C 15.998554,15.10395 15.103975,15.99855 14,16 Z M 2,2 V 14 H 14.002 L 14,2 Z"
       transform="translate(22,20)"
       id="path31"
       inkscape:connector-curvature="0" />
    <path
       d="m 1.00209,2.04583 v 0 C 0.871447,2.0442212 0.742386,2.0170148 0.62221,1.96575 v 0 C 0.500963,1.9151932 0.3893,1.844188 0.29209,1.75583 l -1.9e-7,-2e-7 c -0.0878763,-0.099755 -0.162094,-0.210754 -0.2207,-0.33008 l -4e-8,-1e-7 C 0.02354847,1.3048937 -4.2532265e-7,1.1757927 0.00208967,1.0458297 v 7e-7 c 0.00346375,-0.26481204 0.107078,-0.51848804 0.29,-0.71000004 l -3e-8,2e-8 c 0.236006,-0.234394 0.573262,-0.3358279959626 0.89940996,-0.27051 v 1e-8 c 0.066329,0.0097703 0.130638,0.0302183 0.19043,0.06055 v 0 c 0.061499,0.0196807 0.119028,0.050097 0.16992,0.08984 l 2e-7,6e-8 c 0.057376,0.0344609 0.11107,0.074711 0.16024,0.120119 v 1e-8 c 0.182536,0.191762 0.286085,0.44528 0.29,0.71000004 v 1e-7 c -0.00161,0.130643 -0.028815,0.259704 -0.08008,0.37988 v -1e-7 c -0.050818,0.121117 -0.121826,0.232729 -0.21,0.33008 v 0 c -0.097351,0.088174 -0.208963,0.159182 -0.33008,0.21 l -1e-7,10e-8 C 1.2617636,2.0170356 1.1327166,2.0442283 1.00209,2.04583 Z"
       transform="translate(14.9979,3.95417)"
       id="path33"
       inkscape:connector-curvature="0" />
    <path
       d="m 1.00209,2.02077 v 0 C 0.871447,2.0191612 0.742386,1.9919548 0.62221,1.94069 v 0 C 0.500963,1.8901332 0.3893,1.819128 0.29209,1.73077 l -1.9e-7,-2e-7 c -0.0878763,-0.099754 -0.162094,-0.210754 -0.2207,-0.33008 l -4e-8,-1e-7 C 0.02354847,1.2798337 -4.2532266e-7,1.1507327 0.00208967,1.0207697 l 10e-9,-6e-7 c 0.00143337,-0.26522 0.105343,-0.519618 0.29,-0.71 l -8e-8,7e-8 c 0.0971917,-0.0883823 0.208841,-0.159415 0.33008,-0.21 l 5e-8,-3e-8 C 0.80085165,0.02118654 1.0000857,-1.8556104e-6 1.1915097,0.04021914 v 1e-8 c 0.066329,0.0097703 0.130638,0.0302183 0.19043,0.06055 l -1e-7,-2e-8 c 0.063721,0.0215928 0.124181,0.051821 0.17969,0.0898399 v 2e-8 c 0.052493,0.0370326 0.102735,0.0771571 0.15046,0.120161 l 0.12012,0.14941 10e-8,3e-8 c 0.037657,0.0560677 0.067857,0.116798 0.08984,0.18066 v -2e-8 c 0.028983,0.0564752 0.049076,0.117085 0.05957,0.17969 v 9e-8 c 0.01213,0.0660971 0.018975,0.133056 0.02047,0.20024005 v 10e-8 c -0.00161,0.130643 -0.028815,0.259704 -0.08008,0.37988 v 0 c -0.091031,0.251162 -0.288838,0.448969 -0.54,0.54 h -1e-7 c -0.120185,0.051284 -0.24926,0.078504 -0.3799196,0.08012 z"
       transform="translate(14.9979,7.97923)"
       id="path35"
       inkscape:connector-curvature="0" />
    <path
       d="m 1,2.04583 v 0 C 0.869357,2.0442212 0.740296,2.0170148 0.62012,1.96575 v 0 C 0.498873,1.9151932 0.38721,1.844188 0.29,1.75583 l -1e-7,-1e-7 c -0.0881737,-0.097351 -0.159182,-0.208963 -0.21,-0.33008 l 3e-8,1e-7 C 0.02875743,1.305556 0.00157803,1.176482 -2.7160295e-7,1.04583 l -8.65237e-9,6e-7 C 0.00346347,0.78101861 0.10707772,0.52734261 0.28999972,0.33583061 l -3e-8,3e-8 c 0.236006,-0.234394 0.573262,-0.3358279985414 0.89941001,-0.27051 v 0 c 0.066329,0.0097703 0.130638,0.0302183 0.19043,0.06055 v -10e-9 c 0.063721,0.0215928 0.124181,0.051821 0.17969,0.0898399 l -10e-8,-6e-8 c 0.052496,0.037019 0.102741,0.0771298 0.150471,0.12012 v 2e-8 c 0.182536,0.191762 0.286085,0.44528 0.29,0.71000001 v 2e-7 c -0.00161,0.130643 -0.028815,0.259704 -0.08008,0.37988 v -1e-7 c -0.050818,0.121117 -0.121826,0.232729 -0.21,0.33008 v 0 c -0.097351,0.088174 -0.208963,0.159182 -0.33008,0.21 v 0 C 1.2596745,2.0170366 1.1306275,2.0442293 1,2.04583 Z"
       transform="translate(19,3.95417)"
       id="path37"
       inkscape:connector-curvature="0" />
    <path
       d="m 1,2.08012 v 0 C 0.869357,2.0785112 0.740296,2.0513048 0.62012,2.00004 v 0 C 0.498873,1.9494832 0.38721,1.878478 0.29,1.79012 l -1e-7,-10e-8 c -0.0881737,-0.097351 -0.159182,-0.208963 -0.21,-0.33008 l 3e-8,1e-7 C 0.02875743,1.339846 0.00157803,1.210772 -2.7160296e-7,1.08012 l -9.2823e-9,3e-7 C 0.00166408,1.0130028 0.00819116,0.94609433 0.01952962,0.87992033 l -3e-8,1.4e-7 c 0.0112996,-0.0625323 0.0316995,-0.123072 0.06055,-0.17969 l -1e-8,3e-8 c 0.021577,-0.0640314 0.0518033,-0.124814 0.08984,-0.18066 l -1.4e-7,2e-7 c 0.0370226,-0.0521575 0.0771202,-0.102063 0.12008,-0.14945 l 4e-8,-3e-8 c 0.400948,-0.3701230027256 1.01897002,-0.3701230027256 1.41992002,6e-8 v 4e-8 c 0.042972,0.0473733 0.083083,0.0972651 0.12012,0.14941 v 3e-8 c 0.037657,0.0560677 0.067857,0.116798 0.08984,0.18066 v -1e-8 c 0.028983,0.0564752 0.049076,0.117085 0.05957,0.17969 v -9e-8 c 0.012157,0.0660947 0.019029,0.133053 0.020551,0.200239 v 2e-7 c -0.00161,0.130643 -0.028815,0.259704 -0.08008,0.37988 v -10e-8 c -0.091031,0.251162 -0.288838,0.448969 -0.54,0.54 v 0 C 1.259735,2.0512834 1.13066,2.0785035 1,2.08012 Z"
       transform="translate(19,7.91988)"
       id="path39"
       inkscape:connector-curvature="0" />
    <path
       d="M 1.00209,2 V 2 C 0.871447,1.9983912 0.742386,1.9711848 0.62221,1.91992 v 0 C 0.500963,1.8693632 0.3893,1.798358 0.29209,1.71 h -3e-8 c -0.0910852,-0.097247 -0.165638,-0.208748 -0.2207,-0.33008 l -9e-8,-2e-7 C 0.02354868,1.2590638 -2.1758635e-7,1.1299638 0.00208988,0.99999975 v 1.5e-7 C 0.0020898,0.4477149 0.44980488,-9.5907551e-8 1.0020899,-9.5907551e-8 c 0.552285,-8.3392699e-8 1,0.447714995907551 1,0.999999995907551 0,0 0,0 0,0 v 2e-7 c -0.00161,0.130643 -0.028815,0.259704 -0.08008,0.37988 v -1e-7 c -0.050818,0.121117 -0.121826,0.232729 -0.21,0.33008 v 0 C 1.5237258,1.897759 1.2680108,2.002232 1.00209,2 Z"
       transform="translate(22.9979,4)"
       id="path41"
       inkscape:connector-curvature="0" />
    <path
       d="m 1,2.08012 v 0 C 0.869357,2.0785112 0.740296,2.0513048 0.62012,2.00004 v 0 C 0.498873,1.9494832 0.38721,1.878478 0.29,1.79012 l -1e-7,-10e-8 c -0.0881737,-0.097351 -0.159182,-0.208963 -0.21,-0.33008 l 3e-8,1e-7 C 0.02875743,1.339846 0.00157803,1.210772 -2.7160296e-7,1.08012 l 3.23974e-9,-6e-7 C 0.0014331,0.81489935 0.10534273,0.56050135 0.28999973,0.37011935 l 4e-8,-3e-8 c 0.400948,-0.3701229971629 1.01897003,-0.3701229971629 1.41992003,6e-8 v -10e-9 c 0.184302,0.190621 0.288174,0.444859 0.29008,0.71000003 v 10e-8 c -0.00161,0.130643 -0.028815,0.259704 -0.08008,0.37988 v 0 c -0.091031,0.251162 -0.288838,0.448969 -0.54,0.54 v 0 C 1.2597347,2.0512831 1.1306597,2.0785032 1,2.08012 Z"
       transform="translate(23,7.91988)"
       id="path43"
       inkscape:connector-curvature="0" />
    <path
       d="m 1.00209,2.04583 v 0 C 0.871447,2.0442212 0.742386,2.0170148 0.62221,1.96575 v 0 C 0.500963,1.9151932 0.3893,1.844188 0.29209,1.75583 l -1.9e-7,-2e-7 c -0.0878763,-0.099755 -0.162094,-0.210754 -0.2207,-0.33008 l -4e-8,-1e-7 C 0.02354847,1.3048937 -4.2532265e-7,1.1757927 0.00208967,1.0458297 v 7e-7 c 0.00346375,-0.26481204 0.107078,-0.51848804 0.29,-0.71000004 l -3e-8,2e-8 c 0.236006,-0.234394 0.573262,-0.3358279959626 0.89940996,-0.27051 v 1e-8 c 0.066329,0.0097703 0.130638,0.0302183 0.19043,0.06055 v -2e-8 c 0.063721,0.0215928 0.124181,0.051821 0.17969,0.0898399 v -3e-8 c 0.052496,0.0370191 0.102741,0.0771299 0.150471,0.12012 v -2e-8 c 0.182536,0.191762 0.286085,0.44528 0.29,0.70999998 v 2e-7 c -0.00161,0.130643 -0.028815,0.259704 -0.08008,0.37988 v -1e-7 c -0.050818,0.121117 -0.121826,0.232729 -0.21,0.33008 v 0 C 1.5237265,1.9435893 1.2680115,2.0480623 1.00209,2.04583 Z"
       transform="translate(26.9979,3.95417)"
       id="path45"
       inkscape:connector-curvature="0" />
    <path
       d="m 1.00209,2.02077 v 0 C 0.871447,2.0191612 0.742386,1.9919548 0.62221,1.94069 v 0 C 0.500963,1.8901332 0.3893,1.819128 0.29209,1.73077 l -1.9e-7,-2e-7 c -0.0878763,-0.099754 -0.162094,-0.210754 -0.2207,-0.33008 l -4e-8,-1e-7 C 0.02354847,1.2798337 -4.2532266e-7,1.1507327 0.00208967,1.0207697 l 10e-9,-6e-7 c 0.00143337,-0.26522 0.105343,-0.519618 0.29,-0.71 l -8e-8,7e-8 c 0.0971917,-0.0883823 0.208841,-0.159415 0.33008,-0.21 l 5e-8,-3e-8 C 0.80085165,0.02118654 1.0000857,-1.8556104e-6 1.1915097,0.04021914 v 1e-8 c 0.066329,0.0097703 0.130638,0.0302183 0.19043,0.06055 l -1e-7,-2e-8 c 0.063721,0.0215928 0.124181,0.051821 0.17969,0.0898399 v 2e-8 c 0.052493,0.0370326 0.102735,0.0771571 0.15046,0.120161 l 0.12012,0.14941 10e-8,3e-8 c 0.037657,0.0560677 0.067857,0.116798 0.08984,0.18066 v -2e-8 c 0.028983,0.0564752 0.049076,0.117085 0.05957,0.17969 v 9e-8 c 0.01213,0.0660971 0.018975,0.133056 0.02047,0.20024005 v 10e-8 c -0.00161,0.130643 -0.028815,0.259704 -0.08008,0.37988 v 0 c -0.091031,0.251162 -0.288838,0.448969 -0.54,0.54 h -1e-7 c -0.120185,0.051284 -0.24926,0.078504 -0.3799196,0.08012 z"
       transform="translate(26.9979,7.97923)"
       id="path47"
       inkscape:connector-curvature="0" />
    <path
       d="m 1,2.10474 v 0 C 0.73398604,2.10737 0.47810104,2.002858 0.29000004,1.81474 l -1e-7,-1e-7 c -0.0881737,-0.097351 -0.159182,-0.208963 -0.21,-0.33008 l -9e-8,-2e-7 C 0.02875745,1.3644657 0.00157815,1.2353917 -1.468769e-7,1.1047397 l 3.23974e-9,-6e-7 C 0.00143323,0.83951908 0.10534286,0.58512108 0.28999986,0.39473908 l 10e-9,-10e-9 c 0.388911,-0.392131 1.02207003,-0.3947419957085 1.41420003,-0.005831 0.190755,0.189188 0.29736,0.447174 0.295798,0.71583193 v 2e-7 c -0.00161,0.130643 -0.028815,0.259704 -0.08008,0.37988 v -10e-8 c -0.050818,0.121117 -0.121826,0.232729 -0.21,0.33008 v 0 c -0.188284,0.187799 -0.443999,0.292272 -0.70992001,0.29004 z"
       transform="translate(31,3.89526)"
       id="path49"
       inkscape:connector-curvature="0" />
    <path
       d="m 1,2.04744 v 0 C 0.869357,2.0458312 0.740296,2.0186248 0.62012,1.96736 v 0 C 0.498873,1.9168032 0.38721,1.845798 0.29,1.75744 l -1e-7,-10e-8 c -0.0881737,-0.097351 -0.159182,-0.208963 -0.21,-0.33008 l 3e-8,1e-7 C 0.02875743,1.307166 0.00157803,1.178092 -2.7160297e-7,1.04744 l -9.2823e-9,3e-7 C 0.00166408,0.98032283 0.00819116,0.91341433 0.01952962,0.84724033 l -3e-8,1.4e-7 c 0.0112996,-0.0625323 0.0316995,-0.123072 0.06055,-0.17969 l -1e-8,3e-8 c 0.021577,-0.0640314 0.0518033,-0.124814 0.08984,-0.18066 l -1.4e-7,2e-7 c 0.0370226,-0.0521575 0.0771202,-0.102063 0.12008,-0.14945 l 7e-8,-7e-8 c 0.239455,-0.236033 0.58066,-0.3374430006778 0.91015999,-0.27051 v 0 c 0.062494,0.0114493 0.123012,0.0318421 0.17969,0.06055 v -1e-8 c 0.063721,0.0215928 0.124181,0.051821 0.17969,0.0898399 v -2e-8 c 0.051213,0.0346782 0.098392,0.0749677 0.140661,0.120119 v 2e-8 c 0.293721,0.281708 0.381348,0.71632798 0.21973,1.08983998 v 0 c -0.050747,0.123471 -0.125424,0.235679 -0.21973,0.33016 v 0 C 1.5115125,1.9386265 1.2615415,2.0421565 1,2.04744 Z"
       transform="translate(31,7.95256)"
       id="path51"
       inkscape:connector-curvature="0" />
    <path
       d="m 1.00321,2.00736 v 0 C 0.73719604,2.00999 0.48131104,1.905478 0.29321004,1.71736 h -3e-8 c -0.0910852,-0.097247 -0.165638,-0.208748 -0.2207,-0.33008 l -2e-8,-1e-7 c -0.0478412,-0.120856 -0.0713901,-0.249956 -0.0693,-0.37992 l -4e-8,-7.1e-6 C 2.1494044e-6,0.45507779 0.44510895,0.00477279 0.99738495,0.00156279 1.2660429,2.3357409e-6 1.5240289,0.10660979 1.7132149,0.29736679 h 10e-8 c 0.18427,0.190633 0.288111,0.444867 0.289995,0.70999501 l -1e-7,2e-7 c -0.00161,0.130643 -0.028815,0.259704 -0.08008,0.37988 l 1e-7,-1e-7 c -0.050818,0.121117 -0.121826,0.232729 -0.21,0.33008 v 0 c -0.097351,0.088174 -0.208963,0.159182 -0.33008,0.21 h -10e-8 c -0.120166,0.051246 -0.249213,0.078439 -0.37984,0.08004 z"
       transform="translate(34.9968,3.99264)"
       id="path53"
       inkscape:connector-curvature="0" />
    <path
       d="m 1,2.08012 v 0 C 0.869357,2.0785112 0.740296,2.0513048 0.62012,2.00004 v 0 C 0.498873,1.9494832 0.38721,1.878478 0.29,1.79012 l -1e-7,-10e-8 c -0.0881737,-0.097351 -0.159182,-0.208963 -0.21,-0.33008 l 3e-8,1e-7 C 0.02875743,1.339846 0.00157803,1.210772 -2.7160296e-7,1.08012 l 3.23973e-9,-6e-7 C 0.0014331,0.81489935 0.10534273,0.56050135 0.28999973,0.37011935 l 4e-8,-3e-8 c 0.400948,-0.3701229971629 1.01897003,-0.3701229971629 1.41992003,6e-8 v -10e-9 c 0.184302,0.190621 0.288174,0.444859 0.29008,0.71000003 v 10e-8 c -0.00161,0.130643 -0.028815,0.259704 -0.08008,0.37988 v 0 c -0.091031,0.251162 -0.288838,0.448969 -0.54,0.54 v 0 C 1.2597347,2.0512831 1.1306597,2.0785032 1,2.08012 Z"
       transform="translate(35,7.91988)"
       id="path55"
       inkscape:connector-curvature="0" />
    <path
       d="M 1,2 V 2 C 0.73398604,2.0026344 0.47810104,1.898118 0.29000004,1.71 l -1e-7,-1e-7 c -0.0881737,-0.097351 -0.159182,-0.208963 -0.21,-0.33008 l -9e-8,-2e-7 C 0.02875745,1.2597257 0.00157815,1.1306517 -1.468769e-7,0.99999968 l 1e-14,1.5e-7 C -2.3026959e-7,0.44771483 0.44771485,-1.6622758e-7 0.99999985,-1.6622758e-7 1.5522849,-2.4962028e-7 1.9999999,0.44771483 1.9999999,0.99999983 c 0,0 0,0 0,0 V 1 c -0.00161,0.130643 -0.028815,0.259704 -0.08008,0.37988 v -1e-7 c -0.050818,0.121117 -0.121826,0.232729 -0.21,0.33008 v 0 C 1.5216358,1.8977589 1.2659208,2.0022319 1,2 Z"
       transform="translate(39,4)"
       id="path57"
       inkscape:connector-curvature="0" />
    <path
       d="m 1.00209,2.00982 v 0 C 0.871447,2.0082112 0.742386,1.9810048 0.62221,1.92974 v 0 C 0.500963,1.8791832 0.3893,1.808178 0.29209,1.71982 l -1.9e-7,-2e-7 c -0.0878763,-0.099754 -0.162094,-0.210754 -0.2207,-0.33008 l -4e-8,-1e-7 C 0.02354847,1.2688837 -4.2532266e-7,1.1397827 0.00208967,1.0098197 l 10e-9,-6e-7 c 0.00143337,-0.26522 0.105343,-0.519618 0.29,-0.71 l 1.3e-7,-1.2e-7 c 0.0473733,-0.042972 0.0972651,-0.0830831 0.14941,-0.12012 v 0 c 0.0558462,-0.0380367 0.116629,-0.068263 0.18066,-0.08984 l 1e-8,-1e-8 c 0.0566182,-0.0288504 0.117158,-0.0492504 0.17969,-0.06055 l -4e-8,10e-9 C 0.93007978,1.678697e-6 1.0632698,1.678697e-6 1.1914998,0.02930896 v 0 c 0.066329,0.0097703 0.130638,0.0302183 0.19043,0.06055 v -10e-9 c 0.063721,0.0215928 0.124181,0.051821 0.17969,0.0898399 l -10e-8,-4e-8 c 0.052495,0.0370195 0.102741,0.0771306 0.15047,0.120121 l 0.12012,0.14941 v 3e-8 c 0.037657,0.0560677 0.067857,0.116798 0.08984,0.18066 v -2e-8 c 0.028983,0.0564752 0.049076,0.117085 0.05957,0.17969 v 1.3e-7 c 0.01213,0.0660972 0.018975,0.133056 0.02047,0.20023995 v 2e-7 c -0.00161,0.130643 -0.028815,0.259704 -0.08008,0.37988 h 1e-7 c -0.091031,0.251162 -0.288838,0.448969 -0.54,0.54 v -1e-7 C 1.2618248,1.980984 1.1327498,2.008204 1.00209,2.00982 Z"
       transform="translate(38.9979,7.99018)"
       id="path59"
       inkscape:connector-curvature="0" />
    <path
       d="m 1.00209,2.07612 v 0 C 0.73607604,2.07875 0.48019104,1.974238 0.29209004,1.78612 l -1.9e-7,-2e-7 c -0.0878763,-0.099754 -0.162094,-0.210754 -0.2207,-0.33008 l -5e-8,-2e-7 C 0.0235485,1.3351836 -4.03623e-7,1.2060826 0.0020898,1.0761196 l -1e-8,7e-7 c 0.00346375,-0.26481199 0.107078,-0.51848799 0.29,-0.70999999 l 10e-9,-10e-9 c 0.0955837,-0.0904659 0.207635,-0.161754 0.33008,-0.21 l 5e-8,-3e-8 c 0.372421,-0.1561189952073 0.80216805,-0.0733182 1.08992005,0.21 v 4e-8 c 0.182536,0.191762 0.286085,0.44528 0.29,0.70999999 v 8e-7 c 0.00174,0.130016 -0.02215,0.2591 -0.07031,0.37988 l 1e-7,-2e-7 c -0.057894,0.119508 -0.131804,0.23057 -0.219689,0.330119 v 0 c -0.097351,0.088174 -0.208963,0.159182 -0.33008,0.21 h -1e-7 c -0.120194,0.051243 -0.249269,0.078422 -0.3799209,0.08 z"
       transform="translate(42.9979,3.92388)"
       id="path61"
       inkscape:connector-curvature="0" />
    <path
       d="m 1,2.04744 v 0 C 0.869357,2.0458312 0.740296,2.0186248 0.62012,1.96736 v 0 C 0.498873,1.9168032 0.38721,1.845798 0.29,1.75744 l -1e-7,-10e-8 c -0.0881737,-0.097351 -0.159182,-0.208963 -0.21,-0.33008 l 3e-8,1e-7 C 0.02875743,1.307166 0.00157803,1.178092 -2.7160296e-7,1.04744 l -9.2823e-9,3e-7 C 0.00166408,0.98032283 0.00819116,0.91341433 0.01952962,0.84724033 l -3e-8,1.4e-7 c 0.0112996,-0.0625323 0.0316995,-0.123072 0.06055,-0.17969 l -1e-8,3e-8 c 0.021577,-0.0640314 0.0518033,-0.124814 0.08984,-0.18066 l -1.4e-7,2e-7 c 0.0370226,-0.0521575 0.0771202,-0.102063 0.12008,-0.14945 l 7e-8,-7e-8 c 0.239455,-0.236033 0.58066,-0.3374430006778 0.91015999,-0.27051 v 0 c 0.062494,0.0114493 0.123012,0.0318421 0.17969,0.06055 v -1e-8 c 0.063721,0.0215928 0.124181,0.051821 0.17969,0.0898399 v -2e-8 c 0.051213,0.0346782 0.098392,0.0749677 0.140661,0.120119 v 2e-8 c 0.293721,0.281708 0.381348,0.71632798 0.21973,1.08983998 v 0 c -0.050747,0.123471 -0.125424,0.235679 -0.21973,0.33016 v 0 C 1.5115125,1.9386265 1.2615415,2.0421565 1,2.04744 Z"
       transform="translate(43,7.95256)"
       id="path63"
       inkscape:connector-curvature="0" />
    <path
       d="m 8,16.0003 h -6 10e-8 C 0.89603009,15.998862 0.00144009,15.104273 9.24672e-8,14.0003 v -12 l -2.74023e-8,2.11e-5 C 0.0014263,0.89635112 0.89600607,0.00175112 1.9999801,3.0112462e-4 h 6.00002 v -2e-11 c 0.551964,-3.20400998e-4 0.99968,0.4468749954 1,0.9988399954 2e-7,3.8678e-4 2e-7,7.7356e-4 0,0.00116 v 13.9999999 -1.7e-5 c 3.301e-4,0.551964 -0.446858,0.999687 -0.998822,1.00002 -3.868e-4,0 -7.736e-4,0 -0.00116,0 z m -6,-14 v 12 h 5 v -12 z"
       transform="translate(-2.72819e-8,19.9997)"
       id="path65"
       inkscape:connector-curvature="0" />
    <path
       d="m 5.00033,26.0003 h -4 v 0 C 0.448366,26.00062 6.5000041e-4,25.553425 3.3000041e-4,25.00146 c -2.2453e-7,-3.87e-4 -2.2453e-7,-7.74e-4 0,-0.0012 V 1.0002997 l 1.036e-8,1.75e-5 C -1.2222731e-7,0.44835325 0.44718801,6.302495e-4 0.99915201,2.972495e-4 c 3.8678e-4,-2.3133e-7 7.7356e-4,-2.3814e-7 0.00116,-2.042e-8 h 4 v -2e-11 c 0.551964,-3.20401e-4 0.99968,0.44687500094 1,0.99884000094 2e-7,3.8678e-4 2e-7,7.7356e-4 0,0.00116 v 24.0000008 -1.8e-5 c 3.301e-4,0.551964 -0.446858,0.999687 -0.998822,1.00002 -3.809e-4,0 -7.619e-4,0 -0.00114,0 z m -3,-2 h 2 v -22 h -2 z"
       transform="translate(6.99967,14.9997)"
       id="path67"
       inkscape:connector-curvature="0" />
    <path
       d="m 4,2 h -3 -4e-8 C 0.44771496,2 -4.37114e-8,1.552285 -4.37114e-8,1 -1.95703e-8,0.447715 0.44771496,0 0.99999996,0 H 4 v 0 c 0.552285,4.1696302e-8 1,0.447715 1,1 -1e-7,0.552285 -0.447715,1 -1,1 z"
       transform="translate(11,15)"
       id="path69"
       inkscape:connector-curvature="0" />
    <use
       transform="translate(11,19)"
       xlink:href="#a"
       id="use71"
       x="0"
       y="0"
       width="100%"
       height="100%" />
    <use
       transform="translate(11,23)"
       xlink:href="#a"
       id="use73"
       x="0"
       y="0"
       width="100%"
       height="100%" />
    <use
       transform="translate(11,27)"
       xlink:href="#a"
       id="use75"
       x="0"
       y="0"
       width="100%"
       height="100%" />
    <use
       transform="translate(11,31)"
       xlink:href="#a"
       id="use77"
       x="0"
       y="0"
       width="100%"
       height="100%" />
    <use
       transform="translate(11,35)"
       xlink:href="#a"
       id="use79"
       x="0"
       y="0"
       width="100%"
       height="100%" />
    <use
       transform="translate(11,39)"
       xlink:href="#a"
       id="use81"
       x="0"
       y="0"
       width="100%"
       height="100%" />
    <path
       d="M 1,7 V 7 C 0.448036,7.0003204 3.2000041e-4,6.553125 0,6.00116 -2.2411943e-7,6.0007732 -2.2411943e-7,6.0003864 0,5.9999997 v -5.00000004 1.5e-7 C -8.2985588e-8,0.44771481 0.447715,-1.8900423e-7 1,-1.8900423e-7 1.552285,-2.7239693e-7 2,0.44771481 2,0.99999981 c 0,0 0,0 0,0 v 4.99999999 -1.73e-5 c 3.301e-4,0.551964 -0.446858,0.999687 -0.998822,1.00002 -3.868e-4,2e-7 -7.737e-4,2e-7 -0.00116,0 z"
       transform="translate(37,45)"
       id="path83"
       inkscape:connector-curvature="0" />
    <use
       transform="translate(20,50)"
       xlink:href="#c"
       id="use85"
       x="0"
       y="0"
       width="100%"
       height="100%" />
    <use
       transform="translate(24,50)"
       xlink:href="#c"
       id="use87"
       x="0"
       y="0"
       width="100%"
       height="100%" />
    <use
       transform="translate(48,19)"
       xlink:href="#b"
       id="use89"
       x="0"
       y="0"
       width="100%"
       height="100%" />
    <use
       transform="translate(48,24)"
       xlink:href="#b"
       id="use91"
       x="0"
       y="0"
       width="100%"
       height="100%" />
  </g>
</svg>
