<?xml version="1.0" encoding="UTF-8" standalone="no"?>
<svg
   xmlns:dc="http://purl.org/dc/elements/1.1/"
   xmlns:cc="http://creativecommons.org/ns#"
   xmlns:rdf="http://www.w3.org/1999/02/22-rdf-syntax-ns#"
   xmlns:svg="http://www.w3.org/2000/svg"
   xmlns="http://www.w3.org/2000/svg"
   xmlns:sodipodi="http://sodipodi.sourceforge.net/DTD/sodipodi-0.dtd"
   xmlns:inkscape="http://www.inkscape.org/namespaces/inkscape"
   version="1.1"
   x="0px"
   y="0px"
   viewBox="0 0 100 100"
   enable-background="new 0 0 100 100"
   xml:space="preserve"
   id="svg8"
   sodipodi:docname="measurement.svg"
   width="100"
   height="100"
   inkscape:version="0.92.3 (2405546, 2018-03-11)"><metadata
     id="metadata14"><rdf:RDF><cc:Work
         rdf:about=""><dc:format>image/svg+xml</dc:format><dc:type
           rdf:resource="http://purl.org/dc/dcmitype/StillImage" /><dc:title></dc:title></cc:Work></rdf:RDF></metadata><defs
     id="defs12" /><sodipodi:namedview
     pagecolor="#ffffff"
     bordercolor="#666666"
     borderopacity="1"
     objecttolerance="10"
     gridtolerance="10"
     guidetolerance="10"
     inkscape:pageopacity="0"
     inkscape:pageshadow="2"
     inkscape:window-width="1105"
     inkscape:window-height="810"
     id="namedview10"
     showgrid="false"
     inkscape:zoom="1.888"
     inkscape:cx="-11.705508"
     inkscape:cy="62.5"
     inkscape:window-x="0"
     inkscape:window-y="27"
     inkscape:window-maximized="0"
     inkscape:current-layer="svg8" /><path
     d="m 50.718661,45.678068 c 2.328,0 4.217,1.889 4.217,4.218 0,2.329 -1.887,4.217 -4.217,4.216 -1.779,10e-4 -3.301,-1.102 -3.92,-2.661 h -21.746 v -3.108 l 21.746,-0.001 c 0.619,-1.56 2.141,-2.664 3.92,-2.664 z m -0.189,51.309 c 6.355,0 12.523,-1.247 18.33,-3.702 5.607,-2.372 10.645,-5.768 14.969,-10.092 4.324,-4.323 7.719,-9.359 10.092,-14.968 2.455,-5.807 3.701,-11.974 3.701,-18.33 0,-6.357 -1.246,-12.524 -3.701,-18.331 -2.373,-5.607 -5.768,-10.645 -10.092,-14.969 -4.324,-4.324 -9.361,-7.7200002 -14.969,-10.0920002 -5.807,-2.456 -11.975,-3.7 -18.33,-3.7 -6.357,0 -12.524,1.244 -18.332,3.7 -5.607,2.372 -10.643,5.7680002 -14.969,10.0920002 -4.322,4.324 -7.719,9.361 -10.09,14.969 -2.457,5.807 -3.702,11.974 -3.702,18.331 0,6.356 1.245,12.523 3.702,18.33 2.371,5.608 5.768,10.645 10.09,14.968 4.326,4.324 9.361,7.72 14.969,10.092 5.808,2.455 11.975,3.702 18.332,3.702 z m 0,-90.9180002 c 24.164,0 43.824,19.6610002 43.824,43.8260002 0,24.164 -19.66,43.823 -43.824,43.823 -24.166,0 -43.826,-19.659 -43.826,-43.823 0,-24.165 19.66,-43.8260002 43.826,-43.8260002 z m -5.16,5.6470002 -1.732,0.273 1.66,10.487 1.734,-0.275 z m -5.908,1.276 -1.67,0.543 3.281,10.099 1.67,-0.543 z m -5.637,2.186 -1.563,0.797 4.821,9.461 1.562,-0.798 z m -5.225,3.042 -1.42,1.03 6.24,8.59 1.42,-1.031 z m -4.685,3.82 -1.241,1.241 7.508,7.508 1.241,-1.241 z m -4.03,4.506 -1.033,1.419 8.59,6.242 1.033,-1.421 z m -3.275,5.081 -0.797,1.563 9.459,4.82 0.797,-1.563 z m -2.441,5.532 -0.543,1.669 10.1,3.281 0.541,-1.67 z m -1.545,5.844 -0.273,1.733 10.487,1.661 0.274,-1.733 z m -3.178,5.338 v 3.108 h 13.185 v -3.108 z m 68.939,0 v 3.108 h 13.186 l -0.001,-3.108 z m -29.41,-26.302 3.107,0.001 V 8.8550678 h -3.107 z m 39.735,22.698 -0.273,-1.733 -10.489,1.66 0.274,1.732 z m -1.278,-5.909 -0.542,-1.67 -10.099,3.281 0.541,1.669 z m -2.185,-5.637 -0.797,-1.563 -9.461,4.82 0.797,1.562 z m -3.041,-5.226 -1.031,-1.42 -8.591,6.241 1.032,1.419 z m -3.821,-4.685 -1.24,-1.24 -7.51,7.507 1.242,1.24 z m -4.505,-4.031 -1.42,-1.03 -6.242,8.589 1.42,1.031 z m -5.082,-3.274 -1.562,-0.798 -4.822,9.461 1.564,0.797 z m -5.532,-2.44 -1.669,-0.543 -3.281,10.099 1.669,0.542 z m -5.844,-1.545 -1.733,-0.274 -1.662,10.486 1.734,0.274 z"
     id="path2"
     inkscape:connector-curvature="0" /></svg>