<?xml version="1.0" encoding="UTF-8" standalone="no"?>
<svg
   xmlns:dc="http://purl.org/dc/elements/1.1/"
   xmlns:cc="http://creativecommons.org/ns#"
   xmlns:rdf="http://www.w3.org/1999/02/22-rdf-syntax-ns#"
   xmlns:svg="http://www.w3.org/2000/svg"
   xmlns="http://www.w3.org/2000/svg"
   xmlns:sodipodi="http://sodipodi.sourceforge.net/DTD/sodipodi-0.dtd"
   xmlns:inkscape="http://www.inkscape.org/namespaces/inkscape"
   version="1.1"
   x="0px"
   y="0px"
   viewBox="0 0 36 38"
   xml:space="preserve"
   id="svg18"
   sodipodi:docname="midi-output.svg"
   width="90"
   height="95"
   inkscape:version="0.92.3 (2405546, 2018-03-11)"><metadata
     id="metadata24"><rdf:RDF><cc:Work
         rdf:about=""><dc:format>image/svg+xml</dc:format><dc:type
           rdf:resource="http://purl.org/dc/dcmitype/StillImage" /><dc:title></dc:title></cc:Work></rdf:RDF></metadata><defs
     id="defs22" /><sodipodi:namedview
     pagecolor="#ffffff"
     bordercolor="#666666"
     borderopacity="1"
     objecttolerance="10"
     gridtolerance="10"
     guidetolerance="10"
     inkscape:pageopacity="0"
     inkscape:pageshadow="2"
     inkscape:window-width="1451"
     inkscape:window-height="773"
     id="namedview20"
     showgrid="false"
     scale-x="0.4"
     inkscape:zoom="2.085965"
     inkscape:cx="-14.17394"
     inkscape:cy="87.022262"
     inkscape:window-x="0"
     inkscape:window-y="27"
     inkscape:window-maximized="0"
     inkscape:current-layer="svg18" /><g
     id="g12"
     transform="translate(4.0452881,3.1171029)"><g
       id="g10"><g
         id="g6"><path
           d="m 15.391,19.442 h -1.327 v 3.582 h 1.327 c 2.16,0 2.255,-3.582 0,-3.582 z"
           id="path2"
           inkscape:connector-curvature="0" /><path
           d="M 23,15 H 1 c -0.55,0 -1,0.45 -1,1 v 10 c 0,0.55 0.45,1 1,1 h 22 c 0.551,0 1,-0.45 1,-1 V 16 c 0,-0.55 -0.449,-1 -1,-1 z M 9.118,23.448 C 9.118,23.801 8.894,24 8.638,24 8.35,24 8.126,23.801 8.126,23.448 V 20.49 l -1.327,1.679 c -0.288,0.353 -0.647,0.353 -0.912,0 L 4.696,20.49 v 2.958 C 4.696,23.801 4.409,24 4.121,24 3.865,24 3.642,23.801 3.642,23.448 v -4.501 c 0,-0.416 0.352,-0.553 0.479,-0.553 0.231,0 0.368,0.137 0.504,0.289 l 1.759,2.374 1.823,-2.463 c 0.264,-0.327 0.911,-0.2 0.911,0.353 z m 2.477,0.064 c 0,0.664 -1.056,0.68 -1.056,0 v -4.564 c 0,-0.656 1.056,-0.68 1.056,0 z M 15.463,24 H 13.56 c -0.264,0 -0.552,-0.145 -0.552,-0.496 v -4.541 c 0,-0.288 0.288,-0.496 0.552,-0.496 h 1.831 c 3.654,0 3.574,5.533 0.072,5.533 z m 4.84,-0.488 c 0,0.664 -1.055,0.68 -1.055,0 v -4.564 c 0,-0.656 1.055,-0.68 1.055,0 z"
           id="path4"
           inkscape:connector-curvature="0" /></g><path
         d="M 27,7.586 20.414,1 C 19.836,0.42 18.82,0 18,0 H 7 C 5.346,0 4,1.346 4,3 v 10 c 0,0.553 0.447,1 1,1 0.553,0 1,-0.447 1,-1 V 3 C 6,2.449 6.448,2 7,2 h 9 c 1.105,0 2,0.896 2,2 V 7.75 C 18,8.988 19.014,10 20.25,10 H 24 c 1.105,0 2,0.896 2,2 v 17 c 0,0.551 -0.447,1 -1,1 H 7 C 6.448,30 6,29.551 6,29 6,28.447 5.553,28 5,28 c -0.553,0 -1,0.447 -1,1 0,1.654 1.346,3 3,3 h 18 c 1.654,0 3,-1.346 3,-3 V 10 C 28,9.181 27.58,8.165 27,7.586 Z"
         id="path8"
         inkscape:connector-curvature="0" /></g></g></svg>