<?xml version="1.0" encoding="UTF-8" standalone="no"?>
<svg
   xmlns:dc="http://purl.org/dc/elements/1.1/"
   xmlns:cc="http://creativecommons.org/ns#"
   xmlns:rdf="http://www.w3.org/1999/02/22-rdf-syntax-ns#"
   xmlns:svg="http://www.w3.org/2000/svg"
   xmlns="http://www.w3.org/2000/svg"
   xmlns:sodipodi="http://sodipodi.sourceforge.net/DTD/sodipodi-0.dtd"
   xmlns:inkscape="http://www.inkscape.org/namespaces/inkscape"
   version="1.1"
   x="0px"
   y="0px"
   viewBox="0 0 3861 3861"
   enable-background="new 0 0 3968.5 3968.5"
   xml:space="preserve"
   id="svg8"
   sodipodi:docname="midi-input.svg"
   width="110"
   height="110"
   inkscape:version="0.92.3 (2405546, 2018-03-11)"><metadata
     id="metadata14"><rdf:RDF><cc:Work
         rdf:about=""><dc:format>image/svg+xml</dc:format><dc:type
           rdf:resource="http://purl.org/dc/dcmitype/StillImage" /><dc:title></dc:title></cc:Work></rdf:RDF></metadata><defs
     id="defs12" /><sodipodi:namedview
     pagecolor="#ffffff"
     bordercolor="#666666"
     borderopacity="1"
     objecttolerance="10"
     gridtolerance="10"
     guidetolerance="10"
     inkscape:pageopacity="0"
     inkscape:pageshadow="2"
     inkscape:window-width="1410"
     inkscape:window-height="759"
     id="namedview10"
     showgrid="false"
     scale-x="35.1"
     inkscape:zoom="2.1529829"
     inkscape:cx="-6.0354422"
     inkscape:cy="89.262132"
     inkscape:window-x="0"
     inkscape:window-y="27"
     inkscape:window-maximized="0"
     inkscape:current-layer="svg8" /><path
     d="M 3436.8192,734.68848 H 446.21919 c -79.7,0 -144.6,64.8 -144.6,144.4999 V 2929.6884 c 0,79.7 64.8,144.6 144.6,144.6 H 3436.8192 c 42.2,0 80.2,-18.2 106.6,-47.1 2.5,0 5.1,0 7.6,0 0.8,0 1.5,0 2.3,0 0,-4 0,-8.1 0,-12.1 17.6,-23.9 28,-53.5 28,-85.4 V 879.18838 c 0,-79.6999 -64.8,-144.4999 -144.5,-144.4999 z M 823.71919,2968.4884 h -377.5 c -21.4,0 -38.7,-17.4 -38.7,-38.7 V 879.18838 c 0,-14.5 8,-27.1 19.7,-33.7 96.5,0.1 194.6,-1.5 288.8,1.1 3.5,411.30002 -1.2,831.60002 2.3,1243.00002 32.4,3.8 72.8,-1.2 105.2,2.5 1.8,289.2 1.9,586.4 0.2,876.4 z m 457.60001,0 H 835.91919 c -1.6,-290 -1.6,-587.2 0.3,-876.3 35.1,-3.8 78.2,1.3 113.3,-2.5 2.7,-410.9 0.4,-827.3 1.2,-1240.40002 0.6,-1.8 1.8,-3.1 3.5,-3.8 70.90001,0.8 144.80001,-1.7 213.80001,1.3 2.7,411.30002 0.4,828.20002 1.1,1241.70002 30,3.9 77.2,-1.3 111,2.5 4.3,286.7 2.4,586.9 1.2,877.5 z m 450.7,0 h -437.6 c -3.8,-287.2 -1.6,-593.2 -0.5,-877.6 32.5,-2.9 75.7,-0.4 106.3,-1.3 5.4,-407 0.8,-832.1 2.3,-1240.40002 0,-2.2 0.9,-3.3 2.3,-3.8 109,0.8 221.1,-1.7 328.2,1.3 -0.7,701.70002 1.5,1417.40002 -1,2121.80002 z m 453.2,0 h -440.7 c -1.8,-704.3 -1.8,-1416.6 0.1,-2120.60002 0.8,-1.2 2.1,-1.9 3.5,-2.6 107.9,0.8 218.8,-1.7 324.8,1.3 2.7,410.50002 0.4,826.50002 1.2,1239.20002 32.4,5.9 74.7,0.9 110.9,2.5 1.7,290.5 1.8,588.9 0.2,880.2 z m 448.5,0 h -436.3 c -1.7,-291.2 -1.6,-589.7 0.3,-880.2 35.9,-0.8 74.7,1.7 108.6,-1.3 2.7,-410.1 0.4,-825.7 1.2,-1237.90002 0.7,-1.8 1.8,-3.1 3.5,-3.8 69.7,0.8 142.5,-1.7 210.3,1.3 3.5,412.20002 -1.2,833.30002 2.3,1245.50002 34.3,3.8 76.6,-1.2 110.9,2.6 -0.7,285.9 1.3,584.8 -0.8,873.8 z m 461,0 h -448.1 c -3.7,-286.5 -1.6,-585.5 -0.5,-873.8 33.2,-3.8 74.3,1.2 107.5,-2.6 4.2,-356.1 2.3,-726.1 2.3,-1089 0,-51.40002 -0.9,-108.00002 1.2,-155.20002 0.8,-1.2 2.1,-1.9 3.5,-2.6 72.8,0.8 148.7,-1.7 219.6,1.3 2.7,410.50002 0.4,833.30002 1.1,1241.70002 30.4,4.7 81,-2.9 113.3,3.8 1.7,289.2 1.8,586.4 0.1,876.4 z m 380.8,-38.8 c 0,21.4 -17.4,38.7 -38.7,38.7 h -329.8 c -1.7,-289.1 -1.6,-592.3 0.3,-877.6 32.8,-2.9 70.5,-0.4 105.2,-1.3 5.4,-407 0.8,-832.1 2.3,-1240.40002 -0.1,-2.2 0.9,-3.3 2.3,-3.8 78.9,0.6 159.4,-0.6 238.4,-0.1 12,6.6 20.1,19.3 20.1,34 V 2929.6884 Z"
     id="path2"
     inkscape:connector-curvature="0"
     style="clip-rule:evenodd;fill-rule:evenodd" /><text
     x="-156.50154"
     y="2635.4429"
     font-size="5px"
     font-weight="bold"
     id="text4"
     style="font-weight:bold;font-size:5px;font-family:'Helvetica Neue', Helvetica, Arial-Unicode, Arial, Sans-serif;fill:#000000">Created by Alvaro Cabrera</text>
<text
     x="-156.50154"
     y="2640.4429"
     font-size="5px"
     font-weight="bold"
     id="text6"
     style="font-weight:bold;font-size:5px;font-family:'Helvetica Neue', Helvetica, Arial-Unicode, Arial, Sans-serif;fill:#000000">from the Noun Project</text>
</svg>