<?xml version="1.0" encoding="UTF-8" standalone="no"?>
<svg
   xmlns:dc="http://purl.org/dc/elements/1.1/"
   xmlns:cc="http://creativecommons.org/ns#"
   xmlns:rdf="http://www.w3.org/1999/02/22-rdf-syntax-ns#"
   xmlns:svg="http://www.w3.org/2000/svg"
   xmlns="http://www.w3.org/2000/svg"
   xmlns:sodipodi="http://sodipodi.sourceforge.net/DTD/sodipodi-0.dtd"
   xmlns:inkscape="http://www.inkscape.org/namespaces/inkscape"
   version="1.1"
   x="0px"
   y="0px"
   viewBox="0 0 110 110"
   enable-background="new 0 0 100 100"
   xml:space="preserve"
   id="svg24"
   sodipodi:docname="node.svg"
   width="110"
   height="110"
   inkscape:version="0.92.3 (2405546, 2018-03-11)"><metadata
     id="metadata30"><rdf:RDF><cc:Work
         rdf:about=""><dc:format>image/svg+xml</dc:format><dc:type
           rdf:resource="http://purl.org/dc/dcmitype/StillImage" /><dc:title></dc:title></cc:Work></rdf:RDF></metadata><defs
     id="defs28" /><sodipodi:namedview
     pagecolor="#ffffff"
     bordercolor="#666666"
     borderopacity="1"
     objecttolerance="10"
     gridtolerance="10"
     guidetolerance="10"
     inkscape:pageopacity="0"
     inkscape:pageshadow="2"
     inkscape:window-width="867"
     inkscape:window-height="480"
     id="namedview26"
     showgrid="false"
     inkscape:zoom="1.888"
     inkscape:cx="50"
     inkscape:cy="62.5"
     inkscape:window-x="0"
     inkscape:window-y="0"
     inkscape:window-maximized="0"
     inkscape:current-layer="svg24" /><g
     id="g18"
     transform="translate(6,3)"><path
       d="M 66.363,45 H 51 v -6.826 c 2,-0.856 4.366,-3.345 4.366,-6.275 0,-3.636 -3.062,-6.594 -6.698,-6.594 -3.636,0 -6.908,2.958 -6.908,6.594 0,2.925 2.24,5.41 4.24,6.271 V 45 H 30.869 C 25.555,45 21,49.556 21,54.869 V 90.363 C 21,95.677 25.555,100 30.869,100 H 66.363 C 71.678,100 76,95.678 76,90.363 V 54.869 C 76,49.556 71.678,45 66.363,45 Z M 48.565,29.366 c 1.396,0 2.532,1.136 2.532,2.533 0,1.397 -1.136,2.533 -2.532,2.533 -1.396,0 -2.533,-1.136 -2.533,-2.533 0,-1.397 1.137,-2.533 2.533,-2.533 z M 72,90.424 C 72,93.504 69.504,96 66.424,96 H 30.576 C 27.497,96 25,93.504 25,90.424 V 54.576 C 25,51.496 27.497,49 30.576,49 H 66.424 C 69.504,49 72,51.496 72,54.576 Z"
       id="path2"
       inkscape:connector-curvature="0" /><path
       d="m 48.507,79.956 c -2.195,0 -3.982,1.787 -3.982,3.983 0,2.196 1.787,3.983 3.982,3.983 2.197,0 3.983,-1.787 3.983,-3.983 0,-2.196 -1.786,-3.983 -3.983,-3.983 z m 0,4.062 c -0.042,0 -0.077,-0.035 -0.077,-0.078 0,-0.043 0.035,-0.077 0.077,-0.077 0.043,0 0.078,0.034 0.078,0.077 0,0.043 -0.035,0.078 -0.078,0.078 z"
       id="path4"
       inkscape:connector-curvature="0" /><path
       d="m 61.851,79.956 c -2.195,0 -3.982,1.787 -3.982,3.983 0,2.196 1.787,3.983 3.982,3.983 2.197,0 3.983,-1.787 3.983,-3.983 0,-2.196 -1.786,-3.983 -3.983,-3.983 z m 0,4.062 c -0.042,0 -0.077,-0.035 -0.077,-0.078 0,-0.043 0.035,-0.077 0.077,-0.077 0.043,0 0.078,0.034 0.078,0.077 0,0.043 -0.035,0.078 -0.078,0.078 z"
       id="path6"
       inkscape:connector-curvature="0" /><path
       d="m 35.28,79.956 c -2.197,0 -3.983,1.787 -3.983,3.983 0,2.196 1.787,3.983 3.983,3.983 2.196,0 3.983,-1.787 3.983,-3.983 0,-2.196 -1.787,-3.983 -3.983,-3.983 z m 0,4.062 c -0.043,0 -0.078,-0.035 -0.078,-0.078 0,-0.043 0.035,-0.077 0.078,-0.077 0.043,0 0.078,0.034 0.078,0.077 0,0.043 -0.035,0.078 -0.078,0.078 z"
       id="path8"
       inkscape:connector-curvature="0" /><path
       d="m 48.565,58.954 c -3.636,0 -6.594,2.959 -6.594,6.595 0,3.636 2.958,6.594 6.594,6.594 3.636,0 6.595,-2.958 6.595,-6.594 0,-3.636 -2.959,-6.595 -6.595,-6.595 z m 0,9.127 c -1.396,0 -2.533,-1.136 -2.533,-2.532 0,-1.396 1.137,-2.533 2.533,-2.533 1.396,0 2.532,1.137 2.532,2.533 0,1.396 -1.135,2.532 -2.532,2.532 z"
       id="path10"
       inkscape:connector-curvature="0" /><path
       d="m 24.918,17.018 c 0.364,0.27 0.789,0.4 1.209,0.4 0.621,0 1.233,-0.284 1.631,-0.821 2.361,-3.18 5.465,-5.816 8.978,-7.624 3.68,-1.893 7.66,-2.852 11.829,-2.852 4.154,0 8.122,0.953 11.791,2.833 3.503,1.795 6.603,4.414 8.966,7.576 0.671,0.898 1.943,1.082 2.842,0.411 0.898,-0.671 1.082,-1.944 0.411,-2.842 C 69.844,10.444 66.26,7.415 62.209,5.34 57.961,3.164 53.371,2.06 48.565,2.06 c -4.754,0 -9.486,1.143 -13.686,3.303 -4.062,2.09 -7.651,5.138 -10.381,8.814 -0.668,0.901 -0.48,2.173 0.42,2.841 z"
       id="path12"
       inkscape:connector-curvature="0" /><path
       d="m 63.157,21.139 c 0.398,0.534 1.009,0.816 1.628,0.816 0.423,0 0.85,-0.132 1.214,-0.403 0.898,-0.672 1.083,-1.943 0.411,-2.842 -2.028,-2.717 -4.692,-4.97 -7.703,-6.513 -3.113,-1.596 -6.62,-2.44 -10.142,-2.44 -3.521,0 -7.026,0.843 -10.139,2.438 -3.01,1.543 -5.674,3.793 -7.703,6.51 -0.671,0.898 -0.487,2.17 0.412,2.841 0.898,0.671 2.171,0.487 2.842,-0.411 1.66,-2.223 3.839,-4.064 6.301,-5.326 2.579,-1.321 5.367,-1.992 8.287,-1.992 2.922,0 5.71,0.67 8.289,1.993 2.462,1.263 4.642,3.106 6.303,5.329 z"
       id="path14"
       inkscape:connector-curvature="0" /><path
       d="m 48.565,18.11 c -4.384,0 -8.562,2.105 -11.176,5.632 -0.668,0.9 -0.479,2.172 0.422,2.84 0.364,0.27 0.787,0.4 1.208,0.4 0.621,0 1.234,-0.284 1.633,-0.821 1.879,-2.535 4.764,-3.988 7.914,-3.988 3.109,0 5.972,1.423 7.853,3.906 0.677,0.894 1.95,1.07 2.845,0.393 0.894,-0.677 1.069,-1.951 0.393,-2.845 C 57,20.122 52.959,18.11 48.565,18.11 Z"
       id="path16"
       inkscape:connector-curvature="0" /></g></svg>