<?xml version="1.0" encoding="UTF-8" standalone="no"?>
<svg
   xmlns:dc="http://purl.org/dc/elements/1.1/"
   xmlns:cc="http://creativecommons.org/ns#"
   xmlns:rdf="http://www.w3.org/1999/02/22-rdf-syntax-ns#"
   xmlns:svg="http://www.w3.org/2000/svg"
   xmlns="http://www.w3.org/2000/svg"
   xmlns:sodipodi="http://sodipodi.sourceforge.net/DTD/sodipodi-0.dtd"
   xmlns:inkscape="http://www.inkscape.org/namespaces/inkscape"
   version="1.1"
   x="0px"
   y="0px"
   viewBox="0 0 100 111"
   enable-background="new 0 0 100 100"
   xml:space="preserve"
   id="svg8"
   sodipodi:docname="percentage.svg"
   width="100"
   height="111"
   inkscape:version="0.92.3 (2405546, 2018-03-11)"><metadata
     id="metadata14"><rdf:RDF><cc:Work
         rdf:about=""><dc:format>image/svg+xml</dc:format><dc:type
           rdf:resource="http://purl.org/dc/dcmitype/StillImage" /><dc:title></dc:title></cc:Work></rdf:RDF></metadata><defs
     id="defs12" /><sodipodi:namedview
     pagecolor="#ffffff"
     bordercolor="#666666"
     borderopacity="1"
     objecttolerance="10"
     gridtolerance="10"
     guidetolerance="10"
     inkscape:pageopacity="0"
     inkscape:pageshadow="2"
     inkscape:window-width="867"
     inkscape:window-height="480"
     id="namedview10"
     showgrid="false"
     inkscape:zoom="1.888"
     inkscape:cx="50"
     inkscape:cy="62.5"
     inkscape:window-x="0"
     inkscape:window-y="27"
     inkscape:window-maximized="0"
     inkscape:current-layer="svg8" /><path
     d="m 70.831661,57.643136 c -11.458,0 -20.779,9.322 -20.779,20.78 0,11.457 9.321,20.777002 20.779,20.777002 11.458,0 20.778,-9.320002 20.778,-20.777002 0,-11.457 -9.32,-20.78 -20.778,-20.78 z m 0,33.438 c -6.98,0 -12.658,-5.678 -12.658,-12.657 0,-6.98 5.678,-12.659 12.658,-12.659 6.98,0 12.658,5.678 12.658,12.659 0,6.979 -5.678,12.657 -12.658,12.657 z m -40.604,-42.035 c 11.458,0 20.779,-9.322 20.779,-20.78 0,-11.457 -9.321,-20.7770004 -20.779,-20.7770004 -11.457,-0.001 -20.778,9.3200004 -20.778,20.7770004 0,11.458 9.321,20.78 20.778,20.78 z m 0,-33.437 c 6.98,0 12.658,5.678 12.658,12.656 0,6.98 -5.678,12.66 -12.658,12.66 -6.979,0 -12.658,-5.679 -12.658,-12.66 0,-6.978 5.679,-12.656 12.658,-12.656 z m 53.935,-10.3260004 c -1.831,-1.295 -4.364,-0.859 -5.659,0.972 l -64.966,91.8780004 c -1.294,1.831002 -0.859,4.365004 0.972,5.660004 0.711,0.503 1.53,0.745 2.34,0.745 1.273,0 2.526,-0.598 3.317,-1.717 l 64.967,-91.878004 c 1.295,-1.831 0.86,-4.3650004 -0.971,-5.6600004 z"
     id="path2"
     inkscape:connector-curvature="0" /></svg>