<?xml version="1.0" encoding="UTF-8" standalone="no"?>
<svg
   xmlns:dc="http://purl.org/dc/elements/1.1/"
   xmlns:cc="http://creativecommons.org/ns#"
   xmlns:rdf="http://www.w3.org/1999/02/22-rdf-syntax-ns#"
   xmlns:svg="http://www.w3.org/2000/svg"
   xmlns="http://www.w3.org/2000/svg"
   xmlns:sodipodi="http://sodipodi.sourceforge.net/DTD/sodipodi-0.dtd"
   xmlns:inkscape="http://www.inkscape.org/namespaces/inkscape"
   viewBox="0 0 85 85"
   version="1.1"
   x="0px"
   y="0px"
   id="svg10"
   sodipodi:docname="petri-dish.svg"
   width="85"
   height="85"
   inkscape:version="0.92.3 (2405546, 2018-03-11)">
  <metadata
     id="metadata16">
    <rdf:RDF>
      <cc:Work
         rdf:about="">
        <dc:format>image/svg+xml</dc:format>
        <dc:type
           rdf:resource="http://purl.org/dc/dcmitype/StillImage" />
        <dc:title></dc:title>
      </cc:Work>
    </rdf:RDF>
  </metadata>
  <defs
     id="defs14" />
  <sodipodi:namedview
     pagecolor="#ffffff"
     bordercolor="#666666"
     borderopacity="1"
     objecttolerance="10"
     gridtolerance="10"
     guidetolerance="10"
     inkscape:pageopacity="0"
     inkscape:pageshadow="2"
     inkscape:window-width="867"
     inkscape:window-height="480"
     id="namedview12"
     showgrid="false"
     inkscape:zoom="1.888"
     inkscape:cx="50"
     inkscape:cy="62.5"
     inkscape:window-x="0"
     inkscape:window-y="27"
     inkscape:window-maximized="0"
     inkscape:current-layer="svg10" />
  <g
     inkscape:label=""
     id="g4"
     transform="translate(-7.9449152,-6.631356)">
    <path
       style="color:#000000;font-style:normal;font-variant:normal;font-weight:normal;font-stretch:normal;font-size:medium;line-height:normal;font-family:sans-serif;text-indent:0;text-align:start;text-decoration:none;text-decoration-line:none;text-decoration-style:solid;text-decoration-color:#000000;letter-spacing:normal;word-spacing:normal;text-transform:none;writing-mode:lr-tb;direction:ltr;baseline-shift:baseline;text-anchor:start;white-space:normal;clip-rule:nonzero;display:inline;overflow:visible;visibility:visible;opacity:1;isolation:auto;mix-blend-mode:normal;color-interpolation:sRGB;color-interpolation-filters:linearRGB;solid-color:#000000;solid-opacity:1;fill:#000000;fill-opacity:1;fill-rule:evenodd;stroke:none;stroke-width:3.00095963;stroke-linecap:butt;stroke-linejoin:miter;stroke-miterlimit:4;stroke-dasharray:none;stroke-dashoffset:0;stroke-opacity:1;color-rendering:auto;image-rendering:auto;shape-rendering:auto;text-rendering:auto;enable-background:accumulate"
       d="m 50,15.000015 c -19.312193,0 -35,15.68783 -35,34.99997 0,19.3122 15.687807,35 35,35 19.312193,0 35,-15.6878 35,-35 0,-19.31214 -15.687807,-34.99997 -35,-34.99997 z m 0,3.00195 c 17.690354,0 32,14.30772 32,31.99802 0,17.6904 -14.309646,32 -32,32 -17.690354,0 -32,-14.3096 -32,-32 0,-17.6903 14.309646,-31.99802 32,-31.99802 z m -0.117188,0.91602 c -3.534447,0.0124 -7.090387,0.62902 -10.513671,1.875 -10.432867,3.79725 -18.0506,12.8768 -19.978516,23.81055 -1.927916,10.93375 2.125909,22.07055 10.630859,29.20705 a 1.3326488,1.3326488 0 1 0 1.712891,-2.041 c -7.778854,-6.5273 -11.482073,-16.7029 -9.71875,-26.70316 1.763323,-10.0003 8.723448,-18.29647 18.265625,-21.76954 9.542177,-3.47307 20.205521,-1.59168 27.984375,4.93555 a 1.3326488,1.3326488 0 1 0 1.712891,-2.04101 c -5.315594,-4.46031 -11.867889,-6.93711 -18.582032,-7.24024 -0.50356,-0.0227 -1.008749,-0.035 -1.513672,-0.0332 z M 50,25.962905 a 6.5,6.5 0 0 0 -6.5,6.5 6.5,6.5 0 0 0 6.5,6.5 6.5,6.5 0 0 0 6.5,-6.5 6.5,6.5 0 0 0 -6.5,-6.5 z m 0,4 a 2.5,2.5 0 0 1 2.5,2.5 2.5,2.5 0 0 1 -2.5,2.5 2.5,2.5 0 0 1 -2.5,-2.5 2.5,2.5 0 0 1 2.5,-2.5 z m 15.011719,3.77148 a 7.5,7.5 0 0 0 -3.574219,1.00196 7.5,7.5 0 0 0 -2.744141,10.24414 7.5,7.5 0 0 0 10.244141,2.7461 7.5,7.5 0 0 0 2.746094,-10.2461 7.5,7.5 0 0 0 -6.671875,-3.7461 z m -30.058594,1.49805 a 6,6 0 0 0 -0.423828,0.006 6,6 0 0 0 -4.914063,2.99219 6,6 0 0 0 2.197266,8.19726 6,6 0 0 0 8.195312,-2.19726 6,6 0 0 0 -2.195312,-8.19531 6,6 0 0 0 -2.859375,-0.80274 z m -0.08203,3.5 a 2.5,2.5 0 0 1 1.191406,0.33399 2.5,2.5 0 0 1 0.914062,3.41406 2.5,2.5 0 0 1 -3.414062,0.91601 2.5,2.5 0 0 1 -0.916016,-3.41601 2.5,2.5 0 0 1 2.046875,-1.2461 2.5,2.5 0 0 1 0.177735,-0.002 z m 30.257812,0 a 2.5,2.5 0 0 1 2.22461,1.24805 2.5,2.5 0 0 1 -0.916016,3.41601 2.5,2.5 0 0 1 -3.414062,-0.91601 2.5,2.5 0 0 1 0.914062,-3.41406 2.5,2.5 0 0 1 1.191406,-0.33399 z M 50,44.000015 a 6,6 0 0 0 -6,5.99997 6,6 0 0 0 6,6 6,6 0 0 0 6,-6 6,6 0 0 0 -6,-5.99997 z m 0,3.5 a 2.5,2.5 0 0 1 2.5,2.49997 2.5,2.5 0 0 1 -2.5,2.5 2.5,2.5 0 0 1 -2.5,-2.5 2.5,2.5 0 0 1 2.5,-2.49997 z m 15.388672,2.76957 a 8.5,8.5 0 0 0 -0.601563,0.01 8.5,8.5 0 0 0 -6.960937,4.2421 8.5,8.5 0 0 0 -1,5.7266 10,10 0 0 0 -6.826172,-2.709 10,10 0 0 0 -10,10 10,10 0 0 0 10,10 10,10 0 0 0 10,-10 10,10 0 0 0 -0.273438,-2.2656 8.5,8.5 0 0 0 1.210938,0.8574 8.5,8.5 0 0 0 11.611328,-3.1093 8.5,8.5 0 0 0 -3.111328,-11.6114 8.5,8.5 0 0 0 -4.048828,-1.1386 z m -30.695313,3.5 a 5,5 0 0 0 -2.380859,0.6699 5,5 0 0 0 -1.830078,6.8301 5,5 0 0 0 6.830078,1.83 5,5 0 0 0 1.830078,-6.83 5,5 0 0 0 -4.449219,-2.5 z m 0.06055,2.5 a 2.5,2.5 0 0 1 2.222656,1.25 2.5,2.5 0 0 1 -0.914062,3.414 2.5,2.5 0 0 1 -3.416016,-0.914 2.5,2.5 0 0 1 0.916016,-3.4161 2.5,2.5 0 0 1 1.191406,-0.3339 z m 30.492188,0 a 2.5,2.5 0 0 1 1.191406,0.3339 2.5,2.5 0 0 1 0.916016,3.4161 2.5,2.5 0 0 1 -3.416016,0.914 2.5,2.5 0 0 1 -0.914062,-3.414 2.5,2.5 0 0 1 2.046874,-1.2481 2.5,2.5 0 0 1 0.175782,0 z M 50,65.037085 a 2.5,2.5 0 0 1 2.5,2.5 2.5,2.5 0 0 1 -2.5,2.5 2.5,2.5 0 0 1 -2.5,-2.5 2.5,2.5 0 0 1 2.5,-2.5 z"
       id="path2"
       inkscape:connector-curvature="0" />
  </g>
</svg>
