<?xml version="1.0" encoding="UTF-8" standalone="no"?>
<svg
   xmlns:dc="http://purl.org/dc/elements/1.1/"
   xmlns:cc="http://creativecommons.org/ns#"
   xmlns:rdf="http://www.w3.org/1999/02/22-rdf-syntax-ns#"
   xmlns:svg="http://www.w3.org/2000/svg"
   xmlns="http://www.w3.org/2000/svg"
   xmlns:sodipodi="http://sodipodi.sourceforge.net/DTD/sodipodi-0.dtd"
   xmlns:inkscape="http://www.inkscape.org/namespaces/inkscape"
   data-name="Layer 1"
   viewBox="0 0 115 115"
   x="0px"
   y="0px"
   version="1.1"
   id="svg18"
   sodipodi:docname="noun_Mobile_1388529.svg"
   width="115"
   height="115"
   inkscape:version="0.92.3 (2405546, 2018-03-11)">
  <metadata
     id="metadata24">
    <rdf:RDF>
      <cc:Work
         rdf:about="">
        <dc:format>image/svg+xml</dc:format>
        <dc:type
           rdf:resource="http://purl.org/dc/dcmitype/StillImage" />
        <dc:title>All4</dc:title>
      </cc:Work>
    </rdf:RDF>
  </metadata>
  <defs
     id="defs22" />
  <sodipodi:namedview
     pagecolor="#ffffff"
     bordercolor="#666666"
     borderopacity="1"
     objecttolerance="10"
     gridtolerance="10"
     guidetolerance="10"
     inkscape:pageopacity="0"
     inkscape:pageshadow="2"
     inkscape:window-width="867"
     inkscape:window-height="480"
     id="namedview20"
     showgrid="false"
     inkscape:zoom="0.944"
     inkscape:cx="4.8233929"
     inkscape:cy="0.53990256"
     inkscape:window-x="0"
     inkscape:window-y="0"
     inkscape:window-maximized="0"
     inkscape:current-layer="svg18" />
  <title
     id="title2">All4</title>
  <path
     d="m 77.65,106 h -39.3 a 7,7 0 0 1 -7,-7 V 13 a 7,7 0 0 1 7,-7 h 39.3 a 7,7 0 0 1 7,7 v 86 a 7,7 0 0 1 -7,7 z M 38.35,9.49 A 3.5,3.5 0 0 0 34.86,13 v 86 a 3.5,3.5 0 0 0 3.49,3.49 h 39.3 A 3.5,3.5 0 0 0 81.14,99 V 13 A 3.5,3.5 0 0 0 77.65,9.51 h -39.3 z"
     id="path4"
     inkscape:connector-curvature="0" />
  <path
     d="M 79.82,93 H 36.18 V 16.67 H 79.82 Z M 37,92.16 H 79 V 17.54 H 37 Z"
     id="path6"
     inkscape:connector-curvature="0" />
  <path
     d="m 60,101.33 h -4 a 3.5,3.5 0 0 1 0,-7 h 4 a 3.5,3.5 0 0 1 0,7 z m -4,-6.11 a 2.62,2.62 0 0 0 0,5.24 h 4 a 2.62,2.62 0 0 0 0,-5.24 z"
     id="path8"
     inkscape:connector-curvature="0" />
  <path
     d="M 61.36,13.56 H 49.78 a 0.44,0.44 0 0 1 0,-0.87 h 11.58 a 0.44,0.44 0 0 1 0,0.87 z"
     id="path10"
     inkscape:connector-curvature="0" />
  <rect
     x="63.16"
     y="11.860001"
     width="3.0599999"
     height="3.0599999"
     rx="1.53"
     ry="1.53"
     id="rect12" />
</svg>
