<?xml version="1.0" encoding="UTF-8" standalone="no"?>
<svg
   xmlns:dc="http://purl.org/dc/elements/1.1/"
   xmlns:cc="http://creativecommons.org/ns#"
   xmlns:rdf="http://www.w3.org/1999/02/22-rdf-syntax-ns#"
   xmlns:svg="http://www.w3.org/2000/svg"
   xmlns="http://www.w3.org/2000/svg"
   xmlns:sodipodi="http://sodipodi.sourceforge.net/DTD/sodipodi-0.dtd"
   xmlns:inkscape="http://www.inkscape.org/namespaces/inkscape"
   version="1.1"
   x="0px"
   y="0px"
   viewBox="0 0 100 100"
   enable-background="new 0 0 100 100"
   xml:space="preserve"
   id="svg16"
   sodipodi:docname="power.svg"
   width="100"
   height="100"
   inkscape:version="0.92.3 (2405546, 2018-03-11)"><metadata
     id="metadata22"><rdf:RDF><cc:Work
         rdf:about=""><dc:format>image/svg+xml</dc:format><dc:type
           rdf:resource="http://purl.org/dc/dcmitype/StillImage" /><dc:title></dc:title></cc:Work></rdf:RDF></metadata><defs
     id="defs20" /><sodipodi:namedview
     pagecolor="#ffffff"
     bordercolor="#666666"
     borderopacity="1"
     objecttolerance="10"
     gridtolerance="10"
     guidetolerance="10"
     inkscape:pageopacity="0"
     inkscape:pageshadow="2"
     inkscape:window-width="867"
     inkscape:window-height="480"
     id="namedview18"
     showgrid="false"
     inkscape:zoom="1.888"
     inkscape:cx="43.379237"
     inkscape:cy="64.088983"
     inkscape:window-x="0"
     inkscape:window-y="27"
     inkscape:window-maximized="0"
     inkscape:current-layer="svg16" /><g
     id="g4"
     transform="translate(0.52966102,0.42372881)"><path
       d="M 78,4 H 22 C 12.07,4 4,12.08 4,22 v 56 c 0,9.92 8.07,18 18,18 h 56 c 9.93,0 18,-8.08 18,-18 V 22 C 96,12.08 87.93,4 78,4 Z m 6,74 c 0,3.31 -2.69,6 -6,6 H 22 c -3.31,0 -6,-2.69 -6,-6 V 22 c 0,-3.31 2.69,-6 6,-6 h 56 c 3.31,0 6,2.69 6,6 z"
       id="path2"
       inkscape:connector-curvature="0" /></g><g
     id="g10"
     transform="translate(0.52966102,0.42372881)"><g
       id="g8"><path
         d="m 66.45,49.99 c 0,0 0,0.01 0,0.02 0,0.19 -0.01,0.39 -0.03,0.57 v 0.06 c -0.02,0.18 -0.05,0.36 -0.08,0.53 -0.01,0.01 -0.01,0.03 -0.01,0.04 -0.03,0.16 -0.07,0.32 -0.12,0.48 -0.06,0.2 -0.13,0.41 -0.22,0.61 -0.03,0.08 -0.07,0.16 -0.11,0.25 -0.02,0.05 -0.05,0.11 -0.08,0.17 -0.05,0.1 -0.1,0.19 -0.16,0.29 l -0.21,0.35 -10.24,17.65 c -1.11,1.92 -3.13,2.99 -5.2,2.99 -1.02,0 -2.05,-0.26 -3,-0.81 -2.87,-1.67 -3.84,-5.34 -2.18,-8.2 L 50.03,56 H 39.55 c -0.2,0 -0.4,-0.01 -0.59,-0.03 H 38.92 C 38.76,55.95 38.61,55.93 38.46,55.9 38.28,55.87 38.1,55.83 37.93,55.77 37.82,55.75 37.71,55.71 37.61,55.67 37.36,55.59 37.12,55.49 36.88,55.37 36.78,55.32 36.67,55.27 36.57,55.21 36.32,55.07 36.08,54.9 35.85,54.72 35.76,54.65 35.68,54.58 35.6,54.51 35.5,54.43 35.4,54.34 35.31,54.24 35.22,54.15 35.13,54.06 35.04,53.96 34.95,53.86 34.87,53.76 34.79,53.65 34.63,53.44 34.48,53.22 34.35,52.99 34.3,52.9 34.25,52.8 34.2,52.71 33.86,52.05 33.64,51.32 33.58,50.54 33.56,50.37 33.55,50.19 33.55,50.01 v -0.02 c 0,-0.19 0.01,-0.39 0.03,-0.57 v -0.06 c 0.02,-0.18 0.05,-0.36 0.08,-0.53 0.01,-0.01 0.01,-0.03 0.01,-0.04 0.03,-0.16 0.07,-0.32 0.12,-0.48 0.06,-0.2 0.13,-0.41 0.22,-0.61 0.03,-0.08 0.07,-0.16 0.11,-0.25 0.02,-0.06 0.05,-0.11 0.08,-0.17 0.05,-0.1 0.1,-0.19 0.16,-0.29 0.06,-0.12 0.14,-0.23 0.21,-0.35 L 44.81,28.99 c 1.67,-2.87 5.34,-3.84 8.2,-2.18 2.87,1.67 3.84,5.34 2.18,8.2 L 49.97,44 h 10.48 c 0.2,0 0.4,0.01 0.59,0.03 h 0.04 c 0.16,0.02 0.31,0.04 0.46,0.07 0.18,0.03 0.36,0.07 0.53,0.13 0.11,0.02 0.22,0.06 0.32,0.1 0.25,0.08 0.49,0.18 0.73,0.3 0.1,0.05 0.21,0.1 0.31,0.16 0.25,0.15 0.49,0.31 0.72,0.49 0.09,0.07 0.17,0.14 0.25,0.21 0.1,0.09 0.2,0.17 0.29,0.27 0.09,0.09 0.18,0.18 0.27,0.28 0.09,0.1 0.17,0.2 0.25,0.31 0.08,0.1 0.16,0.21 0.23,0.32 0.07,0.11 0.14,0.22 0.21,0.34 0.05,0.09 0.1,0.19 0.15,0.28 0.35,0.69 0.56,1.42 0.62,2.17 0.02,0.17 0.03,0.35 0.03,0.53 z"
         id="path6"
         inkscape:connector-curvature="0" /></g></g></svg>