<?xml version="1.0" encoding="UTF-8" standalone="no"?>
<svg
   xmlns:dc="http://purl.org/dc/elements/1.1/"
   xmlns:cc="http://creativecommons.org/ns#"
   xmlns:rdf="http://www.w3.org/1999/02/22-rdf-syntax-ns#"
   xmlns:svg="http://www.w3.org/2000/svg"
   xmlns="http://www.w3.org/2000/svg"
   xmlns:sodipodi="http://sodipodi.sourceforge.net/DTD/sodipodi-0.dtd"
   xmlns:inkscape="http://www.inkscape.org/namespaces/inkscape"
   version="1.1"
   x="0px"
   y="0px"
   viewBox="0 0 53 53"
   enable-background="new 0 0 60 60"
   xml:space="preserve"
   id="svg12"
   sodipodi:docname="pressure.svg"
   width="53"
   height="53"
   inkscape:version="0.92.3 (2405546, 2018-03-11)"><metadata
     id="metadata18"><rdf:RDF><cc:Work
         rdf:about=""><dc:format>image/svg+xml</dc:format><dc:type
           rdf:resource="http://purl.org/dc/dcmitype/StillImage" /><dc:title></dc:title></cc:Work></rdf:RDF></metadata><defs
     id="defs16" /><sodipodi:namedview
     pagecolor="#ffffff"
     bordercolor="#666666"
     borderopacity="1"
     objecttolerance="10"
     gridtolerance="10"
     guidetolerance="10"
     inkscape:pageopacity="0"
     inkscape:pageshadow="2"
     inkscape:window-width="867"
     inkscape:window-height="480"
     id="namedview14"
     showgrid="false"
     inkscape:zoom="3.1466667"
     inkscape:cx="34.636975"
     inkscape:cy="43.417952"
     inkscape:window-x="0"
     inkscape:window-y="27"
     inkscape:window-maximized="0"
     inkscape:current-layer="svg12" /><g
     id="g6"
     transform="translate(-3.4957627,-2.9322034)"><path
       d="M 30,8 C 17.8,8 8,17.8 8,30 8,42.2 17.9,52 30,52 42.1,52 52,42.1 52,30 52,17.9 42.2,8 30,8 Z m 0,42 C 18.9,50 10,41 10,30 10,19 19,10 30,10 c 11,0 20,9 20,20 0,11 -8.9,20 -20,20 z"
       id="path2"
       inkscape:connector-curvature="0" /><path
       d="m 38.1,20.5 -6.8,6.8 C 30.9,27.1 30.4,27 30,27 c -1.7,0 -3.1,1.4 -3.1,3.1 0,1.7 1.4,3.1 3.1,3.1 1.7,0 3.1,-1.4 3.1,-3.1 0,-0.5 -0.1,-0.9 -0.3,-1.3 L 39.6,22 c 0.4,-0.4 0.4,-1 0,-1.4 -0.4,-0.4 -1.1,-0.5 -1.5,-0.1 z M 30,31.1 c -0.6,0 -1.1,-0.5 -1.1,-1.1 0,-0.6 0.5,-1.1 1.1,-1.1 0.6,0 1.1,0.5 1.1,1.1 0,0.6 -0.5,1.1 -1.1,1.1 z"
       id="path4"
       inkscape:connector-curvature="0" /></g></svg>