<?xml version="1.0" encoding="UTF-8" standalone="no"?>
<svg
   xmlns:dc="http://purl.org/dc/elements/1.1/"
   xmlns:cc="http://creativecommons.org/ns#"
   xmlns:rdf="http://www.w3.org/1999/02/22-rdf-syntax-ns#"
   xmlns:svg="http://www.w3.org/2000/svg"
   xmlns="http://www.w3.org/2000/svg"
   xmlns:sodipodi="http://sodipodi.sourceforge.net/DTD/sodipodi-0.dtd"
   xmlns:inkscape="http://www.inkscape.org/namespaces/inkscape"
   version="1.1"
   x="0px"
   y="0px"
   viewBox="0 0 55 55"
   xml:space="preserve"
   id="svg8"
   sodipodi:docname="processor.svg"
   width="55"
   height="55"
   inkscape:version="0.92.3 (2405546, 2018-03-11)"><metadata
     id="metadata14"><rdf:RDF><cc:Work
         rdf:about=""><dc:format>image/svg+xml</dc:format><dc:type
           rdf:resource="http://purl.org/dc/dcmitype/StillImage" /><dc:title></dc:title></cc:Work></rdf:RDF></metadata><defs
     id="defs12" /><sodipodi:namedview
     pagecolor="#ffffff"
     bordercolor="#666666"
     borderopacity="1"
     objecttolerance="10"
     gridtolerance="10"
     guidetolerance="10"
     inkscape:pageopacity="0"
     inkscape:pageshadow="2"
     inkscape:window-width="1920"
     inkscape:window-height="1025"
     id="namedview10"
     showgrid="false"
     inkscape:zoom="3.9333333"
     inkscape:cx="120.53678"
     inkscape:cy="30"
     inkscape:window-x="0"
     inkscape:window-y="27"
     inkscape:window-maximized="1"
     inkscape:current-layer="svg8" /><path
     d="m 50.559322,23.289831 c 0.6,0 1,-0.4 1,-1 0,-0.6 -0.4,-1 -1,-1 h -5.3 v -3.1 h 5.3 c 0.6,0 1,-0.4 1,-1 0,-0.6 -0.4,-1 -1,-1 h -5.3 v -1.6 c 0,-2.8 -2.2,-5.0000001 -5,-5.0000001 h -1.6 V 4.3898305 c 0,-0.6 -0.4,-1 -1,-1 -0.6,0 -1,0.4 -1,1 v 5.3000004 h -3.1 V 4.3898305 c 0,-0.6 -0.4,-1 -1,-1 -0.6,0 -1,0.4 -1,1 v 5.3000004 h -3 V 4.3898305 c 0,-0.6 -0.4,-1 -1,-1 -0.6,0 -1,0.4 -1,1 v 5.3000004 h -3.1 V 4.3898305 c 0,-0.6 -0.4,-1 -1,-1 -0.6,0 -1,0.4 -1,1 v 5.3000004 h -3.1 V 4.3898305 c 0,-0.6 -0.4,-1 -1,-1 -0.6,0 -1,0.4 -1,1 v 5.3000004 h -1.6 c -2.8,0 -5,2.2000001 -5,5.0000001 v 1.6 h -5.2 c -0.6,0 -1,0.4 -1,1 0,0.6 0.4,1 1,1 h 5.3 v 3.1 h -5.3 c -0.6,0 -1,0.4 -1,1 0,0.6 0.4,1 1,1 h 5.3 v 3 h -5.3 c -0.6,0 -1,0.4 -1,1 0,0.6 0.4,1 1,1 h 5.3 v 3.1 h -5.3 c -0.6,0 -1,0.4 -1,1 0,0.6 0.4,1 1,1 h 5.3 v 3.1 h -5.3 c -0.6,0 -1,0.4 -1,1 0,0.6 0.4,1 1,1 h 5.3 v 1.6 c 0,2.8 2.2,5 5,5 h 1.6 v 5.2 c 0,0.6 0.4,1 1,1 0.6,0 1,-0.4 1,-1 v -5.3 h 3.1 v 5.3 c 0,0.6 0.4,1 1,1 0.6,0 1,-0.4 1,-1 v -5.3 h 3 v 5.3 c 0,0.6 0.4,1 1,1 0.6,0 1,-0.4 1,-1 v -5.3 h 3.1 v 5.3 c 0,0.6 0.4,1 1,1 0.6,0 1,-0.4 1,-1 v -5.3 h 3.1 v 5.3 c 0,0.6 0.4,1 1,1 0.6,0 1,-0.4 1,-1 v -5.3 h 1.6 c 2.8,0 5,-2.2 5,-5 v -1.6 h 5.2 c 0.6,0 1,-0.4 1,-1 0,-0.6 -0.4,-1 -1,-1 h -5.3 v -3.1 h 5.3 c 0.6,0 1,-0.4 1,-1 0,-0.6 -0.4,-1 -1,-1 h -5.3 v -3 h 5.3 c 0.6,0 1,-0.4 1,-1 0,-0.6 -0.4,-1 -1,-1 h -5.3 v -3.1 z m -10.3,17.8 h -25.4 c -0.6,0 -1,-0.4 -1,-1 v -12.2 h 4.6 c 0.3,0 0.5,-0.1 0.7,-0.3 l 2.3,-2.3 h 1.3 c 0.4,0.8 1.2,1.3 2.1,1.3 1.3,0 2.3,-1 2.3,-2.3 0,-1.3 -1,-2.3 -2.3,-2.3 -0.9,0 -1.7,0.5 -2.1,1.3 h -1.8 c -0.3,0 -0.5,0.1 -0.7,0.3 l -2.3,2.3 h -4.2 v -4.9 h 4.6 c 0.3,0 0.5,-0.1 0.7,-0.3 l 2.3,-2.3 h 3.3 c 0.4,0.8 1.2,1.3 2.1,1.3 1.3,0 2.3,-1 2.3,-2.3 0,-1.3 -1,-2.3 -2.3,-2.3 -0.9,0 -1.7,0.5 -2.1,1.3 h -3.8 c -0.3,0 -0.5,0.1 -0.7,0.3 l -2.3,2.3 h -4.2 v -4.3 c 0,-0.6 0.4,-1 1,-1 h 25.4 c 0.6,0 1,0.4 1,1 v 11.2 h -7.6 c -0.2,0 -0.3,0 -0.4,0.1 l -3.4,1.7 c -0.4,-0.4 -0.9,-0.6 -1.5,-0.6 -1.3,0 -2.3,1 -2.3,2.3 0,1.3 1,2.3 2.3,2.3 1.2,0 2.3,-1 2.3,-2.2 l 3.3,-1.7 h 7.3 v 8.6 h -5.5 l -2.1,-2.4 c -0.2,-0.2 -0.5,-0.3 -0.7,-0.3 h -6.8 c -0.2,0 -0.4,0.1 -0.6,0.2 l -2,1.4 c -0.3,-0.1 -0.6,-0.2 -1,-0.2 -1.3,0 -2.3,1 -2.3,2.3 0,1.3 1,2.3 2.3,2.3 1.3,0 2.3,-1 2.3,-2.3 0,-0.2 0,-0.4 -0.1,-0.6 l 1.6,-1.2 h 6 l 2.1,2.4 c 0.2,0.2 0.5,0.3 0.7,0.3 h 6.2 v 1.6 c 0.1,0.7 -0.4,1.2 -0.9,1.2 z"
     id="path2"
     inkscape:connector-curvature="0" /></svg>