<?xml version="1.0" encoding="UTF-8" standalone="no"?>
<svg
   xmlns:dc="http://purl.org/dc/elements/1.1/"
   xmlns:cc="http://creativecommons.org/ns#"
   xmlns:rdf="http://www.w3.org/1999/02/22-rdf-syntax-ns#"
   xmlns:svg="http://www.w3.org/2000/svg"
   xmlns="http://www.w3.org/2000/svg"
   xmlns:sodipodi="http://sodipodi.sourceforge.net/DTD/sodipodi-0.dtd"
   xmlns:inkscape="http://www.inkscape.org/namespaces/inkscape"
   viewBox="0 0 65 65"
   x="0px"
   y="0px"
   version="1.1"
   id="svg8"
   sodipodi:docname="pump.svg"
   width="100"
   height="100"
   inkscape:version="0.92.3 (2405546, 2018-03-11)">
  <metadata
     id="metadata14">
    <rdf:RDF>
      <cc:Work
         rdf:about="">
        <dc:format>image/svg+xml</dc:format>
        <dc:type
           rdf:resource="http://purl.org/dc/dcmitype/StillImage" />
        <dc:title></dc:title>
      </cc:Work>
    </rdf:RDF>
  </metadata>
  <defs
     id="defs12" />
  <sodipodi:namedview
     pagecolor="#ffffff"
     bordercolor="#666666"
     borderopacity="1"
     objecttolerance="10"
     gridtolerance="10"
     guidetolerance="10"
     inkscape:pageopacity="0"
     inkscape:pageshadow="2"
     inkscape:window-width="1065"
     inkscape:window-height="923"
     id="namedview10"
     showgrid="false"
     scale-x="0.65"
     inkscape:zoom="2.95"
     inkscape:cx="32"
     inkscape:cy="40"
     inkscape:window-x="0"
     inkscape:window-y="27"
     inkscape:window-maximized="0"
     inkscape:current-layer="svg8" />
  <path
     d="m 58.220339,25.067797 h -24 l -4,2 v 2 h -4 v -7 c 1.1,0 2,-0.9 2,-2 v -3 c 0,-1.1 -0.9,-2 -2,-2 v -5 h -8 v 5 c -1.1,0 -2,0.9 -2,2 v 3 c 0,1.1 0.9,2 2,2 v 12 h -4 c 0,-1.1 -0.9,-2 -2,-2 h -3 c -1.1,0 -2,0.9 -2,2 h -5 v 8 h 5 c 0,1.1 0.9,2 2,2 h 3 c 1.1,0 2,-0.9 2,-2 h 4 v 2 c 0,1.7 1.3,3 3,3 h 9 v 2 l 4,2 h 24 c 2.2,0 4,-1.8 4,-4 v -18 c 0,-2.2 -1.8,-4 -4,-4 z m -40,-8 h 2 v -5 h 4 v 5 h 2 v 1 h -8 z m -8,25 h -1 v -2 h -5 v -4 h 5 v -2 h 1 z m 4,-2 h -2 v 2 h -1 v -8 h 1 v 2 h 6 v 4 z m 16,5 h -10 v -25 h -2 v -1 h 8 v 1 h -2 v 18 l 2,-3 v -4 h 4 z m 6,4 h -1 v -9 c 0,-0.3 -0.2,-0.5 -0.5,-0.5 -0.3,0 -0.5,0.2 -0.5,0.5 v 8.8 l -2,-1 v -19.6 l 2.5,-1.2 h 1.5 z m 18,0 h -16 v -4 h 12 c 0.6,0 1,-0.4 1,-1 0,-0.6 -0.4,-1 -1,-1 h -12 v -2 h 12 c 0.6,0 1,-0.4 1,-1 0,-0.6 -0.4,-1 -1,-1 h -12 v -2 h 12 c 0.6,0 1,-0.4 1,-1 0,-0.6 -0.4,-1 -1,-1 h -12 v -2 h 12 c 0.6,0 1,-0.4 1,-1 0,-0.6 -0.4,-1 -1,-1 h -12 v -4 h 16 z m 6,-2 c 0,1.1 -0.9,2 -2,2 v -7 c 0,-0.3 -0.2,-0.5 -0.5,-0.5 -0.3,0 -0.5,0.2 -0.5,0.5 v 7 h -1 v -22 h 2 c 1.1,0 2,0.9 2,2 z m -2,-19 v 2 c 0,0.3 -0.2,0.5 -0.5,0.5 -0.3,0 -0.5,-0.2 -0.5,-0.5 v -2 c 0,-0.3 0.2,-0.5 0.5,-0.5 0.3,0 0.5,0.2 0.5,0.5 z"
     id="path2"
     inkscape:connector-curvature="0" />
</svg>
