<?xml version="1.0" encoding="UTF-8" standalone="no"?>
<svg
   xmlns:dc="http://purl.org/dc/elements/1.1/"
   xmlns:cc="http://creativecommons.org/ns#"
   xmlns:rdf="http://www.w3.org/1999/02/22-rdf-syntax-ns#"
   xmlns:svg="http://www.w3.org/2000/svg"
   xmlns="http://www.w3.org/2000/svg"
   xmlns:sodipodi="http://sodipodi.sourceforge.net/DTD/sodipodi-0.dtd"
   xmlns:inkscape="http://www.inkscape.org/namespaces/inkscape"
   version="1.1"
   x="0px"
   y="0px"
   viewBox="0 0 110 110"
   enable-background="new 0 0 100 100"
   xml:space="preserve"
   id="svg20"
   sodipodi:docname="rfid.svg"
   width="110"
   height="110"
   inkscape:version="0.92.3 (2405546, 2018-03-11)"><metadata
     id="metadata26"><rdf:RDF><cc:Work
         rdf:about=""><dc:format>image/svg+xml</dc:format><dc:type
           rdf:resource="http://purl.org/dc/dcmitype/StillImage" /><dc:title></dc:title></cc:Work></rdf:RDF></metadata><defs
     id="defs24" /><sodipodi:namedview
     pagecolor="#ffffff"
     bordercolor="#666666"
     borderopacity="1"
     objecttolerance="10"
     gridtolerance="10"
     guidetolerance="10"
     inkscape:pageopacity="0"
     inkscape:pageshadow="2"
     inkscape:window-width="1568"
     inkscape:window-height="921"
     id="namedview22"
     showgrid="false"
     inkscape:zoom="1.888"
     inkscape:cx="50"
     inkscape:cy="62.5"
     inkscape:window-x="0"
     inkscape:window-y="27"
     inkscape:window-maximized="0"
     inkscape:current-layer="svg20" /><g
     id="g14"
     transform="translate(5.2966102,5.6567798)"><path
       d="m 69.184,40.862 c 0,1.633 1.324,2.957 2.957,2.957 1.633,0 2.957,-1.324 2.957,-2.957 0,-8.814 -7.145,-15.958 -15.958,-15.958 -1.634,0 -2.956,1.324 -2.956,2.957 0,1.633 1.322,2.957 2.956,2.957 5.548,-0.001 10.044,4.496 10.044,10.044 z"
       id="path2"
       inkscape:connector-curvature="0" /><path
       d="m 59.14,1.25 c -1.634,0 -2.956,1.324 -2.956,2.957 0,1.633 1.322,2.957 2.956,2.957 18.61,0 33.698,15.086 33.698,33.698 0,1.633 1.323,2.957 2.957,2.957 1.632,0 2.957,-1.324 2.957,-2.957 C 98.752,18.985 81.016,1.25 59.14,1.25 Z"
       id="path4"
       inkscape:connector-curvature="0" /><path
       d="m 79.862,53.33 c -1.634,0 -2.957,1.324 -2.957,2.958 0,10.854 0,13.5 0,24.356 0,6.531 -5.295,11.826 -11.827,11.826 -17.932,0 -27.654,0 -45.587,0 -6.532,0 -11.827,-5.295 -11.827,-11.826 0,-17.932 0,-27.654 0,-45.587 0,-6.532 5.295,-11.827 11.827,-11.827 10.796,0 13.381,0 24.176,0 1.633,0 2.957,-1.324 2.957,-2.957 0,-1.633 -1.324,-2.958 -2.957,-2.958 -10.795,0 -13.38,0 -24.176,0 -9.797,0 -17.74,7.943 -17.74,17.741 0,17.933 0,27.656 0,45.587 0,9.798 7.943,17.74 17.74,17.74 17.933,0 27.655,0 45.587,0 9.798,0 17.741,-7.942 17.741,-17.74 0,-10.856 0,-13.502 0,-24.356 0,-1.633 -1.325,-2.957 -2.957,-2.957 z"
       id="path6"
       inkscape:connector-curvature="0" /><circle
       cx="59.139999"
       cy="40.862"
       r="4.131"
       id="circle8" /><path
       d="m 59.14,13.077 c -1.634,0 -2.956,1.324 -2.956,2.957 0,1.633 1.322,2.957 2.956,2.957 12.079,0 21.871,9.792 21.871,21.872 0,1.633 1.324,2.957 2.957,2.957 1.633,0 2.957,-1.324 2.957,-2.957 0,-15.346 -12.441,-27.786 -27.785,-27.786 z"
       id="path10"
       inkscape:connector-curvature="0" /><path
       d="m 32.099,51.648 v 12.404 c 0,2.196 1.787,3.984 3.983,3.984 h 12.405 c 2.196,0 3.984,-1.788 3.984,-3.984 v -3.245 c 5.235,0 8.073,0 13.634,0 0,2.944 0,2.813 0,5.758 C 61.069,71.601 56.035,76.636 51,81.67 c -12.898,0 -19.637,0 -32.536,0 0,-9.512 0,-17.293 0,-25.178 0,-6.98 0,-14.042 0,-22.461 10.797,0 14.408,0 25.204,0 1.633,0 2.957,-1.324 2.957,-2.957 0,-1.633 -1.324,-2.957 -2.957,-2.957 -10.795,0 -14.407,0 -25.204,0 -3.265,0 -5.913,2.647 -5.913,5.914 0,17.934 0,29.708 0,47.639 0,3.267 2.647,5.914 5.913,5.914 12.899,0 19.638,0 32.536,0 1.729,0 2.958,-0.509 4.181,-1.731 5.036,-5.035 10.07,-10.071 15.105,-15.106 1.224,-1.223 1.732,-2.451 1.732,-4.181 0,-2.944 0,-2.813 0,-5.758 0,-3.267 -2.648,-5.914 -5.914,-5.914 -5.561,0 -8.398,0 -13.634,0 v -3.245 c 0,-2.196 -1.788,-3.983 -3.984,-3.983 H 36.082 c -2.196,-10e-4 -3.983,1.786 -3.983,3.982 z"
       id="path12"
       inkscape:connector-curvature="0" /></g></svg>