<?xml version="1.0" encoding="UTF-8" standalone="no"?>
<svg
   xmlns:dc="http://purl.org/dc/elements/1.1/"
   xmlns:cc="http://creativecommons.org/ns#"
   xmlns:rdf="http://www.w3.org/1999/02/22-rdf-syntax-ns#"
   xmlns:svg="http://www.w3.org/2000/svg"
   xmlns="http://www.w3.org/2000/svg"
   xmlns:sodipodi="http://sodipodi.sourceforge.net/DTD/sodipodi-0.dtd"
   xmlns:inkscape="http://www.inkscape.org/namespaces/inkscape"
   version="1.1"
   x="0px"
   y="0px"
   viewBox="0 0 110 110"
   enable-background="new 0 0 100 100"
   xml:space="preserve"
   id="svg8"
   sodipodi:docname="screen.svg"
   width="100"
   height="100"
   inkscape:version="0.92.3 (2405546, 2018-03-11)"><metadata
     id="metadata14"><rdf:RDF><cc:Work
         rdf:about=""><dc:format>image/svg+xml</dc:format><dc:type
           rdf:resource="http://purl.org/dc/dcmitype/StillImage" /><dc:title></dc:title></cc:Work></rdf:RDF></metadata><defs
     id="defs12" /><sodipodi:namedview
     pagecolor="#ffffff"
     bordercolor="#666666"
     borderopacity="1"
     objecttolerance="10"
     gridtolerance="10"
     guidetolerance="10"
     inkscape:pageopacity="0"
     inkscape:pageshadow="2"
     inkscape:window-width="1162"
     inkscape:window-height="891"
     id="namedview10"
     showgrid="false"
     inkscape:zoom="1.888"
     inkscape:cx="50"
     inkscape:cy="62.5"
     inkscape:window-x="0"
     inkscape:window-y="27"
     inkscape:window-maximized="0"
     inkscape:current-layer="svg8" /><path
     d="m 98.726271,84.331356 c 3.499999,0 6.299999,-2.8 6.299999,-6.3 v -63.6 c 0,-3.5 -2.8,-6.3000001 -6.299999,-6.3000001 h -85.8 c -3.4999998,0 -6.2999998,2.8000001 -6.2999998,6.3000001 v 63.6 c 0,3.5 2.8,6.3 6.2999998,6.3 h 41.1 v 12.3 h -14 c -1,0 -1.8,0.8 -1.8,1.800003 0,1 0.8,1.800001 1.8,1.800001 h 31.6 c 1,0 1.8,-0.800001 1.8,-1.800001 0,-1.000003 -0.8,-1.800003 -1.8,-1.800003 h -14 v -12.3 z m -88.6,-6.3 v -63.6 c 0,-1.6 1.3,-2.8 2.8,-2.8 h 85.8 c 1.599999,0 2.799999,1.3 2.799999,2.8 v 63.6 c 0,1.6 -1.3,2.8 -2.799999,2.8 h -85.8 c -1.5,0 -2.8,-1.2 -2.8,-2.8 z m 81.8,-8.1 v -47.2 c 0,-1 -0.8,-1.8 -1.8,-1.8 h -68.7 c -1,0 -1.8,0.8 -1.8,1.8 v 47.2 c 0,1 0.8,1.8 1.8,1.8 h 68.8 c 0.9,-0.1 1.7,-0.8 1.7,-1.8 z m -3.5,-1.8 h -65.2 v -43.6 h 65.3 v 43.6 z"
     id="path2"
     inkscape:connector-curvature="0" /></svg>