<?xml version="1.0" encoding="UTF-8" standalone="no"?>
<svg
   xmlns:dc="http://purl.org/dc/elements/1.1/"
   xmlns:cc="http://creativecommons.org/ns#"
   xmlns:rdf="http://www.w3.org/1999/02/22-rdf-syntax-ns#"
   xmlns:svg="http://www.w3.org/2000/svg"
   xmlns="http://www.w3.org/2000/svg"
   xmlns:sodipodi="http://sodipodi.sourceforge.net/DTD/sodipodi-0.dtd"
   xmlns:inkscape="http://www.inkscape.org/namespaces/inkscape"
   version="1.1"
   x="0px"
   y="0px"
   viewBox="0 0 100 100"
   xml:space="preserve"
   id="svg32"
   sodipodi:docname="sensor.svg"
   width="100"
   height="100"
   inkscape:version="0.92.3 (2405546, 2018-03-11)"
   inkscape:export-filename="/home/ed/Téléchargements/sensor.png"
   inkscape:export-xdpi="274"
   inkscape:export-ydpi="274"><metadata
     id="metadata38"><rdf:RDF><cc:Work
         rdf:about=""><dc:format>image/svg+xml</dc:format><dc:type
           rdf:resource="http://purl.org/dc/dcmitype/StillImage" /><dc:title></dc:title></cc:Work></rdf:RDF></metadata><defs
     id="defs36" /><sodipodi:namedview
     pagecolor="#ffffff"
     bordercolor="#666666"
     borderopacity="1"
     objecttolerance="10"
     gridtolerance="10"
     guidetolerance="10"
     inkscape:pageopacity="0"
     inkscape:pageshadow="2"
     inkscape:window-width="1411"
     inkscape:window-height="806"
     id="namedview34"
     showgrid="false"
     inkscape:zoom="1.3350176"
     inkscape:cx="17.175382"
     inkscape:cy="42.310514"
     inkscape:window-x="0"
     inkscape:window-y="0"
     inkscape:window-maximized="0"
     inkscape:current-layer="svg32" /><path
     d="M 61.9,30.9 H 37.3 c -3.3,0 -5.9,2.6 -5.9,5.9 v 24.6 c 0,3.3 2.6,5.9 5.9,5.9 h 24.6 c 3.3,0 5.9,-2.6 5.9,-5.9 V 36.8 c 0,-3.2 -2.6,-5.9 -5.9,-5.9 z M 49.6,58.1 c -4.9,0 -9,-4 -9,-9 0,-5 4,-9 9,-9 5,0 9,4 9,9 0,5 -4.1,9 -9,9 z"
     id="path2"
     inkscape:connector-curvature="0" /><path
     d="M 85.5,36.1 C 85.5,30.2 83.2,24.6 79,20.4 74.8,16.2 69.2,13.9 63.3,13.9 v 3.7 c 4.9,0 9.6,1.9 13.1,5.4 3.5,3.5 5.4,8.1 5.4,13.1 z"
     id="path4"
     inkscape:connector-curvature="0" /><path
     d="M 84.4,15 C 78.8,9.4 71.3,6.3 63.3,6.3 V 10 c 7,0 13.6,2.7 18.5,7.7 4.9,4.9 7.7,11.5 7.7,18.5 h 3.7 C 93.2,28.1 90.1,20.6 84.4,15 Z"
     id="path6"
     inkscape:connector-curvature="0" /><path
     d="m 63.3,20.9 v 3.7 c 3.1,0 5.9,1.2 8.1,3.4 2.2,2.2 3.4,5 3.4,8.1 h 3.7 C 78.5,32 76.9,28.2 74.1,25.4 71.2,22.5 67.4,20.9 63.3,20.9 Z"
     id="path8"
     inkscape:connector-curvature="0" /><path
     d="m 14.5,61.9 c 0,5.9 2.3,11.5 6.5,15.7 4.2,4.2 9.8,6.5 15.7,6.5 V 80.4 C 31.8,80.4 27.1,78.5 23.6,75 20.1,71.5 18.2,66.9 18.2,61.9 Z"
     id="path10"
     inkscape:connector-curvature="0" /><path
     d="m 15.6,83 c 5.6,5.6 13.1,8.7 21.1,8.7 V 88 C 29.7,88 23.1,85.3 18.2,80.3 13.3,75.4 10.5,68.8 10.5,61.8 H 6.8 c 0,8.1 3.1,15.6 8.8,21.2 z"
     id="path12"
     inkscape:connector-curvature="0" /><path
     d="m 36.7,77.1 v -3.7 c -3.1,0 -5.9,-1.2 -8.1,-3.4 -2.2,-2.2 -3.4,-5 -3.4,-8.1 h -3.7 c 0,4.1 1.6,7.9 4.4,10.7 2.9,2.9 6.7,4.5 10.8,4.5 z"
     id="path14"
     inkscape:connector-curvature="0" /><path
     d="m 37.1,13.5 c -5.9,0 -11.5,2.3 -15.7,6.5 -4.2,4.2 -6.5,9.8 -6.5,15.7 h 3.7 c 0,-4.9 1.9,-9.6 5.4,-13.1 3.5,-3.5 8.1,-5.4 13.1,-5.4 z"
     id="path16"
     inkscape:connector-curvature="0" /><path
     d="M 16,14.6 C 10.4,20.2 7.3,27.7 7.3,35.7 H 11 c 0,-7 2.7,-13.6 7.7,-18.5 4.9,-4.9 11.5,-7.7 18.5,-7.7 V 5.8 C 29.1,5.8 21.6,8.9 16,14.6 Z"
     id="path18"
     inkscape:connector-curvature="0" /><path
     d="m 21.9,35.7 h 3.7 c 0,-3.1 1.2,-5.9 3.4,-8.1 2.2,-2.2 5,-3.4 8.1,-3.4 v -3.7 c -4.1,0 -7.9,1.6 -10.7,4.4 -2.9,2.9 -4.5,6.7 -4.5,10.8 z"
     id="path20"
     inkscape:connector-curvature="0" /><path
     d="m 62.9,84.5 c 5.9,0 11.5,-2.3 15.7,-6.5 4.2,-4.2 6.5,-9.8 6.5,-15.7 h -3.7 c 0,4.9 -1.9,9.6 -5.4,13.1 -3.5,3.5 -8.1,5.4 -13.1,5.4 z"
     id="path22"
     inkscape:connector-curvature="0" /><path
     d="m 84,83.4 c 5.6,-5.6 8.7,-13.1 8.7,-21.1 H 89 c 0,7 -2.7,13.6 -7.7,18.5 -4.9,4.9 -11.5,7.7 -18.5,7.7 v 3.7 c 8.1,0 15.6,-3.1 21.2,-8.8 z"
     id="path24"
     inkscape:connector-curvature="0" /><path
     d="m 78.1,62.3 h -3.7 c 0,3.1 -1.2,5.9 -3.4,8.1 -2.2,2.2 -5,3.4 -8.1,3.4 v 3.7 c 4.1,0 7.9,-1.6 10.7,-4.4 2.9,-2.9 4.5,-6.7 4.5,-10.8 z"
     id="path26"
     inkscape:connector-curvature="0" /></svg>