<?xml version="1.0" encoding="UTF-8" standalone="no"?>
<svg
   xmlns:dc="http://purl.org/dc/elements/1.1/"
   xmlns:cc="http://creativecommons.org/ns#"
   xmlns:rdf="http://www.w3.org/1999/02/22-rdf-syntax-ns#"
   xmlns:svg="http://www.w3.org/2000/svg"
   xmlns="http://www.w3.org/2000/svg"
   xmlns:sodipodi="http://sodipodi.sourceforge.net/DTD/sodipodi-0.dtd"
   xmlns:inkscape="http://www.inkscape.org/namespaces/inkscape"
   version="1.1"
   x="0px"
   y="0px"
   viewBox="0 0 512 300"
   enable-background="new 0 0 512 512"
   xml:space="preserve"
   id="svg16"
   sodipodi:docname="switch_on.svg"
   width="512"
   height="300"
   inkscape:version="0.92.3 (2405546, 2018-03-11)"><metadata
     id="metadata22"><rdf:RDF><cc:Work
         rdf:about=""><dc:format>image/svg+xml</dc:format><dc:type
           rdf:resource="http://purl.org/dc/dcmitype/StillImage" /><dc:title></dc:title></cc:Work></rdf:RDF></metadata><defs
     id="defs20" /><sodipodi:namedview
     pagecolor="#ffffff"
     bordercolor="#666666"
     borderopacity="1"
     objecttolerance="10"
     gridtolerance="10"
     guidetolerance="10"
     inkscape:pageopacity="0"
     inkscape:pageshadow="2"
     inkscape:window-width="867"
     inkscape:window-height="480"
     id="namedview18"
     showgrid="false"
     inkscape:zoom="0.36875"
     inkscape:cx="256"
     inkscape:cy="320"
     inkscape:window-x="0"
     inkscape:window-y="27"
     inkscape:window-maximized="0"
     inkscape:current-layer="svg16" /><g
     id="g4"
     transform="translate(-8.1355932,-104.0678)"><path
       d="m 360,360 c -57.346,0 -104,-46.654 -104,-104 0,-57.346 46.654,-104 104,-104 57.346,0 104,46.654 104,104 0,57.346 -46.654,104 -104,104 z m 0,-192 c -48.523,0 -88,39.477 -88,88 0,48.523 39.477,88 88,88 48.523,0 88,-39.477 88,-88 0,-48.523 -39.477,-88 -88,-88 z"
       id="path2"
       inkscape:connector-curvature="0" /></g><g
     id="g10"
     transform="translate(-8.1355932,-104.0678)"><g
       id="g8"><path
         d="m 136,328 h 128.675 c -3.207,-5.117 -6.089,-10.458 -8.604,-16 H 136 c -30.878,0 -56,-25.122 -56,-56 0,-30.878 25.122,-56 56,-56 h 120.071 c 2.514,-5.542 5.397,-10.883 8.604,-16 H 136 c -39.701,0 -72,32.299 -72,72 0,39.701 32.299,72 72,72 z"
         id="path6"
         inkscape:connector-curvature="0" /></g></g></svg>