<?xml version="1.0" encoding="UTF-8" standalone="no"?>
<svg
   xmlns:dc="http://purl.org/dc/elements/1.1/"
   xmlns:cc="http://creativecommons.org/ns#"
   xmlns:rdf="http://www.w3.org/1999/02/22-rdf-syntax-ns#"
   xmlns:svg="http://www.w3.org/2000/svg"
   xmlns="http://www.w3.org/2000/svg"
   xmlns:sodipodi="http://sodipodi.sourceforge.net/DTD/sodipodi-0.dtd"
   xmlns:inkscape="http://www.inkscape.org/namespaces/inkscape"
   version="1.1"
   x="0px"
   y="0px"
   viewBox="0 0 60 60"
   enable-background="new 0 0 64 64"
   xml:space="preserve"
   id="svg16"
   sodipodi:docname="switch-input.svg"
   width="100"
   height="100"
   inkscape:version="0.92.3 (2405546, 2018-03-11)"><metadata
     id="metadata22"><rdf:RDF><cc:Work
         rdf:about=""><dc:format>image/svg+xml</dc:format><dc:type
           rdf:resource="http://purl.org/dc/dcmitype/StillImage" /><dc:title></dc:title></cc:Work></rdf:RDF></metadata><defs
     id="defs20" /><sodipodi:namedview
     pagecolor="#ffffff"
     bordercolor="#666666"
     borderopacity="1"
     objecttolerance="10"
     gridtolerance="10"
     guidetolerance="10"
     inkscape:pageopacity="0"
     inkscape:pageshadow="2"
     inkscape:window-width="869"
     inkscape:window-height="480"
     id="namedview18"
     showgrid="false"
     scale-x="0.6"
     inkscape:zoom="2.085965"
     inkscape:cx="48.495986"
     inkscape:cy="37.607161"
     inkscape:window-x="0"
     inkscape:window-y="27"
     inkscape:window-maximized="0"
     inkscape:current-layer="svg16" /><g
     id="g10"
     transform="translate(-1.4381833,-2.1211094)"><g
       id="g8"><path
         d="M 32,6 C 17.664,6 6,17.664 6,32 6,46.337 17.664,58 32,58 46.337,58 58,46.337 58,32 58,17.664 46.337,6 32,6 Z m 0,48 C 19.869,54 10,44.131 10,32 10,19.869 19.869,10 32,10 c 12.131,0 22,9.869 22,22 0,12.131 -9.869,22 -22,22 z"
         id="path2"
         inkscape:connector-curvature="0" /><path
         d="m 39.071,22.101 c -0.781,0.781 -0.781,2.047 0,2.828 3.898,3.899 3.898,10.243 0,14.143 -3.899,3.897 -10.244,3.896 -14.143,0 -3.899,-3.899 -3.898,-10.243 0,-14.143 0.781,-0.781 0.781,-2.047 0,-2.828 -0.781,-0.781 -2.048,-0.781 -2.828,0 -5.458,5.459 -5.458,14.341 0,19.799 2.729,2.729 6.314,4.094 9.899,4.094 3.585,0 7.17,-1.365 9.899,-4.094 5.459,-5.458 5.459,-14.34 0,-19.799 -0.78,-0.782 -2.045,-0.782 -2.827,0 z"
         id="path4"
         inkscape:connector-curvature="0" /><path
         d="m 32,30 c 1.104,0 2,-0.896 2,-2 V 18 c 0,-1.104 -0.896,-2 -2,-2 -1.104,0 -2,0.896 -2,2 v 10 c 0,1.104 0.896,2 2,2 z"
         id="path6"
         inkscape:connector-curvature="0" /></g></g></svg>