<?xml version="1.0" encoding="UTF-8" standalone="no"?>
<svg
   xmlns:dc="http://purl.org/dc/elements/1.1/"
   xmlns:cc="http://creativecommons.org/ns#"
   xmlns:rdf="http://www.w3.org/1999/02/22-rdf-syntax-ns#"
   xmlns:svg="http://www.w3.org/2000/svg"
   xmlns="http://www.w3.org/2000/svg"
   xmlns:sodipodi="http://sodipodi.sourceforge.net/DTD/sodipodi-0.dtd"
   xmlns:inkscape="http://www.inkscape.org/namespaces/inkscape"
   version="1.1"
   x="0px"
   y="0px"
   viewBox="0 0 28.5 28.5"
   enable-background="new 0 0 24 24"
   xml:space="preserve"
   id="svg14"
   sodipodi:docname="switch-output.svg"
   width="95"
   height="95"
   inkscape:version="0.92.3 (2405546, 2018-03-11)"><metadata
     id="metadata20"><rdf:RDF><cc:Work
         rdf:about=""><dc:format>image/svg+xml</dc:format><dc:type
           rdf:resource="http://purl.org/dc/dcmitype/StillImage" /><dc:title></dc:title></cc:Work></rdf:RDF></metadata><defs
     id="defs18" /><sodipodi:namedview
     pagecolor="#ffffff"
     bordercolor="#666666"
     borderopacity="1"
     objecttolerance="10"
     gridtolerance="10"
     guidetolerance="10"
     inkscape:pageopacity="0"
     inkscape:pageshadow="2"
     inkscape:window-width="1059"
     inkscape:window-height="648"
     id="namedview16"
     showgrid="false"
     scale-x="0.3"
     inkscape:zoom="2.7812867"
     inkscape:cx="40.045077"
     inkscape:cy="38.288063"
     inkscape:window-x="0"
     inkscape:window-y="27"
     inkscape:window-maximized="0"
     inkscape:current-layer="svg14" /><g
     id="g8"
     transform="translate(2.2651387,2.1997503)"><path
       d="M 21.345,0.028 H 2.656 c -1.449,0 -2.628,1.179 -2.628,2.628 v 18.688 c 0,1.449 1.179,2.628 2.628,2.628 h 18.688 c 1.448,0 2.627,-1.179 2.627,-2.628 V 2.656 C 23.972,1.207 22.793,0.028 21.345,0.028 Z m 1.826,21.316 c 0,1.008 -0.819,1.827 -1.826,1.827 H 2.656 c -1.008,0 -1.827,-0.819 -1.827,-1.827 V 2.656 c 0,-1.008 0.819,-1.827 1.827,-1.827 h 18.688 c 1.007,0 1.826,0.819 1.826,1.827 v 18.688 z"
       id="path2"
       inkscape:connector-curvature="0" /><path
       d="M 16.04,3.519 H 7.96 c -2.174,0 -3.942,1.77 -3.942,3.943 0,2.173 1.769,3.943 3.942,3.943 h 8.08 c 2.174,0 3.943,-1.77 3.943,-3.943 0,-2.173 -1.769,-3.943 -3.943,-3.943 z m 3.143,3.943 c 0,0.209 -0.023,0.412 -0.062,0.61 -0.283,1.379 -1.507,2.42 -2.969,2.42 -1.672,0 -3.032,-1.359 -3.032,-3.03 0,-1.672 1.36,-3.031 3.032,-3.031 1.462,0 2.685,1.041 2.969,2.421 0.039,0.198 0.062,0.401 0.062,0.61 z m -14.365,0 c 0,-1.733 1.409,-3.143 3.142,-3.143 h 6.01 c -0.995,0.693 -1.65,1.841 -1.65,3.143 0,1.301 0.656,2.45 1.651,3.143 H 7.96 c -1.732,0 -3.142,-1.409 -3.142,-3.143 z"
       id="path4"
       inkscape:connector-curvature="0" /><path
       d="M 16.04,12.595 H 7.96 c -2.174,0 -3.942,1.77 -3.942,3.943 0,2.173 1.769,3.942 3.942,3.942 h 8.08 c 2.174,0 3.943,-1.769 3.943,-3.942 0,-2.173 -1.769,-3.943 -3.943,-3.943 z m -8.191,6.974 c -1.462,0 -2.685,-1.041 -2.969,-2.42 -0.039,-0.198 -0.062,-0.401 -0.062,-0.61 0,-0.209 0.023,-0.413 0.062,-0.611 0.283,-1.38 1.507,-2.421 2.969,-2.421 1.672,0 3.031,1.359 3.031,3.031 0,1.671 -1.359,3.031 -3.031,3.031 z m 8.191,0.111 h -6.009 c 0.995,-0.693 1.65,-1.841 1.65,-3.142 0,-1.301 -0.655,-2.45 -1.65,-3.143 h 6.01 c 1.733,0 3.143,1.409 3.143,3.143 -0.001,1.733 -1.411,3.142 -3.144,3.142 z"
       id="path6"
       inkscape:connector-curvature="0" /></g></svg>