<?xml version="1.0" encoding="UTF-8" standalone="no"?>
<svg
   xmlns:dc="http://purl.org/dc/elements/1.1/"
   xmlns:cc="http://creativecommons.org/ns#"
   xmlns:rdf="http://www.w3.org/1999/02/22-rdf-syntax-ns#"
   xmlns:svg="http://www.w3.org/2000/svg"
   xmlns="http://www.w3.org/2000/svg"
   xmlns:sodipodi="http://sodipodi.sourceforge.net/DTD/sodipodi-0.dtd"
   xmlns:inkscape="http://www.inkscape.org/namespaces/inkscape"
   version="1.1"
   x="0px"
   y="0px"
   viewBox="0 0 32 54"
   xml:space="preserve"
   id="svg20"
   sodipodi:docname="temperature.svg"
   width="32"
   height="54"
   inkscape:version="0.92.3 (2405546, 2018-03-11)"><metadata
     id="metadata26"><rdf:RDF><cc:Work
         rdf:about=""><dc:format>image/svg+xml</dc:format><dc:type
           rdf:resource="http://purl.org/dc/dcmitype/StillImage" /><dc:title></dc:title></cc:Work></rdf:RDF></metadata><defs
     id="defs24" /><sodipodi:namedview
     pagecolor="#ffffff"
     bordercolor="#666666"
     borderopacity="1"
     objecttolerance="10"
     gridtolerance="10"
     guidetolerance="10"
     inkscape:pageopacity="0"
     inkscape:pageshadow="2"
     inkscape:window-width="867"
     inkscape:window-height="480"
     id="namedview22"
     showgrid="false"
     inkscape:zoom="3.6307692"
     inkscape:cx="22.832627"
     inkscape:cy="23.961864"
     inkscape:window-x="0"
     inkscape:window-y="27"
     inkscape:window-maximized="0"
     inkscape:current-layer="svg20" /><g
     id="g14"
     transform="translate(-9.6398305,1.1186441)"><path
       d="M 30.190002,29.909973 V 7.9299927 C 30.190002,4.6599731 27.530029,2 24.26001,2 20.98999,2 18.330017,4.6599731 18.330017,7.9299927 V 29.909973 c -3.090027,2.01001 -4.98999,5.470032 -4.98999,9.170044 C 13.340027,45.099976 18.23999,50 24.26001,50 c 6.030029,0 10.929992,-4.900024 10.929992,-10.919983 0,-3.700012 -1.899963,-7.160034 -5,-9.170044 z M 24.26001,48 c -4.919983,0 -8.919983,-4 -8.919983,-8.919983 0,-3.179993 1.719971,-6.150024 4.48999,-7.73999 l 0.5,-0.290039 V 7.9299927 C 20.330017,5.7600098 22.100037,4 24.26001,4 c 2.169983,0 3.929992,1.7600098 3.929992,3.9299927 V 31.049988 l 0.51001,0.290039 c 2.77002,1.589966 4.48999,4.559997 4.48999,7.73999 C 33.190002,44 29.179993,48 24.26001,48 Z"
       id="path2"
       inkscape:connector-curvature="0" /><path
       d="m 30.190002,39.080017 c 0,3.269959 -2.659973,5.929993 -5.929992,5.929993 -3.27002,0 -5.929993,-2.660034 -5.929993,-5.929993 0,-2.929993 2.140015,-5.360046 4.929993,-5.840027 V 7.8300171 h 2 V 33.23999 c 2.799988,0.479981 4.929992,2.910034 4.929992,5.840027 z"
       id="path4"
       inkscape:connector-curvature="0" /><rect
       x="32.463684"
       y="6.8279419"
       width="4.1962891"
       height="2"
       id="rect6" /><rect
       x="32.463684"
       y="12.397278"
       width="6.1962891"
       height="2"
       id="rect8" /><rect
       x="32.463684"
       y="17.96759"
       width="4.1962891"
       height="2"
       id="rect10" /><rect
       x="32.463684"
       y="23.537903"
       width="6.1962891"
       height="2"
       id="rect12" /></g></svg>