<?xml version="1.0" encoding="UTF-8" standalone="no"?>
<svg
   xmlns:dc="http://purl.org/dc/elements/1.1/"
   xmlns:cc="http://creativecommons.org/ns#"
   xmlns:rdf="http://www.w3.org/1999/02/22-rdf-syntax-ns#"
   xmlns:svg="http://www.w3.org/2000/svg"
   xmlns="http://www.w3.org/2000/svg"
   xmlns:sodipodi="http://sodipodi.sourceforge.net/DTD/sodipodi-0.dtd"
   xmlns:inkscape="http://www.inkscape.org/namespaces/inkscape"
   version="1.1"
   x="0px"
   y="0px"
   viewBox="0 0 100 125"
   enable-background="new 0 0 100 100"
   xml:space="preserve"
   id="svg8"
   sodipodi:docname="noun_text_357034.svg"
   inkscape:version="0.92.3 (2405546, 2018-03-11)"><metadata
     id="metadata14"><rdf:RDF><cc:Work
         rdf:about=""><dc:format>image/svg+xml</dc:format><dc:type
           rdf:resource="http://purl.org/dc/dcmitype/StillImage" /></cc:Work></rdf:RDF></metadata><defs
     id="defs12" /><sodipodi:namedview
     pagecolor="#ffffff"
     bordercolor="#666666"
     borderopacity="1"
     objecttolerance="10"
     gridtolerance="10"
     guidetolerance="10"
     inkscape:pageopacity="0"
     inkscape:pageshadow="2"
     inkscape:window-width="867"
     inkscape:window-height="480"
     id="namedview10"
     showgrid="false"
     inkscape:zoom="1.888"
     inkscape:cx="50"
     inkscape:cy="62.5"
     inkscape:window-x="0"
     inkscape:window-y="27"
     inkscape:window-maximized="0"
     inkscape:current-layer="svg8" /><path
     fill="#000000"
     d="M73.059,26.206H62.063h-7.125h-9.875h-7.125H26.941c-0.761,0-1.379,0.617-1.379,1.379v6.496v7.031  c0,0.762,0.617,1.379,1.379,1.379h1.587c0.738,0,1.356-0.543,1.459-1.274c0.335-2.379,1.776-7.249,7.95-7.136h4.589  c0.762,0,1.379,0.617,1.379,1.379v1.314V47.74v17.563c0,1.625-1.317,2.942-2.942,2.942h-3.901v1.906v0.198v0.552v1.514  c0,0.761,0.617,1.379,1.379,1.379h23.117c0.762,0,1.379-0.617,1.379-1.379v-1.982v-2.188h-3.901c-1.625,0-2.942-1.317-2.942-2.942  V47.74V36.773V35.46c0-0.762,0.617-1.379,1.379-1.379h4.589c6.174-0.112,7.615,4.757,7.95,7.136  c0.103,0.731,0.721,1.274,1.459,1.274h1.587c0.762,0,1.379-0.617,1.379-1.379v-7.031v-6.496  C74.438,26.823,73.82,26.206,73.059,26.206z"
     id="path2"
     inkscape:export-xdpi="1178.1122"
     inkscape:export-ydpi="1178.1122"
     style="fill:#f9f9f9" /></svg>