<?xml version="1.0" encoding="UTF-8" standalone="no"?>
<svg
   xmlns:dc="http://purl.org/dc/elements/1.1/"
   xmlns:cc="http://creativecommons.org/ns#"
   xmlns:rdf="http://www.w3.org/1999/02/22-rdf-syntax-ns#"
   xmlns:svg="http://www.w3.org/2000/svg"
   xmlns="http://www.w3.org/2000/svg"
   xmlns:sodipodi="http://sodipodi.sourceforge.net/DTD/sodipodi-0.dtd"
   xmlns:inkscape="http://www.inkscape.org/namespaces/inkscape"
   viewBox="0 0 50 45"
   x="0px"
   y="0px"
   version="1.1"
   id="svg18"
   sodipodi:docname="timer.svg"
   width="100"
   height="90"
   inkscape:version="0.92.3 (2405546, 2018-03-11)">
  <metadata
     id="metadata24">
    <rdf:RDF>
      <cc:Work
         rdf:about="">
        <dc:format>image/svg+xml</dc:format>
        <dc:type
           rdf:resource="http://purl.org/dc/dcmitype/StillImage" />
        <dc:title>Chess-board-piece-game-sport-clock-switch</dc:title>
      </cc:Work>
    </rdf:RDF>
  </metadata>
  <defs
     id="defs22" />
  <sodipodi:namedview
     pagecolor="#ffffff"
     bordercolor="#666666"
     borderopacity="1"
     objecttolerance="10"
     gridtolerance="10"
     guidetolerance="10"
     inkscape:pageopacity="0"
     inkscape:pageshadow="2"
     inkscape:window-width="1343"
     inkscape:window-height="729"
     id="namedview20"
     showgrid="false"
     scale-x="0.5"
     inkscape:zoom="2.7812867"
     inkscape:cx="3.2963425"
     inkscape:cy="22.824584"
     inkscape:window-x="0"
     inkscape:window-y="27"
     inkscape:window-maximized="0"
     inkscape:current-layer="svg18" />
  <title
     id="title2">Chess-board-piece-game-sport-clock-switch</title>
  <path
     d="m 47.25841,13.258832 h -10 v -2 h 1 a 1,1 0 0 0 0,-1.9999997 h -4 a 1,1 0 0 0 0,1.9999997 h 1 v 2 h -20 v -2 h 1 a 1,1 0 0 0 0,-1.9999997 h -4 a 1,1 0 0 0 0,1.9999997 h 1 v 2 H 3.2584104 a 1,1 0 0 0 -1,1 v 24 a 1,1 0 0 0 1,1 H 47.25841 a 1,1 0 0 0 1,-1 v -24 a 1,1 0 0 0 -1,-1 z m -42.9999996,2 H 24.25841 v 22 H 4.2584104 Z m 41.9999996,22 h -20 v -22 h 20 z"
     id="path4"
     inkscape:connector-curvature="0" />
  <path
     d="m 14.25841,18.258832 a 8,8 0 1 0 8,8 8,8 0 0 0 -8,-8 z m 0,14 a 6,6 0 1 1 6,-6 6,6 0 0 1 -6,6 z"
     id="path6"
     inkscape:connector-curvature="0" />
  <path
     d="m 28.25841,26.258832 a 8,8 0 1 0 8,-8 8,8 0 0 0 -8,8 z m 14,0 a 6,6 0 1 1 -6,-6 6,6 0 0 1 6,6 z"
     id="path8"
     inkscape:connector-curvature="0" />
  <path
     d="m 16.37841,22.718832 -2.83,2.83 a 1,1 0 1 0 1.41,1.41 l 2.83,-2.83 a 1,1 0 0 0 -1.41,-1.41 z"
     id="path10"
     inkscape:connector-curvature="0" />
  <path
     d="m 35.54841,25.548832 -2.83,2.83 a 1,1 0 1 0 1.41,1.41 l 2.83,-2.83 a 1,1 0 0 0 -1.41,-1.41 z"
     id="path12"
     inkscape:connector-curvature="0" />
</svg>
