<?xml version="1.0" encoding="UTF-8" standalone="no"?>
<svg
   xmlns:dc="http://purl.org/dc/elements/1.1/"
   xmlns:cc="http://creativecommons.org/ns#"
   xmlns:rdf="http://www.w3.org/1999/02/22-rdf-syntax-ns#"
   xmlns:svg="http://www.w3.org/2000/svg"
   xmlns="http://www.w3.org/2000/svg"
   xmlns:sodipodi="http://sodipodi.sourceforge.net/DTD/sodipodi-0.dtd"
   xmlns:inkscape="http://www.inkscape.org/namespaces/inkscape"
   version="1.1"
   x="0px"
   y="0px"
   viewBox="0 0 1000 1000"
   xml:space="preserve"
   id="svg26"
   sodipodi:docname="tracker.svg"
   width="100"
   height="100"
   inkscape:version="0.92.3 (2405546, 2018-03-11)"><metadata
     id="metadata32"><rdf:RDF><cc:Work
         rdf:about=""><dc:format>image/svg+xml</dc:format><dc:type
           rdf:resource="http://purl.org/dc/dcmitype/StillImage" /><dc:title></dc:title></cc:Work></rdf:RDF></metadata><defs
     id="defs30" /><sodipodi:namedview
     pagecolor="#ffffff"
     bordercolor="#666666"
     borderopacity="1"
     objecttolerance="10"
     gridtolerance="10"
     guidetolerance="10"
     inkscape:pageopacity="0"
     inkscape:pageshadow="2"
     inkscape:window-width="1080"
     inkscape:window-height="851"
     id="namedview28"
     showgrid="false"
     scale-x="2.5"
     inkscape:zoom="1.475"
     inkscape:cx="32.371547"
     inkscape:cy="84.970002"
     inkscape:window-x="0"
     inkscape:window-y="27"
     inkscape:window-maximized="0"
     inkscape:current-layer="svg26" /><g
     id="g20"
     transform="translate(-13.559323,-7.6271458)"><g
       id="g6"><g
         id="g4"><path
           d="m 827.2,247.8 c 3.4,4 6.7,8.2 10,12.3 3.3,4.2 -2.5,-3.3 0.8,1 0.6,0.8 1.3,1.7 1.9,2.5 1.9,2.5 3.8,5.1 5.6,7.7 6.2,8.6 12,17.5 17.6,26.5 5.8,9.5 11.3,19.3 16.3,29.3 2.4,4.8 4.8,9.6 7,14.4 1.1,2.4 2.2,4.9 3.3,7.3 0.4,1 0.9,2 1.3,3 0.9,2.1 0.8,2 -0.1,-0.3 0.3,0.7 0.6,1.5 0.9,2.2 8.4,20.5 15.3,41.7 20.4,63.3 2.6,11 4.8,22 6.5,33.2 0.4,2.7 0.8,5.5 1.2,8.2 -0.6,-4.5 -0.1,-0.7 0,0.5 0.2,1.4 0.3,2.8 0.5,4.1 0.7,6.1 1.3,12.2 1.7,18.4 1.5,20.9 1.4,41.9 -0.1,62.7 -0.3,4.4 -0.7,8.7 -1.2,13.1 -0.2,2.3 -0.5,4.6 -0.8,6.9 -0.1,1.1 -0.3,2.3 -0.4,3.4 -0.6,4.8 0.7,-4.7 0,0.1 -1.4,9.5 -3,18.9 -5,28.2 -3.8,18 -8.7,35.8 -14.8,53.1 -1.5,4.2 -3,8.4 -4.6,12.5 -0.7,1.9 -1.4,3.7 -2.2,5.6 -0.4,1 -0.8,2.1 -1.2,3.1 -0.3,0.8 -0.7,1.6 -1,2.5 0.3,-0.8 0.7,-1.6 1,-2.3 -1.1,4.1 -3.6,8.3 -5.4,12.1 -2,4.4 -4.1,8.8 -6.3,13.1 -8.1,16.1 -17.2,31.6 -27.2,46.6 -5,7.4 -10.3,14.6 -15.7,21.8 -1.7,2.3 3.1,-3.9 0.3,-0.4 -0.5,0.7 -1.1,1.4 -1.6,2.1 -1.4,1.7 -2.7,3.4 -4.1,5.1 -3,3.7 -6.1,7.4 -9.3,11 -11.8,13.5 -24.4,26.2 -37.7,38.1 -6.8,6.1 -13.9,11.9 -21.1,17.6 -1,0.8 -2.3,2.5 0.9,-0.7 -0.8,0.7 -1.8,1.3 -2.6,2 -1.7,1.3 -3.5,2.6 -5.3,3.9 -3.7,2.7 -7.4,5.4 -11.2,8 -14.8,10.2 -30.3,19.4 -46.3,27.7 -8.2,4.2 -16.6,8.2 -25.1,11.9 -0.8,0.4 -1.6,0.7 -2.4,1.1 -4.3,1.9 4.2,-1.7 -0.1,0 -2.1,0.8 -4.1,1.7 -6.2,2.5 -4.1,1.6 -8.3,3.2 -12.5,4.7 -17.3,6.2 -35,11.3 -52.9,15.3 -9.3,2.1 -18.7,3.8 -28.1,5.2 -1.5,0.2 -9,1.1 -2.8,0.4 -2.3,0.2 -4.6,0.6 -6.8,0.8 -4.8,0.6 -9.6,1 -14.5,1.4 -19.1,1.6 -38.3,1.9 -57.4,0.9 -9.5,-0.5 -18.9,-1.2 -28.3,-2.3 -2.2,-0.3 -4.7,-0.3 -6.8,-0.8 5.9,1.6 -1.4,-0.2 -2.8,-0.4 -4.7,-0.7 -9.4,-1.5 -14.1,-2.4 -18.4,-3.4 -36.5,-8 -54.3,-13.8 -8.5,-2.8 -16.8,-5.8 -25.1,-9 -2.1,-0.8 -4.1,-1.7 -6.2,-2.5 -4.2,-1.7 3.2,1.4 0.5,0.2 -1,-0.5 -2,-0.9 -3,-1.3 -4.5,-1.9 -8.9,-4 -13.3,-6.1 -16.3,-7.8 -32,-16.5 -47.2,-26.3 -7.4,-4.7 -14.6,-9.7 -21.7,-14.8 -1.8,-1.3 -3.5,-2.6 -5.3,-3.9 -1,-0.8 -2.2,-1.5 -3.1,-2.4 0.3,0.3 3.7,2.9 0.9,0.7 -3.8,-3 -7.5,-6 -11.2,-9.1 -13.7,-11.5 -26.7,-23.8 -38.9,-36.9 -6.1,-6.6 -12,-13.3 -17.7,-20.2 -1.2,-1.5 -2.5,-3 -3.7,-4.6 -0.8,-1 -1.6,-2.1 -2.4,-3.1 -2.2,-2.7 0.4,0.6 0.7,0.9 -3.3,-3.3 -5.9,-7.8 -8.6,-11.6 -10.5,-14.6 -20,-29.9 -28.6,-45.7 -4.3,-7.9 -8.4,-16 -12.2,-24.2 -1.9,-4 -3.6,-8.1 -5.4,-12.1 -1.2,-2.7 1.9,4.7 0.2,0.5 -0.3,-0.8 -0.7,-1.6 -1,-2.5 -1,-2.5 -2,-4.9 -2.9,-7.4 -6.6,-17.1 -12.1,-34.6 -16.4,-52.5 -2.3,-9.2 -4.2,-18.6 -5.8,-27.9 -0.7,-4.3 -1.4,-8.6 -2,-12.8 -0.2,-1.5 -1.2,-4.3 0.1,0.6 -0.3,-1.1 -0.3,-2.3 -0.4,-3.4 -0.3,-2.5 -0.6,-5 -0.9,-7.5 -2,-19 -2.8,-38.1 -2.3,-57.2 0.3,-9.8 0.8,-19.5 1.7,-29.2 0.4,-4.6 0.9,-9.2 1.5,-13.7 0.1,-0.9 0.3,-1.8 0.4,-2.7 -0.6,5.8 -0.1,1 0,-0.1 0.3,-2.3 0.7,-4.5 1,-6.8 3,-18.5 7.2,-36.8 12.6,-54.8 2.6,-8.8 5.5,-17.4 8.7,-26 1.5,-4.2 3.2,-8.3 4.8,-12.4 0.3,-0.8 0.7,-1.6 1,-2.5 1.8,-4.3 -1.8,4.2 0,-0.1 1,-2.2 1.9,-4.5 2.9,-6.7 7.5,-16.7 16,-32.9 25.6,-48.4 4.6,-7.5 9.4,-14.8 14.4,-22 2.5,-3.6 5.1,-7.1 7.7,-10.6 1.3,-1.7 2.5,-3.7 4,-5.2 -3.2,3.3 -1.5,1.9 -0.7,0.9 1.1,-1.4 2.2,-2.7 3.3,-4.1 11.2,-13.9 23.3,-27.2 36.1,-39.7 6.3,-6.1 12.7,-12 19.3,-17.7 3.3,-2.8 6.7,-5.6 10.1,-8.4 1.7,-1.4 3.4,-2.7 5.1,-4.1 3.5,-2.8 -2.8,2 -0.4,0.3 1.2,-0.9 2.4,-1.9 3.7,-2.8 14.4,-10.8 29.4,-20.7 45,-29.6 7.6,-4.4 15.4,-8.5 23.3,-12.4 4,-1.9 8,-3.8 12,-5.7 2,-0.9 4,-1.8 6.1,-2.7 1.2,-0.5 2.4,-1.3 3.7,-1.6 -0.8,0.3 -1.6,0.7 -2.3,1 0.8,-0.3 1.6,-0.7 2.5,-1 16.9,-6.9 34.3,-12.8 52,-17.5 8.9,-2.4 18,-4.5 27,-6.3 4.2,-0.8 8.5,-1.6 12.7,-2.3 2.2,-0.4 4.5,-0.7 6.8,-1.1 1.4,-0.2 2.7,-0.4 4.1,-0.6 4.8,-0.7 -4.7,0.6 0.1,0 18.4,-2.3 37,-3.5 55.6,-3.5 -6.7,-6.7 -13.3,-13.3 -20,-20 0,11.8 0,23.6 0,35.4 0,28.4 0,56.7 0,85.1 0,34.5 0,69 0,103.5 0,29.7 0,59.4 0,89.1 0,14.4 -0.4,28.9 0,43.3 0,0.2 0,0.4 0,0.6 0,10.5 9.2,20.5 20,20 10.8,-0.5 20,-8.8 20,-20 0,-11.8 0,-23.6 0,-35.4 0,-28.4 0,-56.7 0,-85.1 0,-34.5 0,-69 0,-103.5 0,-29.7 0,-59.4 0,-89.1 0,-14.4 0.4,-28.9 0,-43.3 0,-0.2 0,-0.4 0,-0.6 0,-10.8 -9.2,-20 -20,-20 -79,0.1 -157.4,20.9 -225.8,60.5 -65.8,38.1 -121.6,93 -160.9,158.1 -40.6,67.2 -62.8,145 -64.4,223.5 -1.6,78.9 17.8,157.8 55.9,227 36.7,66.6 90.6,123.4 154.8,164.1 66.4,42.1 143.7,65.7 222.2,69 78.9,3.3 158,-14.7 227.9,-51.2 C 789.7,876.3 847.5,823.5 889.5,760.2 932.9,694.8 958,618.2 963,540 968.9,447.6 945.5,353.6 896.7,274.9 884.6,255.4 871,237 856.2,219.5 c -6.8,-8 -21.4,-7.5 -28.3,0 -8.5,8.5 -7.9,19.7 -0.7,28.3 z"
           id="path2"
           inkscape:connector-curvature="0" /></g></g><g
       id="g12"><g
         id="g10"><path
           d="m 696.8,358 c 2,2.4 4,4.9 6,7.3 -3,-3.8 0.3,0.3 0.7,1 0.9,1.3 1.9,2.5 2.8,3.8 4,5.6 7.8,11.3 11.3,17.2 3.3,5.4 6.4,11 9.3,16.7 1.4,2.8 2.8,5.7 4.2,8.6 0.7,1.4 1.3,2.9 2,4.4 0.4,1 0.9,2 1.3,2.9 -1,-2.3 -1,-2.4 -0.2,-0.3 4.7,12.1 8.8,24.3 11.8,36.9 1.5,6.4 2.8,12.8 3.9,19.3 0.3,1.6 0.6,3.3 0.7,4.9 -0.5,-5.1 0,0.5 0.1,1.3 0.4,3.9 0.8,7.7 1.1,11.6 0.9,12.7 0.9,25.4 -0.1,38.1 -0.2,2.8 -0.5,5.5 -0.7,8.3 -0.1,1.4 -0.3,2.7 -0.5,4.1 -0.4,3.7 0.2,-0.8 0.2,-1.2 0.3,2.4 -0.8,5.7 -1.3,8.1 -0.5,3.1 -1.1,6.2 -1.8,9.4 -2.3,11 -5.3,21.8 -9,32.4 -0.9,2.5 -1.8,5 -2.8,7.5 -0.5,1.2 -1,2.5 -1.5,3.7 -0.6,1.4 -1.1,5.1 0,0.1 -1.1,5.2 -4.9,10.9 -7.3,15.6 -4.8,9.4 -10.1,18.5 -15.9,27.2 -1.5,2.2 -3,4.3 -4.5,6.5 -1.2,1.7 -2.9,5.3 -4.7,6.3 0.5,-0.7 1,-1.3 1.5,-2 -0.5,0.7 -1.1,1.4 -1.6,2.1 -0.8,1 -1.6,2 -2.5,3.1 -1.9,2.4 -3.9,4.7 -5.9,7 -6.9,7.9 -14.3,15.3 -22.1,22.3 -3.9,3.5 -7.9,6.9 -12,10.1 -0.3,0.3 -0.7,0.5 -1,0.8 -1.7,1.3 -1.4,1.1 0.9,-0.7 -0.5,0.8 -2.4,1.8 -3.1,2.4 -2.5,1.8 -5,3.6 -7.5,5.3 -9,6.2 -18.5,11.8 -28.2,16.8 -4.7,2.4 -9.5,4.7 -14.3,6.8 -0.4,0.2 -0.8,0.4 -1.2,0.5 -2,0.9 -1.6,0.7 1.1,-0.5 -0.4,0.4 -2.1,0.9 -2.5,1 -2.9,1.2 -5.8,2.3 -8.7,3.3 -10.5,3.8 -21.3,6.9 -32.2,9.3 -5.3,1.2 -10.7,2.2 -16,3 -1.2,0.2 -2.8,0.7 -4.1,0.6 5,0.4 1.6,-0.2 -0.1,0 -3.2,0.4 -6.4,0.7 -9.6,0.9 -11.2,0.9 -22.4,1.1 -33.6,0.5 -5.5,-0.3 -11.1,-0.7 -16.6,-1.3 -1.1,-0.1 -3.2,0 -4.1,-0.5 0.9,0.1 1.7,0.2 2.6,0.4 -0.9,-0.1 -1.8,-0.3 -2.7,-0.4 -3.1,-0.5 -6.3,-1 -9.4,-1.6 -11,-2.1 -22,-4.8 -32.6,-8.3 -4.6,-1.5 -9.3,-3.2 -13.8,-4.9 -1.2,-0.5 -2.5,-1 -3.7,-1.5 -4.4,-1.7 4.2,1.9 -0.1,0 -2.8,-1.2 -5.6,-2.5 -8.4,-3.8 -9.9,-4.7 -19.5,-10.1 -28.8,-16 -4.4,-2.8 -8.7,-5.8 -13,-8.9 -1.1,-0.8 -2.1,-1.6 -3.2,-2.3 -3.7,-2.7 3.5,2.8 -0.1,-0.1 -2,-1.6 -4.1,-3.3 -6.1,-4.9 -8.4,-7 -16.3,-14.5 -23.7,-22.4 -3.6,-3.8 -7,-7.8 -10.4,-11.8 -1.6,-1.9 -3.7,-3.9 -4.9,-6.1 2.5,4.5 0.8,1 0,-0.1 -1,-1.4 -2.1,-2.8 -3.1,-4.2 -6.1,-8.5 -11.7,-17.5 -16.7,-26.7 -2.5,-4.6 -4.9,-9.3 -7.2,-14.1 -1.1,-2.4 -2.2,-4.8 -3.3,-7.2 -1.9,-4.3 1.7,4.2 0,-0.1 -0.7,-1.6 -1.3,-3.3 -2,-4.9 -4,-10.4 -7.3,-21.1 -10,-32 -1.2,-4.8 -2.2,-9.7 -3.1,-14.6 -0.5,-2.7 -0.9,-5.4 -1.3,-8.1 -0.1,-0.5 -0.1,-0.9 -0.2,-1.4 -0.3,-2.2 -0.3,-1.8 0.2,1.2 -0.7,-1.3 -0.5,-4 -0.6,-5.5 -1.2,-11.6 -1.7,-23.2 -1.4,-34.9 0.1,-5.6 0.5,-11.1 1,-16.7 0.2,-2.7 0.6,-5.5 0.9,-8.2 0.5,-4.8 -0.7,4.7 0,-0.1 0.3,-1.8 0.5,-3.6 0.8,-5.4 1.8,-10.7 4.2,-21.2 7.3,-31.6 1.5,-5.1 3.2,-10.2 5,-15.2 0.9,-2.5 1.9,-5 2.9,-7.5 0.6,-1.4 1.1,-5.1 0,-0.1 0.4,-1.6 1.5,-3.4 2.1,-4.9 4.3,-9.6 9.3,-19 14.7,-28 2.7,-4.5 5.6,-8.9 8.6,-13.2 1.5,-2.2 3,-4.3 4.6,-6.4 0.6,-0.8 1.5,-2.7 2.4,-3.1 -1.8,2.3 -2,2.6 -0.7,0.9 0.5,-0.7 1.1,-1.4 1.6,-2.1 6.8,-8.5 14.2,-16.6 22,-24.2 3.6,-3.5 7.3,-6.9 11.1,-10.2 1.8,-1.6 3.6,-3.1 5.5,-4.6 1,-0.8 2,-1.6 3.1,-2.5 0.7,-0.5 1.4,-1.1 2.1,-1.6 -2.3,1.8 -2.6,2 -0.9,0.7 8.8,-6.5 17.9,-12.6 27.4,-18 4.6,-2.6 9.2,-5.1 14,-7.4 2.4,-1.2 4.8,-2.3 7.2,-3.4 1.2,-0.6 2.4,-1.1 3.6,-1.6 0.8,-0.4 1.6,-0.7 2.4,-1.1 -2.7,1.2 -3.1,1.3 -1.1,0.5 10,-3.9 20,-7.5 30.4,-10.2 5.2,-1.4 10.5,-2.6 15.8,-3.7 2.7,-0.5 5.3,-1 8,-1.5 1.3,-0.2 2.7,-0.4 4,-0.7 0.9,-0.1 1.8,-0.3 2.7,-0.4 2.2,-0.3 1.8,-0.3 -1.2,0.2 2,-1 6,-0.7 8.2,-0.9 2.8,-0.3 5.5,-0.5 8.3,-0.7 5.6,-0.4 11.2,-0.5 16.8,-0.5 -6.7,-6.7 -13.3,-13.3 -20,-20 0,20.9 0,41.8 0,62.7 0,33.5 0,67.1 0,100.6 0,7.7 0,15.3 0,23 0,10.5 9.2,20.5 20,20 10.8,-0.5 20,-8.8 20,-20 0,-20.9 0,-41.8 0,-62.7 0,-33.5 0,-67.1 0,-100.6 0,-7.7 0,-15.3 0,-23 0,-10.8 -9.2,-20 -20,-20 -48.9,0.1 -97.4,12.9 -139.8,37.3 -41.3,23.3 -76.3,57.8 -100.8,98.4 -25.2,41.7 -38.9,90.1 -39.9,138.7 -1,49.2 11.2,98.4 35,141.4 22.9,41.4 56.6,76.7 96.6,101.9 41.1,25.9 89.1,40.4 137.6,42.5 49.3,2.1 98.8,-9.4 142.4,-32.3 41.9,-22 77.7,-55.2 103.7,-94.7 26.7,-40.6 42,-88.1 45,-136.5 3.6,-57.2 -11.1,-115.7 -41.4,-164.4 -7.6,-12.2 -16.2,-23.7 -25.4,-34.7 -6.8,-8 -21.4,-7.5 -28.3,0 -7.9,8.8 -7.3,19.9 0,28.5 z"
           id="path8"
           inkscape:connector-curvature="0" /></g></g><g
       id="g18"><g
         id="g16"><path
           d="m 566.1,512 c 0,1.9 -0.1,3.7 -0.2,5.6 -0.1,0.7 -0.1,1.4 -0.2,2.1 -0.2,2.8 0.7,-4 0.2,-1.2 -0.6,3.3 -1.3,6.6 -2.3,9.9 -0.5,1.7 -1.1,3.4 -1.7,5.1 -1.2,3.3 1.7,-3.4 -0.4,0.7 -1.6,3.1 -3.3,6.2 -5.2,9.1 -0.4,0.5 -0.8,1.1 -1.1,1.6 -2.1,3.2 0.8,-0.9 0.8,-0.9 0,0.8 -2.3,2.8 -3,3.5 -2.3,2.6 -4.9,5 -7.5,7.3 -3.7,3.2 2.3,-1.4 -0.6,0.5 -1.5,1 -2.9,2 -4.4,2.9 -1.3,0.8 -2.7,1.6 -4,2.3 -0.8,0.4 -1.6,0.8 -2.4,1.2 -0.4,0.2 -0.8,0.4 -1.2,0.6 -1.4,0.6 -0.8,0.4 1.7,-0.7 -0.9,1.5 -7.2,2.5 -8.9,3 -1.5,0.4 -3.1,0.8 -4.6,1.1 -0.9,0.2 -1.8,0.3 -2.7,0.5 -2.6,0.5 5.1,-0.4 0.5,-0.1 -3.3,0.2 -6.5,0.4 -9.8,0.3 -1.6,-0.1 -3.9,-0.7 -5.5,-0.4 0,0 4.1,0.7 1.9,0.3 -1.1,-0.2 -2.2,-0.4 -3.4,-0.6 -3.3,-0.7 -6.5,-1.6 -9.7,-2.7 -0.6,-0.2 -1.2,-0.5 -1.9,-0.7 -3.6,-1.3 1.1,0.5 1.1,0.5 -0.4,0.3 -4.1,-2 -4.7,-2.3 -2.9,-1.6 -5.5,-3.5 -8.3,-5.2 -1.9,-1.2 1.6,1.1 1.4,1.1 -0.3,0 -1.7,-1.4 -2,-1.7 -1.5,-1.3 -2.9,-2.6 -4.3,-4 -1.1,-1.1 -2.1,-2.2 -3.1,-3.3 -0.8,-0.9 -3,-4.5 -1.8,-2 1.4,2.7 -1,-1.5 -1.5,-2.2 -1.1,-1.6 -2.1,-3.3 -3.1,-5.1 -0.7,-1.4 -1.4,-2.7 -2.1,-4.1 -1.8,-3.4 0.4,1.1 0.4,1.1 -0.3,-0.2 -0.9,-2.4 -1,-2.5 -1.2,-3.2 -2.1,-6.4 -2.8,-9.7 -0.2,-0.9 -0.4,-1.8 -0.5,-2.7 -0.2,-0.9 -0.1,-3.7 -0.2,-0.7 0,3 -0.1,-1.8 -0.2,-2.8 -0.2,-3.7 -0.1,-7.4 0.2,-11.2 0.3,-3.7 -0.8,4.3 0.1,-0.8 0.3,-1.6 0.6,-3.1 1,-4.6 0.5,-1.9 1.6,-9.2 3.3,-10.2 0,0 -2.2,4.5 -0.4,1.1 0.3,-0.6 0.6,-1.2 0.9,-1.8 0.7,-1.4 1.4,-2.7 2.2,-4.1 0.9,-1.5 1.8,-3 2.8,-4.4 0.2,-0.3 1.4,-2.1 1.5,-2.1 -0.2,0 -2.8,3.3 -0.7,0.9 2.2,-2.5 4.3,-4.9 6.7,-7.1 1.1,-1 2.3,-2 3.4,-3 2.3,-2 -0.9,0.5 -0.9,0.7 0,-0.3 1.9,-1.3 2.1,-1.5 2.7,-1.9 5.6,-3.5 8.5,-5 0.8,-0.4 1.6,-0.7 2.4,-1.1 2,-1.1 -1.8,0.9 -1.7,0.7 0.4,-0.8 4.8,-1.8 5.6,-2 3.2,-1 6.5,-1.7 9.9,-2.4 3.6,-0.7 -4.3,0.4 0.8,-0.1 1.9,-0.2 3.7,-0.2 5.6,-0.3 2.4,0 4.7,0.1 7.1,0.3 0.4,0 3.2,0.3 0.5,0 -3,-0.3 1.4,0.3 2,0.4 4.3,0.8 8.4,2.2 12.6,3.6 2.7,0.9 -3.1,-1.6 -0.6,-0.2 1.1,0.6 2.3,1.1 3.4,1.7 1.8,0.9 3.5,2 5.2,3 0.8,0.5 1.7,1.1 2.5,1.7 0.5,0.3 3.8,3 1.6,1.1 -1.9,-1.7 0,0 0.3,0.3 0.9,0.8 1.9,1.7 2.8,2.5 1.6,1.5 3.2,3.2 4.7,4.9 0.5,0.6 1,1.2 1.5,1.7 1.6,1.7 -1.8,-2.8 0.3,0.4 2.5,3.8 4.6,7.7 6.8,11.7 1.4,2.6 -1,-3.1 -0.1,-0.3 0.4,1.3 0.9,2.5 1.4,3.8 0.7,2.1 1.2,4.2 1.7,6.3 0.2,1.1 0.4,2.1 0.7,3.2 0.5,2.4 0.6,1.1 0,-0.4 1,1.7 0.6,5.6 0.6,7.9 0.1,10.5 9.1,20.5 20,20 10.7,-0.5 20.1,-8.8 20,-20 -0.5,-43.3 -31.3,-83.7 -74.6,-92 -38.8,-7.5 -78.1,8.7 -99.4,42.3 -19.7,31 -18.9,74 3,103.8 23,31.3 61.9,46.6 100,37.2 41.5,-10.2 70.7,-48.9 71.1,-91.3 0.1,-10.5 -9.3,-20.5 -20,-20 -11,0.5 -20,8.8 -20.1,20 z"
           id="path14"
           inkscape:connector-curvature="0" /></g></g></g></svg>