<?xml version="1.0" encoding="UTF-8" standalone="no"?>
<svg
   xmlns:dc="http://purl.org/dc/elements/1.1/"
   xmlns:cc="http://creativecommons.org/ns#"
   xmlns:rdf="http://www.w3.org/1999/02/22-rdf-syntax-ns#"
   xmlns:svg="http://www.w3.org/2000/svg"
   xmlns="http://www.w3.org/2000/svg"
   xmlns:sodipodi="http://sodipodi.sourceforge.net/DTD/sodipodi-0.dtd"
   xmlns:inkscape="http://www.inkscape.org/namespaces/inkscape"
   data-name="Layer 1"
   viewBox="0 0 50 50"
   x="0px"
   y="0px"
   version="1.1"
   id="svg14"
   sodipodi:docname="vehicle.svg"
   width="100"
   height="100"
   inkscape:version="0.92.3 (2405546, 2018-03-11)">
  <metadata
     id="metadata20">
    <rdf:RDF>
      <cc:Work
         rdf:about="">
        <dc:format>image/svg+xml</dc:format>
        <dc:type
           rdf:resource="http://purl.org/dc/dcmitype/StillImage" />
        <dc:title>Ecology_expand</dc:title>
      </cc:Work>
    </rdf:RDF>
  </metadata>
  <defs
     id="defs18" />
  <sodipodi:namedview
     pagecolor="#ffffff"
     bordercolor="#666666"
     borderopacity="1"
     objecttolerance="10"
     gridtolerance="10"
     guidetolerance="10"
     inkscape:pageopacity="0"
     inkscape:pageshadow="2"
     inkscape:window-width="1176"
     inkscape:window-height="911"
     id="namedview16"
     showgrid="false"
     scale-x="0.5"
     inkscape:zoom="3.9333333"
     inkscape:cx="38.213911"
     inkscape:cy="19.830508"
     inkscape:window-x="0"
     inkscape:window-y="27"
     inkscape:window-maximized="0"
     inkscape:current-layer="svg14" />
  <title
     id="title2">Ecology_expand</title>
  <path
     d="m 48.161068,30.037746 a 7.629,7.629 0 0 0 -3.226,-2.5 c -1.352,-0.6 -3.454,-1.49 -4,-1.721 a 43.778,43.778 0 0 0 -5.356,-4.484 l -0.316,-0.215 a 34.034,34.034 0 0 0 -7.854,-4.218 22.785,22.785 0 0 0 -6.284,-1.158 v 0 c -0.417,-0.027 -0.809,-0.048 -1.135,-0.06 -2.636,-0.09 -9.016,-0.088 -11.2230002,1.942 a 12.908,12.908 0 0 0 -3.18,4.282 c -0.427,0.815 -0.74,1.385 -0.958,1.775 -0.012,0.013 -0.027,0.021 -0.039,0.034 a 2.407,2.407 0 0 0 -0.4,0.763 0.738,0.738 0 0 0 -0.054,0.2 3.091,3.091 0 0 0 -0.1,0.368 3.42,3.42 0 0 0 0.108,1.71 1.122,1.122 0 0 0 0.109,0.2 l -0.035,1.551 a 7.311,7.311 0 0 0 -2.2,3.845 c -0.335,2.382 0.113,3.627 0.549,4.253 a 4.077,4.077 0 0 0 1.819,1.28 c 0,0.092 -0.027,0.179 -0.027,0.272 a 4.74,4.74 0 0 0 9.4230002,0.75 h 20.916 a 4.73,4.73 0 0 0 9.346,-0.022 c 0.467,0.02 1.05,0.042 1.411,0.043 v 0 a 3.507,3.507 0 0 0 3.239,-2.431 27.779,27.779 0 0 0 0.45,-3.661 4.873,4.873 0 0 0 -0.983,-2.798 z m -1.213,0.883 a 4.03,4.03 0 0 1 0.329,0.543 2.537,2.537 0 0 1 -1.768,-0.452 1.631,1.631 0 0 1 -0.478,-1.125 2.3,2.3 0 0 1 0.039,-0.6 5.7,5.7 0 0 1 1.874,1.634 z m -41.4540002,-4.931 a 2.609,2.609 0 0 1 0.026,-0.717 1.7,1.7 0 0 1 0.053,-0.233 c 0.032,-0.055 0.075,-0.127 0.138,-0.236 0.574,0.153 1.126,0.415 1.129,0.749 -0.036,0.067 -0.369,0.319 -1.346,0.437 z m 3.615,15.418 a 3.253,3.253 0 1 1 3.2490002,-3.252 3.255,3.255 0 0 1 -3.2490002,3.252 z m 30.2640002,0 a 3.253,3.253 0 1 1 3.249,-3.252 3.255,3.255 0 0 1 -3.249,3.252 z m 6.09,-3.982 v 0 c -0.363,0 -0.96,-0.024 -1.418,-0.044 a 4.731,4.731 0 0 0 -9.345,0.024 h -20.918 a 4.733,4.733 0 0 0 -9.0730002,-1.021 2.53,2.53 0 0 1 -0.909,-0.642 c -0.145,-0.208 -0.594,-1.054 -0.295,-3.187 a 6.191,6.191 0 0 1 1.939,-3.147 0.751,0.751 0 0 0 0.263,-0.554 l 0.037,-1.395 c 2.114,-0.278 2.6,-1.168 2.6,-1.9 0,-0.576 -0.271,-1.556 -1.883,-2.1 0.138,-0.257 0.287,-0.536 0.46,-0.865 a 11.4,11.4 0 0 1 2.859,-3.87 c 1.4690002,-1.353 6.3900002,-1.676 10.1540002,-1.547 0.149,0.006 0.292,0.015 0.439,0.022 v 7.047 a 3.274,3.274 0 0 0 3.27,3.271 h 14.051 a 0.75,0.75 0 0 0 0,-1.5 h -14.05 a 1.772,1.772 0 0 1 -1.77,-1.771 v -6.949 a 19.167,19.167 0 0 1 4.992,1 32.344,32.344 0 0 1 7.552,4.06 l 0.317,0.215 a 43.39,43.39 0 0 1 5.245,4.409 0.752,0.752 0 0 0 0.239,0.161 c 0,0 1.948,0.821 3.476,1.488 a 3.7,3.7 0 0 0 -0.16,1.363 3.077,3.077 0 0 0 1,2.157 4.019,4.019 0 0 0 3.111,0.776 28.637,28.637 0 0 1 -0.4,3.248 2.054,2.054 0 0 1 -1.783,1.251 z"
     id="path4"
     inkscape:connector-curvature="0" />
  <path
     d="m 2.6440678,28.975746 a 0.75,0.75 0 0 0 0.307,-1.435 0.517,0.517 0 0 1 -0.306,-0.472 v -5.09 A 12.114,12.114 0 0 1 14.745068,9.8787458 h 7.408 a 3.872,3.872 0 0 0 3.791,3.1180002 h 3.117 a 0.75,0.75 0 0 0 0.75,-0.75 v -0.962 h 2.172 a 0.75,0.75 0 0 0 0,-1.5000002 h -2.172 v -1.311 h 2.172 a 0.75,0.75 0 1 0 0,-1.5 h -2.172 v -0.962 a 0.75,0.75 0 0 0 -0.75,-0.75 h -3.117 a 3.872,3.872 0 0 0 -3.792,3.117 h -7.408 A 13.615,13.615 0 0 0 1.1440678,21.978746 v 5.09 a 2.02,2.02 0 0 0 1.192,1.841 0.745,0.745 0 0 0 0.308,0.066 z M 25.944068,6.7617458 h 2.367 v 4.7350002 h -2.367 a 2.368,2.368 0 1 1 0,-4.7350002 z"
     id="path6"
     inkscape:connector-curvature="0" />
  <path
     d="M 19.644068,26.017746 H 9.5110678 a 0.75,0.75 0 0 0 0,1.5 H 19.644068 a 0.75,0.75 0 1 0 0,-1.5 z"
     id="path8"
     inkscape:connector-curvature="0" />
</svg>
