<?xml version="1.0" encoding="UTF-8" standalone="no"?>
<svg
   xmlns:dc="http://purl.org/dc/elements/1.1/"
   xmlns:cc="http://creativecommons.org/ns#"
   xmlns:rdf="http://www.w3.org/1999/02/22-rdf-syntax-ns#"
   xmlns:svg="http://www.w3.org/2000/svg"
   xmlns="http://www.w3.org/2000/svg"
   xmlns:sodipodi="http://sodipodi.sourceforge.net/DTD/sodipodi-0.dtd"
   xmlns:inkscape="http://www.inkscape.org/namespaces/inkscape"
   viewBox="0 0 72 72"
   version="1.1"
   x="0px"
   y="0px"
   id="svg22"
   sodipodi:docname="virtual-object-white.svg"
   width="72"
   height="72"
   inkscape:version="0.92.3 (2405546, 2018-03-11)"
   inkscape:export-filename="/home/ed/Téléchargements/virtual-object.png"
   inkscape:export-xdpi="274"
   inkscape:export-ydpi="274">
  <metadata
     id="metadata28">
    <rdf:RDF>
      <cc:Work
         rdf:about="">
        <dc:format>image/svg+xml</dc:format>
        <dc:type
           rdf:resource="http://purl.org/dc/dcmitype/StillImage" />
        <dc:title>057 - Three Dimentional Object </dc:title>
      </cc:Work>
    </rdf:RDF>
  </metadata>
  <defs
     id="defs26" />
  <sodipodi:namedview
     pagecolor="#ffffff"
     bordercolor="#666666"
     borderopacity="1"
     objecttolerance="10"
     gridtolerance="10"
     guidetolerance="10"
     inkscape:pageopacity="0"
     inkscape:pageshadow="2"
     inkscape:window-width="1920"
     inkscape:window-height="1052"
     id="namedview24"
     showgrid="false"
     inkscape:zoom="3.1466667"
     inkscape:cx="29.840218"
     inkscape:cy="18.556559"
     inkscape:window-x="0"
     inkscape:window-y="0"
     inkscape:window-maximized="1"
     inkscape:current-layer="svg22" />
  <title
     id="title2">057 - Three Dimentional Object </title>
  <desc
     id="desc4">Created with Sketch.</desc>
  <g
     id="g16"
     style="fill:#f9f9f9;fill-rule:evenodd;stroke:none;stroke-width:1"
     transform="translate(6,5)">
    <g
       id="g14"
       style="fill:#f9f9f9;fill-rule:nonzero">
      <path
         d="M 60,28.496089 C 60,12.7832 46.542,0 30,0 13.458,0 0,12.7832 0,28.496089 c 0,13.13379 9.36426,24.50879 22.77148,27.66211 0.348373,0.08305 0.714563,-0.02652 0.960065,-0.287266 0.245502,-0.260749 0.332834,-0.63287 0.228965,-0.975613 C 23.856641,54.552578 23.577428,54.291539 23.22848,54.210939 10.72949,51.271479 2,40.697269 2,28.496089 2,13.88574 14.56055,2 30,2 c 15.43945,0 28,11.88574 28,26.496089 0,13.50983 -10.50287,24.60083 -24.36157,26.275 l 2.06762,-2.06309 c 0.388976,-0.390292 0.388878,-1.021716 -2.19e-4,-1.411887 -0.389097,-0.390172 -1.020518,-0.392011 -1.411881,-0.0041 l -3.99213,3.98432 c -0.101515,0.101914 -0.179583,0.224741 -0.22876,0.35992 -0.02393,0.07921 -0.03767,0.161153 -0.04089,0.24384 -0.0101,0.04203 -0.01726,0.08471 -0.02143,0.12774 2.5e-4,0.0086 0.0051,0.01563 0.0056,0.02417 0.0011,0.02771 -0.012,0.05353 -0.0085,0.0813 0.03627,0.100099 0.07255,0.200195 0.10883,0.30029 0.04482,0.09209 0.104174,0.176357 0.17578,0.24958 0.01776,0.01861 0.03528,0.03546 0.05444,0.05261 0.04131,0.04875 0.08738,0.09326 0.13752,0.13287 l 5,3.00782 c 0.155125,0.09415 0.333161,0.143805 0.51462,0.14354 0.449247,3e-4 0.843545,-0.299048 0.963984,-0.73185 0.12044,-0.432802 -0.06255,-0.892796 -0.447374,-1.1246 l -2.36219,-1.42132 C 48.87573,54.816889 60,42.942499 60,28.496089 Z"
         id="path6"
         inkscape:connector-curvature="0"
         style="fill:#f9f9f9" />
      <polygon
         points="29,47.314 29,28.273 13,19.546 13,38.567 "
         id="polygon8"
         style="fill:#f9f9f9" />
      <polygon
         points="14.066,17.85 30,26.541 45.934,17.85 30,9.14 "
         id="polygon10"
         style="fill:#f9f9f9" />
      <path
         d="M 47,38.56738 V 19.54608 L 31,28.27319 V 47.31372 Z M 42.08008,24.62012 c 0.05058,-0.121239 0.121617,-0.232889 0.21,-0.33008 0.236007,-0.234392 0.573262,-0.335826 0.89941,-0.27051 0.06633,0.0098 0.130641,0.03021 0.19043,0.06055 0.0615,0.01968 0.119029,0.0501 0.16992,0.08984 0.05735,0.03445 0.111015,0.07469 0.16016,0.12008 0.08838,0.09719 0.159416,0.208841 0.21,0.33008 0.106773,0.241999 0.106773,0.517761 0,0.75976 -0.09103,0.251164 -0.288836,0.448972 -0.54,0.54 -0.372039,0.159711 -0.803847,0.07658 -1.09,-0.20984 -0.08818,-0.09735 -0.159185,-0.208962 -0.21,-0.33008 -0.106773,-0.241999 -0.106773,-0.517761 0,-0.75976 z m 0,4 c 0.05058,-0.121239 0.121617,-0.232889 0.21,-0.33008 0.236007,-0.234392 0.573262,-0.335826 0.89941,-0.27051 0.06633,0.0098 0.130641,0.03021 0.19043,0.06055 0.0615,0.01968 0.119029,0.0501 0.16992,0.08984 0.05958,0.04 0.11036,0.08008 0.16016,0.12012 0.08838,0.09719 0.159416,0.208841 0.21,0.33008 0.159615,0.372038 0.07643,0.803786 -0.21,1.08988 -0.09735,0.08818 -0.208962,0.159185 -0.33008,0.21 -0.241999,0.106773 -0.517761,0.106773 -0.75976,0 -0.122445,-0.04824 -0.234497,-0.119533 -0.33008,-0.21 -0.286408,-0.286087 -0.369597,-0.717813 -0.21,-1.08984 z m 0,4 c 0.169736,-0.447559 0.641819,-0.703135 1.10937,-0.60059 0.06633,0.0098 0.130641,0.03021 0.19043,0.06055 0.0615,0.01968 0.119029,0.05009 0.16992,0.08984 0.05736,0.03445 0.111042,0.07469 0.1602,0.12008 0.08838,0.09719 0.159416,0.208841 0.21,0.33008 0.178574,0.418735 0.05183,0.905236 -0.308361,1.18361 -0.360189,0.278373 -0.862929,0.278373 -1.223118,0 -0.360189,-0.278374 -0.486935,-0.764875 -0.308361,-1.18361 z M 42.29,36.29 c 0.238454,-0.230249 0.573506,-0.331021 0.89941,-0.27051 0.06633,0.0098 0.130641,0.03021 0.19043,0.06055 0.0615,0.01968 0.119029,0.0501 0.16992,0.08984 0.05738,0.03446 0.111071,0.07471 0.16024,0.12012 0.182538,0.19176 0.286088,0.44528 0.29,0.71 0,0.552285 -0.447715,1 -1,1 -0.552285,0 -1,-0.447715 -1,-1 0.0035,-0.264812 0.107078,-0.518488 0.29,-0.71 z m -4,-10 c 0.28609,-0.28846 0.718267,-0.375162 1.093482,-0.219371 C 39.758696,26.22642 40.002363,26.593735 40,27 c 0.0035,0.334561 -0.162314,0.648229 -0.4407,0.83382 -0.278386,0.185591 -0.631689,0.21798 -0.93918,0.0861 -0.121239,-0.05058 -0.232889,-0.121617 -0.33008,-0.21 C 38.101858,27.521891 37.997316,27.266008 38,27 c 0.0035,-0.264812 0.107078,-0.518488 0.29,-0.71 z m -0.21,4.33008 c 0.04824,-0.122445 0.119533,-0.234497 0.21,-0.33008 0.400946,-0.370128 1.018974,-0.370128 1.41992,0 0.08838,0.09719 0.159416,0.208841 0.21,0.33008 0.106773,0.241999 0.106773,0.517761 0,0.75976 -0.09103,0.251164 -0.288836,0.448972 -0.54,0.54 -0.241999,0.106773 -0.517761,0.106773 -0.75976,0 -0.121239,-0.05058 -0.232889,-0.121617 -0.33008,-0.21 C 38.2022,31.61009 38.127983,31.499087 38.06938,31.37976 38.021528,31.258961 37.997952,31.129915 38,31 c -0.0037,-0.131172 0.02379,-0.261346 0.08008,-0.37988 z m 0,4 c 0.04824,-0.122445 0.119533,-0.234498 0.21,-0.33008 0.400946,-0.370128 1.018974,-0.370128 1.41992,0 0.09047,0.09558 0.161756,0.207635 0.21,0.33008 0.159654,0.372033 0.0765,0.8038 -0.20992,1.08992 -0.09735,0.08818 -0.208962,0.159185 -0.33008,0.21 -0.241999,0.106773 -0.517761,0.106773 -0.75976,0 C 38.498921,35.86942 38.387271,35.798383 38.29008,35.71 38.101864,35.521958 37.997305,35.266041 38,35 37.9963,34.868828 38.02379,34.738654 38.08008,34.62012 Z M 38.29,38.29 c 0.28609,-0.28846 0.718267,-0.375162 1.093482,-0.219371 C 39.758696,38.22642 40.002363,38.593735 40,39 c 0.0023,0.265943 -0.102198,0.521689 -0.29,0.71 -0.09735,0.08818 -0.208962,0.159185 -0.33008,0.21 -0.241999,0.106773 -0.517761,0.106773 -0.75976,0 C 38.498921,39.86942 38.387271,39.798383 38.29008,39.71 38.101864,39.521958 37.997305,39.266041 38,39 c 0.0014,-0.26522 0.105343,-0.519618 0.29,-0.71 z m -4,-10 c 0.28609,-0.28846 0.718267,-0.375162 1.093482,-0.219371 C 35.758696,28.22642 36.002363,28.593735 36,29 c -0.0016,0.130644 -0.02881,0.259705 -0.08008,0.37988 -0.09103,0.251164 -0.288836,0.448972 -0.54,0.54 -0.241999,0.106773 -0.517761,0.106773 -0.75976,0 -0.121239,-0.05058 -0.232889,-0.121617 -0.33008,-0.21 -0.08818,-0.09735 -0.159185,-0.208962 -0.21,-0.33008 C 34.023799,29.26129 33.996358,29.131145 34,29 c 0.0035,-0.264812 0.107078,-0.518488 0.29,-0.71 z m 0,4 c 0.09394,-0.09255 0.206444,-0.164123 0.33008,-0.21 0.372398,-0.156086 0.802104,-0.07329 1.08984,0.21 0.182567,0.191748 0.286146,0.445269 0.29008,0.71 0.0023,0.265943 -0.102198,0.521689 -0.29,0.71 -0.09735,0.08818 -0.208962,0.159185 -0.33008,0.21 -0.241999,0.106773 -0.517761,0.106773 -0.75976,0 C 34.498921,33.86942 34.387271,33.798383 34.29008,33.71 34.101864,33.521958 33.997305,33.266041 34,33 c 0.0014,-0.26522 0.105343,-0.519618 0.29,-0.71 z m -0.21,4.33008 c 0.04824,-0.122445 0.119533,-0.234498 0.21,-0.33008 0.400946,-0.370128 1.018974,-0.370128 1.41992,0 0.08838,0.09719 0.159416,0.208841 0.21,0.33008 0.106773,0.241999 0.106773,0.517761 0,0.75976 -0.05082,0.121118 -0.121824,0.232731 -0.21,0.33008 -0.286087,0.286408 -0.717813,0.369597 -1.08984,0.21 C 34.498841,37.86934 34.387191,37.798303 34.29,37.70992 34.20182,37.61257 34.130815,37.500958 34.08,37.37984 34.023741,37.261311 33.996327,37.131152 34,37 c 0.0016,-0.130644 0.02881,-0.259705 0.08008,-0.37988 z M 34.29,40.29 c 0.28609,-0.28846 0.718267,-0.375162 1.093482,-0.219371 C 35.758696,40.22642 36.002363,40.593735 36,41 c 0.0023,0.265943 -0.102198,0.521689 -0.29,0.71 -0.09735,0.08818 -0.208962,0.159185 -0.33008,0.21 -0.241999,0.106773 -0.517761,0.106773 -0.75976,0 C 34.498921,41.86942 34.387271,41.798383 34.29008,41.71 34.101864,41.521958 33.997305,41.266041 34,41 c 0.0035,-0.264812 0.107078,-0.518488 0.29,-0.71 z"
         id="path12"
         inkscape:connector-curvature="0"
         style="fill:#f9f9f9" />
    </g>
  </g>
</svg>
