<?xml version="1.0" encoding="UTF-8" standalone="no"?>
<svg
   xmlns:dc="http://purl.org/dc/elements/1.1/"
   xmlns:cc="http://creativecommons.org/ns#"
   xmlns:rdf="http://www.w3.org/1999/02/22-rdf-syntax-ns#"
   xmlns:svg="http://www.w3.org/2000/svg"
   xmlns="http://www.w3.org/2000/svg"
   xmlns:sodipodi="http://sodipodi.sourceforge.net/DTD/sodipodi-0.dtd"
   xmlns:inkscape="http://www.inkscape.org/namespaces/inkscape"
   version="1.1"
   x="0px"
   y="0px"
   viewBox="0 0 89 89"
   enable-background="new 0 0 100 100"
   xml:space="preserve"
   id="svg28"
   sodipodi:docname="weather-station.svg"
   width="100"
   height="100"
   inkscape:version="0.92.3 (2405546, 2018-03-11)"><metadata
     id="metadata34"><rdf:RDF><cc:Work
         rdf:about=""><dc:format>image/svg+xml</dc:format><dc:type
           rdf:resource="http://purl.org/dc/dcmitype/StillImage" /><dc:title></dc:title></cc:Work></rdf:RDF></metadata><defs
     id="defs32" /><sodipodi:namedview
     pagecolor="#ffffff"
     bordercolor="#666666"
     borderopacity="1"
     objecttolerance="10"
     gridtolerance="10"
     guidetolerance="10"
     inkscape:pageopacity="0"
     inkscape:pageshadow="2"
     inkscape:window-width="1044"
     inkscape:window-height="722"
     id="namedview30"
     showgrid="false"
     scale-x="0.9"
     inkscape:zoom="1.888"
     inkscape:cx="50"
     inkscape:cy="62.5"
     inkscape:window-x="0"
     inkscape:window-y="27"
     inkscape:window-maximized="0"
     inkscape:current-layer="svg28" /><path
     d="m 56.567644,47.767327 c -2.625252,0 -2.625252,-3.993103 0,-3.993103 h 4.239479 c 1.30838,-0.688172 2.421348,-1.690693 3.211479,-2.897122 3.347405,-5.123062 -0.04248,-11.885845 -6.3125,-12.599506 -2.684723,-0.305855 -0.790127,-3.364399 -4.681274,-6.499407 -4.230988,-3.415375 -11.121209,-2.497812 -13.77195,3.619278 -1.095978,2.523298 -3.806187,0.263374 -4.05257,0.16992 -2.293911,-0.841101 -4.485867,1.172443 -3.984604,3.160496 0.339836,1.376346 -0.543743,2.489315 -1.750168,2.582771 -4.936154,0.390816 -7.561403,6.074612 -4.885178,10.203648 0.620205,0.960041 1.486794,1.741668 2.497814,2.259922 1.818135,0.433296 7.187581,-1.265896 7.187581,1.996551 0,1.104473 -0.892075,1.996552 -1.996552,1.996552 -1.503784,0 -5.675301,0.212398 -6.584368,-0.237888 -9.39653,-4.698266 -7.365995,-17.365738 1.495291,-19.846558 0.331341,-4.511354 5.046597,-7.459452 9.39653,-5.862213 5.63282,-9.150147 19.804077,-7.425467 22.973068,2.727203 10.942795,2.48082 13.86541,17.212811 2.684723,22.973072 -0.883575,0.450287 -4.247978,0.246384 -5.666801,0.246384 z"
     id="path2"
     inkscape:connector-curvature="0" /><path
     d="m 44.41842,35.09985 c 2.557286,0 2.005047,3.13501 2.005047,5.437416 0,2.633747 -4.01009,2.633747 -4.01009,0 0,-2.285416 -0.552238,-5.437416 2.005043,-5.437416 z"
     id="path4"
     inkscape:connector-curvature="0" /><path
     d="m 44.41842,45.566872 c 2.557286,0 2.005047,3.13501 2.005047,5.437412 0,2.633747 -4.01009,2.633747 -4.01009,0 0,-2.285412 -0.552238,-5.437412 2.005043,-5.437412 z"
     id="path6"
     inkscape:connector-curvature="0" /><path
     d="m 51.147222,31.854397 c 2.565777,0 2.013542,3.135006 2.013542,5.428917 0,2.642242 -4.010093,2.642242 -4.010093,0 0,-2.276916 -0.552239,-5.428917 1.996551,-5.428917 z"
     id="path8"
     inkscape:connector-curvature="0" /><path
     d="m 37.681127,41.590763 c 2.557282,0 2.005047,3.143506 2.005047,5.437413 0,2.633747 -4.001598,2.633747 -4.001598,0 0,-2.285412 -0.552235,-5.437413 1.996551,-5.437413 z"
     id="path10"
     inkscape:connector-curvature="0" /><path
     d="m 37.681127,31.854397 c 2.557282,0 2.005047,3.135006 2.005047,5.428917 0,2.642242 -4.001598,2.642242 -4.001598,0 0,-2.276916 -0.552235,-5.428917 1.996551,-5.428917 z"
     id="path12"
     inkscape:connector-curvature="0" /><path
     d="m 51.147222,41.590763 c 2.565777,0 2.013542,3.143506 2.013542,5.437413 0,2.633747 -4.010093,2.633747 -4.010093,0 0,-2.285412 -0.552239,-5.437413 1.996551,-5.437413 z"
     id="path14"
     inkscape:connector-curvature="0" /><path
     d="m 44.41842,70.961293 c 5.760262,0 5.751767,8.487465 0,8.487465 -5.751766,0 -5.760257,-8.487465 0,-8.487465 z"
     id="path16"
     inkscape:connector-curvature="0" /><path
     d="m 22.473362,72.04028 c 11.868852,0 11.495031,-0.985535 11.495031,4.32444 0,1.104477 -0.892075,1.996551 -1.996552,1.996551 -11.868852,0 -11.495031,0.994026 -11.495031,-4.315948 0,-1.10447 0.900572,-2.005043 1.996552,-2.005043 z"
     id="path18"
     inkscape:connector-curvature="0" /><path
     d="m 56.550649,72.04028 c 11.868855,0 11.495037,-0.985535 11.495037,4.32444 0,1.104477 -0.892082,1.996551 -1.996551,1.996551 -11.868858,0 -11.495033,0.994026 -11.495033,-4.315948 0,-1.10447 0.892074,-2.005043 1.996547,-2.005043 z"
     id="path20"
     inkscape:connector-curvature="0" /><path
     d="m 78.291811,65.600346 v 12.251167 c 0,5.012619 -4.324448,8.954743 -9.371048,8.954743 H 19.916078 c -5.0466,0 -9.362547,-3.942124 -9.362547,-8.954743 V 9.8073833 c 0,-5.021112 4.315947,-8.95474119 9.362547,-8.95474119 h 49.004685 c 5.0466,0 9.371048,3.94212519 9.371048,8.95474119 z M 14.546632,63.595295 H 74.290208 V 9.8073833 c 0,-2.820658 -2.514801,-4.953144 -5.369445,-4.953144 H 19.916078 c -2.854643,0 -5.369446,2.132486 -5.369446,4.953144 z M 74.290208,77.851513 V 67.59689 H 14.546632 v 10.254623 c 0,2.820664 2.514803,4.953148 5.369446,4.953148 h 49.004685 c 2.854644,0 5.369445,-2.132484 5.369445,-4.953148 z"
     id="path22"
     inkscape:connector-curvature="0" /></svg>